<?xml version="1.0" standalone="no"?>
<!DOCTYPE svg PUBLIC "-//W3C//DTD SVG 1.1//EN" "http://www.w3.org/Graphics/SVG/1.1/DTD/svg11.dtd" >
<svg xmlns="http://www.w3.org/2000/svg">
<metadata></metadata>
<defs>
<font id="adagio_slabmedium" horiz-adv-x="1218" >
<font-face units-per-em="2048" ascent="1638" descent="-410" />
<missing-glyph horiz-adv-x="448" />
<glyph horiz-adv-x="0" />
<glyph horiz-adv-x="682" />
<glyph unicode=" "  horiz-adv-x="448" />
<glyph unicode="&#x09;" horiz-adv-x="448" />
<glyph unicode="&#xa0;" horiz-adv-x="448" />
<glyph unicode="!" horiz-adv-x="483" d="M90 131q0 38 57 95t95 57t94.5 -57t56.5 -95t-56.5 -94.5t-94.5 -56.5t-95 56.5t-57 94.5zM129 1102v270h225v-270l-30 -678h-164z" />
<glyph unicode="&#x22;" horiz-adv-x="780" d="M139 1434h183l-5 -473h-122zM459 1434h184l-6 -473h-123z" />
<glyph unicode="#" horiz-adv-x="1271" d="M0 313v189h201l51 348h-189v190h218l49 332h211l-52 -332h406l49 332h211l-51 -332h168v-190h-195l-53 -348h186v-189h-213l-47 -313h-211l47 313h-403l-47 -313h-211l47 313h-172zM410 502h405l51 348h-403z" />
<glyph unicode="$" horiz-adv-x="1069" d="M111 1014q0 142 77.5 239t225.5 127v197h225v-191q120 -14 250 -83v-326q-31 -6 -79 -6t-79 6l-20 201q-83 26 -164 26q-108 0 -159.5 -43.5t-51.5 -136.5q0 -57 34.5 -100t89 -72.5t121 -57.5t133 -62.5t121 -79t89 -116.5t34.5 -165q0 -151 -83 -248t-236 -129v-178 h-225v166q-151 15 -293 88v327q31 5 79 5t79 -5l20 -198q92 -29 186 -29q113 0 179.5 49t66.5 148q0 53 -26.5 95t-70 68t-99.5 53t-114 49t-114 56.5t-99.5 74.5t-70 105t-26.5 146z" />
<glyph unicode="%" horiz-adv-x="1777" d="M92 1036q0 168 88 262.5t244 94.5q155 0 242.5 -95t87.5 -262t-87.5 -261.5t-242.5 -94.5q-157 0 -244.5 94.5t-87.5 261.5zM283 55l1132 1432l131 -109l-1134 -1431zM287 1036q0 -207 137 -207q135 0 135 207q0 209 -135 209q-137 0 -137 -209zM1024 334 q0 167 87.5 261.5t244.5 94.5q155 0 242.5 -94.5t87.5 -261.5t-87.5 -262t-242.5 -95q-156 0 -244 94.5t-88 262.5zM1219 334q0 -207 137 -207q135 0 135 207q0 209 -135 209q-137 0 -137 -209z" />
<glyph unicode="&#x26;" horiz-adv-x="1298" d="M100 371q0 226 205 389q-100 148 -100 274q0 161 112 260t314 99q96 0 173.5 -23t162.5 -67v-326q-31 -6 -79 -6t-79 6l-21 201q-83 26 -157 26q-195 0 -195 -164q0 -105 105 -240t372 -388q39 109 39 239h215q0 -217 -96 -389q30 -27 89.5 -81t84.5 -77v-104h-190 l-113 104q-149 -124 -358 -124q-80 0 -151.5 15t-132.5 46.5t-105.5 77t-69.5 110t-25 142.5zM334 381q0 -106 66 -158.5t184 -52.5q127 0 213 70q-272 256 -371 368q-92 -98 -92 -227z" />
<glyph unicode="'" horiz-adv-x="460" d="M139 1434h183l-5 -473h-122z" />
<glyph unicode="(" horiz-adv-x="569" d="M78 711q0 253 73 512.5t209 482.5l158 -20q-215 -483 -215 -975q0 -488 215 -975l-158 -21q-137 227 -209.5 481t-72.5 515z" />
<glyph unicode=")" horiz-adv-x="569" d="M68 -264q213 482 213 975q0 496 -213 975l157 20q136 -223 209.5 -482.5t73.5 -512.5q0 -261 -72.5 -515t-210.5 -481z" />
<glyph unicode="*" horiz-adv-x="989" d="M57 1069l56 154l331 -154l-36 -96zM184 684l224 289l86 -55l-170 -322zM412 1434h166l-33 -365h-101zM494 918l88 55l221 -289l-137 -88zM545 1069l332 154l55 -154l-350 -96z" />
<glyph unicode="+" horiz-adv-x="1003" d="M51 561v164h377v377h164v-377h377v-164h-377v-377l-164 2v375h-377z" />
<glyph unicode="," horiz-adv-x="491" d="M88 139q0 40 59 99t99 59t100 -59t60 -99q0 -227 -142 -444l-121 31q68 131 86 260q-45 18 -93 68.5t-48 84.5z" />
<glyph unicode="-" horiz-adv-x="876" d="M111 483v191h655v-191h-655z" />
<glyph unicode="." horiz-adv-x="491" d="M88 139q0 40 59 99t99 59t100 -59t60 -99t-60 -99.5t-100 -59.5t-99 59.5t-59 99.5z" />
<glyph unicode="/" horiz-adv-x="901" d="M68 -164l614 1680h188l-614 -1680h-188z" />
<glyph unicode="0" horiz-adv-x="1228" d="M113 666q0 157 27 281.5t72.5 207t110.5 137t137 78t154 23.5q105 0 192.5 -39t158.5 -122t111 -227t40 -339q0 -144 -26.5 -260.5t-72.5 -195t-110.5 -131t-137 -76t-155.5 -23.5q-103 0 -191 38.5t-158.5 118t-111 215t-40.5 314.5zM348 666q0 -241 69 -368.5 t197 -127.5t197.5 128t69.5 368q0 270 -68.5 404t-198.5 134q-129 0 -197.5 -134t-68.5 -404z" />
<glyph unicode="1" horiz-adv-x="870" d="M150 1155v176l325 41h129v-1210l144 -21q13 -66 0 -141h-515q-10 75 0 141l146 21v1014z" />
<glyph unicode="2" horiz-adv-x="1112" d="M102 0v121q232 231 367.5 398.5t190.5 283.5t55 217q0 184 -226 184q-81 0 -161 -26l-21 -201q-32 -6 -80.5 -6t-79.5 6v326q85 43 170 66.5t203 23.5q217 0 322.5 -88t105.5 -271q0 -172 -115.5 -359t-392.5 -464l-41 -16v-5h396l14 158q82 11 160 0v-348h-867z" />
<glyph unicode="3" horiz-adv-x="1095" d="M139 49v213q143 -92 326 -92q135 0 206.5 54.5t71.5 160.5q0 131 -88.5 183.5t-275.5 52.5h-37l20 182h17q160 0 244 56t84 153q0 192 -226 192q-62 0 -143 -24l-21 -203q-31 -6 -78.5 -6t-78.5 6v326q85 43 166 66.5t186 23.5q201 0 311.5 -98t110.5 -271 q0 -64 -22.5 -120.5t-57 -92.5t-69.5 -58t-66 -28v-4q26 -5 56.5 -17t67.5 -39t66.5 -63.5t49.5 -94t20 -126.5q0 -96 -37.5 -173.5t-103.5 -126.5t-153.5 -75t-188.5 -26q-222 0 -357 69z" />
<glyph unicode="4" horiz-adv-x="1177" d="M78 518l530 854h328v-823h166l-10 -191h-156v-196l143 -21q10 -66 0 -141h-514q-13 75 0 141l146 21v196h-588zM313 549h398v692h-4l-25 -88l-369 -600v-4z" />
<glyph unicode="5" horiz-adv-x="1163" d="M154 49v213q67 -43 163 -67.5t185 -24.5q141 0 219 62.5t78 189.5q0 109 -67 169t-202 60q-182 0 -354 -49l82 770h715v-325q-31 -6 -79 -6t-79 6l-14 137h-346l-43 -359q96 15 161 15q94 0 174.5 -23.5t146 -71.5t103 -130.5t37.5 -192.5q0 -107 -41 -193t-111 -139.5 t-159.5 -81.5t-190.5 -28q-243 0 -378 69z" />
<glyph unicode="6" horiz-adv-x="1175" d="M123 584q0 201 61.5 356.5t173 254t261.5 148.5t333 50v-189q-245 0 -398.5 -122.5t-193.5 -338.5q66 70 150 100.5t166 30.5q56 0 109 -13t106.5 -45.5t93 -81.5t64 -127t24.5 -175q0 -90 -24.5 -165t-68 -127.5t-102 -89t-125.5 -53.5t-141 -17q-105 0 -190 31.5 t-154 99.5t-107 188.5t-38 284.5zM360 528q14 -358 252 -358q110 0 172 65t62 193q0 124 -65 190t-163 66q-70 0 -140 -36t-118 -120z" />
<glyph unicode="7" horiz-adv-x="1030" d="M78 1026v346h895v-121l-520 -1271l-232 20l492 1163l41 17v4h-504l-14 -158q-31 -6 -79 -6t-79 6z" />
<glyph unicode="8" horiz-adv-x="1236" d="M141 371q0 66 21 122.5t51 93.5t69.5 66.5t68 44t55.5 23.5v4q-33 14 -65.5 36.5t-69.5 59.5t-60 92.5t-23 120.5q0 111 60 194t156.5 124t213.5 41t214 -41t157 -124t60 -194q0 -65 -23 -120.5t-60 -92.5t-69.5 -59.5t-65.5 -36.5v-4q27 -9 55.5 -23.5t68 -44 t69.5 -66.5t51 -93.5t21 -122.5q0 -101 -42 -179t-112 -122.5t-152 -67t-172 -22.5q-71 0 -137.5 13.5t-129 43.5t-108.5 74.5t-74 111.5t-28 148zM377 383q0 -106 68 -159.5t173 -53.5t173.5 53.5t68.5 159.5q0 97 -68.5 159.5t-173.5 84.5q-105 -22 -173 -84.5t-68 -159.5 zM410 1022q0 -179 208 -227q209 48 209 227q0 84 -56.5 133t-152.5 49t-152 -49t-56 -133z" />
<glyph unicode="9" horiz-adv-x="1175" d="M102 940q0 111 37.5 199.5t102.5 143t146.5 82.5t174.5 28q83 0 154 -19t134 -63.5t107 -112.5t69.5 -172.5t25.5 -237.5q0 -200 -61.5 -355.5t-173.5 -253.5t-262 -148.5t-333 -50.5v190q245 0 397.5 121.5t194.5 337.5q-67 -70 -151 -100.5t-164 -30.5q-56 0 -109.5 13 t-106.5 45.5t-92.5 81.5t-64.5 127t-25 175zM330 946q0 -126 64.5 -192t162.5 -66q69 0 139.5 36t118.5 120q-14 360 -252 360q-110 0 -171.5 -65t-61.5 -193z" />
<glyph unicode=":" horiz-adv-x="512" d="M88 139q0 40 59 99t99 59t100 -59t60 -99t-60 -99.5t-100 -59.5t-99 59.5t-59 99.5zM88 836q0 40 59 98.5t99 58.5t100 -58.5t60 -98.5t-60 -100t-100 -60t-99 60t-59 100z" />
<glyph unicode=";" horiz-adv-x="491" d="M88 139q0 40 59 99t99 59t100 -59t60 -99q3 -222 -142 -444l-121 31q68 131 86 260q-45 18 -93 68.5t-48 84.5zM88 836q0 40 59 98.5t99 58.5t100 -58.5t60 -98.5t-60 -100t-100 -60t-99 60t-59 100z" />
<glyph unicode="&#x3c;" horiz-adv-x="978" d="M82 561v164l792 373l3 -221l-578 -222l-41 -10v-4l41 -10l578 -221l-3 -222z" />
<glyph unicode="=" horiz-adv-x="1019" d="M61 387v164h897v-164h-897zM61 735v164h897v-164h-897z" />
<glyph unicode="&#x3e;" horiz-adv-x="978" d="M102 410l580 221l41 10v4l-41 10l-580 222l2 221l793 -373v-164l-793 -373z" />
<glyph unicode="?" horiz-adv-x="1005" d="M102 977v326q85 43 170 66.5t203 23.5q428 0 428 -338q0 -56 -20.5 -108t-53 -93t-71.5 -80.5t-78 -78.5t-71.5 -79t-53 -89.5t-20.5 -102.5h-164q0 92 31 168t74.5 127.5t87.5 98t75 102.5t31 120q0 80 -58 122t-168 42q-81 0 -161 -26l-21 -201q-32 -6 -80.5 -6 t-79.5 6zM301 131q0 38 57 95t95 57t94.5 -57t56.5 -95t-56.5 -94.5t-94.5 -56.5t-95 56.5t-57 94.5z" />
<glyph unicode="@" horiz-adv-x="2125" d="M123 492q0 200 69 373t193 299t307.5 198t401.5 72q174 0 321.5 -44t254 -122t181.5 -184.5t111.5 -233t36.5 -266.5q0 -137 -35 -246t-96 -177.5t-140 -104.5t-169 -36q-196 0 -281 103q-137 -103 -274 -103q-167 0 -270 128t-103 348q0 224 112 348.5t320 124.5 q81 0 182.5 -25t192.5 -76v-546q0 -32 5 -56t17.5 -47t39.5 -35t67 -12q95 0 156 98t61 314q0 108 -23.5 205.5t-76.5 186t-131.5 152.5t-196 102t-262.5 38q-172 0 -313.5 -57.5t-237 -160.5t-147.5 -246t-52 -312q0 -342 201 -544t549 -202q268 0 467 70v-156 q-230 -80 -467 -80q-292 0 -513.5 116.5t-339.5 323t-118 472.5zM846 496q0 -153 55 -234.5t162 -81.5q82 0 170 56q-2 6 -2 20v528q-76 25 -164 25q-107 0 -164 -80.5t-57 -232.5z" />
<glyph unicode="A" horiz-adv-x="1490" d="M12 0q-5 38 -5 73t5 68l152 21l403 1057l-116 12q-6 33 -6.5 68t6.5 73h436l454 -1212l138 -19q5 -33 5 -68t-5 -73h-521q-6 38 -6 73t6 68l140 19l-97 266h-509l-97 -266l137 -19q6 -33 6 -68t-6 -73h-520zM559 614h375l-174 492l-8 92h-4l-9 -92z" />
<glyph unicode="B" horiz-adv-x="1269" d="M72 0q-5 38 -5 73t5 68l145 21v1048l-145 21q-5 33 -5 68t5 73h145q66 0 201 10.5t209 10.5q216 0 345.5 -99.5t129.5 -269.5q0 -66 -23 -124.5t-58 -95t-71 -59t-67 -28.5v-4q27 -5 58.5 -17t72.5 -38.5t73 -61.5t54 -91.5t22 -123.5q0 -136 -72.5 -228t-190 -132.5 t-273.5 -40.5q-74 0 -209 10t-201 10h-145zM442 174q59 -4 185 -4q301 0 301 221q0 215 -305 215h-181v-432zM442 797h181q110 0 179.5 58.5t69.5 156.5q0 89 -62.5 140.5t-182.5 51.5q-97 0 -185 -6v-401z" />
<glyph unicode="C" horiz-adv-x="1292" d="M104 686q0 154 39.5 276.5t105 201.5t155 132t184.5 75t198 22q222 0 398 -90v-326q-31 -6 -79 -6t-79 6l-20 192q-119 35 -220 35q-203 0 -324.5 -130t-121.5 -388q0 -130 35.5 -231t97.5 -162t141 -92t172 -31q110 0 216.5 32.5t181.5 80.5v-213q-176 -90 -398 -90 q-103 0 -198 22t-184.5 74.5t-155 131.5t-105 201.5t-39.5 276.5z" />
<glyph unicode="D" horiz-adv-x="1460" d="M72 0q-5 38 -5 73t5 68l145 21v1048l-145 21q-5 33 -5 68t5 73h145q44 2 127.5 8t163.5 9.5t164 3.5q103 0 198 -22t184.5 -75t155 -132t105 -201.5t39.5 -276.5t-39.5 -276.5t-105 -201.5t-155 -131.5t-184.5 -74.5t-198 -22q-102 0 -248 10t-207 10h-145zM442 174 q136 -4 230 -4q93 0 172 31t141 92t97.5 162t35.5 231t-35.5 231t-97.5 162.5t-141 93t-172 31.5q-26 0 -230 -6v-1024z" />
<glyph unicode="E" horiz-adv-x="1136" d="M72 0q-5 38 -5 73t5 68l145 21v1048l-145 21q-5 33 -5 68t5 73h950v-346q-31 -6 -79.5 -6t-80.5 6l-14 158h-406v-402l439 15v-191l-439 15v-431h445l14 158q39 6 79 6t81 -6v-348h-989z" />
<glyph unicode="F" horiz-adv-x="1052" d="M72 0q-5 38 -5 73t5 68l145 21v1048l-145 21q-5 33 -5 68t5 73h950v-346q-31 -6 -79.5 -6t-80.5 6l-14 158h-406v-422l439 14v-190l-439 14v-438l215 -21q6 -33 6.5 -68t-6.5 -73h-585z" />
<glyph unicode="G" horiz-adv-x="1388" d="M104 686q0 154 39.5 276.5t105 201.5t155 132t184.5 75t198 22q242 0 418 -90v-326q-31 -6 -78.5 -6t-78.5 6l-21 192q-126 35 -240 35q-203 0 -324.5 -130t-121.5 -388q0 -130 35.5 -231t97.5 -162t141 -92t172 -31q127 0 240 20v371h-223l12 189h430v-680 q-176 -90 -459 -90q-103 0 -198 22t-184.5 74.5t-155 131.5t-105 201.5t-39.5 276.5z" />
<glyph unicode="H" horiz-adv-x="1589" d="M72 0q-5 38 -5 73t5 68l145 21v1048l-145 21q-5 33 -5 68t5 73h514q6 -38 6.5 -73t-6.5 -68l-144 -21v-413h707v413l-145 21q-5 33 -5 68t5 73h514q6 -38 6.5 -73t-6.5 -68l-144 -21v-1048l144 -21q6 -33 6.5 -68t-6.5 -73h-514q-5 38 -5 73t5 68l145 21v444h-707v-444 l144 -21q6 -33 6.5 -68t-6.5 -73h-514z" />
<glyph unicode="I" horiz-adv-x="677" d="M82 0q-5 38 -5 73t5 68l145 21v1048l-145 21q-5 33 -5 68t5 73h514q6 -38 6.5 -73t-6.5 -68l-143 -21v-1048l143 -21q6 -33 6.5 -68t-6.5 -73h-514z" />
<glyph unicode="J" horiz-adv-x="684" d="M35 -182q126 51 170.5 123t44.5 202v1067l-146 21q-5 33 -5 68t5 73h514q6 -38 6 -73t-6 -68l-143 -21v-1020q0 -223 -94.5 -351.5t-319.5 -172.5z" />
<glyph unicode="K" horiz-adv-x="1341" d="M72 0q-5 38 -5 73t5 68l145 21v1048l-145 21q-5 33 -5 68t5 73h514q6 -38 6.5 -73t-6.5 -68l-144 -21v-1048l144 -21q6 -33 6.5 -68t-6.5 -73h-514zM500 721l415 496l-106 14q-6 33 -6.5 68t6.5 73h498q6 -38 6.5 -73t-6.5 -68l-158 -21l-393 -479l-45 -8v-4l45 -10 l424 -549l161 -19q6 -33 6.5 -68t-6.5 -73h-317z" />
<glyph unicode="L" horiz-adv-x="1091" d="M72 0q-5 38 -5 73t5 68l145 21v1048l-145 21q-5 33 -5 68t5 73h514q6 -38 6 -73t-6 -68l-144 -21v-1020h426l15 158q40 6 80 6t79 -6v-348h-970z" />
<glyph unicode="M" horiz-adv-x="2039" d="M51 0q-5 38 -5 73t5 68l144 19l174 1054l-125 17q-6 33 -6 68t6 73h454l312 -1065l10 -92h4l8 92l311 1065h457q6 -38 6 -73t-6 -68l-125 -17l172 -1054l142 -19q6 -33 6.5 -68t-6.5 -73h-519q-6 38 -6 73t6 68l140 19l-123 936l-6 98h-4l-11 -98l-311 -1045h-268 l-312 1045l-10 98h-4l-6 -98l-123 -936l139 -19q5 -33 5 -68t-5 -73h-520z" />
<glyph unicode="N" horiz-adv-x="1611" d="M109 0q-5 38 -5 73t5 68l147 21v1048l-147 21q-5 33 -5 68t5 73h444l606 -1034l25 -109h4v981l-148 21q-5 33 -5 68t5 73h516q5 -38 5 -73t-5 -68l-143 -21v-1210h-299l-608 1034l-21 92h-4v-964l144 -21q5 -33 5 -68t-5 -73h-516z" />
<glyph unicode="O" horiz-adv-x="1572" d="M104 686q0 154 39.5 276.5t105 201.5t155 132t184.5 75t198 22t197 -22t183.5 -75t155 -132t105 -201.5t39.5 -276.5t-39.5 -276.5t-105 -201.5t-155 -131.5t-183.5 -74.5t-197 -22t-198 22t-184.5 74.5t-155 131.5t-105 201.5t-39.5 276.5zM340 686q0 -130 35.5 -231 t97.5 -162t141 -92t172 -31t172 31t141 92t97 162t35 231t-35 231t-97 162.5t-141 93t-172 31.5t-172 -31.5t-141 -93t-97.5 -162.5t-35.5 -231z" />
<glyph unicode="P" horiz-adv-x="1173" d="M63 0q-5 38 -5 73t5 68l148 21v1048l-148 21q-5 33 -5 68t5 73h148q66 0 199.5 10.5t207.5 10.5q222 0 353 -106t131 -308q0 -198 -131.5 -303t-352.5 -105q-68 0 -182 4v-413l215 -21q5 -33 5 -68t-5 -73h-588zM436 766q86 -6 182 -6q121 0 186.5 54t65.5 165 q0 225 -252 225q-97 0 -182 -6v-432z" />
<glyph unicode="Q" horiz-adv-x="1552" d="M94 686q0 154 39.5 276.5t105 201.5t155 132t184.5 75t198 22t197 -22t183.5 -75t155 -132t105 -201.5t39.5 -276.5q0 -412 -268 -592l205 -299h-265l-131 213q-101 -28 -221 -28q-103 0 -198 22t-184.5 74.5t-155 131.5t-105 201.5t-39.5 276.5zM330 686 q0 -130 35.5 -231t97.5 -162t141 -92t172 -31t172 31t141 92t97 162t35 231t-35 231t-97 162.5t-141 93t-172 31.5t-172 -31.5t-141 -93t-97.5 -162.5t-35.5 -231z" />
<glyph unicode="R" horiz-adv-x="1286" d="M63 0q-5 38 -5 73t5 68l148 21v1048l-148 21q-5 33 -5 68t5 73h148q66 0 199.5 10.5t207.5 10.5q209 0 337 -107t128 -307q0 -141 -72.5 -235.5t-199.5 -135.5l297 -446l162 -21q6 -33 6 -68t-6 -73h-318l-370 582q-52 0 -146 4v-424l144 -21q5 -33 5 -68t-5 -73h-517z M436 776q86 -6 182 -6q107 0 170.5 53.5t63.5 155.5q0 114 -63 169.5t-171 55.5q-97 0 -182 -6v-422z" />
<glyph unicode="S" horiz-adv-x="1075" d="M113 1014q0 172 113.5 275.5t324.5 103.5q100 0 178 -23t164 -67v-326q-32 -6 -80.5 -6t-79.5 6l-20 201q-83 26 -162 26q-109 0 -161 -43.5t-52 -136.5q0 -57 34.5 -100t89.5 -72.5t121.5 -57.5t133.5 -62.5t122 -79t89.5 -116.5t34.5 -165q0 -186 -126.5 -288.5 t-349.5 -102.5q-188 0 -364 90v327q31 5 79 5t79 -5l20 -198q95 -29 186 -29q113 0 180.5 49t67.5 148q0 60 -34.5 105.5t-89 74.5t-121 56t-133 60t-121 75.5t-89 113t-34.5 162.5z" />
<glyph unicode="T" horiz-adv-x="1200" d="M37 1026v346h1128v-346q-31 -6 -79 -6t-80 6l-15 158h-276v-1022h2l143 -21q5 -33 5 -68t-5 -73h-516q-5 38 -5 73t5 68l145 21v1022h-280l-14 -158q-31 -6 -79 -6t-79 6z" />
<glyph unicode="U" horiz-adv-x="1480" d="M53 1231q-6 33 -6.5 68t6.5 73h514q6 -38 6.5 -73t-6.5 -68l-143 -21v-718q0 -322 313 -322q312 0 312 322v718l-146 21q-6 33 -6.5 68t6.5 73h514q6 -38 6.5 -73t-6.5 -68l-143 -21v-723q0 -249 -141 -378t-396 -129q-256 0 -397 128.5t-141 378.5v723z" />
<glyph unicode="V" horiz-adv-x="1470" d="M27 1231q-6 33 -6.5 68t6.5 73h516q5 -38 5 -73t-5 -68l-133 -19l319 -946l8 -86h4l9 86l325 946l-137 19q-5 33 -5 68t5 73h508q5 -38 5 -73t-5 -68l-139 -19l-445 -1212h-260l-438 1212z" />
<glyph unicode="W" horiz-adv-x="2088" d="M20 1231q-5 33 -5 68t5 73h517q6 -38 6.5 -73t-6.5 -68l-138 -19l240 -940l8 -92h4l8 92l256 1080h273l246 -1080l8 -92h4l8 92l240 940l-131 19q-5 33 -5 68t5 73h505q6 -38 6 -73t-6 -68l-137 -19l-346 -1212h-272l-256 1081l-8 103h-5l-8 -103l-256 -1081h-272 l-346 1212z" />
<glyph unicode="X" horiz-adv-x="1361" d="M43 0q-6 38 -6.5 73t6.5 68l137 19l326 553l41 10v4l-41 10l-297 475l-152 19q-6 33 -6.5 68t6.5 73h514q6 -38 6.5 -73t-6.5 -68l-100 -14l217 -369h4l215 369l-108 14q-6 33 -6.5 68t6.5 73h506q5 -38 5 -73t-5 -68l-152 -17l-297 -477l-33 -10v-4l33 -10l328 -553 l137 -19q6 -33 6.5 -68t-6.5 -73h-514q-6 38 -6.5 73t6.5 68l108 15l-241 436h-4l-244 -432l131 -19q5 -33 5 -68t-5 -73h-514z" />
<glyph unicode="Y" horiz-adv-x="1343" d="M23 1231q-5 33 -5 68t5 73h516q5 -38 5 -73t-5 -68l-115 -17l246 -509l8 -109h4l8 109l244 509l-121 17q-5 33 -5 68t5 73h506q7 -38 7 -73t-7 -68l-156 -19l-377 -727v-323l144 -21q6 -33 6 -68t-6 -73h-514q-6 38 -6 73t6 68l145 21v323l-377 727z" />
<glyph unicode="Z" horiz-adv-x="1148" d="M74 0v121l686 1042l41 17v4h-533l-14 -158q-31 -6 -79.5 -6t-80.5 6v346h971v-121l-682 -1040l-41 -16v-5h559l14 158q41 6 81 6t79 -6v-348h-1001z" />
<glyph unicode="[" horiz-adv-x="550" d="M98 -266v1945h412v-163h-205v-1618h205v-164h-412z" />
<glyph unicode="\" horiz-adv-x="909" d="M68 1516h188l614 -1680h-188z" />
<glyph unicode="]" horiz-adv-x="550" d="M41 -102h205v1618h-205v163h412v-1945h-412v164z" />
<glyph unicode="^" horiz-adv-x="1021" d="M57 1024l371 690h164l375 -690l-222 -2l-221 477l-10 55h-4l-10 -55l-221 -477z" />
<glyph unicode="_" horiz-adv-x="890" d="M41 -41h840v-164h-840v164z" />
<glyph unicode="`" horiz-adv-x="575" d="M53 1393l99 151l380 -289l-65 -102z" />
<glyph unicode="a" horiz-adv-x="1054" d="M109 225q0 150 147.5 240t415.5 119v69q0 113 -42 159t-159 46q-161 0 -313 -96v186q152 76 344 76q211 0 298 -89t87 -271v-502l137 -21q6 -33 6 -68t-6 -73h-322q-9 33 -22 98q-149 -118 -309 -118q-110 0 -186 65t-76 180zM315 266q0 -60 32 -93.5t89 -33.5 q129 0 236 101v223q-105 -12 -177.5 -32t-110.5 -47t-53.5 -55t-15.5 -63z" />
<glyph unicode="b" horiz-adv-x="1144" d="M12 1374q-5 39 -5 74.5t5 67.5l332 20q31 -111 31 -225v-373q131 86 262 86q184 0 297 -140t113 -382q0 -248 -123.5 -385t-352.5 -137q-146 0 -292 55l-48 -35h-71v1368zM375 176q89 -31 190 -31q256 0 256 357q0 356 -250 356q-101 0 -196 -67v-615z" />
<glyph unicode="c" horiz-adv-x="960" d="M98 502q0 248 123 385t352 137q176 0 308 -76v-274q-37 -7 -74 -7l-74 7l-20 166q-62 18 -129 18q-260 0 -260 -356q0 -357 260 -357q78 0 147.5 21.5t149.5 75.5v-187q-130 -75 -308 -75q-229 0 -352 137t-123 385z" />
<glyph unicode="d" horiz-adv-x="1173" d="M98 502q0 248 123 385t352 137q117 0 197 -35v379l-145 6q-5 39 -5 74.5t5 67.5l329 20q31 -111 31 -225v-1149l139 -21q5 -33 5 -68t-5 -73h-323q-2 8 -8.5 34.5t-8.5 39.5q-143 -94 -276 -94q-184 0 -297 140t-113 382zM324 502q0 -357 249 -357q101 0 197 68v12v590 q-70 43 -190 43q-256 0 -256 -356z" />
<glyph unicode="e" horiz-adv-x="1073" d="M98 502q0 244 129 383t346 139q178 0 291 -101t113 -280q0 -53 -8 -108l-656 -68q6 -158 75.5 -240t195.5 -82q178 0 323 97v-187q-130 -75 -334 -75q-229 0 -352 137t-123 385zM307 590l457 55q0 219 -191 219q-236 0 -266 -274z" />
<glyph unicode="f" horiz-adv-x="839" d="M84 838v166h154v139q0 195 102.5 294t269.5 99q122 0 221 -55v-183q-96 72 -190 72q-188 0 -188 -256v-110h338l-11 -166h-327v-676l143 -21q6 -33 6 -68t-6 -73h-504q-5 38 -5 73t5 68l146 21v676h-154z" />
<glyph unicode="g" horiz-adv-x="1138" d="M131 -213q0 134 143 254q-108 44 -108 139q0 102 137 223q-81 44 -126.5 116.5t-45.5 164.5q0 152 119 246t305 94q109 0 199 -35l137 150l121 -92l-117 -152q86 -92 86 -211q0 -152 -120 -246t-306 -94q-83 0 -143 16q-74 -61 -74 -112q0 -43 56.5 -61t168.5 -27 q51 -4 80.5 -6.5t78 -8.5t78.5 -12.5t71 -18t66.5 -25t53.5 -34t43.5 -44.5t26 -57t10.5 -71q0 -163 -153 -263.5t-394 -100.5q-192 0 -292.5 73.5t-100.5 194.5zM301 -176q0 -86 62.5 -121t171.5 -35q144 0 241.5 49.5t97.5 139.5q0 24 -10.5 42.5t-34.5 31.5t-50 22 t-71.5 16t-83 11.5t-98.5 9.5q-69 6 -133 18q-92 -89 -92 -184zM334 684q0 -81 60.5 -132.5t160.5 -51.5q102 0 162.5 51.5t60.5 132.5q0 80 -61.5 132t-161.5 52t-160.5 -51.5t-60.5 -132.5z" />
<glyph unicode="h" horiz-adv-x="1261" d="M78 0q-6 38 -6 73t6 68l145 21v1206l-145 6q-6 39 -6 74.5t6 67.5l330 20q30 -107 30 -225v-396q76 51 162 80t158 29q171 0 243 -88t72 -268v-506l137 -21q6 -33 6 -68t-6 -73h-352v657q0 112 -35 156.5t-131 44.5q-60 0 -127.5 -25t-126.5 -71v-600l144 -21 q5 -33 5 -68t-5 -73h-504z" />
<glyph unicode="i" horiz-adv-x="624" d="M70 0q-6 38 -6 73t6 68l145 21v694l-145 6q-6 39 -6 74.5t6 67.5l329 20q31 -111 31 -225v-637l143 -21q6 -33 6.5 -68t-6.5 -73h-503zM164 1341q0 38 56.5 95t94.5 57t95 -57t57 -95t-57 -94.5t-95 -56.5t-94.5 56.5t-56.5 94.5z" />
<glyph unicode="j" horiz-adv-x="602" d="M41 -330q102 47 143 121t41 203v862l-145 6q-5 39 -5 74.5t5 67.5l330 20q30 -107 30 -225v-768q0 -222 -87 -347t-285 -165zM174 1341q0 38 57 95t95 57t94.5 -57t56.5 -95t-56.5 -94.5t-94.5 -56.5t-95 56.5t-57 94.5z" />
<glyph unicode="k" horiz-adv-x="1216" d="M70 0q-6 38 -6 73t6 68l145 21v1206l-145 6q-6 39 -6 74.5t6 67.5l329 20q31 -111 31 -225v-1149l133 -21q6 -33 6.5 -68t-6.5 -73h-493zM487 555l267 295l-88 12q-5 33 -5 68.5t5 73.5h487q5 -38 5 -73.5t-5 -68.5l-176 -10l-252 -285l-41 -10v-4l41 -10l303 -385v4 l168 -21q6 -33 6 -68t-6 -73h-305z" />
<glyph unicode="l" horiz-adv-x="696" d="M100 0q-6 38 -6 73t6 68l146 21v1206l-146 6q-6 39 -6 74.5t6 67.5l330 20q31 -111 31 -225v-1149l143 -21q6 -33 6 -68t-6 -73h-504z" />
<glyph unicode="m" horiz-adv-x="1849" d="M70 0q-6 38 -6 73t6 68l145 21v694l-145 6q-6 39 -6 74.5t6 67.5l329 20q19 -73 23 -113q76 53 160 83t157 30q200 0 269 -135q82 63 175 99t175 36q165 0 236 -88t71 -268v-506l137 -21q6 -33 6 -68t-6 -73h-352v657q0 111 -34.5 156t-125.5 45q-126 0 -243 -94v-602 l139 -21q5 -33 5 -68t-5 -73h-355v657q0 111 -33.5 156t-123.5 45q-58 0 -123 -24.5t-121 -69.5v-602l143 -21q6 -33 6.5 -68t-6.5 -73h-503z" />
<glyph unicode="n" horiz-adv-x="1249" d="M70 0q-6 38 -6 73t6 68l145 21v694l-145 6q-6 39 -6 74.5t6 67.5l329 20q19 -78 23 -113q79 53 166.5 83t161.5 30q171 0 243 -88t72 -268v-506l139 -21q5 -33 5 -68t-5 -73h-354v657q0 112 -35 156.5t-131 44.5q-60 0 -127.5 -25t-126.5 -71v-600l143 -21q6 -33 6.5 -68 t-6.5 -73h-503z" />
<glyph unicode="o" horiz-adv-x="1146" d="M98 502q0 248 123 385t352 137t353.5 -137.5t124.5 -384.5t-124.5 -384.5t-353.5 -137.5t-352 137t-123 385zM324 502q0 -357 249 -357q252 0 252 357q0 356 -252 356q-249 0 -249 -356z" />
<glyph unicode="p" horiz-adv-x="1179" d="M49 -319l146 20v1155l-146 6q-7 39 -7 74.5t7 67.5l330 20q17 -70 20 -92q137 92 275 92q183 0 296 -140t113 -382q0 -247 -124 -384.5t-353 -137.5q-118 0 -196 34v-313l211 -20q5 -33 5 -68.5t-5 -73.5h-572q-7 38 -7 73.5t7 68.5zM410 188q70 -43 192 -43 q127 0 191.5 90.5t64.5 266.5q0 356 -252 356q-98 0 -196 -67v-603z" />
<glyph unicode="q" horiz-adv-x="1124" d="M98 502q0 248 123 385t352 137q149 0 291 -55l49 35h72v-1465h-469q-5 38 -5 73.5t5 68.5l254 20v365q-134 -86 -262 -86q-184 0 -297 140t-113 382zM324 502q0 -357 249 -357q101 0 197 68v614q-89 31 -190 31q-256 0 -256 -356z" />
<glyph unicode="r" horiz-adv-x="942" d="M68 0q-6 38 -6 73t6 68l145 21v694l-145 6q-6 39 -6 74.5t6 67.5l329 20q24 -99 29 -158q161 158 334 158q55 0 80.5 -28.5t25.5 -98.5v-258q-36 -6 -73.5 -5.5t-75.5 5.5l-23 180q-6 0 -19 1t-18 1q-60 0 -120 -32.5t-109 -88.5v-538l209 -21q6 -33 6.5 -68t-6.5 -73 h-569z" />
<glyph unicode="s" horiz-adv-x="933" d="M100 725q0 136 101.5 217.5t271.5 81.5q177 0 309 -76v-266q-37 -6 -73.5 -6t-73.5 6l-23 166q-70 20 -139 20q-80 0 -122 -31t-42 -85q0 -35 29 -63.5t75.5 -49.5t102.5 -42.5t111.5 -49t102 -62.5t75.5 -90.5t29 -124.5q0 -137 -112 -213.5t-292 -76.5q-185 0 -315 75 v267q36 7 73 7t74 -7l21 -166q77 -21 147 -21q90 0 142.5 30t52.5 87q0 38 -29 69t-75.5 53.5t-102.5 45t-111.5 49t-102 59.5t-75.5 83.5t-29 113.5z" />
<glyph unicode="t" horiz-adv-x="837" d="M70 838v166h157l39 286l172 21v-307h318l-11 -166h-307v-484q0 -122 33.5 -165.5t101.5 -43.5q84 0 183 72v-182q-99 -55 -217 -55q-158 0 -237 85t-79 263v510h-153z" />
<glyph unicode="u" horiz-adv-x="1198" d="M33 862q-5 39 -5 74.5t5 67.5l332 20q30 -107 30 -225v-453q0 -110 33.5 -155.5t122.5 -45.5q64 0 132 30.5t122 86.5v594l-148 6q-5 39 -5 74.5t5 67.5l332 20q31 -111 31 -225v-637l137 -21q6 -33 6.5 -68t-6.5 -73h-321q-13 44 -25 111q-75 -61 -161.5 -96t-164.5 -35 q-164 0 -234.5 88t-70.5 268v520z" />
<glyph unicode="v" horiz-adv-x="1187" d="M-4 862q-6 39 -6 74.5t6 67.5l330 20l268 -766l10 -92h4l8 92l207 586l-135 18q-6 33 -6 68.5t6 73.5h504q6 -38 6 -73.5t-6 -68.5l-148 -20l-339 -842h-205l-346 856z" />
<glyph unicode="w" horiz-adv-x="1746" d="M-6 862q-6 39 -6 74.5t6 67.5l330 20l211 -766l8 -92h4l8 92l203 721l241 20l193 -741l10 -92h4l8 92l172 586l-135 18q-6 33 -6.5 68.5t6.5 73.5h504q6 -38 6.5 -73.5t-6.5 -68.5l-149 -20l-295 -842h-213l-209 760l-8 100h-4l-11 -100l-215 -760h-223l-285 856z" />
<glyph unicode="x" horiz-adv-x="1185" d="M43 862q-5 39 -5 74.5t5 67.5l332 20l233 -387h4l125 209l-121 16q-6 33 -6 68.5t6 73.5h484q5 -38 5 -73.5t-5 -68.5l-154 -20l-201 -307l-40 -11v-4l40 -10l230 -348l168 -21q5 -33 5 -68t-5 -73h-314l-239 395h-4l-140 -235l119 -19q5 -33 5 -68t-5 -73h-485 q-5 38 -5 73t5 68l151 21l222 348l41 10v4l-41 11l-217 321z" />
<glyph unicode="y" horiz-adv-x="1189" d="M-6 862q-5 39 -5 74.5t5 67.5l332 20l274 -766l8 -113h4l9 113l202 586l-133 18q-5 33 -5 68.5t5 73.5h506q5 -38 5 -73.5t-5 -68.5l-149 -18l-523 -1305l-219 -20v75l209 392v4l-358 866z" />
<glyph unicode="z" horiz-adv-x="993" d="M74 0v94l524 723l41 17v4h-379l-16 -164q-36 -7 -74 -7t-76 7v330h805v-97l-524 -721l-35 -16v-4h403l17 166q38 6 75 6t74 -6v-332h-835z" />
<glyph unicode="{" horiz-adv-x="563" d="M98 659v97q41 10 68 29.5t39.5 47t17 53t4.5 60.5q0 66 -20.5 238t-20.5 239q0 44 12.5 82t43 75t91 63t146.5 36l23 -161q-62 -19 -83.5 -57.5t-21.5 -108.5q0 -66 20.5 -228t20.5 -229q0 -127 -143 -188q143 -61 143 -187q0 -66 -20.5 -229t-20.5 -230q0 -70 21.5 -108 t83.5 -57l-23 -162q-86 10 -146.5 36t-91 63t-43 75t-12.5 82q0 67 20.5 239.5t20.5 239.5q0 35 -4.5 60.5t-17 53t-39.5 47t-68 29.5z" />
<glyph unicode="|" horiz-adv-x="614" d="M195 -410v2048h213v-2048h-213z" />
<glyph unicode="}" horiz-adv-x="563" d="M61 -104q62 19 83.5 57t21.5 108q0 67 -20.5 230t-20.5 229q0 126 143 187q-143 61 -143 188q0 67 20.5 229t20.5 228q0 70 -21.5 108.5t-83.5 57.5l23 161q86 -10 146.5 -36t91.5 -63t44 -75t13 -82q0 -67 -20.5 -239t-20.5 -238q0 -35 4.5 -60.5t17 -53t39.5 -47 t68 -29.5v-97q-41 -10 -68 -29.5t-39.5 -47t-17 -53t-4.5 -60.5q0 -67 20.5 -239.5t20.5 -239.5q0 -44 -13 -82t-44 -75t-91.5 -63t-146.5 -36z" />
<glyph unicode="~" horiz-adv-x="1024" d="M61 682l70 -143q105 86 221 86q46 0 91 -15t76.5 -33.5t81.5 -33.5t106 -15q105 0 256 80l-70 146q-90 -64 -182 -64q-39 0 -82.5 15.5t-78 33.5t-88 33.5t-108.5 15.5q-130 0 -293 -106z" />
<glyph unicode="&#xa2;" horiz-adv-x="960" d="M98 502q0 216 94.5 349t272.5 165v172h215v-170q106 -14 201 -70v-274q-74 -14 -148 0l-20 166q-62 18 -129 18q-260 0 -260 -356q0 -357 260 -357q78 0 147.5 21.5t149.5 75.5v-187q-93 -54 -201 -69v-170h-215v172q-178 32 -272.5 165t-94.5 349z" />
<glyph unicode="&#xa3;" horiz-adv-x="1118" d="M72 625v143h133v266q0 183 105.5 271t322.5 88q118 0 203 -23.5t170 -66.5v-326q-31 -6 -79.5 -6t-80.5 6l-21 201q-80 26 -161 26q-226 0 -226 -184v-252h416v-143h-416v-138q0 -77 -41.5 -167t-126.5 -130h561l15 158q82 11 160 0v-348h-924v190q56 40 89.5 133 t33.5 164v138h-133z" />
<glyph unicode="&#xa5;" horiz-adv-x="1198" d="M23 1231q-10 66 0 141h516q10 -75 0 -141l-115 -17l246 -509l8 -109h4l8 109l244 509l-121 17q-10 66 0 141h506q13 -75 0 -141l-156 -19l-323 -624h290v-137h-344v-84h344v-140h-344v-65l144 -21q13 -66 0 -141h-514q-13 75 0 141l145 21v65h-373v140h373v84h-373v137 h320l-324 624z" />
<glyph unicode="&#xa8;" horiz-adv-x="987" d="M141 1356q0 34 51.5 85.5t86.5 51.5t86 -51.5t51 -85.5q0 -35 -51 -87t-86 -52t-86.5 52t-51.5 87zM571 1356q0 34 51.5 85.5t86.5 51.5t86 -51.5t51 -85.5q0 -35 -51 -87t-86 -52t-86.5 52t-51.5 87z" />
<glyph unicode="&#xa9;" horiz-adv-x="1536" d="M61 686q0 124 29.5 229.5t82 181t120.5 134t148 93t162 52t165 17.5t165 -17.5t162 -52t148 -93t120.5 -134t82 -181t29.5 -229.5t-29.5 -229t-82 -181t-120.5 -134t-148 -92.5t-162 -52t-165 -17.5t-165 17.5t-162 52t-148 92.5t-120.5 134t-82 181t-29.5 229zM102 686 q0 -141 40.5 -256.5t106.5 -191t154 -127t179 -73.5t186 -22t186 22t179 73.5t154 127t106.5 191t40.5 256.5t-40.5 256.5t-106.5 191t-154 127t-179 73.5t-186 22t-186 -22t-179 -73.5t-154 -127t-106.5 -191t-40.5 -256.5zM432 686q0 187 93.5 291t265.5 104 q131 0 233 -57v-207q-58 -10 -115 0l-14 127q-49 12 -96 12q-197 0 -197 -270t197 -270q114 0 225 73v-141q-102 -57 -233 -57q-172 0 -265.5 104t-93.5 291z" />
<glyph unicode="&#xab;" horiz-adv-x="1159" d="M82 449v163l496 398l2 -222l-322 -243l-41 -10v-5l41 -10l322 -244l-2 -221zM559 455v153l496 402l2 -222l-322 -243l-41 -10v-5l41 -10l322 -244l-2 -221z" />
<glyph unicode="&#xad;" horiz-adv-x="876" d="M111 483v191h655v-191h-655z" />
<glyph unicode="&#xb4;" horiz-adv-x="524" d="M53 1255l379 289l100 -151l-413 -240z" />
<glyph unicode="&#xb8;" horiz-adv-x="454" d="M41 -365q39 -8 94 -8q66 0 99.5 18t33.5 60q0 37 -36.5 59.5t-125.5 32.5l50 203h123l-35 -133q82 -12 129 -56t47 -108q0 -88 -73 -136t-208 -48q-59 0 -98 8v108z" />
<glyph unicode="&#xbb;" horiz-adv-x="1159" d="M98 276l322 244l41 10v5l-41 10l-322 243l2 222l496 -402v-153l-496 -400zM575 276l322 244l41 10v5l-41 10l-322 243l3 222l495 -398v-163l-495 -394z" />
<glyph unicode="&#xd3;" horiz-adv-x="1572" d="M104 686q0 154 39.5 276.5t105 201.5t155 132t184.5 75t198 22t197 -22t183.5 -75t155 -132t105 -201.5t39.5 -276.5t-39.5 -276.5t-105 -201.5t-155 -131.5t-183.5 -74.5t-197 -22t-198 22t-184.5 74.5t-155 131.5t-105 201.5t-39.5 276.5zM340 686q0 -130 35.5 -231 t97.5 -162t141 -92t172 -31t172 31t141 92t97 162t35 231t-35 231t-97 162.5t-141 93t-172 31.5t-172 -31.5t-141 -93t-97.5 -162.5t-35.5 -231zM551 1624l410 256l86 -164l-439 -205z" />
<glyph unicode="&#xf3;" horiz-adv-x="1146" d="M98 502q0 248 123 385t352 137t353.5 -137.5t124.5 -384.5t-124.5 -384.5t-353.5 -137.5t-352 137t-123 385zM324 502q0 -357 249 -357q252 0 252 357q0 356 -252 356q-249 0 -249 -356zM375 1255l381 289l98 -151l-414 -240z" />
<glyph unicode="&#x104;" horiz-adv-x="1492" d="M14 0q-10 75 0 141l150 21l405 1057l-118 12q-13 66 0 141h176v-4l2 4h260l454 -1212l136 -19q13 -66 0 -141h-283q-158 -84 -158 -223q0 -43 26.5 -72t80.5 -29q67 0 121 33l20 -149q-77 -41 -184 -41q-105 0 -174.5 57.5t-69.5 153.5q0 108 68 198.5t202 145.5 l-124 352h-510l-97 -266l138 -19q10 -66 0 -141h-521zM561 614h375l-174 492l-8 92h-4l-11 -92z" />
<glyph unicode="&#x105;" horiz-adv-x="1054" d="M109 225q0 150 147.5 240t415.5 119v69q0 113 -42 159t-159 46q-161 0 -313 -96v186q152 76 344 76q211 0 298 -89t87 -271v-502l137 -21q13 -66 0 -141h-150q-96 -46 -138 -100t-42 -123q0 -42 27 -71.5t80 -29.5q69 0 123 33l20 -149q-80 -41 -184 -41 q-107 0 -176.5 57.5t-69.5 153.5q0 179 184 282q-12 45 -18 86q-149 -118 -309 -118q-110 0 -186 65t-76 180zM315 266q0 -60 32 -93.5t89 -33.5q129 0 236 101v223q-105 -12 -177.5 -32t-110.5 -47t-53.5 -55t-15.5 -63z" />
<glyph unicode="&#x106;" horiz-adv-x="1292" d="M104 686q0 154 39.5 276.5t105 201.5t155 132t184.5 75t198 22q222 0 398 -90v-326q-31 -6 -79 -6t-79 6l-20 192q-119 35 -220 35q-203 0 -324.5 -130t-121.5 -388q0 -130 35.5 -231t97.5 -162t141 -92t172 -31q110 0 216.5 32.5t181.5 80.5v-213q-176 -90 -398 -90 q-103 0 -198 22t-184.5 74.5t-155 131.5t-105 201.5t-39.5 276.5zM543 1624l409 256l88 -164l-438 -205z" />
<glyph unicode="&#x107;" horiz-adv-x="960" d="M98 502q0 248 123 385t352 137q176 0 308 -76v-274q-74 -14 -148 0l-20 166q-62 18 -129 18q-260 0 -260 -356q0 -357 260 -357q78 0 147.5 21.5t149.5 75.5v-187q-130 -75 -308 -75q-229 0 -352 137t-123 385zM358 1255l379 289l101 -151l-414 -240z" />
<glyph unicode="&#x118;" horiz-adv-x="1136" d="M72 0q-10 75 0 141l145 21v1048l-145 21q-10 66 0 141h950v-346q-31 -6 -79.5 -6t-80.5 6l-14 158h-406v-402l439 15v-191l-439 15v-431h445l14 158q78 11 160 0v-348h-109q-91 -44 -134.5 -104t-43.5 -119q0 -43 26.5 -72t80.5 -29q66 0 120 33l21 -149 q-77 -41 -184 -41q-105 0 -174.5 57.5t-69.5 153.5q0 76 43.5 146t130.5 124h-696z" />
<glyph unicode="&#x119;" horiz-adv-x="1077" d="M98 502q0 244 129 383t346 139q178 0 291 -101t113 -280q0 -53 -8 -108l-656 -68q6 -158 75.5 -240t195.5 -82q178 0 323 97v-187q-128 -74 -179.5 -136.5t-51.5 -141.5q0 -43 26 -72t80 -29q67 0 121 33l21 -149q-77 -41 -185 -41q-105 0 -174 57.5t-69 153.5 q0 148 125 250h-48q-229 0 -352 137t-123 385zM307 590l457 55q0 219 -191 219q-236 0 -266 -274z" />
<glyph unicode="&#x141;" horiz-adv-x="1089" d="M55 451v190l215 109v460l-145 21q-10 66 0 141h514q13 -75 0 -141l-143 -21v-358l252 141v-188l-252 -125v-490h426l14 158q82 11 160 0v-348h-971q-10 75 0 141l145 21v416z" />
<glyph unicode="&#x142;" horiz-adv-x="743" d="M47 457v188l215 109v614l-147 6q-10 78 0 142l331 20q31 -111 31 -225v-457l219 135v-190l-219 -117v-520l144 -21q10 -66 0 -141h-506q-10 75 0 141l147 21v420z" />
<glyph unicode="&#x143;" horiz-adv-x="1611" d="M109 0q-10 75 0 141l147 21v1048l-147 21q-10 66 0 141h444l606 -1034l25 -109h4v981l-148 21q-10 66 0 141h516q10 -75 0 -141l-143 -21v-1210h-299l-608 1034l-21 92h-4v-964l144 -21q10 -66 0 -141h-516zM690 1624l410 256l86 -164l-438 -205z" />
<glyph unicode="&#x144;" horiz-adv-x="1249" d="M70 0q-13 75 0 141l145 21v694l-145 6q-13 78 0 142l329 20q19 -78 23 -113q79 53 166.5 83t161.5 30q171 0 243 -88t72 -268v-506l139 -21q10 -66 0 -141h-354v657q0 112 -35 156.5t-131 44.5q-60 0 -127.5 -25t-126.5 -71v-600l143 -21q13 -66 0 -141h-503zM451 1255 l378 289l101 -151l-414 -240z" />
<glyph unicode="&#x15a;" horiz-adv-x="1075" d="M113 1014q0 172 113.5 275.5t324.5 103.5q100 0 178 -23t164 -67v-326q-32 -6 -80.5 -6t-79.5 6l-20 201q-83 26 -162 26q-109 0 -161 -43.5t-52 -136.5q0 -57 34.5 -100t89.5 -72.5t121.5 -57.5t133.5 -62.5t122 -79t89.5 -116.5t34.5 -165q0 -186 -126.5 -288.5 t-349.5 -102.5q-188 0 -364 90v327q31 5 79 5t79 -5l20 -198q95 -29 186 -29q113 0 180.5 49t67.5 148q0 60 -34.5 105.5t-89 74.5t-121 56t-133 60t-121 75.5t-89 113t-34.5 162.5zM336 1624l409 256l86 -164l-438 -205z" />
<glyph unicode="&#x15b;" horiz-adv-x="933" d="M100 725q0 136 101.5 217.5t271.5 81.5q177 0 309 -76v-266q-74 -11 -147 0l-23 166q-70 20 -139 20q-80 0 -122 -31t-42 -85q0 -35 29 -63.5t75.5 -49.5t102.5 -42.5t111.5 -49t102 -62.5t75.5 -90.5t29 -124.5q0 -137 -112 -213.5t-292 -76.5q-185 0 -315 75v267 q73 14 147 0l21 -166q77 -21 147 -21q90 0 142.5 30t52.5 87q0 38 -29 69t-75.5 53.5t-102.5 45t-111.5 49t-102 59.5t-75.5 83.5t-29 113.5zM274 1255l379 289l101 -151l-414 -240z" />
<glyph unicode="&#x179;" horiz-adv-x="1148" d="M74 0v121l686 1042l41 17v4h-533l-14 -158q-31 -6 -79.5 -6t-80.5 6v346h971v-121l-682 -1040l-41 -16v-5h559l14 158q82 11 160 0v-348h-1001zM412 1624l409 256l86 -164l-438 -205z" />
<glyph unicode="&#x17a;" horiz-adv-x="993" d="M74 0v94l524 723l41 17v4h-379l-16 -164q-73 -14 -150 0v330h805v-97l-524 -721l-35 -16v-4h403l17 166q76 11 149 0v-332h-835zM354 1255l381 289l99 -151l-414 -240z" />
<glyph unicode="&#x17b;" horiz-adv-x="1148" d="M74 0v121l686 1042l41 17v4h-533l-14 -158q-31 -6 -79.5 -6t-80.5 6v346h971v-121l-682 -1040l-41 -16v-5h559l14 158q82 11 160 0v-348h-1001zM424 1642q0 38 56.5 95t94.5 57t95 -57t57 -95t-57 -94.5t-95 -56.5t-94.5 56.5t-56.5 94.5z" />
<glyph unicode="&#x17c;" horiz-adv-x="993" d="M74 0v94l524 723l41 17v4h-379l-16 -164q-73 -14 -150 0v330h805v-97l-524 -721l-35 -16v-4h403l17 166q76 11 149 0v-332h-835zM340 1341q0 38 57 95t95 57t94.5 -57t56.5 -95t-56.5 -94.5t-94.5 -56.5t-95 56.5t-57 94.5z" />
<glyph unicode="&#x2c6;" horiz-adv-x="712" d="M29 1257l327 277l328 -277l-74 -104l-254 180l-254 -180z" />
<glyph unicode="&#x2da;" horiz-adv-x="600" d="M68 1391q0 96 67.5 162.5t165.5 66.5q97 0 165.5 -67t68.5 -162q0 -94 -68.5 -161t-165.5 -67q-98 0 -165.5 67t-67.5 161zM209 1391q0 -39 26.5 -67t65.5 -28t64.5 28t25.5 67q0 40 -25.5 68t-64.5 28t-65.5 -28t-26.5 -68z" />
<glyph unicode="&#x2dc;" horiz-adv-x="866" d="M119 1180q9 117 63.5 178t139.5 61q47 0 89.5 -20.5t77 -41t62.5 -20.5q73 0 94 80h105q-21 -239 -197 -239q-38 0 -72 13t-54.5 28t-48 28t-54.5 13q-79 0 -103 -80h-102z" />
<glyph unicode="&#x2000;" horiz-adv-x="994" />
<glyph unicode="&#x2001;" horiz-adv-x="1989" />
<glyph unicode="&#x2002;" horiz-adv-x="994" />
<glyph unicode="&#x2003;" horiz-adv-x="1989" />
<glyph unicode="&#x2004;" horiz-adv-x="663" />
<glyph unicode="&#x2005;" horiz-adv-x="497" />
<glyph unicode="&#x2006;" horiz-adv-x="331" />
<glyph unicode="&#x2007;" horiz-adv-x="331" />
<glyph unicode="&#x2008;" horiz-adv-x="248" />
<glyph unicode="&#x2009;" horiz-adv-x="397" />
<glyph unicode="&#x200a;" horiz-adv-x="110" />
<glyph unicode="&#x2010;" horiz-adv-x="876" d="M111 483v191h655v-191h-655z" />
<glyph unicode="&#x2011;" horiz-adv-x="876" d="M111 483v191h655v-191h-655z" />
<glyph unicode="&#x2012;" horiz-adv-x="876" d="M111 483v191h655v-191h-655z" />
<glyph unicode="&#x2013;" horiz-adv-x="993" d="M61 483v164h871v-164h-871z" />
<glyph unicode="&#x2014;" horiz-adv-x="1638" d="M61 483v164h1516v-164h-1516z" />
<glyph unicode="&#x2018;" horiz-adv-x="491" d="M88 1196q0 230 141 442l119 -28q-68 -134 -86 -260q44 -18 94 -69.5t50 -84.5q0 -40 -60 -99t-100 -59t-99 59t-59 99z" />
<glyph unicode="&#x2019;" horiz-adv-x="491" d="M88 1481q0 40 59 98.5t99 58.5t100 -58.5t60 -98.5q0 -230 -142 -443l-121 29q68 131 86 260q-45 18 -93 69t-48 85z" />
<glyph unicode="&#x201a;" horiz-adv-x="491" d="M88 139q0 40 59 99t99 59t100 -59t60 -99q0 -227 -142 -444l-121 31q68 131 86 260q-45 18 -93 68.5t-48 84.5z" />
<glyph unicode="&#x201c;" horiz-adv-x="897" d="M88 1196q0 230 141 442l119 -28q-68 -134 -86 -260q44 -18 94 -69.5t50 -84.5q0 -40 -60 -99t-100 -59t-99 59t-59 99zM492 1196q0 230 141 442l119 -28q-67 -137 -84 -260q44 -18 92.5 -69.5t48.5 -84.5q0 -40 -59 -99t-99 -59t-99.5 59t-59.5 99z" />
<glyph unicode="&#x201d;" horiz-adv-x="903" d="M88 1481q0 40 59 98.5t99 58.5t100 -58.5t60 -98.5q0 -230 -142 -443l-121 29q68 131 86 260q-45 18 -93 69t-48 85zM498 1481q0 40 58.5 98.5t98.5 58.5t100 -58.5t60 -98.5q0 -231 -141 -443l-121 29q68 131 86 260q-45 18 -93 69t-48 85z" />
<glyph unicode="&#x201e;" horiz-adv-x="901" d="M88 139q0 40 59 99t99 59t100 -59t60 -99q0 -227 -142 -444l-121 31q68 131 86 260q-45 18 -93 68.5t-48 84.5zM498 139q0 40 58.5 99t98.5 59t100 -59t60 -99q0 -228 -141 -444l-121 31q68 131 86 260q-45 18 -93 68.5t-48 84.5z" />
<glyph unicode="&#x2026;" horiz-adv-x="1474" d="M88 139q0 40 59 99t99 59t100 -59t60 -99t-60 -99.5t-100 -59.5t-99 59.5t-59 99.5zM580 139q0 40 58.5 99t98.5 59t100 -59t60 -99t-60 -99.5t-100 -59.5t-98.5 59.5t-58.5 99.5zM1069 139q0 40 59 99t99 59t99.5 -59t59.5 -99t-59.5 -99.5t-99.5 -59.5t-99 59.5 t-59 99.5z" />
<glyph unicode="&#x202f;" horiz-adv-x="397" />
<glyph unicode="&#x2039;" horiz-adv-x="729" d="M82 465v164l543 395l2 -221l-363 -244l-41 -10v-4l41 -10l363 -242l-2 -221z" />
<glyph unicode="&#x203a;" horiz-adv-x="729" d="M98 293l361 242l41 10v4l-41 10l-361 244l2 221l541 -395v-164l-541 -393z" />
<glyph unicode="&#x205f;" horiz-adv-x="497" />
<glyph unicode="&#x20ac;" horiz-adv-x="1232" d="M0 471l41 143h154q-2 23 -2 72v62h-193l41 143h168q19 109 60 195.5t95 143t121.5 94t137.5 53.5t147 16q182 0 358 -90v-316q-31 -6 -79 -6t-80 6l-19 187q-95 30 -180 30q-129 0 -213.5 -77.5t-116.5 -235.5h543l-41 -143h-518q-2 -20 -2 -62q0 -13 1 -37t1 -35h502 l-41 -143h-441q36 -151 121 -226t205 -75q182 0 358 113v-213q-176 -90 -358 -90q-76 0 -145.5 15.5t-137 52.5t-121 92.5t-94.5 140t-61 190.5h-211z" />
<glyph unicode="&#x2122;" horiz-adv-x="3241" d="M37 1026v346h1128v-346q-31 -6 -79 -6t-80 6l-15 158h-276v-1022h2l143 -21q10 -66 0 -141h-516q-10 75 0 141l145 21v1022h-280l-14 -158q-31 -6 -79 -6t-79 6zM1251 0q-10 75 0 141l146 19l172 1054l-125 17q-13 66 0 141h454l314 -1065l8 -92h4l8 92l312 1065h458 q10 -75 0 -141l-127 -17l172 -1054l144 -19q10 -66 0 -141h-520q-13 75 0 141l139 19l-121 936l-6 98h-4l-10 -98l-314 -1045h-268l-311 1045l-11 98h-4l-6 -98l-121 -936l138 -19q13 -66 0 -141h-521z" />
<glyph unicode="&#x25fc;" horiz-adv-x="1024" d="M0 0v1024h1024v-1024h-1024z" />
<glyph horiz-adv-x="624" d="M70 0q-13 75 0 141l145 21v694l-145 6q-13 78 0 142l329 20q31 -111 31 -225v-637l143 -21q13 -66 0 -141h-503zM164 1341q0 38 56.5 95t94.5 57t95 -57t57 -95t-57 -94.5t-95 -56.5t-94.5 56.5t-56.5 94.5z" />
<glyph d="M109 666q0 157 26.5 281.5t72.5 207t110.5 137t136.5 78t155 23.5q82 0 154.5 -23.5t137 -78t110.5 -137t73 -207t27 -281.5q0 -144 -27 -260.5t-73 -195t-110.5 -131t-137 -76t-154.5 -23.5q-104 0 -192 38.5t-158.5 118t-110.5 215t-40 314.5zM344 666 q0 -241 69 -368.5t197 -127.5t197.5 128t69.5 368q0 270 -68.5 404t-198.5 134q-129 0 -197.5 -134t-68.5 -404z" />
<glyph d="M287 0q-10 75 0 141l254 21v1014l-254 -21v176l350 41h129v-1210l248 -21q13 -66 0 -141h-727z" />
<glyph d="M176 0v121q341 340 476.5 543.5t135.5 355.5q0 94 -55.5 139t-169.5 45q-82 0 -162 -26l-20 -201q-31 -6 -79.5 -6t-80.5 6v326q85 43 170 66.5t203 23.5q217 0 322.5 -88t105.5 -271q0 -172 -115.5 -359t-392.5 -464l-41 -16v-5h395l17 158q79 11 157 0v-348h-866z" />
<glyph d="M190 49v213q143 -92 326 -92q135 0 207 54.5t72 160.5q0 131 -89 183.5t-276 52.5h-37l21 182h16q160 0 244 56t84 153q0 192 -226 192q-62 0 -143 -24l-20 -203q-31 -6 -79 -6t-79 6v326q85 43 166 66.5t186 23.5q201 0 311.5 -98t110.5 -271q0 -64 -22.5 -120.5 t-57 -92.5t-69.5 -58t-66 -28v-4q26 -5 56.5 -17t67.5 -39t66.5 -63.5t49.5 -94t20 -126.5q0 -96 -37.5 -173.5t-103.5 -126.5t-153.5 -75t-188.5 -26q-222 0 -357 69z" />
<glyph d="M57 518l531 854h327v-823h166l-10 -191h-156v-196l144 -21q10 -66 0 -141h-514q-13 75 0 141l145 21v196h-588zM293 549h397v692h-4l-24 -88l-369 -600v-4z" />
<glyph d="M176 49v213q67 -43 163 -67.5t185 -24.5q142 0 219.5 62.5t77.5 189.5q0 109 -66.5 169t-201.5 60q-183 0 -352 -49l82 770h712v-325q-31 -6 -78.5 -6t-78.5 6l-15 137h-346l-41 -359q92 15 160 15q94 0 174.5 -23.5t146 -71.5t103 -130.5t37.5 -192.5q0 -107 -41 -193 t-111 -139.5t-159.5 -81.5t-190.5 -28q-244 0 -379 69z" />
<glyph d="M133 584q0 201 61.5 356.5t173.5 254t262 148.5t333 50v-189q-245 0 -398.5 -122.5t-193.5 -338.5q66 70 149.5 100.5t165.5 30.5q56 0 109 -13t106.5 -45.5t93 -81.5t64 -127t24.5 -175q0 -111 -37.5 -199.5t-102 -142.5t-146 -82t-174.5 -28q-83 0 -154 19t-134 63.5 t-107 113t-69.5 172.5t-25.5 236zM371 528q14 -358 252 -358q110 0 171.5 65t61.5 193q0 124 -64.5 190t-162.5 66q-70 0 -140 -36t-118 -120z" />
<glyph d="M160 1026v346h895v-121l-520 -1271l-232 20l492 1163l41 17v4h-504l-15 -158q-31 -6 -78.5 -6t-78.5 6z" />
<glyph d="M131 371q0 66 21.5 123t51 93t69 66t67.5 44t55 24v4q-32 14 -64.5 36.5t-69.5 59.5t-60 92.5t-23 120.5q0 111 60 194t157 124t215 41q117 0 213.5 -41t156.5 -124t60 -194q0 -65 -23 -120.5t-60 -92.5t-69.5 -59.5t-64.5 -36.5v-4q27 -10 55 -24t67.5 -44t69 -66 t51 -93t21.5 -123q0 -81 -28 -148t-74 -111.5t-108.5 -74.5t-129 -43.5t-137.5 -13.5t-138 13.5t-129.5 43.5t-109 74.5t-74.5 111.5t-28 148zM367 383q0 -106 68.5 -159.5t174.5 -53.5q105 0 173.5 53.5t68.5 159.5q0 97 -69 159.5t-173 84.5q-105 -22 -174 -84.5 t-69 -159.5zM401 1022q0 -179 209 -227q209 48 209 227q0 84 -56.5 133t-152.5 49t-152.5 -49t-56.5 -133z" />
<glyph horiz-adv-x="1234" d="M135 940q0 111 37.5 199.5t102.5 143t146.5 82.5t174.5 28q83 0 154 -19t134 -63.5t106.5 -112.5t69 -172.5t25.5 -237.5q0 -200 -61.5 -355.5t-172.5 -253.5t-261.5 -148.5t-333.5 -50.5v190q245 0 398.5 121.5t193.5 337.5q-66 -70 -150 -100.5t-166 -30.5 q-56 0 -109 13t-106.5 45.5t-93 81.5t-64 127t-24.5 175zM365 946q0 -126 63.5 -192t161.5 -66q70 0 140 36t118 120q-14 360 -252 360q-110 0 -170.5 -65t-60.5 -193z" />
<glyph horiz-adv-x="575" d="M49 1624l410 256l88 -164l-438 -205z" />
<glyph horiz-adv-x="454" d="M41 -352q39 -8 94 -8q67 0 100 17.5t33 59.5q0 37 -37 60t-125 33l50 190h123l-35 -121q82 -12 129 -56t47 -108q0 -88 -73 -136t-208 -48q-59 0 -98 8v109z" />
<glyph horiz-adv-x="712" d="M29 1616l327 276l328 -276l-74 -105l-254 181l-254 -181z" />
<glyph horiz-adv-x="987" d="M139 1647q0 35 52.5 86t87.5 51q34 0 85.5 -51t51.5 -86t-51.5 -86.5t-85.5 -51.5q-35 0 -87.5 51.5t-52.5 86.5zM571 1647q0 35 51.5 86t86.5 51t86 -51t51 -86t-51 -86.5t-86 -51.5t-86.5 51.5t-51.5 86.5z" />
<glyph horiz-adv-x="575" d="M49 1716l88 164l410 -256l-60 -113z" />
<glyph horiz-adv-x="600" d="M55 1749q0 99 72 169.5t174 70.5q101 0 172.5 -70.5t71.5 -169.5q0 -98 -71.5 -168t-172.5 -70q-102 0 -174 69.5t-72 168.5zM207 1749q0 -41 26.5 -69.5t67.5 -28.5q39 0 65.5 29t26.5 69t-26.5 69t-65.5 29q-41 0 -67.5 -28.5t-26.5 -69.5z" />
<glyph horiz-adv-x="866" d="M119 1513q9 117 64 178.5t139 61.5q47 0 89.5 -20.5t77 -41t62.5 -20.5q73 0 94 80h105q-21 -240 -197 -240q-38 0 -72 13t-54.5 28t-48 28t-54.5 13q-79 0 -103 -80h-102z" />
</font>
</defs>
</svg>
