<?xml version="1.0" standalone="no"?>
<!DOCTYPE svg PUBLIC "-//W3C//DTD SVG 1.1//EN" "http://www.w3.org/Graphics/SVG/1.1/DTD/svg11.dtd" >
<svg xmlns="http://www.w3.org/2000/svg">
<metadata></metadata>
<defs>
<font id="adagio_slabbold" horiz-adv-x="1239" >
<font-face units-per-em="2048" ascent="1638" descent="-410" />
<missing-glyph horiz-adv-x="421" />
<glyph horiz-adv-x="0" />
<glyph horiz-adv-x="682" />
<glyph unicode=" "  horiz-adv-x="421" />
<glyph unicode="&#x09;" horiz-adv-x="421" />
<glyph unicode="&#xa0;" horiz-adv-x="421" />
<glyph unicode="!" horiz-adv-x="514" d="M63 172q0 46 73.5 119.5t119.5 73.5q47 0 120 -73.5t73 -119.5t-73 -119t-120 -73q-46 0 -119.5 73t-73.5 119zM94 1133v239h328v-239l-51 -658h-226z" />
<glyph unicode="&#x22;" horiz-adv-x="768" d="M88 1434h246l-2 -500h-172zM434 1434h248l-2 -500h-172z" />
<glyph unicode="#" horiz-adv-x="1353" d="M0 283v260h207l39 266h-183v262h222l45 301h286l-45 -301h328l45 301h287l-45 -301h168v-262h-207l-39 -266h184v-260h-223l-43 -283h-287l43 283h-327l-43 -283h-287l43 283h-168zM494 543h327l39 266h-328z" />
<glyph unicode="$" horiz-adv-x="1069" d="M84 973q0 145 73 248t216 145v211h327v-197q93 -16 215 -77v-357q-41 -8 -105 -8t-105 8l-19 172q-69 15 -113 15q-161 0 -161 -129q0 -38 24.5 -69.5t65 -53t92 -45.5t105 -47t105 -59t92 -79t65 -110t24.5 -150q0 -142 -76 -238.5t-209 -140.5v-196h-327v170 q-136 15 -267 84v358q40 6 104 6t105 -6l19 -172q60 -14 141 -14q89 0 134.5 36.5t45.5 98.5q0 48 -31.5 84.5t-82 61t-111 49t-121.5 57t-111.5 74.5t-82 111t-31.5 159z" />
<glyph unicode="%" horiz-adv-x="1851" d="M72 1036q0 166 98 261.5t264 95.5q164 0 262.5 -95.5t98.5 -261.5t-98.5 -261t-262.5 -95q-166 0 -264 95t-98 261zM291 78l1134 1431l185 -153l-1135 -1434zM328 1036q0 -62 25.5 -108.5t80.5 -46.5q54 0 79.5 47t25.5 108q0 63 -25.5 110.5t-79.5 47.5 q-55 0 -80.5 -47.5t-25.5 -110.5zM1057 336q0 166 98 261t264 95q164 0 262.5 -95t98.5 -261t-98.5 -261t-262.5 -95q-166 0 -264 95t-98 261zM1313 336q0 -63 25.5 -110.5t80.5 -47.5q54 0 79.5 47.5t25.5 110.5q0 38 -9.5 71.5t-34 59t-61.5 25.5q-55 0 -80.5 -47 t-25.5 -109z" />
<glyph unicode="&#x26;" horiz-adv-x="1312" d="M53 371q0 212 191 377q-86 130 -86 245q0 186 122.5 293t360.5 107q91 0 167 -23.5t161 -66.5v-357q-41 -8 -105.5 -8t-105.5 8l-19 172q-62 15 -98 15q-154 0 -154 -123q0 -83 86 -195.5t316 -322.5q33 97 33 210h307q0 -238 -109 -417l156 -133v-152h-252l-96 82 q-151 -102 -344 -102q-152 0 -270.5 43.5t-189.5 133.5t-71 214zM385 401q0 -76 52.5 -117.5t146.5 -41.5q61 0 125 28q-176 155 -283 262q-41 -58 -41 -131z" />
<glyph unicode="'" horiz-adv-x="421" d="M88 1434h246l-2 -500h-172z" />
<glyph unicode="(" horiz-adv-x="649" d="M68 711q0 260 74.5 531t207.5 495l268 -21q-104 -233 -163.5 -493.5t-59.5 -511.5q0 -277 57.5 -519t165.5 -487l-268 -20q-282 474 -282 1026z" />
<glyph unicode=")" horiz-adv-x="649" d="M37 -295q108 245 165.5 487t57.5 519q0 251 -59.5 511.5t-163.5 493.5l268 21q133 -224 208 -495t75 -531q0 -551 -283 -1026z" />
<glyph unicode="*" horiz-adv-x="991" d="M47 1047l72 194l311 -154l-47 -126zM166 692l217 269l113 -74l-158 -309zM391 1434h209l-39 -347h-131zM496 887l112 74l217 -269l-174 -114zM561 1087l311 154l72 -194l-336 -86z" />
<glyph unicode="+" horiz-adv-x="1044" d="M31 514v225h383v383h225v-383h381v-225h-381v-381l-225 2v379h-383z" />
<glyph unicode="," horiz-adv-x="516" d="M57 182q0 50 75.5 125.5t125.5 75.5t126.5 -76t76.5 -125q0 -246 -133 -485l-170 33q49 120 65 260q-54 26 -110 89t-56 103z" />
<glyph unicode="-" horiz-adv-x="907" d="M104 449v260h697v-260h-697z" />
<glyph unicode="." horiz-adv-x="516" d="M57 182q0 50 75.5 125.5t125.5 75.5t126.5 -76t76.5 -125t-76.5 -125.5t-126.5 -76.5q-49 0 -125 76t-76 126z" />
<glyph unicode="/" horiz-adv-x="968" d="M37 -164l614 1680h279l-615 -1680h-278z" />
<glyph unicode="0" horiz-adv-x="1269" d="M92 666q0 159 30.5 285t81 207.5t121.5 135.5t147.5 76.5t162.5 22.5q87 0 164 -22.5t147.5 -76.5t121 -135.5t80.5 -207.5t30 -285q0 -147 -30 -264.5t-80.5 -195t-121 -129.5t-147.5 -74.5t-164 -22.5q-86 0 -163 22.5t-147.5 74.5t-121.5 129.5t-81 195t-30 264.5z M430 666q0 -202 54 -313t151 -111t151 111t54 313q0 231 -53.5 349t-151.5 118t-151.5 -118t-53.5 -349z" />
<glyph unicode="1" horiz-adv-x="884" d="M119 1087v244l383 41h186v-1155l123 -20q14 -90 0 -197h-582q-14 107 0 197l131 20v891z" />
<glyph unicode="2" horiz-adv-x="1122" d="M82 0v156q565 562 565 833q0 144 -178 144q-47 0 -113 -15l-18 -172q-41 -8 -105.5 -8t-105.5 8v357q176 90 393 90q459 0 459 -359q0 -160 -98.5 -335t-331.5 -416l-41 -17v-4h270l13 117q41 6 104.5 6t103.5 -6v-379h-917z" />
<glyph unicode="3" horiz-adv-x="1116" d="M129 49v285q143 -92 336 -92q207 0 207 153q0 97 -70 137.5t-223 40.5h-37l20 258h17q133 0 202.5 41.5t69.5 112.5q0 148 -180 148q-44 0 -94 -13l-19 -174q-41 -8 -104.5 -8t-103.5 8v357q176 90 372 90q209 0 327 -98.5t118 -270.5q0 -71 -22.5 -129t-58.5 -92.5 t-73 -54t-74 -25.5v-4q30 -5 63 -17.5t71 -39.5t67.5 -63.5t49.5 -93.5t20 -124q0 -133 -66.5 -225t-175.5 -134t-252 -42q-252 0 -387 69z" />
<glyph unicode="4" horiz-adv-x="1198" d="M68 549l436 823h479v-772h150l-11 -262h-139v-121l123 -20q17 -90 0 -197h-580q-17 107 0 197l129 20v121h-532zM385 600h270v594h-4l-20 -96l-246 -494v-4z" />
<glyph unicode="5" horiz-adv-x="1153" d="M133 49v285q66 -43 167 -67.5t192 -24.5q111 0 168 46.5t57 133.5q0 86 -53.5 134t-163.5 48q-171 0 -359 -49l82 817h791v-356q-41 -8 -105 -8t-104 8l-12 96h-295l-29 -268q52 6 115 6q94 0 176 -24t149.5 -73.5t106.5 -134t39 -196.5q0 -138 -71 -240t-186 -152 t-255 -50q-275 0 -410 69z" />
<glyph unicode="6" horiz-adv-x="1189" d="M102 584q0 169 45.5 305.5t125 229.5t190.5 155.5t238 90.5t272 28v-260q-218 0 -353 -95.5t-178 -271.5q119 108 277 108q53 0 104 -11.5t103.5 -41.5t92 -76t64.5 -121.5t25 -170.5q0 -116 -40.5 -209t-109 -149t-153 -85.5t-178.5 -29.5q-87 0 -161 18t-142.5 61.5 t-116.5 111t-76.5 173t-28.5 240.5zM442 502q10 -133 55.5 -196.5t129.5 -63.5q83 0 125.5 53.5t42.5 142.5q0 90 -46 137.5t-120 47.5q-46 0 -96.5 -28t-90.5 -93z" />
<glyph unicode="7" horiz-adv-x="1040" d="M68 995v377h925v-155l-477 -1237l-348 20l448 1092l41 16v4h-368l-13 -117q-41 -7 -104.5 -7t-103.5 7z" />
<glyph unicode="8" horiz-adv-x="1212" d="M94 371q0 63 18.5 118t45 91.5t62 67t63.5 46.5t55 27v4q-193 104 -193 309q0 111 64.5 194t168 124t228.5 41t228.5 -41t168 -124t64.5 -194q0 -205 -193 -309v-4q27 -11 55 -27t63.5 -46.5t62 -67t45 -91.5t18.5 -118q0 -81 -30.5 -148t-81 -111.5t-117.5 -74.5 t-138 -43.5t-145 -13.5t-145 13.5t-138 43.5t-117.5 74.5t-81 111.5t-30.5 148zM432 410q0 -77 48 -122.5t126 -45.5t126 45.5t48 122.5q0 146 -174 182q-174 -36 -174 -182zM451 995q0 -140 155 -178q156 37 156 178q0 62 -43 100t-113 38t-112.5 -38t-42.5 -100z" />
<glyph unicode="9" horiz-adv-x="1189" d="M82 920q0 116 40.5 209t109 149t153 85.5t178.5 29.5q88 0 162 -18t142.5 -61.5t116 -111t75.5 -173t28 -241.5q0 -168 -45.5 -304.5t-124.5 -229t-189.5 -155t-238 -91t-272.5 -28.5v262q219 0 353.5 94t177.5 270q-119 -108 -275 -108q-54 0 -105 11.5t-104 42 t-92.5 76.5t-64.5 121t-25 171zM397 936q0 -91 45.5 -138.5t118.5 -47.5q47 0 97 27.5t90 92.5q-10 133 -56 198t-129 65q-82 0 -124 -54t-42 -143z" />
<glyph unicode=":" horiz-adv-x="577" d="M57 182q0 50 75.5 125.5t125.5 75.5t126.5 -76t76.5 -125t-76.5 -125.5t-126.5 -76.5q-49 0 -125 76t-76 126zM57 813q0 49 75.5 125t125.5 76t126.5 -76t76.5 -125t-76.5 -126t-126.5 -77q-49 0 -125 76.5t-76 126.5z" />
<glyph unicode=";" horiz-adv-x="516" d="M57 182q0 50 75.5 125.5t125.5 75.5t126.5 -76t76.5 -125q0 -246 -133 -485l-170 33q49 120 65 260q-54 26 -110 89t-56 103zM57 813q0 49 75.5 125t125.5 76t126.5 -76t76.5 -125t-76.5 -126t-126.5 -77q-49 0 -125 76.5t-76 126.5z" />
<glyph unicode="&#x3c;" horiz-adv-x="978" d="M61 514v225l834 365l2 -324l-526 -139l-41 -10v-4l41 -11l526 -139l-2 -323z" />
<glyph unicode="=" horiz-adv-x="1050" d="M61 319v226h928v-226h-928zM61 709v225h928v-225h-928z" />
<glyph unicode="&#x3e;" horiz-adv-x="978" d="M82 477l528 139l41 11v4l-41 10l-528 139l2 324l834 -365v-225l-834 -360z" />
<glyph unicode="?" horiz-adv-x="1015" d="M82 946v357q176 90 393 90q238 0 348.5 -89t110.5 -249q0 -54 -20.5 -102.5t-53.5 -86t-72.5 -73t-79.5 -70.5t-73 -71t-53.5 -81.5t-20.5 -95.5h-225q0 88 27.5 159.5t66.5 117t78 85t66.5 83t27.5 90.5q0 58 -46 90.5t-132 32.5q-47 0 -113 -15l-18 -172 q-41 -8 -105.5 -8t-105.5 8zM254 172q0 46 73 119.5t119 73.5q47 0 120 -73.5t73 -119.5t-73 -119t-120 -73q-46 0 -119 73t-73 119z" />
<glyph unicode="@" horiz-adv-x="2125" d="M82 492q0 198 75 372.5t207.5 299.5t321.5 197.5t408 72.5q216 0 395.5 -67.5t296 -182t180.5 -264t64 -316.5q0 -284 -125 -434t-346 -150q-220 0 -318 101q-135 -101 -266 -101q-161 0 -266 129t-105 347q0 224 119 348.5t340 124.5q88 0 208 -25.5t208 -75.5v-501 q0 -71 22 -107.5t80 -36.5q32 0 56.5 15.5t47.5 54.5t35.5 118t12.5 193q0 71 -13 138t-41.5 135.5t-78.5 125.5t-118.5 102t-168 70t-219.5 25q-204 0 -361 -81.5t-247.5 -243t-90.5 -383.5q0 -167 52 -300t145.5 -220t221 -133t280.5 -46q309 0 508 70v-223 q-230 -80 -508 -80q-219 0 -408 71t-321.5 194t-207.5 296t-75 371zM905 496q0 -136 39 -198t119 -62q68 0 125 32v473q-51 13 -111 13q-172 0 -172 -258z" />
<glyph unicode="A" horiz-adv-x="1488" d="M10 0q-8 54 -8 103t8 94l146 20l319 946l-113 13q-7 45 -7 94t7 102h615l385 -1155l119 -20q7 -45 7 -94t-7 -103h-598q-7 54 -7 103t7 94l133 18l-49 160h-432l-48 -158l119 -20q8 -45 8 -94t-8 -103h-596zM614 635h275l-125 409l-10 113h-4l-9 -113z" />
<glyph unicode="B" horiz-adv-x="1282" d="M63 0q-7 54 -7 103t7 94l132 20v938l-132 21q-7 45 -7 94t7 102h132q79 0 223 10.5t215 10.5q248 0 380 -97.5t132 -271.5q0 -71 -23 -128.5t-59 -92t-73.5 -54.5t-74.5 -26v-4q30 -5 65 -17.5t76 -39.5t73.5 -63.5t54.5 -93.5t22 -124q0 -103 -41.5 -181t-118.5 -125.5 t-180.5 -71t-232.5 -23.5q-71 0 -215 10t-223 10h-132zM522 242h111q117 0 176 43.5t59 124.5q0 80 -62 120.5t-173 40.5h-111v-329zM522 831h111q93 0 144.5 42t51.5 112q0 68 -49 108t-147 40q-19 0 -56 -1.5t-55 -1.5v-299z" />
<glyph unicode="C" horiz-adv-x="1245" d="M70 686q0 153 42 276t110.5 202t162 132t191.5 75t204 22q213 0 389 -90v-357q-41 -8 -105.5 -8t-105.5 8l-18 168q-93 19 -160 19q-173 0 -272.5 -114.5t-99.5 -332.5q0 -217 100.5 -330.5t271.5 -113.5q110 0 211.5 31.5t177.5 80.5v-284q-176 -90 -389 -90 q-106 0 -204 22t-191.5 74.5t-162 131.5t-110.5 202t-42 276z" />
<glyph unicode="D" horiz-adv-x="1478" d="M63 0q-7 54 -7 103t7 94l132 20v938l-132 21q-7 45 -7 94t7 102h132q66 1 225 11t270 10q106 0 204 -22t192 -75t162.5 -132t110.5 -202t42 -276t-42 -276t-110.5 -202t-162.5 -131.5t-192 -74.5t-204 -22q-107 0 -265 10t-230 10h-132zM522 244q51 -2 168 -2 q171 0 272 113.5t101 330.5t-101 332t-272 115q-40 0 -168 -5v-884z" />
<glyph unicode="E" horiz-adv-x="1128" d="M63 0q-7 54 -7 103t7 94l132 20v938l-132 21q-7 45 -7 94t7 102h965v-377q-40 -7 -104 -7t-105 7l-12 117h-285v-295l352 14v-260l-352 15v-324h318l12 117q41 6 105.5 6t105.5 -6v-379h-1000z" />
<glyph unicode="F" horiz-adv-x="1058" d="M63 0q-7 54 -7 103t7 94l132 20v938l-132 21q-7 45 -7 94t7 102h965v-377q-40 -7 -104 -7t-105 7l-12 117h-285v-315l352 14v-260l-352 14v-348l215 -20q7 -45 7 -94t-7 -103h-674z" />
<glyph unicode="G" horiz-adv-x="1333" d="M70 686q0 153 42 276t110.5 202t162 132t191.5 75t204 22q234 0 410 -90v-357q-41 -8 -105.5 -8t-105.5 8l-16 166q-96 21 -183 21q-173 0 -272.5 -114.5t-99.5 -332.5q0 -217 100.5 -330.5t271.5 -113.5q81 0 138 8v264h-183l19 262h477v-706q-176 -90 -451 -90 q-106 0 -204 22t-191.5 74.5t-162 131.5t-110.5 202t-42 276z" />
<glyph unicode="H" horiz-adv-x="1599" d="M63 0q-7 54 -7 103t7 94l132 20v938l-132 21q-7 45 -7 94t7 102h582q7 -53 7 -102t-7 -94l-123 -21v-324h563v324l-131 21q-7 45 -7 94t7 102h582q7 -53 7 -102t-7 -94l-123 -21v-938l123 -20q7 -45 7 -94t-7 -103h-582q-7 54 -7 103t7 94l131 20v354h-563v-354l123 -20 q7 -45 7 -94t-7 -103h-582z" />
<glyph unicode="I" horiz-adv-x="729" d="M74 0q-7 54 -7 103t7 94l131 20v938l-131 21q-7 45 -7 94t7 102h581q7 -53 7 -102t-7 -94l-123 -21v-938l123 -20q7 -45 7 -94t-7 -103h-581z" />
<glyph unicode="J" horiz-adv-x="757" d="M33 -135q125 45 170 108.5t45 169.5v1012l-131 21q-7 45 -7 94t7 102h581q7 -53 7 -102t-7 -94l-123 -21v-954q0 -120 -22.5 -206t-78.5 -157t-156 -115t-250 -67z" />
<glyph unicode="K" horiz-adv-x="1402" d="M63 0q-7 54 -7 103t7 94l132 20v938l-132 21q-7 45 -7 94t7 102h582q7 -53 7 -102t-7 -94l-123 -21v-938l123 -20q7 -45 7 -94t-7 -103h-582zM567 711l316 452l-80 13q-7 45 -7 94t7 102h555q7 -53 7 -102t-7 -94l-158 -21l-299 -434l-57 -8v-4l57 -11l324 -481l172 -20 q7 -45 7 -94t-7 -103h-412z" />
<glyph unicode="L" horiz-adv-x="1093" d="M63 0q-7 54 -7 103t7 94l132 20v938l-132 21q-7 45 -7 94t7 102h582q7 -53 7 -102t-7 -94l-123 -21v-893h305l13 117q41 6 105 6t104 -6v-379h-986z" />
<glyph unicode="M" horiz-adv-x="2091" d="M43 0q-7 54 -7 103t7 94l135 20l158 942l-111 17q-8 45 -8.5 94t8.5 102h596l215 -1005l11 -111h4l8 111l215 1005h598q7 -53 7 -102t-7 -94l-111 -17l156 -942l131 -20q7 -45 7 -94t-7 -103h-596q-8 54 -8 103t8 94l119 18l-90 799l-6 129h-5l-10 -129l-215 -983h-395 l-215 983l-10 129h-4l-7 -129l-90 -797l115 -20q8 -45 8.5 -94t-8.5 -103h-596z" />
<glyph unicode="N" horiz-adv-x="1619" d="M90 0q-8 54 -8 103t8 94l131 20v938l-131 21q-8 45 -8 94t8 102h526l469 -852l23 -117h4v752l-131 21q-8 45 -8.5 94t8.5 102h582q7 -53 7 -102t-7 -94l-123 -21v-1155h-393l-474 844l-20 112h-4v-739l123 -20q7 -45 7 -94t-7 -103h-582z" />
<glyph unicode="O" horiz-adv-x="1562" d="M70 686q0 153 42 276t110.5 202t162 132t191.5 75t204 22q107 0 205.5 -22t192 -75t162.5 -132t111 -202t42 -276t-42 -276t-111 -202t-163 -131.5t-192 -74.5t-205 -22q-106 0 -204 22t-191.5 74.5t-162 131.5t-110.5 202t-42 276zM408 686q0 -217 100.5 -330.5 t271.5 -113.5t273 114t102 330q0 217 -102 332t-273 115t-271.5 -115t-100.5 -332z" />
<glyph unicode="P" horiz-adv-x="1193" d="M61 0q-8 54 -8.5 103t8.5 94l132 20v938l-132 21q-8 45 -8.5 94t8.5 102h132q79 0 223 10.5t215 10.5q241 0 377.5 -110t136.5 -314q0 -203 -136.5 -313.5t-377.5 -110.5q-19 0 -56 1t-55 1v-330l215 -20q7 -45 7 -94t-7 -103h-674zM520 809q37 -2 111 -2q94 0 142 41 t48 121t-48.5 122t-141.5 42q-19 0 -56 -1.5t-55 -1.5v-321z" />
<glyph unicode="Q" horiz-adv-x="1542" d="M59 686q0 153 42 276t110.5 202t162.5 132t192 75t204 22q107 0 205.5 -22t192 -75t162.5 -132t111 -202t42 -276q0 -389 -260 -575l211 -316h-361l-121 203q-89 -18 -182 -18q-106 0 -204 22t-192 74.5t-162.5 131.5t-110.5 202t-42 276zM397 686q0 -217 101 -330.5 t272 -113.5t273 114t102 330q0 217 -102 332t-273 115t-272 -115t-101 -332z" />
<glyph unicode="R" horiz-adv-x="1306" d="M61 0q-8 54 -8.5 103t8.5 94l132 20v938l-132 21q-8 45 -8.5 94t8.5 102h132q79 0 223 10.5t215 10.5q231 0 365 -110t134 -314q0 -127 -57.5 -218t-163.5 -141l230 -393l170 -20q7 -45 7 -94t-7 -103h-416l-291 555q-14 0 -41 1t-41 1v-340l123 -20q7 -45 7 -94t-7 -103 h-582zM520 819q37 -2 111 -2q84 0 131 40t47 112q0 79 -47 121.5t-131 42.5q-19 0 -56 -1.5t-55 -1.5v-311z" />
<glyph unicode="S" horiz-adv-x="1085" d="M92 973q0 190 125 305t365 115q100 0 178 -23t164 -67v-357q-41 -8 -105.5 -8t-105.5 8l-19 172q-73 15 -112 15q-162 0 -162 -129q0 -38 24.5 -69.5t65 -53t92 -45.5t105 -47t105 -59t92 -79t65 -110t24.5 -150q0 -132 -67 -226t-181 -139.5t-264 -45.5q-192 0 -368 90 v358q41 6 105.5 6t105.5 -6l18 -172q60 -14 139 -14q90 0 136.5 36.5t46.5 98.5q0 48 -31.5 84.5t-82 61t-111.5 49t-122 57t-111.5 74.5t-82 111t-31.5 159z" />
<glyph unicode="T" horiz-adv-x="1247" d="M27 995v377h1194v-377q-40 -7 -104 -7t-105 7l-13 117h-208v-895h2l122 -20q7 -45 7 -94t-7 -103h-581q-8 54 -8 103t8 94l129 20v895h-215l-12 -117q-41 -7 -105 -7t-104 7z" />
<glyph unicode="U" horiz-adv-x="1478" d="M27 1176q-7 45 -7 94t7 102h581q8 -53 8 -102t-8 -94l-123 -21v-643q0 -270 242 -270q240 0 240 270v643l-131 21q-7 45 -7 94t7 102h581q8 -53 8.5 -102t-8.5 -94l-123 -21v-657q0 -253 -146 -385.5t-421 -132.5q-276 0 -422.5 132.5t-146.5 385.5v657z" />
<glyph unicode="V" horiz-adv-x="1470" d="M29 1176q-8 45 -8.5 94t8.5 102h585q8 -53 8 -102t-8 -94l-114 -19l235 -829l8 -97h5l10 97l237 829l-116 19q-8 45 -8.5 94t8.5 102h565q7 -53 7 -102t-7 -94l-119 -21l-371 -1155h-432l-368 1155z" />
<glyph unicode="W" horiz-adv-x="2066" d="M12 1176q-7 45 -7 94t7 102h588q7 -53 7 -102t-7 -94l-121 -21l158 -811l10 -113h4l11 113l194 1008h383l176 -1008l10 -113h5l10 113l159 813l-110 19q-7 45 -7 94t7 102h565q7 -53 7 -102t-7 -94l-115 -21l-297 -1155h-403l-188 1010l-11 143h-4l-10 -143l-188 -1010 h-404l-297 1155z" />
<glyph unicode="X" horiz-adv-x="1361" d="M37 0q-8 54 -8.5 103t8.5 94l127 20l260 494l41 10v4l-41 10l-240 422l-145 19q-8 45 -8.5 94t8.5 102h582q8 -53 8.5 -102t-8.5 -94l-70 -13l139 -280h4l127 282l-69 11q-8 45 -8 94t8 102h555q8 -53 8.5 -102t-8.5 -94l-146 -19l-231 -422l-39 -8v-4l39 -10l268 -496 l131 -20q8 -45 8.5 -94t-8.5 -103h-581q-7 54 -7 103t7 94l77 12l-163 332h-5l-147 -326l106 -18q8 -45 8 -94t-8 -103h-579z" />
<glyph unicode="Y" horiz-adv-x="1331" d="M20 1176q-8 45 -8 94t8 102h582q8 -53 8 -102t-8 -94l-90 -17l160 -379l8 -116h4l10 116l156 381l-94 15q-7 45 -7 94t7 102h557q7 -53 7 -102t-7 -94l-144 -17l-333 -684v-258l122 -20q8 -45 8 -94t-8 -103h-581q-7 54 -7 103t7 94l131 20v258l-334 680z" />
<glyph unicode="Z" horiz-adv-x="1148" d="M59 0v156l584 936l41 16v4h-383l-12 -117q-40 -7 -104 -7t-105 7v377h999v-155l-583 -934l-41 -17v-4h413l13 117q41 6 105 6t104 -6v-379h-1031z" />
<glyph unicode="[" horiz-adv-x="626" d="M88 -307v2007h498v-225h-205v-1557h205v-225h-498z" />
<glyph unicode="\" horiz-adv-x="985" d="M37 1516h278l615 -1680h-279z" />
<glyph unicode="]" horiz-adv-x="626" d="M41 -82h205v1557h-205v225h500v-2007h-500v225z" />
<glyph unicode="^" horiz-adv-x="1042" d="M47 1024l361 731h225l364 -731l-323 -2l-139 426l-11 86h-4l-10 -86l-139 -426z" />
<glyph unicode="_" horiz-adv-x="931" d="M41 -41h881v-225h-881v225z" />
<glyph unicode="`" horiz-adv-x="616" d="M51 1352l127 211l412 -293l-88 -148z" />
<glyph unicode="a" horiz-adv-x="1064" d="M78 236q0 138 141 226t385 118v43q0 92 -37 130t-131 38q-161 0 -309 -97v254q138 76 360 76q232 0 333.5 -94.5t101.5 -276.5v-436l129 -20q7 -45 7 -94t-7 -103h-416q-1 4 -8 30t-9 40q-129 -90 -258 -90q-123 0 -202.5 66.5t-79.5 189.5zM350 285q0 -43 25.5 -69 t75.5 -26q82 0 153 48v192q-76 -10 -128 -26t-78.5 -35.5t-37 -39.5t-10.5 -44z" />
<glyph unicode="b" horiz-adv-x="1150" d="M-10 1319q-8 54 -8 103t8 94l418 20q30 -107 30 -225v-361q120 74 238 74q177 0 293 -141t116 -381q0 -248 -131.5 -385t-375.5 -137q-154 0 -318 51l-47 -31h-92v1313zM438 229q57 -16 125 -16q195 0 195 289q0 153 -44 221t-136 68q-75 0 -140 -39v-523z" />
<glyph unicode="c" horiz-adv-x="933" d="M68 502q0 248 130.5 385t374.5 137q176 0 308 -76v-305q-41 -6 -100 -6t-99 6l-18 143q-25 5 -60 5q-104 0 -156.5 -69t-52.5 -220t52.5 -220t156.5 -69q70 0 133 21t144 75v-254q-130 -75 -308 -75q-244 0 -374.5 137t-130.5 385z" />
<glyph unicode="d" horiz-adv-x="1193" d="M68 502q0 248 130.5 385t374.5 137q73 0 142 -16v305l-131 6q-7 54 -7 103t7 94l417 20q31 -111 31 -225v-1094l127 -20q8 -45 8.5 -94t-8.5 -103h-414q-15 56 -16 63q-128 -83 -252 -83q-178 0 -293.5 141t-115.5 381zM395 502q0 -153 43.5 -221t134.5 -68q74 0 142 39 v518q-53 21 -125 21q-195 0 -195 -289z" />
<glyph unicode="e" horiz-adv-x="1069" d="M68 502q0 244 136.5 383t368.5 139q191 0 311 -100.5t120 -296.5q0 -47 -9 -127l-608 -64q22 -223 217 -223q170 0 314 96v-254q-130 -75 -345 -75q-244 0 -374.5 137t-130.5 385zM379 592l330 47q0 89 -35 125.5t-101 36.5q-169 0 -194 -209z" />
<glyph unicode="f" horiz-adv-x="880" d="M70 770v234h153v129q0 191 115.5 297t302.5 106q137 0 238 -55v-238q-89 60 -183 60q-155 0 -155 -216v-83h297l-11 -234h-286v-553l123 -20q7 -45 7 -94t-7 -103h-572q-7 54 -7 103t7 94l131 20v553h-153z" />
<glyph unicode="g" horiz-adv-x="1144" d="M104 -213q0 60 33 123t92 117q-98 56 -98 153q0 105 127 232q-154 98 -154 266q0 153 128.5 249.5t328.5 96.5q84 0 164 -25l154 162l159 -125l-110 -153q88 -91 88 -205q0 -153 -127.5 -248.5t-327.5 -95.5q-89 0 -162 18q-39 -39 -39 -73q0 -35 56 -51t162 -23 q62 -4 109 -9.5t104.5 -16t99.5 -25t83.5 -38t68 -53.5t43 -73t16.5 -96q0 -172 -159.5 -273.5t-432.5 -101.5q-202 0 -304 73t-102 195zM340 -162q0 -62 50.5 -88t150.5 -26q129 0 209.5 34.5t80.5 98.5q0 45 -77 66.5t-275 39.5q-36 2 -88 10q-51 -64 -51 -135zM395 678 q0 -61 45.5 -96t120.5 -35t120.5 35t45.5 96t-45.5 96t-120.5 35t-120.5 -35t-45.5 -96z" />
<glyph unicode="h" horiz-adv-x="1292" d="M59 0q-8 54 -8.5 103t8.5 94l129 20v1096l-129 6q-8 54 -8.5 103t8.5 94l416 20q31 -111 31 -225v-385q148 98 285 98q173 0 251 -89t78 -267v-451l129 -20q7 -45 7 -94t-7 -103h-446v657q0 73 -23 103.5t-86 30.5q-94 0 -188 -66v-508l123 -20q8 -45 8.5 -94t-8.5 -103 h-570z" />
<glyph unicode="i" horiz-adv-x="669" d="M55 0q-7 54 -7 103t7 94l131 20v584l-131 6q-7 54 -7 103t7 94l418 20q31 -111 31 -225v-582l123 -20q8 -45 8.5 -94t-8.5 -103h-572zM145 1339q0 47 73 120t120 73t119.5 -73t72.5 -120t-72.5 -119.5t-119.5 -72.5t-120 72.5t-73 119.5z" />
<glyph unicode="j" horiz-adv-x="671" d="M35 -274q104 36 144 99.5t40 180.5v795l-131 6q-7 53 -7 102.5t7 94.5l418 20q31 -111 31 -225v-768q0 -124 -21.5 -209t-75 -149t-143.5 -100.5t-227 -53.5zM176 1339q0 47 73 120t120 73t119.5 -73t72.5 -120t-72.5 -119.5t-119.5 -72.5t-120 72.5t-73 119.5z" />
<glyph unicode="k" horiz-adv-x="1280" d="M55 0q-7 54 -7 103t7 94l131 20v1096l-131 6q-7 54 -7 103t7 94l418 20q31 -111 31 -225v-1094l112 -20q8 -45 8 -94t-8 -103h-561zM551 537l188 256l-84 14q-8 45 -8.5 94t8.5 103h562q8 -54 8.5 -103t-8.5 -94l-162 -8l-181 -250l-40 -8v-4l40 -9l218 -315v4l159 -20 q7 -45 7 -94t-7 -103h-387z" />
<glyph unicode="l" horiz-adv-x="700" d="M66 0q-7 54 -7 103t7 94l131 20v1096l-131 6q-7 54 -7 103t7 94l417 20q31 -111 31 -225v-1094l123 -20q8 -45 8.5 -94t-8.5 -103h-571z" />
<glyph unicode="m" horiz-adv-x="1861" d="M55 0q-7 54 -7 103t7 94l131 20v584l-131 6q-7 54 -7 103t7 94l418 20q14 -50 23 -102q139 102 282 102q207 0 281 -133q155 133 321 133q170 0 249 -89.5t79 -266.5v-451l127 -20q8 -45 8 -94t-8 -103h-444v657q0 72 -23.5 103t-85.5 31q-93 0 -176 -62v-512l127 -20 q8 -45 8.5 -94t-8.5 -103h-445v657q0 73 -23.5 103.5t-84.5 30.5q-93 0 -176 -62v-512l123 -20q8 -45 8.5 -94t-8.5 -103h-572z" />
<glyph unicode="n" horiz-adv-x="1273" d="M55 0q-7 54 -7 103t7 94l131 20v584l-131 6q-7 54 -7 103t7 94l418 20q19 -70 23 -104q145 104 292 104q173 0 251.5 -89t78.5 -267v-451l129 -20q7 -45 7 -94t-7 -103h-446v657q0 73 -24 103.5t-87 30.5q-95 0 -186 -66v-508l123 -20q8 -45 8.5 -94t-8.5 -103h-572z" />
<glyph unicode="o" horiz-adv-x="1146" d="M68 502q0 248 130.5 385t374.5 137t376 -137t132 -385t-132 -385t-376 -137t-374.5 137t-130.5 385zM395 502q0 -153 43.5 -221t134.5 -68q92 0 136.5 68t44.5 221t-44.5 221t-136.5 68q-91 0 -134.5 -68t-43.5 -221z" />
<glyph unicode="p" horiz-adv-x="1198" d="M35 -264l131 20v1045l-131 6q-7 53 -7 102.5t7 94.5l418 20q13 -46 18 -82q124 82 250 82q178 0 293.5 -141t115.5 -381q0 -248 -130.5 -385t-374.5 -137q-73 0 -142 16v-240l201 -20q7 -45 7 -94.5t-7 -102.5h-649q-7 53 -7 102.5t7 94.5zM483 233q50 -20 125 -20 q195 0 195 289q0 153 -43.5 221t-134.5 68q-74 0 -142 -39v-519z" />
<glyph unicode="q" horiz-adv-x="1138" d="M68 502q0 248 130.5 385t374.5 137q157 0 318 -51l49 31h92v-1465h-526q-8 53 -8 102.5t8 94.5l207 20h2v297q-121 -73 -238 -73q-178 0 -293.5 141t-115.5 381zM395 502q0 -153 43.5 -221t134.5 -68q74 0 142 39v522q-61 17 -125 17q-195 0 -195 -289z" />
<glyph unicode="r" horiz-adv-x="980" d="M49 0q-8 54 -8.5 103t8.5 94l129 20v584l-129 6q-8 54 -8.5 103t8.5 94l416 20q18 -64 24 -123q140 123 306 123q118 0 118 -121v-340q-40 -7 -98.5 -7t-99.5 7l-23 191h-33q-87 0 -163 -60v-477l200 -20q7 -45 7 -94t-7 -103h-647z" />
<glyph unicode="s" horiz-adv-x="919" d="M74 700q0 142 107 233t306 91q184 0 316 -76v-278q-41 -6 -100 -6t-99 6l-22 129q-44 10 -95 10q-106 0 -106 -72q0 -25 20 -45.5t52.5 -35.5t74.5 -33t85.5 -36t85.5 -46.5t74.5 -62t52.5 -84.5t20 -113q0 -150 -111.5 -225.5t-314.5 -75.5q-202 0 -332 75v279 q41 8 100.5 8t100.5 -8l16 -129q65 -12 115 -12q54 0 87.5 18.5t33.5 52.5q0 27 -26 49.5t-67 40t-90.5 37t-99.5 46t-91 59.5t-67 86t-26 118z" />
<glyph unicode="t" horiz-adv-x="851" d="M43 770v234h162l61 286l248 21v-307h277l-11 -234h-266v-364q0 -113 27.5 -153t91.5 -40q75 0 158 59v-237q-98 -55 -222 -55q-372 0 -372 389v401h-154z" />
<glyph unicode="u" horiz-adv-x="1222" d="M10 807q-8 54 -8 103t8 94l418 20q31 -111 31 -225v-453q0 -71 22 -102t78 -31q101 0 186 70v518l-131 6q-8 54 -8 103t8 94l418 20q31 -111 31 -225v-582l129 -20q7 -45 7 -94t-7 -103h-416q-11 45 -20 92q-143 -112 -293 -112q-166 0 -244 89.5t-78 266.5v465z" />
<glyph unicode="v" horiz-adv-x="1212" d="M-2 807q-7 54 -7 103t7 94l418 20l196 -678l11 -113h4l8 113l129 442l-119 19q-7 45 -7 94t7 103h572q8 -54 8.5 -103t-8.5 -94l-136 -21l-293 -786h-339l-299 801z" />
<glyph unicode="w" horiz-adv-x="1757" d="M-12 807q-7 54 -7 103t7 94l420 20l141 -678l10 -113h4l10 113l140 623l346 20l139 -643l10 -113h4l9 113l96 442l-121 19q-7 45 -7 94t7 103h571q8 -54 8.5 -103t-8.5 -94l-137 -21l-256 -786h-334l-145 664l-8 135h-4l-11 -135l-141 -664h-356l-248 801z" />
<glyph unicode="x" horiz-adv-x="1218" d="M41 807q-8 54 -8.5 103t8.5 94l418 20l174 -373h4l72 144l-74 12q-8 45 -8.5 94t8.5 103h508q8 -54 8.5 -103t-8.5 -94l-148 -21l-151 -254l-41 -10v-4l41 -8l178 -293l156 -20q8 -45 8 -94t-8 -103h-392l-178 365h-4l-80 -148l80 -20q7 -45 7 -94t-7 -103h-530 q-8 54 -8 103t8 94l149 20l170 293l41 8v4l-41 10l-164 267z" />
<glyph unicode="y" horiz-adv-x="1214" d="M-4 807q-7 53 -7 102.5t7 94.5l418 20l213 -678l8 -133h4l10 133l117 442l-119 19q-9 45 -9 94t9 103h572q7 -54 7 -103t-7 -94l-129 -19l-465 -1249l-326 -20v86l193 360v4l-338 830z" />
<glyph unicode="z" horiz-adv-x="993" d="M59 0v121l435 629l41 16v4h-242l-14 -127q-40 -7 -99 -7t-100 7v361h833v-127l-430 -623l-39 -16v-5h267l14 129q41 6 100 6t99 -6v-362h-865z" />
<glyph unicode="{" horiz-adv-x="641" d="M88 649v96q41 10 68 30t39.5 47.5t17 53t4.5 60.5q0 67 -20.5 254.5t-20.5 253.5q0 46 17 87t56.5 79.5t116.5 62.5t185 27l29 -211q-58 -17 -78.5 -51t-20.5 -107q0 -67 20.5 -223.5t20.5 -222.5q0 -63 -37.5 -109.5t-136.5 -79.5q99 -33 136.5 -79t37.5 -107 q0 -67 -20.5 -225t-20.5 -224q0 -73 20.5 -106.5t78.5 -50.5l-29 -211q-108 3 -185 27t-116.5 62.5t-56.5 79.5t-17 87q0 67 20.5 255t20.5 255q0 35 -4.5 60.5t-17 53t-39.5 47t-68 29.5z" />
<glyph unicode="|" horiz-adv-x="593" d="M133 -410v2048h309v-2048h-309z" />
<glyph unicode="}" horiz-adv-x="641" d="M61 -96q58 17 78.5 50.5t20.5 106.5q0 66 -20.5 224t-20.5 225q0 61 37.5 107t136.5 79q-99 33 -136.5 79.5t-37.5 109.5q0 66 20.5 222.5t20.5 223.5q0 73 -20.5 107t-78.5 51l29 211q87 -2 154.5 -19t108.5 -42t67.5 -58.5t36.5 -67t10 -69.5q0 -66 -20.5 -253.5 t-20.5 -254.5q0 -35 4.5 -60.5t17 -53t39.5 -47.5t68 -30v-96q-41 -10 -68 -29.5t-39.5 -47t-17 -53t-4.5 -60.5q0 -67 20.5 -255t20.5 -255q0 -36 -10 -69.5t-36.5 -67t-67.5 -58.5t-108.5 -42t-154.5 -19z" />
<glyph unicode="~" horiz-adv-x="1052" d="M61 713l70 -205q61 50 113.5 68t111.5 18q57 0 116.5 -24t124 -48t134.5 -24q109 0 260 80l-69 206q-88 -63 -179 -63q-52 0 -114.5 24.5t-132 49t-138.5 24.5q-134 0 -297 -106z" />
<glyph unicode="&#xa2;" horiz-adv-x="933" d="M68 502q0 202 87.5 331.5t254.5 172.5v182h317v-178q80 -18 154 -62v-305q-41 -6 -100 -6t-99 6l-18 143q-25 5 -60 5q-104 0 -156.5 -69t-52.5 -220t52.5 -220t156.5 -69q70 0 133 21t144 75v-254q-72 -42 -154 -61v-178h-317v182q-167 43 -254.5 172.5t-87.5 331.5z " />
<glyph unicode="&#xa3;" horiz-adv-x="1169" d="M72 604v164h135v266q0 174 109 266.5t348 92.5q217 0 393 -90v-357q-40 -8 -104 -8t-105 8l-19 172q-69 15 -114 15q-178 0 -178 -144v-221h397v-164h-397v-45q0 -33 -9 -72.5t-28.5 -83t-56.5 -82t-85 -59.5h478l12 117q41 6 105 6t104 -6v-379h-973v262q56 40 89.5 133 t33.5 164v45h-135z" />
<glyph unicode="&#xa5;" horiz-adv-x="1284" d="M20 1176q-17 90 0 196h582q17 -106 0 -196l-90 -17l160 -379l8 -116h4l10 116l156 381l-94 15q-14 90 0 196h557q14 -106 0 -196l-144 -17l-254 -520h215v-150h-286l-8 -14v-53h294v-150h-294v-55l122 -20q17 -90 0 -197h-581q-14 107 0 197l131 20v55h-320v150h320v53 l-8 14h-312v150h240l-254 516z" />
<glyph unicode="&#xa8;" horiz-adv-x="1017" d="M102 1358q0 43 65.5 108.5t108.5 65.5q44 0 110.5 -65.5t66.5 -108.5q0 -44 -66.5 -110t-110.5 -66q-43 0 -108.5 66t-65.5 110zM565 1358q0 43 66.5 108.5t109.5 65.5t110 -65.5t67 -108.5q0 -44 -67 -110t-110 -66t-109.5 66t-66.5 110z" />
<glyph unicode="&#xa9;" horiz-adv-x="1536" d="M61 686q0 124 29.5 229.5t82 181t120.5 134t148 93t162 52t165 17.5t165 -17.5t162 -52t148 -93t120.5 -134t82 -181t29.5 -229.5t-29.5 -229t-82 -181t-120.5 -134t-148 -92.5t-162 -52t-165 -17.5t-165 17.5t-162 52t-148 92.5t-120.5 134t-82 181t-29.5 229zM102 686 q0 -141 40.5 -256.5t106.5 -191t154 -127t179 -73.5t186 -22t186 22t179 73.5t154 127t106.5 191t40.5 256.5t-40.5 256.5t-106.5 191t-154 127t-179 73.5t-186 22t-186 -22t-179 -73.5t-154 -127t-106.5 -191t-40.5 -256.5zM414 686q0 187 99 291t284 104q131 0 233 -57 v-229q-77 -14 -151 0l-15 108q-14 2 -45 2q-79 0 -118 -51.5t-39 -167.5t39 -167.5t118 -51.5q98 0 211 74v-193q-102 -57 -233 -57q-185 0 -284 104t-99 291z" />
<glyph unicode="&#xab;" horiz-adv-x="1200" d="M61 406v225l517 389l2 -324l-250 -166l-41 -10v-4l41 -10l250 -164l-2 -324zM600 420v194l516 406l2 -324l-250 -166l-41 -10v-4l41 -10l250 -164l-2 -324z" />
<glyph unicode="&#xad;" horiz-adv-x="907" d="M104 449v260h697v-260h-697z" />
<glyph unicode="&#xb4;" horiz-adv-x="614" d="M51 1270l412 293l127 -211l-451 -230z" />
<glyph unicode="&#xb8;" horiz-adv-x="475" d="M41 -342q39 -8 94 -8q47 0 77 15.5t30 47.5q0 68 -146 74l51 213h158l-31 -121q81 -18 129 -62.5t48 -113.5q0 -87 -77.5 -135.5t-213.5 -48.5q-80 0 -119 8v131z" />
<glyph unicode="&#xbb;" horiz-adv-x="1200" d="M68 342l249 164l41 10v4l-41 10l-249 166l2 324l516 -406v-194l-516 -402zM606 342l250 164l41 10v4l-41 10l-250 166l2 324l516 -389v-225l-516 -388z" />
<glyph unicode="&#xd3;" horiz-adv-x="1562" d="M70 686q0 153 42 276t110.5 202t162 132t191.5 75t204 22q107 0 205.5 -22t192 -75t162.5 -132t111 -202t42 -276t-42 -276t-111 -202t-163 -131.5t-192 -74.5t-205 -22q-106 0 -204 22t-191.5 74.5t-162 131.5t-110.5 202t-42 276zM408 686q0 -217 100.5 -330.5 t271.5 -113.5t273 114t102 330q0 217 -102 332t-273 115t-271.5 -115t-100.5 -332zM516 1669l451 262l114 -233l-483 -197z" />
<glyph unicode="&#xf3;" horiz-adv-x="1146" d="M68 502q0 248 130.5 385t374.5 137t376 -137t132 -385t-132 -385t-376 -137t-374.5 137t-130.5 385zM344 1270l414 293l127 -211l-451 -230zM395 502q0 -153 43.5 -221t134.5 -68q92 0 136.5 68t44.5 221t-44.5 221t-136.5 68q-91 0 -134.5 -68t-43.5 -221z" />
<glyph unicode="&#x104;" horiz-adv-x="1490" d="M10 0q-14 107 0 197l146 20h2l317 946l-113 13q-14 90 0 196h183h432l387 -1155l117 -20q14 -90 0 -197h-320q-149 -83 -149 -201q0 -73 94 -73q71 0 123 32l20 -198q-87 -41 -205 -41q-117 0 -195.5 55t-78.5 156q0 235 287 354l-88 291h-432l-50 -158l119 -20 q17 -90 0 -197h-596zM616 635h273l-125 409l-8 113h-4l-11 -113z" />
<glyph unicode="&#x105;" horiz-adv-x="1064" d="M78 236q0 138 141 226t385 118v43q0 92 -37 130t-131 38q-161 0 -309 -97v254q138 76 360 76q232 0 333.5 -94.5t101.5 -276.5v-436l129 -20q14 -90 0 -197h-199q-168 -89 -168 -201q0 -34 24 -53.5t70 -19.5q71 0 123 32l21 -198q-87 -41 -205 -41q-117 0 -196 55 t-79 156q0 179 191 282q-6 19 -15 58q-129 -90 -258 -90q-123 0 -202.5 66.5t-79.5 189.5zM350 285q0 -43 25.5 -69t75.5 -26q82 0 153 48v192q-76 -10 -128 -26t-78.5 -35.5t-37 -39.5t-10.5 -44z" />
<glyph unicode="&#x106;" horiz-adv-x="1245" d="M70 686q0 153 42 276t110.5 202t162 132t191.5 75t204 22q213 0 389 -90v-357q-41 -8 -105.5 -8t-105.5 8l-18 168q-93 19 -160 19q-173 0 -272.5 -114.5t-99.5 -332.5q0 -217 100.5 -330.5t271.5 -113.5q110 0 211.5 31.5t177.5 80.5v-284q-176 -90 -389 -90 q-106 0 -204 22t-191.5 74.5t-162 131.5t-110.5 202t-42 276zM489 1669l451 262l115 -233l-484 -197z" />
<glyph unicode="&#x107;" horiz-adv-x="933" d="M68 502q0 248 130.5 385t374.5 137q176 0 308 -76v-305q-41 -6 -100 -6t-99 6l-18 143q-25 5 -60 5q-104 0 -156.5 -69t-52.5 -220t52.5 -220t156.5 -69q70 0 133 21t144 75v-254q-130 -75 -308 -75q-244 0 -374.5 137t-130.5 385zM324 1270l411 293l127 -211l-450 -230z " />
<glyph unicode="&#x118;" horiz-adv-x="1128" d="M63 0q-14 107 0 197l132 20v938l-132 21q-14 90 0 196h965v-377q-40 -7 -104 -7t-105 7l-12 117h-285v-295l352 14v-260l-352 15v-324h318l12 117q41 6 105.5 6t105.5 -6v-379h-102q-85 -45 -126.5 -98.5t-41.5 -102.5q0 -73 94 -73q71 0 123 32l20 -198 q-87 -41 -205 -41q-117 0 -195.5 55t-78.5 156q0 164 186 270h-674z" />
<glyph unicode="&#x119;" horiz-adv-x="1079" d="M68 502q0 244 136.5 383t368.5 139q191 0 311 -100.5t120 -296.5q0 -47 -9 -127l-608 -64q22 -223 217 -223q170 0 314 96v-254q-10 -5 -11 -6q-209 -117 -209 -250q0 -73 95 -73q70 0 122 32l21 -198q-87 -41 -205 -41q-117 0 -195.5 55t-78.5 156q0 146 131 250h-15 q-244 0 -374.5 137t-130.5 385zM379 592l330 47q0 89 -35 125.5t-101 36.5q-169 0 -194 -209z" />
<glyph unicode="&#x141;" horiz-adv-x="1079" d="M80 430v262l192 80v383l-131 21q-14 90 0 196h582q14 -106 0 -196l-123 -21v-254l223 113v-260l-223 -92v-400h305l13 117q41 6 104.5 6t103.5 -6v-379h-985q-14 107 0 197l131 20v311z" />
<glyph unicode="&#x142;" horiz-adv-x="774" d="M37 446v261l194 75v531l-131 6q-17 107 0 197l418 20q31 -111 31 -225v-408l188 96v-262l-188 -75v-445l123 -20q14 -90 0 -197h-572q-17 107 0 197l131 20v324z" />
<glyph unicode="&#x143;" horiz-adv-x="1619" d="M90 0q-17 107 0 197l131 20v938l-131 21q-17 90 0 196h526l469 -852l23 -117h4v752l-131 21q-17 90 0 196h582q14 -106 0 -196l-123 -21v-1155h-393l-474 844l-20 112h-4v-739l123 -20q14 -90 0 -197h-582zM627 1669l450 262l115 -233l-483 -197z" />
<glyph unicode="&#x144;" horiz-adv-x="1271" d="M55 0q-14 107 0 197l131 20v584l-131 6q-14 107 0 197l418 20q19 -70 23 -104q145 104 292 104q173 0 251.5 -89t78.5 -267v-451l129 -20q14 -90 0 -197h-446v657q0 73 -24 103.5t-87 30.5q-95 0 -186 -66v-508l123 -20q17 -90 0 -197h-572zM416 1270l411 293l127 -211 l-450 -230z" />
<glyph unicode="&#x15a;" horiz-adv-x="1085" d="M92 973q0 190 125 305t365 115q100 0 178 -23t164 -67v-357q-41 -8 -105.5 -8t-105.5 8l-19 172q-73 15 -112 15q-162 0 -162 -129q0 -38 24.5 -69.5t65 -53t92 -45.5t105 -47t105 -59t92 -79t65 -110t24.5 -150q0 -132 -67 -226t-181 -139.5t-264 -45.5q-192 0 -368 90 v358q41 6 105.5 6t105.5 -6l18 -172q60 -14 139 -14q90 0 136.5 36.5t46.5 98.5q0 48 -31.5 84.5t-82 61t-111.5 49t-122 57t-111.5 74.5t-82 111t-31.5 159zM317 1669l451 262l113 -233l-484 -197z" />
<glyph unicode="&#x15b;" horiz-adv-x="919" d="M74 700q0 142 107 233t306 91q184 0 316 -76v-278q-41 -6 -100 -6t-99 6l-22 129q-44 10 -95 10q-106 0 -106 -72q0 -25 20 -45.5t52.5 -35.5t74.5 -33t85.5 -36t85.5 -46.5t74.5 -62t52.5 -84.5t20 -113q0 -150 -111.5 -225.5t-314.5 -75.5q-202 0 -332 75v279 q41 8 100.5 8t100.5 -8l16 -127q60 -14 115 -14q54 0 87.5 18.5t33.5 52.5q0 27 -26 49.5t-67 40t-90.5 37t-99.5 46t-91 59.5t-67 86t-26 118zM248 1270l411 293l127 -211l-450 -230z" />
<glyph unicode="&#x179;" horiz-adv-x="1148" d="M59 0v156l584 936l41 16v4h-383l-12 -117q-40 -7 -104 -7t-105 7v377h999v-155l-583 -934l-41 -17v-4h413l13 117q41 6 105 6t104 -6v-379h-1031zM377 1669l450 262l115 -233l-483 -197z" />
<glyph unicode="&#x17a;" horiz-adv-x="993" d="M59 0v121l435 629l41 16v4h-242l-14 -127q-40 -7 -99 -7t-100 7v361h833v-127l-430 -623l-39 -16v-5h267l14 129q41 6 100 6t99 -6v-362h-865zM324 1270l413 293l127 -211l-450 -230z" />
<glyph unicode="&#x17b;" horiz-adv-x="1148" d="M59 0v156l584 936l41 16v4h-383l-12 -117q-40 -7 -104 -7t-105 7v377h999v-155l-583 -934l-41 -17v-4h413l13 117q41 6 105 6t104 -6v-379h-1031zM383 1673q0 47 72.5 120t119.5 73t120 -73t73 -120t-73 -119.5t-120 -72.5t-119.5 72.5t-72.5 119.5z" />
<glyph unicode="&#x17c;" horiz-adv-x="993" d="M59 0v121l435 629l41 16v4h-242l-14 -127q-40 -7 -99 -7t-100 7v361h833v-127l-430 -623l-39 -16v-5h267l14 129q41 6 100 6t99 -6v-362h-865zM299 1339q0 47 73 120t120 73t119.5 -73t72.5 -120t-72.5 -119.5t-119.5 -72.5t-120 72.5t-73 119.5z" />
<glyph unicode="&#x2c6;" horiz-adv-x="753" d="M10 1270l367 299l366 -299l-104 -148l-262 174l-262 -174z" />
<glyph unicode="&#x2da;" horiz-adv-x="669" d="M78 1397q0 102 73.5 172.5t184.5 70.5q110 0 184 -70.5t74 -172.5t-74 -173t-184 -71q-111 0 -184.5 71t-73.5 173zM260 1397q0 -33 21.5 -55.5t54.5 -22.5t53.5 22.5t20.5 55.5q0 32 -20.5 54t-53.5 22t-54.5 -22.5t-21.5 -53.5z" />
<glyph unicode="&#x2dc;" horiz-adv-x="866" d="M109 1165q6 140 64 210.5t149 70.5q44 0 86.5 -22t78.5 -44t64 -22q32 0 59.5 19t34.5 61h115q-7 -141 -63.5 -211t-149.5 -70q-44 0 -83.5 22t-73.5 44t-64 22q-81 0 -105 -80h-112z" />
<glyph unicode="&#x2000;" horiz-adv-x="1024" />
<glyph unicode="&#x2001;" horiz-adv-x="2048" />
<glyph unicode="&#x2002;" horiz-adv-x="1024" />
<glyph unicode="&#x2003;" horiz-adv-x="2048" />
<glyph unicode="&#x2004;" horiz-adv-x="682" />
<glyph unicode="&#x2005;" horiz-adv-x="512" />
<glyph unicode="&#x2006;" horiz-adv-x="341" />
<glyph unicode="&#x2007;" horiz-adv-x="341" />
<glyph unicode="&#x2008;" horiz-adv-x="256" />
<glyph unicode="&#x2009;" horiz-adv-x="409" />
<glyph unicode="&#x200a;" horiz-adv-x="113" />
<glyph unicode="&#x2010;" horiz-adv-x="907" d="M104 449v260h697v-260h-697z" />
<glyph unicode="&#x2011;" horiz-adv-x="907" d="M104 449v260h697v-260h-697z" />
<glyph unicode="&#x2012;" horiz-adv-x="907" d="M104 449v260h697v-260h-697z" />
<glyph unicode="&#x2013;" horiz-adv-x="1054" d="M61 449v225h932v-225h-932z" />
<glyph unicode="&#x2014;" horiz-adv-x="1679" d="M61 449v225h1557v-225h-1557z" />
<glyph unicode="&#x2018;" horiz-adv-x="516" d="M57 1155q0 244 133 483l168 -30q-49 -124 -65 -262q55 -26 111.5 -88.5t56.5 -102.5q0 -49 -76.5 -125t-126.5 -76t-125.5 76t-75.5 125z" />
<glyph unicode="&#x2019;" horiz-adv-x="516" d="M57 1438q0 49 75.5 124.5t125.5 75.5t126.5 -75.5t76.5 -124.5q0 -248 -133 -484l-170 31q49 120 65 260q-54 25 -110 89t-56 104z" />
<glyph unicode="&#x201a;" horiz-adv-x="516" d="M57 182q0 50 75.5 125.5t125.5 75.5t126.5 -76t76.5 -125q0 -246 -133 -485l-170 33q49 120 65 260q-54 26 -110 89t-56 103z" />
<glyph unicode="&#x201c;" horiz-adv-x="993" d="M57 1155q0 244 133 483l168 -30q-49 -124 -65 -262q55 -26 111.5 -88.5t56.5 -102.5q0 -49 -76.5 -125t-126.5 -76t-125.5 76t-75.5 125zM532 1155q0 242 134 483l170 -30q-55 -137 -66 -262q54 -26 110 -88.5t56 -102.5q0 -49 -76 -125t-125 -76q-50 0 -126.5 76 t-76.5 125z" />
<glyph unicode="&#x201d;" horiz-adv-x="995" d="M57 1438q0 49 75.5 124.5t125.5 75.5t126.5 -75.5t76.5 -124.5q0 -248 -133 -484l-170 31q49 120 65 260q-54 25 -110 89t-56 104zM532 1438q0 49 75.5 124.5t125.5 75.5t126.5 -75.5t76.5 -124.5q0 -248 -133 -484l-170 31q49 120 65 260q-54 25 -110 89t-56 104z" />
<glyph unicode="&#x201e;" horiz-adv-x="991" d="M57 182q0 50 75.5 125.5t125.5 75.5t126.5 -76t76.5 -125q0 -246 -133 -485l-170 33q49 120 65 260q-54 26 -110 89t-56 103zM532 182q0 50 76 125.5t125 75.5q50 0 126.5 -76t76.5 -125q0 -246 -133 -485l-170 33q49 120 65 260q-54 26 -110 89t-56 103z" />
<glyph unicode="&#x2026;" horiz-adv-x="1548" d="M57 182q0 50 75.5 125.5t125.5 75.5t126.5 -76t76.5 -125t-76.5 -125.5t-126.5 -76.5q-49 0 -125 76t-76 126zM573 182q0 50 75.5 125.5t125.5 75.5t126.5 -76t76.5 -125t-76.5 -125.5t-126.5 -76.5q-49 0 -125 76t-76 126zM1087 182q0 49 76.5 125t126.5 76t125.5 -75.5 t75.5 -125.5t-76 -126t-125 -76q-50 0 -126.5 76.5t-76.5 125.5z" />
<glyph unicode="&#x202f;" horiz-adv-x="409" />
<glyph unicode="&#x2039;" horiz-adv-x="718" d="M61 410v225l574 389l2 -324l-305 -163l-41 -11v-4l41 -10l305 -164l-2 -323z" />
<glyph unicode="&#x203a;" horiz-adv-x="718" d="M68 348l303 164l41 10v4l-41 11l-303 163l2 324l571 -389v-225l-571 -385z" />
<glyph unicode="&#x205f;" horiz-adv-x="512" />
<glyph unicode="&#x20ac;" horiz-adv-x="1191" d="M0 471l41 164h127q-2 16 -2 51q0 27 2 41h-168l41 164h143q20 109 64 195.5t101 143t128.5 94t145 53.5t153.5 16q101 0 181 -23.5t165 -66.5v-326q-40 -7 -104 -7t-105 7l-16 141q-73 15 -121 15q-207 0 -266 -242h473l-41 -164h-453v-41v-51h437l-41 -164h-371 q61 -229 262 -229q171 0 346 112v-284q-85 -43 -165 -66.5t-181 -23.5q-79 0 -152 15.5t-144 52.5t-127.5 92.5t-100.5 140t-66 190.5h-186z" />
<glyph unicode="&#x2122;" horiz-adv-x="3338" d="M27 995v377h1194v-377q-40 -7 -104 -7t-105 7l-13 117h-208v-895h2l122 -20q14 -90 0 -197h-581q-17 107 0 197l129 20v895h-215l-12 -117q-41 -7 -105 -7t-104 7zM1290 0q-17 107 0 197l135 20l156 942l-111 17q-14 90 0 196h598l216 -1005l8 -111h4l10 111l215 1005 h598q14 -106 0 -196l-113 -17l158 -942l131 -20q14 -90 0 -197h-598q-14 107 0 197l121 18l-90 799l-6 129h-4l-11 -129l-215 -983h-395l-215 983l-10 129h-4l-6 -129l-90 -797l114 -20q17 -90 0 -197h-596z" />
<glyph unicode="&#x25fc;" horiz-adv-x="1024" d="M0 0v1024h1024v-1024h-1024z" />
<glyph horiz-adv-x="669" d="M55 0q-14 107 0 197l131 20v584l-131 6q-14 107 0 197l418 20q31 -111 31 -225v-582l123 -20q17 -90 0 -197h-572zM145 1339q0 47 73 120t120 73t119.5 -73t72.5 -120t-72.5 -119.5t-119.5 -72.5t-120 72.5t-73 119.5z" />
<glyph d="M78 666q0 159 30 285t80.5 207.5t121 135.5t147.5 76.5t164 22.5q86 0 162.5 -22.5t147 -76.5t121.5 -135.5t81 -207.5t30 -285q0 -147 -30 -264.5t-81 -195t-121.5 -129.5t-147 -74.5t-162.5 -22.5q-87 0 -164 22.5t-147.5 74.5t-121 129.5t-80.5 195t-30 264.5z M416 666q0 -202 54 -313t151 -111t150.5 111t53.5 313q0 232 -53 349.5t-151 117.5t-151.5 -118t-53.5 -349z" />
<glyph d="M246 1331l397 41h186v-1155l246 -20q17 -90 0 -197h-827q-17 107 0 197l254 20v891l-254 -21z" />
<glyph d="M162 0v156q565 562 565 833q0 144 -178 144q-46 0 -115 -15l-18 -172q-40 -8 -104 -8t-105 8v357q176 90 393 90q239 0 348 -92.5t109 -266.5q0 -161 -97.5 -335.5t-330.5 -415.5l-41 -17v-4h270l12 117q40 6 104 6t105 -6v-379h-917z" />
<glyph d="M180 49v285q143 -92 336 -92q207 0 207 153q0 97 -70 137.5t-223 40.5h-37l21 258h16q133 0 202.5 41.5t69.5 112.5q0 148 -180 148q-44 0 -94 -13l-18 -174q-41 -8 -105 -8t-104 8v357q176 90 372 90q209 0 327 -98.5t118 -270.5q0 -71 -22.5 -129t-58 -92.5t-72.5 -54 t-74 -25.5v-4q30 -5 63 -17.5t71 -39.5t67.5 -63.5t49 -93.5t19.5 -124q0 -133 -66.5 -225t-175.5 -134t-252 -42q-252 0 -387 69z" />
<glyph d="M47 549l436 823h480v-772h149l-10 -262h-139v-121l122 -20q17 -90 0 -197h-579q-17 107 0 197l129 20v121h-533zM365 600h270v594h-4l-21 -96l-245 -494v-4z" />
<glyph d="M182 49v285q66 -43 166.5 -67.5t190.5 -24.5q113 0 170 46.5t57 133.5q0 86 -53.5 134t-163.5 48q-171 0 -359 -49l82 817h791v-356q-41 -8 -105.5 -8t-105.5 8l-10 96h-295l-31 -268q56 6 115 6q94 0 176.5 -24t150 -73.5t107 -134t39.5 -196.5q0 -138 -71 -240 t-186 -152t-257 -50q-273 0 -408 69z" />
<glyph d="M113 584q0 169 45.5 305.5t125 229.5t190 155.5t237.5 90.5t272 28v-260q-218 0 -352.5 -95.5t-177.5 -271.5q119 108 276 108q53 0 104 -11.5t103.5 -41.5t92 -76t64.5 -121.5t25 -170.5q0 -116 -40.5 -209t-109 -149t-153 -85.5t-178.5 -29.5q-72 0 -135 13t-123 40.5 t-107.5 75t-83.5 112.5t-55.5 157.5t-19.5 205.5zM453 502q10 -133 55.5 -196.5t128.5 -63.5t125.5 53.5t42.5 142.5q0 90 -46 137.5t-120 47.5q-46 0 -96 -28t-90 -93z" />
<glyph d="M150 995v377h925v-155l-477 -1237l-348 20l448 1092l41 16v4h-368l-13 -117q-41 -7 -104.5 -7t-103.5 7z" />
<glyph d="M109 371q0 63 18 118t44.5 92t61.5 67t63 46t56 27v4q-192 101 -192 309q0 111 64.5 194t168 124t228.5 41q124 0 227 -41t167 -124t64 -194q0 -208 -192 -309v-4q28 -11 56 -27t63 -46t61.5 -67t44.5 -92t18 -118q0 -81 -30 -148t-80 -111.5t-117 -74.5t-137.5 -43.5 t-144.5 -13.5t-145 13.5t-138 43.5t-117.5 74.5t-81 111.5t-30.5 148zM446 410q0 -77 48.5 -122.5t126.5 -45.5q76 0 124 45.5t48 122.5q0 146 -172 182q-175 -36 -175 -182zM465 995q0 -141 156 -178q155 38 155 178q0 62 -42.5 100t-112.5 38t-113 -38t-43 -100z" />
<glyph horiz-adv-x="1286" d="M121 920q0 116 40.5 209t109 149t153 85.5t178.5 29.5q87 0 161 -18t142.5 -61.5t116 -111t76 -173.5t28.5 -241q0 -168 -45.5 -304.5t-124.5 -229t-189.5 -155t-238 -91t-272.5 -28.5v262q218 0 352.5 94t177.5 270q-119 -108 -276 -108q-53 0 -104 11.5t-103.5 42 t-92 76.5t-64.5 121.5t-25 170.5zM436 936q0 -92 45 -139t119 -47q112 0 186 120q-11 134 -56 198.5t-128 64.5t-124.5 -54t-41.5 -143z" />
<glyph horiz-adv-x="616" d="M57 1669l451 262l115 -233l-484 -197z" />
<glyph horiz-adv-x="475" d="M41 -330q39 -8 94 -8q46 0 76.5 16t30.5 48q0 67 -146 73l51 201h158l-31 -109q81 -18 129 -62.5t48 -113.5q0 -87 -77.5 -135.5t-213.5 -48.5q-80 0 -119 8v131z" />
<glyph horiz-adv-x="753" d="M10 1649l367 299l366 -299l-104 -148l-262 174l-262 -174z" />
<glyph horiz-adv-x="1017" d="M100 1661q0 44 66 110t110 66q43 0 109 -66t66 -110q0 -43 -66 -108.5t-109 -65.5q-44 0 -110 65.5t-66 108.5zM565 1661q0 44 65.5 110t108.5 66q44 0 110 -66t66 -110q0 -43 -66 -108.5t-110 -65.5q-43 0 -108.5 65.5t-65.5 108.5z" />
<glyph horiz-adv-x="616" d="M57 1698l115 233l451 -262l-82 -168z" />
<glyph horiz-adv-x="669" d="M45 1774q0 115 83 194.5t208 79.5q124 0 206.5 -79.5t82.5 -194.5t-82.5 -194t-206.5 -79q-125 0 -208 79t-83 194zM252 1774q0 -36 23 -60t61 -24q36 0 59 24t23 60t-23 60t-59 24q-38 0 -61 -24t-23 -60z" />
<glyph horiz-adv-x="866" d="M109 1507q6 141 64 211t149 70q44 0 86.5 -21.5t78.5 -43t64 -21.5q32 0 59.5 19t34.5 61h115q-7 -143 -63.5 -212t-149.5 -69q-44 0 -83.5 21.5t-73.5 43t-64 21.5q-81 0 -105 -80h-112z" />
</font>
</defs>
</svg>
