<?xml version="1.0" standalone="no"?>
<!DOCTYPE svg PUBLIC "-//W3C//DTD SVG 1.1//EN" "http://www.w3.org/Graphics/SVG/1.1/DTD/svg11.dtd" >
<svg xmlns="http://www.w3.org/2000/svg">
<metadata></metadata>
<defs>
<font id="adagio_slabextralight" horiz-adv-x="1085" >
<font-face units-per-em="2048" ascent="1638" descent="-410" />
<missing-glyph horiz-adv-x="460" />
<glyph horiz-adv-x="0" />
<glyph horiz-adv-x="682" />
<glyph unicode=" "  horiz-adv-x="460" />
<glyph unicode="&#x09;" horiz-adv-x="460" />
<glyph unicode="&#xa0;" horiz-adv-x="460" />
<glyph unicode="!" horiz-adv-x="372" d="M123 43q0 15 24 39t39 24t39.5 -24t24.5 -39t-24.5 -39t-39.5 -24t-39 24t-24 39zM166 983v389h41v-389l-6 -750h-31z" />
<glyph unicode="&#x22;" horiz-adv-x="614" d="M164 1434h41v-430h-25zM410 1434h41v-430h-25z" />
<glyph unicode="#" horiz-adv-x="1148" d="M0 362v37h184l82 553h-203v37h209l58 383h41l-58 -383h574l57 383h41l-57 -383h221v-37h-227l-82 -553h247v-37h-253l-54 -362h-41l54 362h-574l-53 -362h-41l53 362h-178zM225 399h574l82 553h-574z" />
<glyph unicode="$" horiz-adv-x="995" d="M113 70v249q13 4 26 0l19 -229q159 -74 291 -74q187 0 290 86.5t103 237.5q0 73 -25 130t-67 94.5t-96.5 67t-115 52.5t-120.5 46t-114.5 52.5t-96.5 67t-67 95t-25 130.5q0 154 97.5 235t262.5 83v184h41v-184q158 -7 320 -90v-250q-5 -1 -14 -1t-13 1l-18 229 q-155 74 -308 74t-240 -70t-87 -211q0 -68 25 -120.5t67 -87t96.5 -62.5t115 -50.5t120.5 -46t114.5 -55t96.5 -72t67 -102t25 -139.5q0 -151 -97 -246t-270 -110v-168h-41v164h-26q-160 0 -336 90z" />
<glyph unicode="%" horiz-adv-x="1660" d="M102 1036q0 168 82.5 262.5t233.5 94.5t233 -94t82 -263q0 -168 -82 -262t-233 -94t-233.5 94t-82.5 262zM143 1036q0 -153 70 -236t205 -83t204.5 83t69.5 236t-69.5 236.5t-204.5 83.5t-205 -83.5t-70 -236.5zM246 0l1186 1460l30 -26l-1186 -1461zM928 336 q0 168 82 262t233 94t233.5 -94t82.5 -262t-82.5 -262t-233.5 -94t-233 94t-82 262zM969 336q0 -153 69.5 -236.5t204.5 -83.5t205 83.5t70 236.5t-70 236t-205 83t-204.5 -83t-69.5 -236z" />
<glyph unicode="&#x26;" horiz-adv-x="1208" d="M123 350q0 140 68.5 249t177.5 185q-119 183 -119 312q0 77 29 136t78.5 93t109.5 51t129 17q100 0 171.5 -22.5t160.5 -67.5v-250q-5 -1 -14 -1t-13 1l-18 229q-141 74 -287 74q-49 0 -92 -8.5t-82.5 -28t-68 -48.5t-45.5 -74t-17 -101q0 -143 161.5 -361.5 t479.5 -521.5q102 150 102 371h41q0 -236 -114 -400q51 -49 165 -155v-29h-28q-110 102 -162 154q-144 -174 -373 -174q-86 0 -164 23t-140 67t-99 116.5t-37 163.5zM164 350q0 -67 22 -123t59.5 -94.5t88.5 -65t108.5 -39t120.5 -12.5q216 0 344 164q-362 348 -520 576 q-101 -69 -162 -173t-61 -233z" />
<glyph unicode="'" horiz-adv-x="368" d="M164 1434h41v-430h-25z" />
<glyph unicode="(" horiz-adv-x="434" d="M82 711q0 251 66.5 504.5t195.5 474.5l29 -21q-250 -450 -250 -958q0 -509 250 -959l-29 -20q-129 221 -195.5 474.5t-66.5 504.5z" />
<glyph unicode=")" horiz-adv-x="434" d="M61 -248q250 450 250 959q0 508 -250 958l29 21q129 -221 195.5 -474.5t66.5 -504.5t-66.5 -504.5t-195.5 -474.5z" />
<glyph unicode="*" horiz-adv-x="913" d="M82 1157l14 39l348 -135l-10 -25zM188 756l246 280l21 -18l-236 -289zM436 1434h41l-8 -373h-25zM459 1018l20 18l246 -280l-31 -27zM469 1061l348 135l14 -39l-352 -121z" />
<glyph unicode="+" horiz-adv-x="921" d="M61 639v37h381v381h37v-381h381v-37h-381v-381h-37v381h-381z" />
<glyph unicode="," horiz-adv-x="380" d="M123 47q0 15 26 41.5t41 26.5t41.5 -26.5t26.5 -41.5q0 -172 -82 -356l-24 4q55 147 43 285q-22 4 -47 28.5t-25 38.5z" />
<glyph unicode="-" horiz-adv-x="860" d="M113 547v37h635v-37h-635z" />
<glyph unicode="." horiz-adv-x="380" d="M123 47q0 15 26 41.5t41 26.5t41.5 -26.5t26.5 -41.5t-26.5 -41t-41.5 -26t-41 26t-26 41z" />
<glyph unicode="/" horiz-adv-x="718" d="M41 -164l614 1680h43l-614 -1680h-43z" />
<glyph unicode="0" horiz-adv-x="1126" d="M123 666q0 155 22.5 278.5t62.5 206.5t96 138t120 79.5t139 24.5q94 0 171.5 -40t139 -123.5t96 -227t34.5 -336.5q0 -143 -23 -258.5t-62.5 -194.5t-95.5 -132t-121 -77t-139 -24t-138.5 24t-120.5 77t-96 132t-62.5 194.5t-22.5 258.5zM164 666q0 -137 20.5 -247 t56 -184.5t86.5 -124.5t109.5 -72t126.5 -22q86 0 156.5 36.5t126 112t86.5 203t31 298.5q0 149 -20.5 267t-56.5 196.5t-87 130t-109.5 74t-126.5 22.5q-86 0 -156 -37t-126 -115.5t-86.5 -215.5t-30.5 -322z" />
<glyph unicode="1" horiz-adv-x="718" d="M164 1300v31l252 41h14v-1335l154 -10q3 -13 0 -27h-348q-3 14 0 27l153 10v1288z" />
<glyph unicode="2" horiz-adv-x="1064" d="M113 0v29q140 147 227.5 242t180.5 201t145.5 178t97.5 147.5t63.5 137t18.5 120.5q0 137 -86 219t-264 82q-145 0 -295 -84l-21 -219q-13 -4 -26 0v229q88 54 165 82.5t177 28.5q193 0 292 -93t99 -245q0 -62 -18.5 -127t-62.5 -140.5t-95 -147t-138.5 -172t-168 -187.5 t-207.5 -220l-31 -20v-4h700l19 213q13 4 26 0v-250h-798z" />
<glyph unicode="3" horiz-adv-x="1024" d="M143 49v37q137 -70 320 -70q78 0 147 21t126 63.5t90.5 114.5t33.5 166q0 109 -52 181t-139 103t-208 31h-47l10 37h37q163 0 260.5 88.5t97.5 222.5q0 153 -90.5 232.5t-245.5 79.5q-124 0 -274 -68l-19 -235q-13 -4 -26 0v250q85 43 159.5 66.5t161.5 23.5 q170 0 272.5 -90.5t102.5 -258.5q0 -135 -82 -219t-192 -104v-4q42 -5 82.5 -16.5t84 -37t75.5 -61.5t52.5 -93t20.5 -128q0 -82 -24 -149.5t-65.5 -113.5t-97.5 -77.5t-118.5 -46t-130.5 -14.5q-187 0 -322 69z" />
<glyph unicode="4" horiz-adv-x="1126" d="M82 438l686 934h61v-926h215l-10 -36h-205v-373l154 -10q3 -13 0 -27h-348q-3 14 0 27l153 10v373h-686zM137 446h651v895h-4l-14 -32l-633 -858v-5z" />
<glyph unicode="5" horiz-adv-x="1105" d="M164 68v41q175 -93 342 -93q62 0 120.5 12.5t112.5 41t94.5 70t64.5 104t24 137.5q0 101 -36 174.5t-97.5 113.5t-131.5 58t-151 18q-160 0 -322 -49l82 676h625v-250q-13 -4 -27 0l-18 213h-543l-78 -594q115 41 281 41q69 0 132.5 -12.5t123.5 -42.5t104 -74.5 t70.5 -114.5t26.5 -157q0 -101 -40 -180.5t-106.5 -126t-145.5 -70.5t-165 -24q-100 0 -177.5 22.5t-164.5 65.5z" />
<glyph unicode="6" horiz-adv-x="1116" d="M133 584q0 422 190 615.5t578 193.5v-37q-367 0 -545 -177.5t-182 -570.5q41 78 93 131t110.5 79t111.5 36t115 10q57 0 111 -13.5t107.5 -46.5t93 -82.5t64 -126.5t24.5 -173q0 -110 -33 -195.5t-92 -139t-136.5 -80.5t-169.5 -27q-93 0 -171 35t-139 105.5t-95.5 189 t-34.5 274.5zM174 549q4 -139 36 -243.5t87 -166.5t124 -92.5t152 -30.5q175 0 282.5 102t107.5 304q0 110 -33 192.5t-87.5 127t-114 65t-124.5 20.5q-48 0 -87 -5t-88.5 -22t-90.5 -46t-84.5 -81t-79.5 -124z" />
<glyph unicode="7" horiz-adv-x="962" d="M82 1122v250h819v-29l-577 -1363l-35 20l559 1315l20 16v4h-741l-18 -213q-14 -4 -27 0z" />
<glyph unicode="8" horiz-adv-x="1167" d="M164 350q0 78 29 143t70.5 104t94 67.5t91.5 40.5t71 16v4q-35 10 -67 22.5t-79.5 40t-81 61t-58.5 88t-25 118.5q0 164 106 251t269 87t268.5 -87t105.5 -251q0 -64 -25 -118.5t-58.5 -88t-81 -61t-79.5 -40t-67 -22.5v-4q26 -4 57.5 -13t74 -26.5t80.5 -47t71.5 -68 t53.5 -94.5t20 -122q0 -94 -36.5 -167t-97.5 -116t-133.5 -65t-152.5 -22t-152.5 22t-133.5 65t-97.5 116t-36.5 167zM205 350q0 -86 33 -152.5t88 -105t120.5 -57.5t137.5 -19t137.5 19t120.5 57.5t88 105t33 152.5q0 53 -14.5 98t-36 77.5t-56 60.5t-64.5 45.5t-72.5 34 t-70 24t-65.5 17.5q-38 -10 -65.5 -17.5t-70 -24t-72.5 -34t-64.5 -45.5t-56 -60.5t-36 -77.5t-14.5 -98zM250 1055q0 -59 22 -108.5t55.5 -82t80.5 -58.5t88 -40t88 -25q47 11 88 25t88 40t80.5 58.5t55.5 82t22 108.5q0 149 -93.5 225t-240.5 76t-240.5 -76t-93.5 -225z " />
<glyph unicode="9" horiz-adv-x="1116" d="M113 950q0 110 33 195.5t91.5 139t136 81t169.5 27.5q93 0 171 -35t139 -106t95.5 -189.5t34.5 -274.5q0 -421 -190 -614.5t-578 -193.5v36q367 0 545 177.5t182 570.5q-41 -78 -93 -131t-110.5 -79t-111.5 -36t-115 -10q-57 0 -111 13.5t-107 46.5t-92.5 82.5t-64 126.5 t-24.5 173zM154 950q0 -89 22 -160.5t57.5 -116t83.5 -74.5t96 -42t99 -12q48 0 87 5t88.5 22t90.5 46t84.5 81t79.5 124q-4 139 -36 243.5t-87 166.5t-124 92.5t-152 30.5q-175 0 -282 -102t-107 -304z" />
<glyph unicode=":" horiz-adv-x="385" d="M123 47q0 15 26 41.5t41 26.5t41.5 -26.5t26.5 -41.5t-26.5 -41t-41.5 -26t-41 26t-26 41zM123 834q0 15 26 41t41 26t41.5 -26t26.5 -41t-26.5 -41.5t-41.5 -26.5t-41 26.5t-26 41.5z" />
<glyph unicode=";" horiz-adv-x="380" d="M123 47q0 15 26 41.5t41 26.5t41.5 -26.5t26.5 -41.5q0 -172 -82 -356l-24 4q55 147 43 285q-22 4 -47 28.5t-25 38.5zM123 834q0 15 26 41t41 26t41.5 -26t26.5 -41t-26.5 -41.5t-41.5 -26.5t-41 26.5t-26 41.5z" />
<glyph unicode="&#x3c;" horiz-adv-x="976" d="M92 639v37l752 364v-43l-684 -327l-41 -11v-4l41 -10l684 -330v-43z" />
<glyph unicode="=" horiz-adv-x="921" d="M61 455v37h799v-37h-799zM61 823v37h799v-37h-799z" />
<glyph unicode="&#x3e;" horiz-adv-x="956" d="M113 272v43l684 330l41 10v4l-41 11l-684 327v43l751 -364v-37z" />
<glyph unicode="?" horiz-adv-x="958" d="M113 1053v229q88 54 165 82.5t177 28.5q193 0 292 -93t99 -245q0 -63 -21 -122t-54.5 -107.5t-73.5 -97t-80.5 -100.5t-74 -108.5t-54.5 -130.5t-21 -156h-31q0 86 20.5 163t53 134.5t71.5 110.5t78.5 100.5t72 94.5t53 103t20.5 116q0 137 -86 219t-264 82 q-145 0 -295 -84l-21 -219q-13 -4 -26 0zM389 43q0 15 24.5 39t39.5 24t39 -24t24 -39t-24 -39t-39 -24t-39.5 24t-24.5 39z" />
<glyph unicode="@" horiz-adv-x="2125" d="M184 492q0 199 65 372.5t182 299.5t288.5 198t374.5 72q174 0 320 -44t250 -122.5t176 -187t107 -236.5t35 -271q0 -133 -35.5 -242t-92.5 -174.5t-123 -101t-132 -35.5q-96 0 -150.5 51.5t-68.5 125.5q-156 -177 -325 -177t-271 127.5t-102 348.5q0 224 109 348.5 t309 124.5q189 0 317 -101v-610q0 -37 8.5 -70.5t28 -64t57 -48.5t88.5 -18q58 0 117 32.5t110.5 93.5t83.5 163t32 227q0 137 -32.5 259.5t-101 226t-167.5 178.5t-239 117.5t-308 42.5q-196 0 -360 -69.5t-275 -191t-172.5 -287.5t-61.5 -357q0 -184 61.5 -343t173 -274.5 t275 -181.5t359.5 -66q236 0 446 74v-31q-115 -40 -216 -60t-230 -20q-271 0 -479.5 118.5t-319.5 323t-111 460.5zM723 496q0 -206 89 -322.5t243 -116.5q162 0 321 179v4v614q-50 39 -125 58.5t-151 19.5q-181 0 -279 -114.5t-98 -321.5z" />
<glyph unicode="A" horiz-adv-x="1474" d="M23 0q-2 7 -1.5 13.5t1.5 13.5l151 10l528 1298l-139 11q-3 13 0 26h195l542 -1335l152 -10q2 -6 2 -13t-2 -14h-348q-3 14 0 27l151 10l-200 500h-635l-201 -500l152 -10q3 -13 0 -27h-348zM434 573h606l-292 727l-9 41h-4l-8 -41z" />
<glyph unicode="B" horiz-adv-x="1200" d="M74 0q-2 7 -2 13.5t2 13.5l153 10v1298l-153 11q-2 6 -2 13t2 13h153q60 0 189.5 10.5t204.5 10.5q170 0 282.5 -100.5t112.5 -268.5q0 -72 -23 -132.5t-58.5 -96.5t-69 -57t-62.5 -27v-4q25 -5 55 -16t70.5 -37t72 -60t54 -90t22.5 -123q0 -82 -26.5 -149.5 t-70.5 -113.5t-103 -77.5t-123.5 -46t-132.5 -14.5q-75 0 -204.5 10t-189.5 10h-153zM268 33q236 -17 353 -17q62 0 120.5 12.5t112.5 41t94 70t64 104t24 137.5q0 77 -31.5 137.5t-83.5 96t-114 53.5t-129 18h-410v-653zM268 723h410q131 0 214 82.5t83 218.5 q0 153 -99.5 242.5t-254.5 89.5q-117 0 -353 -17v-616z" />
<glyph unicode="C" horiz-adv-x="1273" d="M113 686q0 153 38.5 276.5t101 202t148 131.5t174 75t183.5 22q227 0 403 -90v-250q-13 -4 -26 0l-19 227q-166 76 -358 76q-89 0 -171.5 -20t-163 -69.5t-139 -124t-94.5 -192t-36 -264.5t36 -264.5t94.5 -192t139 -124t163 -69.5t171.5 -20q111 0 220 28.5t183 70.5 v-45q-176 -90 -403 -90q-95 0 -183.5 22t-174 74.5t-148 131.5t-101 202t-38.5 276z" />
<glyph unicode="D" horiz-adv-x="1429" d="M74 0q-2 7 -2 13.5t2 13.5l153 10v1298l-153 11q-2 6 -2 13t2 13h153q55 0 194.5 10.5t240.5 10.5q95 0 183.5 -22t174 -75t148 -131.5t101 -202t38.5 -276.5t-38.5 -276t-101 -202t-148 -131.5t-174 -74.5t-183.5 -22q-101 0 -240.5 10t-194.5 10h-153zM268 33 q236 -17 394 -17q89 0 171.5 20t163 69.5t139 124t94.5 192t36 264.5t-36 264.5t-94.5 192t-139 124t-163 69.5t-171.5 20q-158 0 -394 -17v-1306z" />
<glyph unicode="E" horiz-adv-x="1097" d="M74 0q-2 7 -2 13.5t2 13.5l153 10v1298l-153 11q-2 6 -2 13t2 13h901v-250q-13 -4 -27 0l-18 213h-662v-612h574v-37h-574v-649h703l18 213q13 4 27 0v-250h-942z" />
<glyph unicode="F" horiz-adv-x="1005" d="M74 0q-2 7 -2 13.5t2 13.5l153 10v1298l-153 11q-2 6 -2 13t2 13h901v-250q-13 -4 -27 0l-18 213h-662v-633h574v-36h-574v-629l254 -10q3 -13 0 -27h-448z" />
<glyph unicode="G" horiz-adv-x="1396" d="M123 686q0 153 38.5 276.5t101 202t148 131.5t174 75t183.5 22q248 0 424 -90v-250q-5 -1 -14 -1t-13 1l-18 227q-166 76 -379 76q-89 0 -171.5 -20t-163 -69.5t-139 -124t-94.5 -192t-36 -264.5t36 -264.5t94.5 -192t139 -124t163 -69.5t171.5 -20q250 0 424 70v582 l-285 -2l11 39h315v-635q-176 -90 -465 -90q-95 0 -183.5 22t-174 74.5t-148 131.5t-101 202t-38.5 276z" />
<glyph unicode="H" horiz-adv-x="1499" d="M74 0q-2 7 -2 13.5t2 13.5l153 10v1298l-153 11q-2 6 -2 13t2 13h348q3 -13 0 -26l-154 -11v-612h963v612l-154 11q-3 13 0 26h348q2 -6 1.5 -13t-1.5 -13l-153 -11v-1298l153 -10q2 -6 1.5 -13t-1.5 -14h-348q-3 14 0 27l154 10v649h-963v-649l154 -10q3 -13 0 -27h-348 z" />
<glyph unicode="I" horiz-adv-x="516" d="M84 0q-2 7 -2 13.5t2 13.5l154 10v1298l-154 11q-2 6 -2 13t2 13h348q2 -6 2 -13t-2 -13l-153 -11v-1298l153 -10q2 -6 2 -13t-2 -14h-348z" />
<glyph unicode="J" horiz-adv-x="575" d="M41 -291q135 70 195.5 180.5t60.5 284.5v1161l-154 11q-3 13 0 26h349q2 -6 2 -13t-2 -13l-154 -11v-1151q0 -135 -32 -231.5t-93.5 -162t-161.5 -118.5z" />
<glyph unicode="K" horiz-adv-x="1241" d="M74 0q-2 7 -2 13.5t2 13.5l153 10v1298l-153 11q-2 6 -2 13t2 13h348q3 -13 0 -26l-154 -11v-1298l154 -10q3 -13 0 -27h-348zM340 725l610 610l-143 11q-3 13 0 26h334q3 -13 0 -26l-133 -11l-600 -602l-21 -6v-4l21 -6l679 -682l142 -8q2 -6 1.5 -13t-1.5 -14h-166z " />
<glyph unicode="L" horiz-adv-x="1046" d="M74 0q-2 7 -2 13.5t2 13.5l153 10v1298l-153 11q-2 6 -2 13t2 13h348q3 -13 0 -26l-154 -11v-1298h682l19 213q13 4 26 0v-250h-921z" />
<glyph unicode="M" horiz-adv-x="2035" d="M74 0q-2 7 -2 13.5t2 13.5l151 10l244 1298l-147 11q-3 13 0 26h213l473 -1280l8 -39h4l8 39l473 1280h213q3 -13 0 -26l-147 -11l243 -1298l152 -10q2 -6 2 -13t-2 -14h-348q-3 14 0 27l153 10l-231 1263l-6 41h-4l-10 -41l-474 -1280h-49l-473 1280l-10 41h-4l-6 -41 l-232 -1263l154 -10q3 -13 0 -27h-348z" />
<glyph unicode="N" horiz-adv-x="1529" d="M115 0q-2 7 -1.5 13.5t1.5 13.5l153 10v1298l-153 11q-2 6 -1.5 13t1.5 13h215l919 -1298l19 -43h4v1304l-154 11q-3 13 0 26h348q2 -6 2 -13t-2 -13l-153 -11v-1335h-62l-919 1298l-19 43h-4v-1304l154 -10q3 -13 0 -27h-348z" />
<glyph unicode="O" horiz-adv-x="1536" d="M123 686q0 153 38.5 276.5t101 202t148 131.5t174 75t183.5 22t183.5 -22t174 -75t148 -131.5t101 -202t38.5 -276.5t-38.5 -276t-101 -202t-148 -131.5t-174 -74.5t-183.5 -22t-183.5 22t-174 74.5t-148 131.5t-101 202t-38.5 276zM164 686q0 -147 36 -264.5t94.5 -192 t139 -124t163 -69.5t171.5 -20t171.5 20t163 69.5t139 124t94.5 192t36 264.5t-36 264.5t-94.5 192t-139 124t-163 69.5t-171.5 20t-171.5 -20t-163 -69.5t-139 -124t-94.5 -192t-36 -264.5z" />
<glyph unicode="P" horiz-adv-x="1097" d="M63 0q-2 7 -1.5 13.5t1.5 13.5l154 10v1298l-154 11q-2 6 -1.5 13t1.5 13h154q60 0 189 10.5t204 10.5q107 0 198 -42t149.5 -128t58.5 -199q0 -108 -58.5 -191.5t-150 -125t-197.5 -41.5q-130 0 -352 16v-645l254 -10q3 -13 0 -27h-449zM258 719q236 -17 352 -17 q149 0 257 87.5t108 234.5q0 103 -52.5 180.5t-134.5 114.5t-178 37q-116 0 -352 -17v-620z" />
<glyph unicode="Q" horiz-adv-x="1536" d="M123 686q0 153 38.5 276.5t101 202t148 131.5t174 75t183.5 22t183.5 -22t174 -75t148 -131.5t101 -202t38.5 -276.5q0 -223 -75.5 -373.5t-204.5 -232.5l184 -285h-47l-168 266q-145 -81 -334 -81q-95 0 -183.5 22t-174 74.5t-148 131.5t-101 202t-38.5 276zM164 686 q0 -147 36 -264.5t94.5 -192t139 -124t163 -69.5t171.5 -20t171.5 20t163 69.5t139 124t94.5 192t36 264.5t-36 264.5t-94.5 192t-139 124t-163 69.5t-171.5 20t-171.5 -20t-163 -69.5t-139 -124t-94.5 -192t-36 -264.5z" />
<glyph unicode="R" horiz-adv-x="1222" d="M63 0q-2 7 -1.5 13.5t1.5 13.5l154 10v1298l-154 11q-2 6 -1.5 13t1.5 13h154q60 0 189 10.5t204 10.5q71 0 139.5 -25t123.5 -70.5t88.5 -117t33.5 -156.5q0 -95 -53 -172t-134.5 -119t-174.5 -47l424 -649l141 -10q2 -6 2 -13t-2 -14h-166l-446 686q-120 0 -328 16 v-665l154 -10q3 -13 0 -27h-349zM258 739q222 -16 352 -16q85 0 163 36t129.5 106.5t51.5 158.5q0 78 -30 142t-79 105t-110 63t-125 22q-116 0 -352 -17v-600z" />
<glyph unicode="S" horiz-adv-x="1015" d="M123 70v249q5 1 14 1t13 -1l18 -229q159 -74 291 -74q187 0 290 86.5t103 237.5q0 73 -25 130t-67 94.5t-96.5 67t-115 52.5t-120.5 46t-114.5 52.5t-96.5 67t-67 95t-25 130.5q0 155 100.5 236.5t268.5 81.5q176 0 352 -90v-250q-4 -1 -13 -1t-14 1l-18 229 q-155 74 -307 74q-153 0 -240.5 -70.5t-87.5 -210.5q0 -68 25 -120.5t67 -87t96.5 -62.5t115 -50.5t120.5 -46t114.5 -55t96.5 -72t67 -102t25 -139.5q0 -165 -115.5 -262.5t-318.5 -97.5q-160 0 -336 90z" />
<glyph unicode="T" horiz-adv-x="1146" d="M61 1122v250h1024v-250q-13 -4 -26 0l-19 213h-446v-1298l154 -10q3 -13 0 -27h-349q-3 14 0 27l154 10v1298h-447l-18 -213q-14 -4 -27 0z" />
<glyph unicode="U" horiz-adv-x="1396" d="M63 1346q-2 6 -1.5 13t1.5 13h349q3 -13 0 -26l-154 -11v-854q0 -465 440 -465q441 0 441 465v854l-154 11q-3 13 0 26h348q2 -6 1.5 -13t-1.5 -13l-153 -11v-854q0 -501 -482 -501q-481 0 -481 501v854z" />
<glyph unicode="V" horiz-adv-x="1433" d="M23 1346q-2 6 -1.5 13t1.5 13h348q3 -13 0 -26l-152 -11l488 -1263l8 -41h4l8 41l487 1263l-151 11q-3 13 0 26h348q2 -6 1.5 -13t-1.5 -13l-151 -11l-519 -1335h-49l-518 1335z" />
<glyph unicode="W" horiz-adv-x="2117" d="M23 1346q-2 6 -1.5 13t1.5 13h348q3 -13 0 -26l-152 -11l412 -1263l8 -41h4l8 41l379 1280h57l379 -1280l9 -41h4l8 41l411 1263l-151 11q-3 13 0 26h348q2 -6 1.5 -13t-1.5 -13l-151 -11l-441 -1335h-57l-377 1280l-8 39h-4l-8 -39l-377 -1280h-58l-440 1335z" />
<glyph unicode="X" horiz-adv-x="1357" d="M43 0q-2 7 -1.5 13.5t1.5 13.5l152 10l450 692l12 6v4l-12 6l-432 590l-152 11q-3 13 0 26h349q3 -13 0 -26l-148 -11l416 -569h4l395 569l-153 11q-3 13 0 26h348q3 -13 0 -26l-148 -11l-411 -590l-13 -6v-4l13 -6l452 -692l150 -10q2 -6 1.5 -13t-1.5 -14h-348 q-3 14 0 27l149 10l-436 672h-4l-434 -672l149 -10q3 -13 0 -27h-348z" />
<glyph unicode="Y" horiz-adv-x="1294" d="M23 1346q-1 6 -1 13t1 13h348q3 -13 0 -26l-150 -11l418 -766l8 -41h4l8 41l418 766l-151 11q-3 13 0 26h348q2 -6 2 -13t-2 -13l-150 -11l-454 -825v-473l153 -10q3 -13 0 -27h-348q-3 14 0 27l154 10v473l-455 825z" />
<glyph unicode="Z" horiz-adv-x="1128" d="M82 0v29l885 1286l20 16v4h-840l-18 -213q-13 -4 -27 0v250h934v-29l-884 -1286l-21 -16v-4h870l19 213q14 4 27 0v-250h-965z" />
<glyph unicode="[" horiz-adv-x="409" d="M102 -248v1917h246v-37h-205v-1843h205v-37h-246z" />
<glyph unicode="\" horiz-adv-x="718" d="M41 1516h43l614 -1680h-43z" />
<glyph unicode="]" horiz-adv-x="409" d="M61 -211h205v1843h-205v37h246v-1917h-246v37z" />
<glyph unicode="^" horiz-adv-x="890" d="M61 1024l367 649h37l364 -649h-43l-327 582l-10 41h-5l-10 -41l-330 -582h-43z" />
<glyph unicode="_" horiz-adv-x="808" d="M51 -41h737v-37h-737v37z" />
<glyph unicode="`" horiz-adv-x="466" d="M49 1446l25 31l344 -248l-15 -21z" />
<glyph unicode="a" horiz-adv-x="1028" d="M123 219q0 150 176 251.5t498 125.5v72q0 166 -62.5 242.5t-224.5 76.5q-207 0 -338 -80v41q132 76 338 76q178 0 253 -88t75 -268v-631l143 -10q2 -6 1.5 -13t-1.5 -14h-174q-10 92 -10 174q-86 -89 -204 -141.5t-220 -52.5q-115 0 -182.5 63t-67.5 176zM164 219 q0 -97 56 -150t157 -53q98 0 215.5 54.5t204.5 150.5v45v293q-305 -24 -469 -114.5t-164 -225.5z" />
<glyph unicode="b" horiz-adv-x="1089" d="M23 1489q-2 6 -1.5 13t1.5 14l176 20q10 -82 10 -266v-439q172 193 358 193q187 0 298.5 -139.5t111.5 -382.5q0 -248 -120 -385t-341 -137q-182 0 -313 86l-15 -66h-20v1489h-145zM209 109q56 -45 139.5 -69t167.5 -24q200 0 310 128.5t110 357.5q0 224 -102 354.5 t-267 130.5q-181 0 -358 -205v-673z" />
<glyph unicode="c" horiz-adv-x="952" d="M113 502q0 246 116.5 384t323.5 138q175 0 307 -76v-229q-13 -4 -26 0l-19 213q-108 55 -262 55q-191 0 -295 -129t-104 -356t104 -356.5t295 -129.5q88 0 159 16.5t148 63.5v-41q-130 -75 -307 -75q-207 0 -323.5 138t-116.5 384z" />
<glyph unicode="d" horiz-adv-x="1107" d="M113 502q0 248 119.5 385t340.5 137q188 0 308 -143v608h-146q-3 13 0 27l176 20q11 -90 11 -266v-1233l143 -10q2 -6 1.5 -13t-1.5 -14h-174q-6 57 -10 172q-171 -192 -359 -192q-187 0 -298 139.5t-111 382.5zM154 502q0 -224 101.5 -355t266.5 -131q182 0 359 205v45 v547q-33 72 -118 123t-190 51q-200 0 -309.5 -128t-109.5 -357z" />
<glyph unicode="e" horiz-adv-x="1026" d="M113 502q0 246 116.5 384t323.5 138q172 0 266 -90.5t94 -267.5q0 -26 -4 -72l-755 -78v-14q0 -227 104 -356.5t295 -129.5q98 0 174.5 16.5t153.5 63.5v-41q-130 -75 -328 -75q-207 0 -323.5 138t-116.5 384zM156 551l716 76q2 14 2 39q0 162 -82.5 241.5t-238.5 79.5 q-181 0 -283.5 -115.5t-113.5 -320.5z" />
<glyph unicode="f" horiz-adv-x="755" d="M92 967v37h174v176q0 356 281 356q113 0 198 -55v-41q-93 59 -198 59q-123 0 -181.5 -81t-58.5 -249v-165h418l-10 -37h-408v-930l144 -10q3 -13 0 -27h-330q-3 14 0 27l145 10v930h-174z" />
<glyph unicode="g" horiz-adv-x="1095" d="M143 -213q0 165 154 295q-92 40 -92 119q0 52 30 98.5t107 108.5q-91 41 -145 116.5t-54 171.5q0 144 112.5 236t276.5 92q133 0 236 -61l131 151l29 -22l-131 -150q58 -44 91.5 -107.5t33.5 -138.5q0 -144 -113 -235.5t-277 -91.5q-79 0 -159 26q-71 -57 -99 -102 t-28 -90q0 -27 16 -48t39.5 -33.5t64.5 -22t76.5 -14t89.5 -9.5q214 -19 301 -44q169 -49 180 -175q1 -9 1 -19q0 -136 -136 -227.5t-366 -91.5q-192 0 -280.5 67.5t-88.5 200.5zM184 -213q0 -117 76 -174t252 -57q214 0 337.5 80t123.5 200q0 114 -146 159q-75 24 -272 42 q-14 1 -23 2q-125 10 -198 31q-150 -117 -150 -283zM184 696q0 -129 99.5 -209.5t248.5 -80.5t249 81t100 209q0 129 -100 210t-249 81t-248.5 -81t-99.5 -210z" />
<glyph unicode="h" horiz-adv-x="1193" d="M84 0q-2 7 -2 13.5t2 13.5l145 10v1452h-145q-2 6 -2 13t2 14l176 20q10 -82 10 -266v-463q86 99 200.5 158t219.5 59q170 0 238.5 -87t68.5 -269v-631l144 -10q2 -6 1.5 -13t-1.5 -14h-185v668q0 165 -59 242t-207 77q-103 0 -217.5 -60t-202.5 -169v-721l144 -10 q3 -13 0 -27h-330z" />
<glyph unicode="i" horiz-adv-x="456" d="M74 0q-2 7 -2 13.5t2 13.5l145 10v940h-145q-2 6 -2 13t2 14l176 20q10 -82 10 -266v-721l143 -10q2 -6 1.5 -13t-1.5 -14h-329zM162 1341q0 15 25 40.5t40 25.5t40.5 -25.5t25.5 -40.5t-25.5 -40t-40.5 -25t-40 25t-25 40z" />
<glyph unicode="j" horiz-adv-x="477" d="M51 -444q101 63 158 164.5t57 269.5v987h-145q-3 13 0 27l176 20q10 -82 10 -266v-727q0 -113 -18.5 -199t-55.5 -145t-76.5 -96t-95.5 -72zM213 1341q0 15 25.5 40.5t40.5 25.5t40 -25.5t25 -40.5t-25 -40t-40 -25t-40.5 25t-25.5 40z" />
<glyph unicode="k" horiz-adv-x="1079" d="M74 0q-2 7 -2 13.5t2 13.5l145 10v1452h-145q-2 6 -2 13t2 14l176 20q10 -82 10 -266v-1233l143 -10q3 -13 0 -27h-329zM342 563l471 406l-125 8q-3 13 0 27h326q3 -14 0 -27l-146 -8l-460 -400l-21 -6v-4l21 -6l507 -516l142 -10q2 -6 1.5 -13t-1.5 -14h-160z" />
<glyph unicode="l" horiz-adv-x="548" d="M115 0q-2 7 -1.5 13.5t1.5 13.5l145 10v1452h-145q-2 6 -1.5 13t1.5 14l176 20q10 -82 10 -266v-1233l143 -10q2 -6 2 -13t-2 -14h-329z" />
<glyph unicode="m" horiz-adv-x="1828" d="M74 0q-2 7 -2 13.5t2 13.5l145 10v940h-145q-2 6 -2 13t2 14l176 20q10 -88 10 -217q86 101 191 159t208 58q126 0 192 -56.5t85 -170.5q87 106 195.5 166.5t214.5 60.5q156 0 221 -87.5t65 -268.5v-631l144 -10q2 -6 2 -13t-2 -14h-185v668q0 164 -55.5 241.5 t-189.5 77.5q-100 0 -205.5 -59t-194.5 -170v-721l144 -10q3 -13 0 -27h-185v668q0 164 -56 241.5t-190 77.5q-100 0 -205 -59t-194 -170v-721l143 -10q3 -13 0 -27h-329z" />
<glyph unicode="n" horiz-adv-x="1181" d="M74 0q-2 7 -2 13.5t2 13.5l145 10v940h-145q-2 6 -2 13t2 14l176 20q10 -88 10 -217q86 99 201.5 158t220.5 59q170 0 237.5 -87t67.5 -269v-631l143 -10q2 -6 2 -13t-2 -14h-184v668q0 165 -59 242t-207 77q-103 0 -217.5 -60t-202.5 -169v-721l143 -10q3 -13 0 -27 h-329z" />
<glyph unicode="o" horiz-adv-x="1105" d="M113 502q0 246 116.5 384t323.5 138t323.5 -138t116.5 -384t-116.5 -384t-323.5 -138t-323.5 138t-116.5 384zM154 502q0 -227 104 -356.5t295 -129.5t295 129.5t104 356.5t-104 356t-295 129t-295 -129t-104 -356z" />
<glyph unicode="p" horiz-adv-x="1120" d="M53 -434l146 10v1401h-146q-1 7 -1 13.5t1 13.5l176 20q11 -84 11 -193q172 193 358 193q187 0 298.5 -139.5t111.5 -382.5q0 -248 -120 -385t-341 -137q-187 0 -307 143v-547l243 -10q3 -14 0 -27h-430q-1 7 -1 13.5t1 13.5zM240 190q33 -72 117.5 -123t189.5 -51 q200 0 310 128.5t110 357.5q0 224 -102 354.5t-267 130.5q-181 0 -358 -205v-24v-568z" />
<glyph unicode="q" horiz-adv-x="1075" d="M113 502q0 248 119.5 385t340.5 137q183 0 314 -86l14 66h21v-1465h-320q-3 13 0 27l279 10v596q-171 -192 -359 -192q-187 0 -298 139.5t-111 382.5zM154 502q0 -224 101.5 -355t266.5 -131q182 0 359 205v674q-56 45 -139.5 68.5t-168.5 23.5q-200 0 -309.5 -128 t-109.5 -357z" />
<glyph unicode="r" horiz-adv-x="849" d="M74 0q-2 7 -2 13.5t2 13.5l145 10v940h-145q-2 6 -2 13t2 14l176 20q10 -90 10 -229q87 97 218 163t241 66q39 0 39 -35v-270q-5 -1 -14 -1t-13 1l-20 262h-19q-95 0 -223 -68t-209 -165v-711l244 -10q3 -13 0 -27h-430z" />
<glyph unicode="s" horiz-adv-x="894" d="M113 55v230q13 4 26 0l19 -209q65 -35 129.5 -47.5t152.5 -12.5q134 0 217.5 62t83.5 166q0 57 -34.5 102t-89.5 75t-122 55.5t-134 52t-122 57t-89.5 77.5t-34.5 107q0 66 26 116t71.5 79.5t102 44t121.5 14.5q175 0 307 -76v-229q-13 -4 -26 0l-19 209q-111 59 -262 59 q-58 0 -106.5 -11.5t-88.5 -36t-62.5 -67.5t-22.5 -102q0 -53 34.5 -94t89.5 -69t122 -53t134 -52.5t122 -60t89.5 -83t34.5 -114.5q0 -120 -96 -192t-246 -72q-106 0 -181.5 17.5t-145.5 57.5z" />
<glyph unicode="t" horiz-adv-x="786" d="M82 967v37h176l8 286l31 21v-307h397l-10 -37h-387v-691q0 -268 199 -268q104 0 198 60v-41q-86 -56 -198 -56q-122 0 -181 77t-59 218v701h-174z" />
<glyph unicode="u" horiz-adv-x="1153" d="M43 977q-2 6 -1.5 13t1.5 14l176 20q10 -82 10 -266v-422q0 -165 57.5 -242.5t198.5 -77.5q105 0 230 61.5t211 168.5v20v711h-146q-3 13 0 27l176 20q11 -90 11 -266v-721l143 -10q2 -6 2 -13t-2 -14h-174q-10 79 -10 197q-86 -98 -210.5 -157.5t-232.5 -59.5 q-161 0 -228 87.5t-67 268.5v641h-145z" />
<glyph unicode="v" horiz-adv-x="1130" d="M-8 977q-2 6 -2 13t2 14l176 20l397 -952l8 -41h5l8 41l366 895l-143 10q-3 13 0 27h330q2 -7 1.5 -13.5t-1.5 -13.5l-142 -10l-399 -967h-45l-414 977h-147z" />
<glyph unicode="w" horiz-adv-x="1708" d="M-8 977q-2 6 -2 13t2 14l176 20l336 -952l8 -41h4l8 41l307 911l58 21l278 -932l9 -41h4l8 41l342 895l-144 10q-3 13 0 27h330q2 -7 2 -13.5t-2 -13.5l-141 -10l-377 -967h-47l-279 922l-8 41h-4l-8 -41l-311 -922h-49l-353 977h-147z" />
<glyph unicode="x" horiz-adv-x="1107" d="M43 0q-2 7 -1.5 13.5t1.5 13.5l141 10l344 473l13 6v4l-13 6l-323 453v-2h-156q-3 13 0 27l176 20l338 -475h4l301 418l-141 10q-3 13 0 27h330q3 -14 0 -27l-139 -10l-318 -441l-12 -6v-4l12 -6l346 -475l119 -8q2 -6 1.5 -13t-1.5 -14h-143l-355 487h-4l-330 -450 l140 -10q3 -13 0 -27h-330z" />
<glyph unicode="y" horiz-adv-x="1128" d="M-10 977q-2 7 -2 13.5t2 13.5l176 20l397 -952l8 -41h4l9 41l366 895l-143 10q-3 13 0 27h330q1 -7 1 -13.5t-1 -13.5l-142 -10l-589 -1428l-50 -20v20l197 457v4l-414 977h-149z" />
<glyph unicode="z" horiz-adv-x="952" d="M82 0v29l700 925l21 9v4h-656l-18 -248q-5 -1 -14 -1t-13 1v285h748v-29l-700 -926l-21 -8v-4h686l19 248q13 4 26 0v-285h-778z" />
<glyph unicode="{" horiz-adv-x="391" d="M72 698v29q78 20 103.5 52.5t25.5 107.5q0 67 -20.5 280t-20.5 279q0 40 4.5 71t17 63.5t39.5 55.5t68 35l10 -37q-41 -13 -63.5 -43t-28.5 -66t-6 -95q0 -66 20.5 -280t20.5 -280q0 -62 -25.5 -99t-89.5 -58q64 -21 89.5 -58.5t25.5 -99.5q0 -67 -20.5 -280t-20.5 -279 q0 -43 3.5 -72.5t13 -58t30 -46.5t51.5 -28l-10 -37q-40 12 -67.5 35t-40 56t-17 64t-4.5 71q0 66 20.5 279t20.5 280q0 76 -25 107.5t-104 51.5z" />
<glyph unicode="|" horiz-adv-x="471" d="M215 -410v2048h41v-2048h-41z" />
<glyph unicode="}" horiz-adv-x="391" d="M92 -209q31 10 51.5 28t30 46.5t13 58t3.5 72.5q0 66 -20 279t-20 280q0 63 25 100t89 58q-64 21 -89 58t-25 99q0 66 20 280t20 280q0 59 -6 95t-28.5 66t-63.5 43l10 37q41 -12 68 -35t39.5 -55.5t17 -63.5t4.5 -71q0 -66 -20.5 -279t-20.5 -280q0 -75 25.5 -107.5 t103.5 -52.5v-29q-79 -20 -104 -51.5t-25 -107.5q0 -67 20.5 -280t20.5 -279q0 -40 -4.5 -71t-17 -64t-40 -56t-67.5 -35z" />
<glyph unicode="~" horiz-adv-x="948" d="M106 625l21 -37q130 106 244 106q41 0 79.5 -15t64.5 -33t68 -33t91 -15q61 0 105.5 16.5t125.5 63.5l-20 37q-112 -80 -211 -80q-41 0 -79 15t-64 33t-68 33t-90 15q-63 0 -124 -24.5t-143 -81.5z" />
<glyph unicode="&#xa2;" horiz-adv-x="952" d="M113 502q0 239 110.5 376.5t308.5 145.5v164h41v-164q164 -3 287 -76v-229q-13 -4 -26 0l-19 213q-108 55 -262 55q-191 0 -295 -129t-104 -356t104 -356.5t295 -129.5q88 0 159 16.5t148 63.5v-41q-122 -72 -287 -75v-164h-41v164q-198 8 -308.5 145.5t-110.5 376.5z " />
<glyph unicode="&#xa3;" horiz-adv-x="1044" d="M72 670v37h127v348q0 152 99 245t292 93q100 0 177 -28.5t165 -82.5v-229q-5 -1 -14 -1t-13 1l-20 219q-150 84 -295 84q-178 0 -264 -82t-86 -219v-348h528v-37h-528v-336q0 -94 -31.5 -174t-91.5 -123h770l18 213q13 4 27 0v-250h-856v37q59 42 91 125t32 172v336h-127 z" />
<glyph unicode="&#xa5;" horiz-adv-x="1296" d="M23 1346q-3 13 0 26h348q3 -13 0 -26l-150 -11l418 -766l8 -41h4l8 41l418 766l-151 11q-3 13 0 26h348q3 -13 0 -26l-150 -11l-454 -825h338v-37h-338v-203h338v-37h-338v-196l153 -10q3 -13 0 -27h-348q-3 14 0 27l154 10v196h-338v37h338v203h-338v37h338l-455 825z " />
<glyph unicode="&#xa8;" horiz-adv-x="761" d="M150 1348q0 14 23 36.5t36 22.5t36 -22.5t23 -36.5t-23 -37t-36 -23t-36 23t-23 37zM494 1348q0 14 23 36.5t36 22.5t36 -22.5t23 -36.5t-23 -37t-36 -23t-36 23t-23 37z" />
<glyph unicode="&#xa9;" horiz-adv-x="1536" d="M61 686q0 124 29.5 229.5t82 181t120.5 134t148 93t162 52t165 17.5t165 -17.5t162 -52t148 -93t120.5 -134t82 -181t29.5 -229.5t-29.5 -229t-82 -181t-120.5 -134t-148 -92.5t-162 -52t-165 -17.5t-165 17.5t-162 52t-148 92.5t-120.5 134t-82 181t-29.5 229zM102 686 q0 -141 40.5 -256.5t106.5 -191t154 -127t179 -73.5t186 -22t186 22t179 73.5t154 127t106.5 191t40.5 256.5t-40.5 256.5t-106.5 191t-154 127t-179 73.5t-186 22t-186 -22t-179 -73.5t-154 -127t-106.5 -191t-40.5 -256.5zM457 686q0 186 87 290.5t244 104.5 q130 0 232 -57v-172q-3 -2 -15 -2t-16 2l-12 158q-77 34 -189 34q-136 0 -212 -96.5t-76 -261.5t76 -261.5t212 -96.5q68 0 121.5 12t110.5 47v-39q-102 -57 -232 -57q-157 0 -244 104.5t-87 290.5z" />
<glyph unicode="&#xab;" horiz-adv-x="1079" d="M92 541v37l445 407v-45l-400 -369l-24 -10v-4l24 -10l400 -369v-45zM502 541v37l444 407v-45l-399 -369l-25 -10v-4l25 -10l399 -369v-45z" />
<glyph unicode="&#xad;" horiz-adv-x="860" d="M113 547v37h635v-37h-635z" />
<glyph unicode="&#xb4;" horiz-adv-x="368" d="M49 1229l344 248l25 -31l-355 -238z" />
<glyph unicode="&#xb8;" horiz-adv-x="444" d="M41 -436q39 -8 111 -8q74 0 111.5 34.5t37.5 79.5q0 99 -174 146l43 184h41l-37 -162q73 -22 120.5 -65t47.5 -101q0 -62 -50.5 -107.5t-141.5 -45.5q-70 0 -109 8v37z" />
<glyph unicode="&#xbb;" horiz-adv-x="1079" d="M133 154v45l399 368l25 11v4l-25 10l-399 369v45l445 -408v-37zM543 154v45l399 368l25 11v4l-25 10l-399 369v45l444 -408v-37z" />
<glyph unicode="&#xd3;" horiz-adv-x="1536" d="M123 686q0 153 38.5 276.5t101 202t148 131.5t174 75t183.5 22t183.5 -22t174 -75t148 -131.5t101 -202t38.5 -276.5t-38.5 -276t-101 -202t-148 -131.5t-174 -74.5t-183.5 -22t-183.5 22t-174 74.5t-148 131.5t-101 202t-38.5 276zM164 686q0 -147 36 -264.5t94.5 -192 t139 -124t163 -69.5t171.5 -20t171.5 20t163 69.5t139 124t94.5 192t36 264.5t-36 264.5t-94.5 192t-139 124t-163 69.5t-171.5 20t-171.5 -20t-163 -69.5t-139 -124t-94.5 -192t-36 -264.5zM596 1538l362 217l23 -33l-373 -206z" />
<glyph unicode="&#xf3;" horiz-adv-x="1105" d="M113 502q0 246 116.5 384t323.5 138t323.5 -138t116.5 -384t-116.5 -384t-323.5 -138t-323.5 138t-116.5 384zM154 502q0 -227 104 -356.5t295 -129.5t295 129.5t104 356.5t-104 356t-295 129t-295 -129t-104 -356zM420 1229l344 248l24 -31l-354 -238z" />
<glyph unicode="&#x104;" horiz-adv-x="1474" d="M23 0q-3 14 0 27l151 10l528 1298l-139 11q-3 13 0 26h195l542 -1335l152 -10q3 -13 0 -27h-176q-125 -58 -182.5 -130t-57.5 -165q0 -70 48 -109.5t120 -39.5q70 0 144 41l10 -37q-74 -41 -154 -41q-92 0 -150.5 50t-58.5 126q0 211 265 328l-205 514h-635l-201 -500 l152 -10q3 -13 0 -27h-348zM434 573h606l-292 727l-9 41h-4l-8 -41z" />
<glyph unicode="&#x105;" horiz-adv-x="1028" d="M123 219q0 150 176 251.5t498 125.5v72q0 166 -62.5 242.5t-224.5 76.5q-207 0 -338 -80v41q132 76 338 76q178 0 253 -88t75 -268v-631l143 -10q3 -13 0 -27h-143q-133 -58 -198 -134t-65 -161q0 -70 48 -109.5t120 -39.5q70 0 144 41l10 -37q-74 -41 -154 -41 q-91 0 -149.5 50t-58.5 126q0 61 27 115.5t72 93.5t85.5 64.5t85.5 45.5q-8 68 -8 160q-86 -89 -204 -141.5t-220 -52.5q-115 0 -182.5 63t-67.5 176zM164 219q0 -97 56 -150t157 -53q98 0 215.5 54.5t204.5 150.5v45v293q-305 -24 -469 -114.5t-164 -225.5z" />
<glyph unicode="&#x106;" horiz-adv-x="1273" d="M113 686q0 153 38.5 276.5t101 202t148 131.5t174 75t183.5 22q227 0 403 -90v-250q-13 -4 -26 0l-19 227q-166 76 -358 76q-89 0 -171.5 -20t-163 -69.5t-139 -124t-94.5 -192t-36 -264.5t36 -264.5t94.5 -192t139 -124t163 -69.5t171.5 -20q111 0 220 28.5t183 70.5 v-45q-176 -90 -403 -90q-95 0 -183.5 22t-174 74.5t-148 131.5t-101 202t-38.5 276zM598 1538l363 217l22 -33l-373 -206z" />
<glyph unicode="&#x107;" horiz-adv-x="952" d="M113 502q0 246 116.5 384t323.5 138q175 0 307 -76v-229q-13 -4 -26 0l-19 213q-108 55 -262 55q-191 0 -295 -129t-104 -356t104 -356.5t295 -129.5q88 0 159 16.5t148 63.5v-41q-130 -75 -307 -75q-207 0 -323.5 138t-116.5 384zM428 1229l344 248l25 -31l-355 -238z " />
<glyph unicode="&#x118;" horiz-adv-x="1097" d="M74 0q-3 14 0 27l153 10v1298l-153 11q-3 13 0 26h901v-250q-13 -4 -27 0l-18 213h-662v-612h574v-37h-574v-649h703l18 213q13 4 27 0v-250h-101q-139 -60 -200.5 -129.5t-61.5 -165.5q0 -70 48 -109.5t120 -39.5q70 0 144 41l10 -37q-74 -41 -154 -41q-92 0 -150.5 50 t-58.5 126q0 192 238 305h-776z" />
<glyph unicode="&#x119;" horiz-adv-x="1040" d="M113 502q0 246 116.5 384t323.5 138q172 0 266 -90.5t94 -267.5q0 -26 -4 -72l-755 -78v-14q0 -227 104 -356.5t295 -129.5q98 0 174.5 16.5t153.5 63.5v-41q-7 -5 -17 -8q-284 -163 -284 -342q0 -70 48 -109.5t120 -39.5q69 0 143 41l10 -37q-74 -41 -153 -41 q-92 0 -150.5 50t-58.5 126q0 160 198 303q-83 -18 -184 -18q-207 0 -323.5 138t-116.5 384zM156 551l716 76q2 14 2 39q0 162 -82.5 241.5t-238.5 79.5q-181 0 -283.5 -115.5t-113.5 -320.5z" />
<glyph unicode="&#x141;" horiz-adv-x="1013" d="M2 508v43l225 149v635l-153 11q-3 13 0 26h348q3 -13 0 -26l-154 -11v-612l297 201v-43l-297 -197v-647h682l19 213q13 4 26 0v-250h-921q-3 14 0 27l153 10v625z" />
<glyph unicode="&#x142;" horiz-adv-x="686" d="M61 555v39l246 160v735h-145q-3 13 0 27l176 20q10 -82 10 -266v-496l277 189v-39l-277 -185v-702l144 -10q3 -13 0 -27h-330q-3 14 0 27l145 10v680z" />
<glyph unicode="&#x143;" horiz-adv-x="1529" d="M115 0q-3 14 0 27l153 10v1298l-153 11q-3 13 0 26h215l919 -1298l19 -43h4v1304l-154 11q-3 13 0 26h348q3 -13 0 -26l-153 -11v-1335h-62l-919 1298l-19 43h-4v-1304l154 -10q3 -13 0 -27h-348zM688 1538l363 217l22 -33l-373 -206z" />
<glyph unicode="&#x144;" horiz-adv-x="1181" d="M74 0q-3 14 0 27l145 10v940h-145q-3 13 0 27l176 20q10 -88 10 -217q86 99 201.5 158t220.5 59q170 0 237.5 -87t67.5 -269v-631l143 -10q3 -13 0 -27h-184v668q0 165 -59 242t-207 77q-103 0 -217.5 -60t-202.5 -169v-721l143 -10q3 -13 0 -27h-329zM477 1229l344 248 l25 -31l-354 -238z" />
<glyph unicode="&#x15a;" horiz-adv-x="1015" d="M123 70v249q5 1 14 1t13 -1l18 -229q159 -74 291 -74q187 0 290 86.5t103 237.5q0 73 -25 130t-67 94.5t-96.5 67t-115 52.5t-120.5 46t-114.5 52.5t-96.5 67t-67 95t-25 130.5q0 155 100.5 236.5t268.5 81.5q176 0 352 -90v-250q-4 -1 -13 -1t-14 1l-18 229 q-155 74 -307 74q-153 0 -240.5 -70.5t-87.5 -210.5q0 -68 25 -120.5t67 -87t96.5 -62.5t115 -50.5t120.5 -46t114.5 -55t96.5 -72t67 -102t25 -139.5q0 -165 -115.5 -262.5t-318.5 -97.5q-160 0 -336 90zM371 1538l362 217l23 -33l-373 -206z" />
<glyph unicode="&#x15b;" horiz-adv-x="894" d="M113 55v230q13 4 26 0l19 -209q65 -35 129.5 -47.5t152.5 -12.5q134 0 217.5 62t83.5 166q0 57 -34.5 102t-89.5 75t-122 55.5t-134 52t-122 57t-89.5 77.5t-34.5 107q0 66 26 116t71.5 79.5t102 44t121.5 14.5q175 0 307 -76v-229q-13 -4 -26 0l-19 209q-111 59 -262 59 q-58 0 -106.5 -11.5t-88.5 -36t-62.5 -67.5t-22.5 -102q0 -53 34.5 -94t89.5 -69t122 -53t134 -52.5t122 -60t89.5 -83t34.5 -114.5q0 -120 -96 -192t-246 -72q-106 0 -181.5 17.5t-145.5 57.5zM332 1229l344 248l24 -31l-354 -238z" />
<glyph unicode="&#x179;" horiz-adv-x="1128" d="M82 0v29l885 1286l20 16v4h-840l-18 -213q-13 -4 -27 0v250h934v-29l-884 -1286l-21 -16v-4h870l19 213q14 4 27 0v-250h-965zM434 1538l363 217l22 -33l-373 -206z" />
<glyph unicode="&#x17a;" horiz-adv-x="952" d="M82 0v29l700 925l21 9v4h-656l-18 -248q-5 -1 -14 -1t-13 1v285h748v-29l-700 -926l-21 -8v-4h686l19 248q13 4 26 0v-285h-778zM410 1229l344 248l24 -31l-354 -238z" />
<glyph unicode="&#x17b;" horiz-adv-x="1128" d="M82 0v29l885 1286l20 16v4h-840l-18 -213q-13 -4 -27 0v250h934v-29l-884 -1286l-21 -16v-4h870l19 213q14 4 27 0v-250h-965zM500 1581q0 15 25 40.5t40 25.5t40.5 -25.5t25.5 -40.5t-25.5 -40t-40.5 -25t-40 25t-25 40z" />
<glyph unicode="&#x17c;" horiz-adv-x="952" d="M82 0v29l700 925l21 9v4h-656l-18 -248q-5 -1 -14 -1t-13 1v285h748v-29l-700 -926l-21 -8v-4h686l19 248q13 4 26 0v-285h-778zM406 1341q0 15 25 40.5t40 25.5t40.5 -25.5t25.5 -40.5t-25.5 -40t-40.5 -25t-40 25t-25 40z" />
<glyph unicode="&#x2c6;" horiz-adv-x="651" d="M63 1229l263 233l262 -233l-15 -21l-247 207l-248 -207z" />
<glyph unicode="&#x2da;" horiz-adv-x="483" d="M41 1389q0 83 59 141.5t142 58.5t141.5 -58.5t58.5 -141.5t-58.5 -142t-141.5 -59t-142 59t-59 142zM74 1389q0 -71 49 -121.5t119 -50.5t119 50.5t49 121.5t-49 121.5t-119 50.5t-119 -50.5t-49 -121.5z" />
<glyph unicode="&#x2dc;" horiz-adv-x="886" d="M102 1212q12 104 64.5 164t124.5 60q36 0 67 -14t51.5 -35.5t42 -46t40 -46t46 -35.5t58.5 -14q58 0 99 48t53 139h36q-12 -104 -64 -164t-124 -60q-36 0 -67 14t-51.5 35.5t-42 46t-40 46t-46 35.5t-58.5 14q-58 0 -99 -48t-53 -139h-37z" />
<glyph unicode="&#x2000;" horiz-adv-x="958" />
<glyph unicode="&#x2001;" horiz-adv-x="1917" />
<glyph unicode="&#x2002;" horiz-adv-x="958" />
<glyph unicode="&#x2003;" horiz-adv-x="1917" />
<glyph unicode="&#x2004;" horiz-adv-x="639" />
<glyph unicode="&#x2005;" horiz-adv-x="479" />
<glyph unicode="&#x2006;" horiz-adv-x="319" />
<glyph unicode="&#x2007;" horiz-adv-x="319" />
<glyph unicode="&#x2008;" horiz-adv-x="239" />
<glyph unicode="&#x2009;" horiz-adv-x="383" />
<glyph unicode="&#x200a;" horiz-adv-x="106" />
<glyph unicode="&#x2010;" horiz-adv-x="860" d="M113 547v37h635v-37h-635z" />
<glyph unicode="&#x2011;" horiz-adv-x="860" d="M113 547v37h635v-37h-635z" />
<glyph unicode="&#x2012;" horiz-adv-x="860" d="M113 547v37h635v-37h-635z" />
<glyph unicode="&#x2013;" horiz-adv-x="1003" d="M61 547v37h881v-37h-881z" />
<glyph unicode="&#x2014;" horiz-adv-x="1617" d="M61 547v37h1495v-37h-1495z" />
<glyph unicode="&#x2018;" horiz-adv-x="380" d="M123 1282q0 172 82 356l24 -4q-55 -147 -43 -284q22 -4 47 -29t25 -39q0 -15 -26.5 -41.5t-41.5 -26.5t-41 26.5t-26 41.5z" />
<glyph unicode="&#x2019;" horiz-adv-x="380" d="M123 1571q0 15 26 41t41 26t41.5 -26t26.5 -41q0 -173 -82 -357l-24 5q55 147 43 284q-22 4 -47 29t-25 39z" />
<glyph unicode="&#x201a;" horiz-adv-x="380" d="M123 47q0 15 26 41.5t41 26.5t41.5 -26.5t26.5 -41.5q0 -172 -82 -356l-24 4q55 147 43 285q-22 4 -47 28.5t-25 38.5z" />
<glyph unicode="&#x201c;" horiz-adv-x="647" d="M123 1282q0 172 82 356l24 -4q-55 -147 -43 -284q22 -4 47 -29t25 -39q0 -15 -26.5 -41.5t-41.5 -26.5t-41 26.5t-26 41.5zM389 1282q0 172 82 356l25 -4q-55 -147 -43 -284q22 -4 46.5 -29t24.5 -39q0 -15 -26 -41.5t-41 -26.5t-41.5 26.5t-26.5 41.5z" />
<glyph unicode="&#x201d;" horiz-adv-x="638" d="M123 1571q0 15 26 41t41 26t41.5 -26t26.5 -41q0 -173 -82 -357l-24 5q55 147 43 284q-22 4 -47 29t-25 39zM381 1571q0 15 26.5 41t41.5 26t41 -26t26 -41q0 -173 -82 -357l-24 5q55 147 43 284q-22 4 -47 29t-25 39z" />
<glyph unicode="&#x201e;" horiz-adv-x="638" d="M123 47q0 15 26 41.5t41 26.5t41.5 -26.5t26.5 -41.5q0 -172 -82 -356l-24 4q55 147 43 285q-22 4 -47 28.5t-25 38.5zM381 47q0 15 26.5 41.5t41.5 26.5t41 -26.5t26 -41.5q0 -172 -82 -356l-24 4q55 147 43 285q-22 4 -47 28.5t-25 38.5z" />
<glyph unicode="&#x2026;" horiz-adv-x="1142" d="M123 47q0 15 26 41.5t41 26.5t41.5 -26.5t26.5 -41.5t-26.5 -41t-41.5 -26t-41 26t-26 41zM504 47q0 15 26 41.5t41 26.5t41.5 -26.5t26.5 -41.5t-26.5 -41t-41.5 -26t-41 26t-26 41zM885 47q0 15 26 41.5t41 26.5t41.5 -26.5t26.5 -41.5t-26.5 -41t-41.5 -26t-41 26 t-26 41z" />
<glyph unicode="&#x202f;" horiz-adv-x="383" />
<glyph unicode="&#x2039;" horiz-adv-x="710" d="M92 582v36l486 408v-45l-437 -369l-28 -10v-4l28 -10l437 -369v-45z" />
<glyph unicode="&#x203a;" horiz-adv-x="710" d="M133 174v45l436 369l29 10v4l-29 10l-436 369v45l485 -408v-36z" />
<glyph unicode="&#x205f;" horiz-adv-x="479" />
<glyph unicode="&#x20ac;" horiz-adv-x="1212" d="M10 512l31 37h180q-6 64 -6 137q0 68 6 127h-211l31 37h184q15 117 52.5 211t87.5 155t113.5 101.5t127.5 58t131 17.5q187 0 363 -90v-250q-4 -1 -13.5 -1t-13.5 1l-18 229q-159 74 -318 74q-61 0 -119 -15.5t-116.5 -53t-105 -94t-81.5 -145t-49 -198.5h615l-31 -37 h-588q-6 -59 -6 -127q0 -72 6 -137h561l-30 -37h-525q15 -108 50 -194.5t81 -142t103.5 -92t115.5 -52t119 -15.5q96 0 192 28t171 71v-45q-176 -90 -363 -90q-67 0 -130 17t-126 57t-113 99.5t-88 151.5t-53 207h-217z" />
<glyph unicode="&#x2122;" horiz-adv-x="3182" d="M61 1122v250h1024v-250q-13 -4 -26 0l-19 213h-446v-1298l154 -10q3 -13 0 -27h-349q-3 14 0 27l154 10v1298h-447l-18 -213q-14 -4 -27 0zM1221 0q-3 14 0 27l151 10l244 1298l-148 11q-3 13 0 26h213l473 -1280l9 -39h4l8 39l473 1280h213q3 -13 0 -26l-147 -11 l243 -1298l152 -10q3 -13 0 -27h-348q-3 14 0 27l153 10l-231 1263l-6 41h-4l-11 -41l-473 -1280h-49l-473 1280l-10 41h-4l-6 -41l-232 -1263l154 -10q3 -13 0 -27h-348z" />
<glyph unicode="&#x25fc;" horiz-adv-x="1024" d="M0 0v1024h1024v-1024h-1024z" />
<glyph horiz-adv-x="456" d="M74 0q-3 14 0 27l145 10v940h-145q-3 13 0 27l176 20q10 -82 10 -266v-721l143 -10q3 -13 0 -27h-329zM162 1341q0 15 25 40.5t40 25.5t40.5 -25.5t25.5 -40.5t-25.5 -40t-40.5 -25t-40 25t-25 40z" />
<glyph d="M102 666q0 193 34.5 336.5t96 227t139 123.5t171.5 40q75 0 139 -24.5t120 -79.5t96 -138t62.5 -206.5t22.5 -278.5q0 -143 -22.5 -258.5t-62.5 -194.5t-96 -132t-120.5 -77t-138.5 -24t-139 24t-121 77t-95.5 132t-62.5 194.5t-23 258.5zM143 666q0 -171 31 -298.5 t86.5 -203t126 -112t156.5 -36.5q68 0 126.5 22t109.5 72t86.5 124.5t56 184.5t20.5 247q0 185 -30.5 322t-86.5 215.5t-126 115.5t-156 37q-68 0 -126.5 -22.5t-109.5 -74t-87 -130t-56.5 -196.5t-20.5 -267z" />
<glyph d="M287 0q-3 14 0 27l266 10v1288l-266 -25v31l293 41h14v-1335l266 -10q3 -13 0 -27h-573z" />
<glyph d="M143 0v29q119 126 197 209.5t163.5 179t137 160.5t102 136.5t76.5 126t42 109.5t16 105q0 137 -86.5 219t-264.5 82q-145 0 -295 -84l-20 -219q-4 -1 -13.5 -1t-13.5 1v229q88 54 165 82.5t177 28.5q193 0 292.5 -93t99.5 -245q0 -62 -18.5 -127t-63 -141t-95 -147 t-138.5 -171.5t-168.5 -187.5t-207.5 -220l-30 -20v-4h700l18 213q13 4 27 0v-250h-799z" />
<glyph d="M164 49v37q137 -70 319 -70q78 0 147.5 21t126.5 63.5t90.5 114.5t33.5 166q0 161 -107.5 238t-292.5 77h-47l10 37h37q163 0 261 88.5t98 222.5q0 153 -90.5 232.5t-245.5 79.5q-125 0 -275 -68l-18 -235q-4 -1 -13.5 -1t-13.5 1v250q85 43 160 66.5t162 23.5 q170 0 272.5 -90.5t102.5 -258.5q0 -135 -82.5 -219t-192.5 -104v-4q42 -5 82.5 -16.5t84 -37t75.5 -61.5t53 -93t21 -128q0 -102 -37 -181t-99.5 -125.5t-138.5 -70.5t-162 -24q-186 0 -321 69z" />
<glyph d="M51 438l686 934h62v-926h215l-10 -36h-205v-373l153 -10q3 -13 0 -27h-348q-3 14 0 27l154 10v373h-686zM106 446h652v895h-4l-15 -32l-633 -858v-5z" />
<glyph d="M143 68v41q175 -93 342 -93q62 0 120.5 12.5t112.5 41t94.5 70t64.5 104t24 137.5q0 101 -36 174.5t-97.5 113.5t-131.5 58t-151 18q-159 0 -321 -49l82 676h624v-250q-13 -4 -26 0l-19 213h-542l-78 -594q115 41 280 41q69 0 132.5 -12.5t123.5 -42.5t104 -74.5 t70.5 -114.5t26.5 -157q0 -101 -40 -180.5t-106.5 -126t-145.5 -70.5t-165 -24q-100 0 -177.5 22.5t-164.5 65.5z" />
<glyph d="M102 584q0 422 190 615.5t578 193.5v-37q-367 0 -545 -177.5t-182 -570.5q41 78 93 131t110.5 79t111.5 36t115 10q57 0 111 -13.5t107.5 -46.5t93 -82.5t64 -126.5t24.5 -173q0 -146 -58 -247.5t-153 -148t-219 -46.5q-93 0 -171.5 35t-139.5 105.5t-95.5 189 t-34.5 274.5zM143 549q4 -139 36.5 -243.5t87.5 -166.5t124 -92.5t152 -30.5q175 0 282 102t107 304q0 110 -33 192.5t-87.5 127t-114 65t-124.5 20.5q-48 0 -87 -5t-88.5 -22t-90.5 -46t-84.5 -81t-79.5 -124z" />
<glyph d="M133 1122v250h819v-29l-577 -1363l-35 20l559 1315l21 16v4h-742l-18 -213q-14 -4 -27 0z" />
<glyph d="M123 350q0 78 29 143t70.5 104t94 67.5t91.5 40.5t71 16v4q-35 10 -67 22.5t-79.5 40t-81 61t-58.5 88t-25 118.5q0 164 106 251t269 87t269 -87t106 -251q0 -64 -25 -118.5t-59 -88t-81.5 -61t-79.5 -40t-67 -22.5v-4q26 -4 57.5 -13t74 -26.5t80.5 -47t71.5 -68 t53.5 -94.5t20 -122q0 -94 -36.5 -167t-97.5 -116t-133.5 -65t-152.5 -22t-152.5 22t-133.5 65t-97.5 116t-36.5 167zM164 350q0 -86 33 -152.5t88 -105t120.5 -57.5t137.5 -19t137.5 19t120.5 57.5t88 105t33 152.5q0 53 -14.5 98t-36 77.5t-56 60.5t-64.5 45.5t-72.5 34 t-70 24t-65.5 17.5q-38 -10 -65.5 -17.5t-70 -24t-72.5 -34t-64.5 -45.5t-56 -60.5t-36 -77.5t-14.5 -98zM209 1055q0 -59 22 -108.5t55.5 -82t80.5 -58.5t88 -40t88 -25q47 11 88 25t88 40t80.5 58.5t55.5 82t22 108.5q0 149 -93.5 225t-240.5 76t-240.5 -76t-93.5 -225z " />
<glyph d="M113 950q0 110 33 195.5t91.5 139t136 81t169.5 27.5q93 0 171 -35t139 -106t95.5 -189.5t34.5 -274.5q0 -421 -190 -614.5t-578 -193.5v36q367 0 545 177.5t182 570.5q-41 -78 -93 -131t-110.5 -79t-111.5 -36t-115 -10q-57 0 -111 13.5t-107 46.5t-92.5 82.5t-64 126.5 t-24.5 173zM154 950q0 -89 22 -160.5t57.5 -116t83.5 -74.5t96 -42t99 -12q48 0 87 5t88.5 22t90.5 46t84.5 81t79.5 124q-4 139 -36 243.5t-87 166.5t-124 92.5t-152 30.5q-175 0 -282 -102t-107 -304z" />
<glyph horiz-adv-x="466" d="M41 1538l362 217l23 -33l-373 -206z" />
<glyph horiz-adv-x="444" d="M41 -424q39 -8 111 -8q73 0 111 35t38 80q0 98 -174 145l43 172h41l-37 -150q73 -22 120.5 -64.5t47.5 -100.5q0 -62 -50.5 -108t-141.5 -46q-70 0 -109 8v37z" />
<glyph horiz-adv-x="651" d="M63 1536l263 233l262 -233l-15 -20l-247 206l-248 -206z" />
<glyph horiz-adv-x="761" d="M156 1587q0 14 23 37t36 23t36 -23t23 -37q0 -13 -23 -36t-36 -23t-36 23t-23 36zM500 1587q0 14 23 37t36 23t36 -23t23 -37q0 -13 -23 -36t-36 -23t-36 23t-23 36z" />
<glyph horiz-adv-x="466" d="M41 1722l22 33l363 -217l-12 -22z" />
<glyph horiz-adv-x="483" d="M41 1716q0 83 59 142t142 59t141.5 -59t58.5 -142t-58.5 -141.5t-141.5 -58.5t-142 58.5t-59 141.5zM74 1716q0 -71 49 -121.5t119 -50.5t119 50.5t49 121.5t-49 121.5t-119 50.5t-119 -50.5t-49 -121.5z" />
<glyph horiz-adv-x="886" d="M102 1520q12 103 64.5 163t124.5 60q36 0 67 -14t51.5 -35.5t42 -46t40 -46t46 -35.5t58.5 -14q58 0 99 48t53 139h36q-12 -104 -64 -163.5t-124 -59.5q-43 0 -78 19.5t-59 47.5t-46.5 56t-53.5 47.5t-68 19.5q-58 0 -99 -47.5t-53 -138.5h-37z" />
</font>
</defs>
</svg>
