<?xml version="1.0" standalone="no"?>
<!DOCTYPE svg PUBLIC "-//W3C//DTD SVG 1.1//EN" "http://www.w3.org/Graphics/SVG/1.1/DTD/svg11.dtd" >
<svg xmlns="http://www.w3.org/2000/svg">
<metadata></metadata>
<defs>
<font id="adagio_slabmedium_italic" horiz-adv-x="1218" >
<font-face units-per-em="2048" ascent="1638" descent="-410" />
<missing-glyph horiz-adv-x="448" />
<glyph unicode="&#xfb01;" horiz-adv-x="1460" d="M-195 -330q108 47 160.5 121t71.5 203l117 844h-154l23 166h155l19 139q28 195 144.5 294t283.5 99q124 0 213 -55l-25 -183q-88 72 -180 72q-187 0 -225 -256l-15 -110h326l-23 -166h-327l-113 -807q-32 -223 -136 -347.5t-308 -164.5zM829 862q-3 70 19 142l334 20 q13 -110 -2 -225l-90 -654l137 -4q3 -56 -19 -141l-327 -20q-13 110 2 225l73 532l17 119zM981 1341q6 38 71 95t103 57t86.5 -57t42.5 -95q-4 -38 -69 -94.5t-103 -56.5t-87 56.5t-44 94.5z" />
<glyph unicode="&#xfb02;" horiz-adv-x="1456" d="M-195 -330q108 47 160.5 121t71.5 203l117 844h-154l23 166h155l19 139q28 195 144.5 294t283.5 99q124 0 213 -55l-25 -183q-88 72 -180 72q-187 0 -225 -256l-15 -110h326l-23 -166h-327l-113 -807q-32 -223 -136 -347.5t-308 -164.5zM872 -20q-13 110 2 225l144 1024 l20 139l-145 6q0 86 20 142l332 20q14 -118 0 -225l-155 -1106l-9 -60l138 -4q3 -56 -19 -141z" />
<glyph horiz-adv-x="0" />
<glyph horiz-adv-x="682" />
<glyph unicode=" "  horiz-adv-x="448" />
<glyph unicode="&#x09;" horiz-adv-x="448" />
<glyph unicode="&#xa0;" horiz-adv-x="448" />
<glyph unicode="!" horiz-adv-x="483" d="M-94 131q4 38 70 95t104 57q37 0 86 -57t43 -95q-4 -38 -69 -94.5t-103 -56.5t-87 56.5t-44 94.5zM18 424l64 678l39 270h225l-39 -270l-125 -678h-164z" />
<glyph unicode="&#x22;" horiz-adv-x="780" d="M127 961l12 473h183l-72 -473h-123zM449 961l10 473h184l-72 -473h-122z" />
<glyph unicode="#" horiz-adv-x="1271" d="M-158 313l27 189h201l100 348h-188l26 190h217l97 332h210l-96 -332h404l96 332h211l-96 -332h166l-27 -190h-195l-100 -348h184l-26 -189h-213l-90 -313h-211l90 313h-404l-90 -313h-211l90 313h-172zM281 502h403l100 348h-403z" />
<glyph unicode="$" horiz-adv-x="1069" d="M-74 70l47 327q82 11 160 0l-8 -196q85 -31 182 -31q113 0 187.5 49t87.5 148q7 48 -9 86t-48 64t-75.5 49t-92 44.5t-97 45t-90.5 55.5t-72.5 72t-43.5 99t-3 132q21 144 113.5 240.5t247.5 125.5l28 197h226l-29 -191q110 -16 233 -83l-45 -326q-32 -6 -80 -6t-77 6 l6 199q-82 28 -158 28q-108 0 -166.5 -43.5t-70.5 -136.5q-8 -57 20 -100t79 -72.5t113.5 -57.5t124 -62.5t110 -79t72.5 -116.5t11 -165q-20 -149 -116 -245.5t-251 -129.5l-24 -180h-225l22 166q-145 12 -289 88z" />
<glyph unicode="%" horiz-adv-x="1777" d="M37 1036q23 168 124 262.5t257 94.5q155 0 229 -95t51 -262q-25 -168 -125.5 -262t-255.5 -94q-157 0 -231 94.5t-49 261.5zM90 55l1333 1432l115 -109l-1335 -1431zM228.5 938q2.5 -46 30.5 -77.5t79 -31.5q137 0 166 207q29 209 -107 209q-137 0 -166 -209 q-5 -52 -2.5 -98zM870 334q23 168 123.5 262t257.5 94q155 0 229.5 -94.5t51.5 -261.5q-25 -168 -125.5 -262.5t-255.5 -94.5q-157 0 -231.5 95t-49.5 262zM1065 334q-29 -207 106 -207q137 0 166 207q29 209 -106 209q-137 0 -166 -209z" />
<glyph unicode="&#x26;" horiz-adv-x="1298" d="M-49 371q33 228 260 391q-78 147 -61 272q22 161 147.5 260t327.5 99q96 0 169 -23t154 -67l-45 -326q-32 -6 -80.5 -6t-77.5 6l7 201q-76 26 -154 26q-196 0 -217 -164q-15 -105 71 -240t318 -388q54 108 72 239h215q-30 -221 -150 -389l150 -158l-13 -104h-190l-98 104 q-164 -124 -377 -124q-101 0 -184 24t-143.5 71t-87.5 123t-13 173zM184 381q-13 -106 46.5 -158.5t177.5 -52.5q126 0 221 70q-91 100 -128 140.5t-95 108.5t-95 119q-108 -97 -127 -227z" />
<glyph unicode="'" horiz-adv-x="460" d="M127 961l12 473h183l-72 -473h-123z" />
<glyph unicode="(" horiz-adv-x="569" d="M-27 711q37 253 147.5 512.5t278.5 482.5l154 -20q-280 -481 -352 -975q-67 -496 80 -975l-162 -21q-105 228 -143 482t-3 514z" />
<glyph unicode=")" horiz-adv-x="569" d="M-172 -264q284 486 350 975q70 500 -76 975l162 20q104 -223 140.5 -482.5t1.5 -512.5q-37 -261 -144.5 -515t-277.5 -481z" />
<glyph unicode="*" horiz-adv-x="989" d="M6 1069l76 154l309 -154l-47 -96zM80 684l264 289l78 -55l-217 -322zM391 1069l21 365h166l-84 -365h-103zM422 918l94 55l182 -289l-151 -88zM494 1069l354 154l33 -154l-365 -96z" />
<glyph unicode="+" horiz-adv-x="1003" d="M-72 561l23 164h379l53 377h164l-53 -377h374l-22 -164h-377l-51 -377l-164 2l51 375h-377z" />
<glyph unicode="," horiz-adv-x="489" d="M-55 -274q82 124 121 260q-42 18 -83.5 68.5t-35.5 84.5q3 25 36.5 63.5t75.5 66.5t68 28q40 0 91 -59t46 -99q-30 -222 -203 -444z" />
<glyph unicode="-" horiz-adv-x="876" d="M-25 483l29 191h655l-26 -191h-658z" />
<glyph unicode="." horiz-adv-x="491" d="M-53 139q3 25 36.5 63.5t75.5 66.5t68 28q40 0 91 -59t46 -99q-6 -40 -74 -99.5t-108 -59.5t-90.5 59.5t-44.5 99.5z" />
<glyph unicode="/" horiz-adv-x="901" d="M-160 -164l854 1680h189l-852 -1680h-191z" />
<glyph unicode="0" horiz-adv-x="1228" d="M0.5 350.5q-19.5 130.5 3.5 315.5q28 194 88.5 339t143.5 227.5t175.5 121.5t196.5 39q83 0 152 -24t126.5 -77t90.5 -138t44.5 -206.5t-13.5 -281.5q-25 -179 -84 -314.5t-141 -215t-175.5 -118t-197.5 -38.5q-103 0 -185.5 37.5t-143.5 120t-80.5 213zM240 666 q-34 -240 18 -368t180 -128t214 127.5t120 368.5q75 538 -188 538q-130 0 -218 -134.5t-126 -403.5z" />
<glyph unicode="1" horiz-adv-x="870" d="M33 0q-3 69 18 141l150 21l143 1014l-233 -21l24 176l332 41h129l-170 -1210l139 -21q3 -69 -18 -141h-514z" />
<glyph unicode="2" horiz-adv-x="1112" d="M-98 0l16 121q264 230 423.5 398t230 284t85.5 217q12 94 -37.5 139t-160.5 45q-82 0 -168 -26l-49 -201q-32 -6 -80.5 -6t-77.5 6l45 326q90 43 178.5 66.5t206.5 23.5q217 0 310.5 -88t68.5 -271q-26 -172 -168.5 -359.5t-456.5 -463.5l-45 -16v-5h398l36 158 q32 4 80.5 4t77.5 -4l-47 -348h-866z" />
<glyph unicode="3" horiz-adv-x="1095" d="M-57 49l30 213q131 -92 316 -92q135 0 213.5 54.5t93.5 160.5q18 131 -63.5 183.5t-268.5 52.5h-37l47 182h17q159 0 250.5 56t105.5 153q13 92 -32.5 142t-165.5 50q-70 0 -146 -26l-49 -201q-32 -6 -80.5 -6t-79.5 6l47 326q90 43 174.5 66.5t190.5 23.5 q201 0 298.5 -98t72.5 -271q-9 -64 -39.5 -120.5t-70.5 -92.5t-79 -58t-70 -28v-4q26 -5 54.5 -17t62 -39t57.5 -63.5t36 -94t3 -126.5q-19 -128 -97.5 -220t-192.5 -136.5t-250 -44.5q-118 0 -198.5 16t-149.5 53z" />
<glyph unicode="4" horiz-adv-x="1177" d="M-53 518l653 854h102l-20 -131h-4l-35 -88l-455 -600l-2 -4h400l86 604l30 219h226l-117 -823h164l-35 -191h-156l-26 -196l139 -21q3 -59 -18 -141h-514q-3 69 18 141l149 21l27 196h-588z" />
<glyph unicode="5" horiz-adv-x="1163" d="M-41 49l29 213q63 -43 155 -67.5t181 -24.5q142 0 228.5 62.5t104.5 189.5q14 109 -44.5 169t-192.5 60q-185 0 -361 -49l191 770h715l-47 -325q-31 -6 -79 -6t-79 6l4 137h-344l-92 -359q96 15 161 15q75 0 139 -14t119 -46t91.5 -79.5t51.5 -119t3 -159.5 q-16 -107 -69 -193t-130.5 -139.5t-171 -81.5t-194.5 -28q-242 0 -369 69z" />
<glyph unicode="6" horiz-adv-x="1175" d="M-5 347.5q-13 101.5 9 236.5q28 201 111 356.5t208.5 254t282.5 148.5t340 50l-24 -189q-247 0 -417.5 -122.5t-240.5 -338.5q143 131 334 131q56 0 107 -13.5t100 -44.5t80 -82t47 -126t0 -176q-16 -111 -66 -199.5t-122 -142.5t-157.5 -82t-178.5 -28q-83 0 -151 19.5 t-126 63t-90.5 113.5t-45.5 171.5zM233 530q-36 -360 201 -360q111 0 182 65t89 193q16 125 -38.5 190.5t-152.5 65.5q-70 0 -145.5 -35.5t-135.5 -118.5z" />
<glyph unicode="7" horiz-adv-x="1030" d="M20 0l656 1163l43 17v4h-504l-37 -158q-31 -6 -79 -6t-79 6l50 346h895l-17 -121l-700 -1271z" />
<glyph unicode="8" horiz-adv-x="1236" d="M-8 371q9 66 38.5 123t64 93t78 66t74 44t58.5 24v4q-23 11 -46 26.5t-50.5 43t-46 60t-28 80t-1.5 99.5q15 111 86 194t173.5 124t219.5 41q181 0 292 -96.5t89 -262.5q-9 -65 -40.5 -120.5t-73.5 -92.5t-78 -59.5t-70 -36.5v-4q26 -9 53 -23.5t62 -44t59.5 -66.5 t37 -93.5t3.5 -122.5q-11 -81 -48.5 -148t-90 -111.5t-119 -74.5t-135 -43.5t-139.5 -13.5t-136 13.5t-122.5 43.5t-97.5 74.5t-58.5 111.5t-7.5 148zM229 383q-16 -106 45.5 -159.5t167.5 -53.5q105 0 181 53.5t90 159.5q14 97 -45.5 159.5t-161.5 84.5 q-109 -22 -186.5 -84.5t-90.5 -159.5zM352 1022q-25 -180 176 -227q218 49 242 227q10 85 -38.5 133.5t-143.5 48.5q-96 0 -161 -49t-75 -133z" />
<glyph unicode="9" horiz-adv-x="1175" d="M18 -20l27 190q246 0 415.5 121.5t241.5 337.5q-145 -131 -333 -131q-56 0 -107.5 13t-100 45.5t-81.5 81.5t-47 127t0 175q16 111 66 199.5t122 143t157.5 82.5t178.5 28q69 0 127.5 -13t111 -42.5t88.5 -76.5t61 -114t28.5 -156t-10.5 -203q-29 -200 -112.5 -355.5 t-209 -253.5t-283 -148.5t-340.5 -50.5zM262 946q-18 -126 37.5 -192t153.5 -66q70 0 145 36.5t135 121.5q36 358 -201 358q-111 0 -181.5 -65t-88.5 -193z" />
<glyph unicode=":" horiz-adv-x="512" d="M-94 139q3 25 36.5 63.5t75.5 66.5t68 28q40 0 91 -59t46 -99q-6 -40 -74 -99.5t-108 -59.5t-90.5 59.5t-44.5 99.5zM4 836q4 39 72 98t108 59t91.5 -58.5t46.5 -98.5q-6 -40 -74.5 -100t-108.5 -60t-91 60t-44 100z" />
<glyph unicode=";" horiz-adv-x="491" d="M-96 -274q82 124 121 260q-42 18 -83.5 68.5t-35.5 84.5q3 25 36.5 63.5t75.5 66.5t68 28q40 0 91 -59t46 -99q-26 -217 -203 -444zM4 836q4 39 72 98t108 59t91.5 -58.5t46.5 -98.5q-6 -40 -74.5 -100t-108.5 -60t-91 60t-44 100z" />
<glyph unicode="&#x3c;" horiz-adv-x="978" d="M-41 561l10 82l13 82l845 373l-28 -221l-611 -222l-43 -10v-4l39 -10l549 -221l-33 -222z" />
<glyph unicode="=" horiz-adv-x="1019" d="M-86 387l25 164h895l-25 -164h-895zM-37 735l23 164h897l-23 -164h-897z" />
<glyph unicode="&#x3e;" horiz-adv-x="978" d="M-70 188l27 222l610 221l43 10v4l-39 10l-546 222l32 221l742 -373l-25 -164z" />
<glyph unicode="?" horiz-adv-x="1005" d="M55 1092l29 211q90 43 178.5 66.5t206.5 23.5q216 0 310 -85t71 -253q-8 -56 -36 -108t-66.5 -93t-83 -80.5t-89.5 -78.5t-83 -79t-65.5 -89.5t-35.5 -102.5h-164q13 92 54.5 168t93 127.5t102 98t89.5 102.5t48 120q11 80 -39.5 122t-160.5 42q-169 0 -359 -112z M117 131q6 38 71 95t103 57q37 0 86 -57t43 -95q-4 -38 -69 -94.5t-103 -56.5t-87 56.5t-44 94.5z" />
<glyph unicode="@" horiz-adv-x="2125" d="M-10 492q28 200 121.5 373t235.5 299t335.5 198t411.5 72q217 0 381.5 -67.5t259 -184.5t131.5 -270t12 -328q-37 -269 -183 -416.5t-335 -147.5q-196 0 -266 103q-157 -103 -289 -103q-167 0 -252 128t-53 348q31 224 160 348.5t337 124.5q81 0 179 -25t182 -76 l-76 -546q-24 -150 109 -150q94 0 168 98t104 314q8 75 8.5 148t-17.5 141t-46.5 127.5t-79 108.5t-114 84.5t-151.5 55t-192 19.5q-172 0 -322 -57.5t-260 -160.5t-182 -246t-96 -312q-48 -342 125.5 -544t521.5 -202q266 0 475 70l-22 -156q-240 -80 -477 -80 q-292 0 -497.5 116.5t-294.5 323t-52 472.5zM715 496q-22 -153 21.5 -234.5t150.5 -81.5q87 0 176 58q2 6 2 18l74 528q-74 25 -158 25q-108 0 -176 -80t-90 -233z" />
<glyph unicode="A" horiz-adv-x="1490" d="M-186 0v17q0 61 18 124l154 21l553 1057l-115 12v15q0 57 20 126h437l284 -1212l131 -19v-17q0 -61 -18 -124h-518v17q0 61 18 124l142 19l-58 266h-512l-133 -266l135 -19v-15q0 -54 -18 -126h-520zM444 614h377l-104 492l22 92h-4z" />
<glyph unicode="B" horiz-adv-x="1269" d="M-129 0v17q0 61 18 124l150 21l147 1048l-143 21v15q0 57 20 126h146q66 0 202 10.5t210 10.5q216 1 332 -99q95 -82 95 -212q0 -28 -4 -58q-20 -127 -104.5 -210.5t-157.5 -96.5v-2l-2 -2q26 -5 56.5 -17t68 -38.5t64.5 -61.5q27 -36 41 -92q9 -35 9 -73q0 -24 -3 -50 q-14 -102 -66.5 -180.5t-133 -126t-179.5 -71t-215 -23.5q-74 0 -207 10t-199 10h-145zM266 174q59 -4 183 -4q299 0 331 221q3 21 3 40q0 28 -7 51q-12 39 -36.5 62t-64 37.5t-80 19.5t-89.5 5h-178zM354 797h181q109 0 187 58.5t91 156.5q2 16 2 31q0 67 -45 109 q-55 52 -176 52q-96 0 -184 -6z" />
<glyph unicode="C" horiz-adv-x="1292" d="M-6 450q-4 40 -4 84q0 71 10 152q21 154 78 276.5t133.5 201.5t173 132t194.5 75t201 22q220 0 385 -90l-45 -326q-32 -6 -80 -6t-77 6l6 190q-113 37 -215 37q-98 0 -182.5 -31t-153.5 -93t-116.5 -162.5t-65.5 -231.5q-9 -62 -9 -117q0 -61 11 -114q21 -101 74.5 -162 t128 -92t167.5 -31q110 0 221 32.5t193 80.5l-31 -213q-187 -90 -409 -90q-85 0 -162.5 15.5t-151.5 50t-129 89t-95 133t-50 182.5z" />
<glyph unicode="D" horiz-adv-x="1460" d="M-129 0v17q0 61 18 124l150 21l147 1048l-143 21v15q0 57 20 126h146q44 2 128 8t164.5 9.5t164.5 3.5q103 0 194.5 -22t174 -75t137.5 -132q54 -80 76 -202q11 -63 11 -133q0 -68 -10 -143q-22 -154 -79 -276.5t-133.5 -201.5t-173.5 -131.5t-195 -74.5t-201 -22 q-102 0 -246 10t-205 10h-145zM266 174q136 -4 230 -4q93 0 176.5 31t154 92t119.5 162t68 231q8 60 8 114q0 63 -11 117q-21 101 -74.5 163t-128 93t-167.5 31q-95 0 -231 -8z" />
<glyph unicode="E" horiz-adv-x="1136" d="M-129 0v17q0 61 18 124l150 21l147 1048l-143 21v15q0 57 20 126h951l-49 -346q-32 -6 -80.5 -6t-79.5 6l8 158h-405l-56 -402l441 15l-29 -191l-434 15l-62 -431h443l37 158q40 6 80 6t79 -6l-47 -348h-989z" />
<glyph unicode="F" horiz-adv-x="1052" d="M-129 0v17q0 61 18 124l150 21l147 1048l-143 21v15q0 57 20 126h951l-49 -346q-32 -6 -80.5 -6t-79.5 6l8 158h-405l-60 -422l443 14l-29 -190l-436 14l-62 -438l211 -21v-17q0 -61 -18 -124h-586z" />
<glyph unicode="G" horiz-adv-x="1388" d="M-6 450q-4 40 -4 84q0 71 10 152q21 154 78 276.5t133.5 201.5t173 132t194.5 75t201 22q241 0 406 -90l-45 -326q-32 -6 -80.5 -6t-77.5 6l6 188q-112 39 -235 39q-98 0 -182.5 -31t-153.5 -93t-116.5 -162.5t-65.5 -231.5q-9 -62 -9 -117q0 -61 11 -114 q21 -101 74.5 -162t128 -92t167.5 -31q116 0 242 18l53 373h-223l39 189h430l-96 -680q-187 -90 -471 -90q-85 0 -162.5 15.5t-151.5 50t-129 89t-95 133t-50 182.5z" />
<glyph unicode="H" horiz-adv-x="1589" d="M-129 0v17q0 61 18 124l150 21l147 1048l-143 21v15q0 57 20 126h515q0 -80 -21 -141l-145 -21l-58 -413h707l57 413l-143 21v15q0 57 20 126h514q0 -82 -20 -141l-146 -21l-147 -1048l139 -21v-17q0 -61 -18 -124h-514v17q0 61 18 124l150 21l63 444h-706l-64 -444 l139 -21v-17q0 -61 -18 -124h-514z" />
<glyph unicode="I" horiz-adv-x="677" d="M-119 0v16q0 59 19 125l149 21l148 1048l-144 21v14q0 56 21 127h514q0 -80 -21 -141l-145 -21l-148 -1048l140 -21v-16q0 -59 -19 -125h-514z" />
<glyph unicode="J" horiz-adv-x="681" d="M-190 -182q132 51 186 123t72 202l151 1067l-143 21v15q0 57 20 126h514q0 -82 -20 -141l-146 -21l-143 -1020q-15 -110 -48 -194t-90 -151.5t-144.5 -111.5t-206.5 -67z" />
<glyph unicode="K" horiz-adv-x="1333" d="M-129 0v17q0 61 18 124l150 21l147 1048l-143 21v15q0 57 20 126h515q0 -80 -21 -141l-145 -21l-148 -1048l139 -21v-17q0 -61 -18 -124h-514zM399 721l490 493l-109 17v14q0 56 21 127h499q0 -73 -20 -141l-156 -19l-467 -481l-47 -8v-4l45 -10l346 -549l158 -19v-15 q0 -54 -18 -126h-318z" />
<glyph unicode="L" horiz-adv-x="1091" d="M-129 0v17q0 61 18 124l150 21l147 1048l-143 21v15q0 57 20 126h515q0 -80 -21 -141l-145 -21l-144 -1020h426l37 158q32 4 80.5 4t77.5 -4l-47 -348h-971z" />
<glyph unicode="M" horiz-adv-x="2039" d="M-150 0v16q0 59 19 125l147 19l322 1054l-123 17v14q0 56 21 127h454l170 -1157h4l10 92l461 1065h457q0 -82 -20 -141l-127 -17l24 -1054l137 -19v-17q0 -61 -18 -124h-518v17q0 61 18 124l144 19l8 936l22 98h-4l-497 -1143h-269l-164 1045l11 98h-4l-281 -1034 l135 -19v-15q0 -54 -18 -126h-521z" />
<glyph unicode="N" horiz-adv-x="1611" d="M-92 0v17q0 61 18 124l150 21l149 1048l-145 21q0 74 20 141h445l461 -1034l8 -109h4l139 981l-145 21q0 74 20 141h516q0 -73 -20 -141l-146 -21l-170 -1210h-299l-462 1034l-9 92h-4l-137 -964l141 -21v-15q0 -54 -18 -126h-516z" />
<glyph unicode="O" horiz-adv-x="1572" d="M-6 450q-4 40 -4 84q0 71 10 152q21 154 78 276.5t133.5 201.5t173 132t194.5 75t201 22t194 -22t173.5 -75t136.5 -132q54 -80 76 -202q12 -63 12 -135q0 -67 -10 -141q-22 -154 -79 -276.5t-133.5 -201.5t-173.5 -131.5t-194 -74.5t-200 -22q-85 0 -162.5 15.5 t-151.5 50t-129 89t-95 133t-50 182.5zM236 686q-9 -62 -9 -117q0 -61 11 -114q21 -101 74.5 -162t128 -92t167.5 -31t176.5 31t154 92t119.5 162t68 231q8 60 8 114q0 63 -11 117q-21 101 -74 163t-127.5 93t-167.5 31t-176.5 -31.5t-154.5 -93t-120 -162.5t-67 -231z" />
<glyph unicode="P" horiz-adv-x="1171" d="M-137 0v17q0 61 18 124l150 21l149 1048l-145 21q0 74 20 141h148q66 0 200.5 10.5t208.5 10.5q145 0 246 -45.5t149 -139.5q34 -67 35 -156q0 -35 -6 -73q-27 -198 -172 -303t-366 -105q-69 0 -183 4l-59 -413l213 -21v-15q0 -54 -18 -126h-588zM342 766q86 -6 182 -6 q119 0 192.5 54t90.5 165q4 26 4 49q0 78 -45 121q-58 55 -178 55q-14 0 -185 -6z" />
<glyph unicode="Q" horiz-adv-x="1552" d="M-19 480q-3 31 -3 64q0 67 12 142q21 154 78 276.5t133.5 201.5t173 132t194.5 75t201 22t194 -22t173.5 -75t136.5 -132t76 -202q12 -63 12 -135q0 -67 -10 -141q-59 -411 -353 -592l164 -299h-264l-102 213q-104 -28 -226 -28q-73 0 -140 11.5t-132.5 36t-118.5 63.5 t-97 94.5t-68.5 128.5t-33.5 166zM221 495q12 -84 43.5 -145.5t83 -101t114 -59t136.5 -19.5q93 0 176.5 31t154 92t119.5 162t68 231q8 60 8 114q0 63 -11 117q-21 101 -74.5 163t-128 93t-167.5 31t-176.5 -31.5t-154.5 -93t-120 -162.5t-67 -231q-9 -61 -9 -115 q0 -40 5 -76z" />
<glyph unicode="R" horiz-adv-x="1286" d="M-137 0v17q0 61 18 124l150 21l149 1048l-145 21q0 74 20 141h148q66 0 200.5 10.5t208.5 10.5q208 0 322 -107q91 -86 92 -231q0 -36 -6 -76q-20 -140 -106 -235t-218 -136l234 -446l160 -21v-14q0 -52 -19 -127h-319l-289 582q-54 0 -148 4l-59 -424l141 -21v-15 q0 -54 -18 -126h-516zM344 776q86 -6 182 -6q106 0 177.5 53.5t84.5 155.5q4 27 4 51q0 76 -42 118q-55 56 -162 56q-14 0 -185 -6z" />
<glyph unicode="S" horiz-adv-x="1075" d="M-70 70l47 327q31 5 79 5t79 -5l-8 -196q85 -31 182 -31q113 0 187.5 49t87.5 148q2 15 2 28q0 43 -21 77q-28 46 -78.5 75t-113 56t-124.5 60t-111 75q-48 44 -72 114q-16 46 -16 100q0 30 5 62q22 172 150.5 275.5t339.5 103.5q100 0 174 -23t155 -67l-47 -326 q-32 -6 -80 -6t-77 6l6 199q-82 28 -158 28q-108 0 -166.5 -43.5t-70.5 -136.5q-2 -12 -2 -24q1 -42 23 -76q28 -43 78.5 -72.5t113 -57.5t124 -62.5t110 -79t72.5 -116.5q16 -47 15 -102q0 -30 -4 -63q-25 -186 -165 -288.5t-363 -102.5q-188 0 -353 90z" />
<glyph unicode="T" horiz-adv-x="1200" d="M-23 1026l52 346h1128l-49 -346q-32 -6 -80.5 -6t-79.5 6l8 158h-276l-143 -1022l139 -21v-14q0 -52 -19 -127h-514v16q0 59 19 125l149 21l144 1022h-281l-37 -158q-31 -6 -79.5 -6t-80.5 6z" />
<glyph unicode="U" horiz-adv-x="1480" d="M25 1231v15q0 57 20 126h514q0 -73 -20 -141l-146 -21l-100 -718q-6 -41 -6 -77q0 -103 49 -163q66 -82 223 -82q311 0 359 322l100 718l-144 21v14q0 56 21 127h514q0 -73 -20 -141l-146 -21l-102 -723q-35 -249 -194.5 -378t-414.5 -129q-256 0 -378 128 q-95 100 -96 274q0 50 8 105l102 723z" />
<glyph unicode="V" horiz-adv-x="1470" d="M-4 1231q0 67 22 141h517q0 -69 -21 -141l-137 -19l201 -1032h4l4 86l458 946l-135 19q0 71 21 141h508q0 -69 -21 -141l-141 -19l-614 -1212h-261l-268 1212z" />
<glyph unicode="W" horiz-adv-x="2088" d="M-8 1231v15q0 57 20 126h516q0 -82 -20 -141l-141 -19l112 -1032h4l15 92l405 1080h273l98 -1172h4l14 92l371 940l-129 19v15q0 57 20 126h506q0 -82 -20 -141l-139 -19l-517 -1212h-272l-104 1081l18 103h-4l-442 -1184h-273l-176 1212z" />
<glyph unicode="X" horiz-adv-x="1361" d="M-160 0q0 76 19 141l143 19l404 553l40 10v4l-38 10l-230 475l-149 19v15q0 57 20 126h514q0 -73 -20 -141l-103 -14l166 -369h4l267 369l-107 14v14q0 56 21 127h505q0 -73 -20 -141l-154 -17l-364 -477l-35 -10v-4l33 -10l250 -553l133 -19v-14q0 -52 -19 -127h-514v16 q0 59 19 125l112 15l-182 436h-4l-303 -432l127 -19v-14q0 -52 -19 -127h-516z" />
<glyph unicode="Y" horiz-adv-x="1347" d="M0 1231v15q0 57 20 126h517q0 -69 -21 -141l-117 -17l207 -618h4l-16 109l315 509l-118 17v15q0 57 20 126h506q0 -80 -21 -141l-157 -19l-480 -727l-45 -323l140 -21v-14q0 -52 -19 -127h-514v16q0 59 19 125l149 21l45 323l-274 727z" />
<glyph unicode="Z" horiz-adv-x="1148" d="M-127 0l16 121l832 1042l43 17v4h-531l-36 -158q-32 -6 -80.5 -6t-79.5 6l49 346h971l-17 -121l-829 -1040l-45 -16v-5h561l37 158q32 4 80.5 4t77.5 -4l-48 -348h-1001z" />
<glyph unicode="[" horiz-adv-x="550" d="M-141 -266l272 1945h414l-25 -163h-205l-249 -1782h-207zM66 -266l24 164h205l-25 -164h-204z" />
<glyph unicode="\" horiz-adv-x="909" d="M80 1516h188l377 -1680h-188z" />
<glyph unicode="]" horiz-adv-x="550" d="M-199 -266l25 164h205l227 1618h-205l23 163h411l-272 -1945h-414z" />
<glyph unicode="^" horiz-adv-x="1021" d="M-2 1024l469 690h164l278 -690l-221 -2l-156 477l-2 55h-4l-18 -55l-287 -477z" />
<glyph unicode="_" horiz-adv-x="890" d="M-188 -205l22 164h840l-23 -164h-839z" />
<glyph unicode="`" horiz-adv-x="575" d="M43 1393l119 151l342 -289l-82 -102z" />
<glyph unicode="a" horiz-adv-x="1124" d="M-45 430q18 125 62 231.5t110.5 188t161.5 128t207 46.5q128 0 262 -55l53 35h72l-111 -799l-8 -60l137 -4v-15q0 -54 -18 -126l-328 -20q-6 51 -6 103q0 60 8 122l16 108h-6l-30 -112q-171 -221 -375 -221q-218 0 -218 300q0 67 11 150zM168 270q2 -64 25.5 -94.5 t70.5 -30.5q74 0 167 97.5t169 271.5l45 313q-82 31 -168 31q-82 0 -144.5 -60t-98.5 -152.5t-54 -215.5q-12 -81 -12 -140v-20z" />
<glyph unicode="b" horiz-adv-x="1103" d="M-43 0l174 1229l19 139l-146 6q0 84 21 142l333 20q7 -59 7 -115.5t-7 -109.5l-90 -619h6l31 113q171 219 375 219q218 0 218 -301q0 -68 -11 -150q-18 -125 -62 -231.5t-110.5 -188t-161.5 -127.5t-207 -46q-128 0 -262 55l-53 -35h-74zM197 176q82 -31 168 -31 q120 0 195 119.5t102 308.5q12 81 12 140v19q-2 64 -25.5 95t-70.5 31q-74 0 -167 -97.5t-169 -271.5z" />
<glyph unicode="c" horiz-adv-x="972" d="M-35 502q37 246 176.5 384t354.5 138q153 0 276 -76l-39 -274q-38 -7 -75 -7t-72 7l2 168q-49 16 -105 16q-117 0 -191 -90.5t-99 -265.5q-9 -60 -9 -110q0 -96 32 -156q48 -91 165 -91q73 0 145 32t166 104v-187q-157 -114 -344 -114q-215 0 -316 138q-76 103 -76 267 q0 55 9 117z" />
<glyph unicode="d" horiz-adv-x="1128" d="M-45 430q18 125 62 231.5t110.5 188t161.5 128t207 46.5q99 0 172 -33l32 238l21 139l-146 6q0 84 21 142l332 20q7 -59 7 -115.5t-7 -109.5l-156 -1106l-8 -60l137 -4v-15q0 -54 -18 -126l-328 -20q-6 51 -6 103q0 60 8 122l16 108h-6l-30 -112q-171 -221 -375 -221 q-218 0 -218 300q0 67 11 150zM168 270q2 -64 25.5 -94.5t70.5 -30.5q74 0 167 97.5t169 271.5l43 303q-58 41 -166 41q-82 0 -144.5 -60t-98.5 -152.5t-54 -215.5q-12 -81 -12 -140v-20z" />
<glyph unicode="e" horiz-adv-x="1036" d="M-35 502q36 242 182 382t349 140q111 0 193 -32q81 -32 125 -101q33 -52 34 -120q0 -22 -4 -46q-21 -147 -185.5 -210.5t-482.5 -65.5q-2 -23 -2 -45q0 -115 46 -181q54 -78 161 -78q84 0 164.5 32.5t173.5 103.5v-187q-157 -114 -371 -114q-215 0 -316 138 q-76 103 -76 267q0 55 9 117zM184 565q166 0 264.5 16t141 47t49.5 83q2 14 2 27q0 56 -35 88q-43 38 -133 38q-109 0 -183 -75t-106 -224z" />
<glyph unicode="f" horiz-adv-x="839" d="M-195 -330q108 47 160.5 121t71.5 203l117 844h-154l23 166h155l19 139q28 195 144.5 294t283.5 99q124 0 213 -55l-25 -183q-88 72 -180 72q-187 0 -225 -256l-15 -110h326l-23 -166h-327l-113 -807q-32 -223 -136 -347.5t-308 -164.5z" />
<glyph unicode="g" horiz-adv-x="1103" d="M-104 -213q21 162 225 293q-34 34 -34 81q0 9 1 19q13 94 121 193q-99 39 -150 121q-39 63 -39 142q0 23 3 48q21 151 150.5 245.5t301.5 94.5q131 0 223 -59l185 174l108 -92l-182 -201q25 -52 25 -115q0 -23 -3 -47q-21 -151 -149.5 -245.5t-300.5 -94.5q-37 0 -53 2 q-50 -50 -56 -98q-3 -23 10.5 -39t44 -26.5t60.5 -16t76 -10.5q45 -6 73.5 -11t71.5 -15.5t70.5 -23t58 -33t46.5 -46t24 -62.5q5 -21 5 -45q0 -18 -3 -37q-23 -162 -186.5 -263t-389.5 -101q-180 0 -267 74q-72 62 -72 158q0 17 2 36zM74 -176q-2 -16 -2 -30q0 -62 43 -90 q53 -36 149 -36q83 0 156.5 20.5t126.5 64.5t61 104q3 24 0 42.5t-16 31.5t-27 21.5t-42 16t-51 11.5t-64 10q-122 17 -199 41q-121 -95 -135 -207zM227 684q-2 -16 -2 -30q0 -60 39 -102q49 -52 137 -52t153 52.5t75 131.5q2 13 2 25q0 63 -43 107q-50 52 -135 52 q-88 0 -151.5 -52t-74.5 -132z" />
<glyph unicode="h" d="M16 -20l177 1249l18 139l-145 6q0 86 20 142l334 20q7 -59 7 -115.5t-7 -109.5l-90 -619h6l31 113q171 219 374 219q97 0 143 -41t50 -120q1 -14 1 -30q0 -70 -13 -165l-64 -463l-10 -60l137 -4v-15q0 -54 -18 -126l-326 -20q-7 57 -7 110q0 60 9 115l64 463q6 47 6 82 q0 42 -9 66q-17 42 -65 42q-74 0 -167 -97.5t-169 -271.5l-67 -489z" />
<glyph unicode="i" horiz-adv-x="620" d="M-10 862v18q0 63 18 124l334 20q6 -51 6 -103q0 -60 -8 -122l-90 -654l137 -4v-15q0 -54 -18 -126l-328 -20q-6 51 -6 103q0 60 8 122l74 532l16 119zM141 1341q6 38 71 95t103 57q39 0 87 -57q43 -51 43 -86q0 -4 -1 -9q-4 -38 -69 -94.5t-103 -56.5t-87 56 q-44 51 -44 88v7z" />
<glyph unicode="j" horiz-adv-x="616" d="M-203 -330q108 47 161.5 121.5t70.5 202.5l102 723l19 139l-146 6q0 80 19 142l335 20q6 -51 6 -103q0 -60 -8 -122l-106 -768q-31 -222 -136.5 -347t-310.5 -165zM164 1341q6 38 71 95t103 57t86 -57q44 -51 44 -86q0 -5 -1 -9q-4 -38 -69 -94.5t-103 -56.5t-87 56 q-44 52 -44 88v7z" />
<glyph unicode="k" horiz-adv-x="1165" d="M0 -20l176 1249l21 139l-146 6q0 84 21 142l331 20q7 -59 7 -115.5t-7 -109.5l-88 -619h4l33 113q168 219 375 219q99 0 151 -62q42 -51 42 -119q0 -16 -2 -32q-15 -103 -81 -183t-216 -186l-43 -10v-4l38 -10l187 -271l151 -6v-15q0 -54 -18 -126l-281 -20l-274 450 q294 173 317 328q2 14 2 25q0 75 -71 75q-77 0 -170 -97t-172 -272l-68 -489z" />
<glyph unicode="l" horiz-adv-x="616" d="M33 -20q-6 51 -6 103q0 60 8 122l143 1024l21 139l-146 6q0 84 21 142l332 20q7 -59 7 -115.5t-7 -109.5l-156 -1106l-8 -60l137 -4v-14q0 -52 -19 -127z" />
<glyph unicode="m" horiz-adv-x="1781" d="M-14 862q0 86 20 142l334 20q6 -51 6 -103q0 -60 -8 -122l-14 -103h4l32 109q168 219 373 219q88 0 131.5 -37.5t49.5 -110.5q2 -23 2 -49q0 -57 -9 -131h4l33 109q168 219 373 219q91 0 135 -41t48 -120q1 -14 0 -30q0 -70 -13 -165l-64 -463l-8 -60l135 -4v-17 q0 -61 -18 -124l-326 -20q-6 51 -6 103q0 60 8 122l64 463q11 69 11 110q0 24 -4 40q-10 40 -65 40q-74 0 -165 -97t-170 -272l-68 -489l-219 -20l96 688q11 69 11 110q1 24 -3 40q-10 40 -65 40q-74 0 -165.5 -97t-170.5 -272l-68 -489l-219 -20l105 737l18 139z" />
<glyph unicode="n" horiz-adv-x="1206" d="M-14 862v18q0 63 18 124l336 20q6 -51 6 -103q0 -60 -8 -122l-16 -107h6l30 113q171 219 375 219q97 0 143 -41t50 -120q1 -14 0 -30q0 -70 -13 -165l-63 -463l-10 -60l137 -4v-14q0 -52 -19 -127l-325 -20q-7 57 -7 110q0 60 9 115l63 463q6 48 6 83q0 41 -8 65 q-16 42 -65 42q-74 0 -167 -97.5t-169 -271.5l-68 -489l-219 -20l105 737l18 139z" />
<glyph unicode="o" horiz-adv-x="1105" d="M-35 502q37 246 176.5 384t354.5 138q214 0 316 -138q75 -103 76 -265q0 -56 -9 -119q-34 -246 -174.5 -384t-356.5 -138q-215 0 -316 138q-76 103 -76 267q0 55 9 117zM193 502q-9 -62 -9 -114q0 -94 30 -152q46 -91 157 -91q114 0 185.5 91t96.5 266q9 62 9 113 q0 95 -30 153q-46 90 -159 90q-114 0 -184.5 -90.5t-95.5 -265.5z" />
<glyph unicode="p" horiz-adv-x="1138" d="M-74 -481l168 1198l19 139l-144 6v17q0 62 19 125l334 20q6 -48 6 -98q0 -62 -9 -127l-14 -107h4l33 113q168 219 375 219q217 0 217 -296q0 -69 -12 -155q-18 -125 -62 -231.5t-110.5 -188t-161.5 -127.5t-207 -46q-101 0 -172 32l-66 -473zM233 184q59 -39 166 -39 q82 0 145.5 60t99 152.5t52.5 215.5q12 80 12 137q0 46 -8 78q-18 70 -86 70q-75 0 -167 -97t-171 -272z" />
<glyph unicode="q" horiz-adv-x="1083" d="M-45 430q18 125 62 231.5t110.5 188t161.5 128t207 46.5q128 0 262 -55l53 35h72l-205 -1465l-217 -20l110 794h-4l-30 -112q-171 -221 -375 -221q-218 0 -218 300q0 67 11 150zM168 270q3 -63 26 -94t70 -31q74 0 167 97.5t169 271.5l45 313q-82 31 -168 31 q-82 0 -144.5 -60t-98.5 -152.5t-54 -215.5q-12 -81 -12 -140v-20z" />
<glyph unicode="r" horiz-adv-x="956" d="M-14 862q0 86 20 142l334 20q6 -51 6 -103q0 -60 -8 -122l-19 -135h5l30 110q74 131 171 190.5t196 59.5q55 0 77 -28q15 -19 14 -59q0 -18 -3 -40l-37 -258q-37 -6 -73.5 -5.5t-73.5 5.5l2 180q-6 2 -21 2q-169 0 -321 -407l-29 -209l-8 -60l135 -4v-17q0 -61 -18 -124 l-326 -20q-6 51 -6 103q0 60 8 122l72 512l18 139z" />
<glyph unicode="s" horiz-adv-x="903" d="M-76 55l39 269q39 6 76 6t72 -6l-2 -170q58 -19 122 -19q79 0 133.5 30.5t61.5 86.5q1 9 1 17q1 31 -17 57q-22 32 -62.5 54.5t-89.5 44.5t-98 48t-87.5 57.5t-58.5 81.5q-14 35 -15 76q0 18 3 37q20 138 125.5 218.5t271.5 80.5q158 0 281 -76l-39 -266q-38 -6 -75 -6 t-72 6l2 168q-62 18 -119 18q-66 0 -110 -31.5t-52 -84.5q-4 -30 9 -54.5t39 -43t60 -35t72.5 -33.5t76 -36t71 -45t57.5 -57.5t34 -77.5q6 -26 6 -54q0 -22 -3 -46q-20 -138 -135.5 -214t-292.5 -76q-163 0 -285 75z" />
<glyph unicode="t" horiz-adv-x="837" d="M-16 838l24 166h160l78 286l176 21l-45 -307h307l-22 -166h-308l-67 -484q-7 -49 -7 -85q0 -55 16 -81q27 -44 95 -43q90 0 191 84v-174q-121 -75 -248 -75q-158 0 -224 85q-48 62 -49 173q0 42 7 90l71 510h-155z" />
<glyph unicode="u" horiz-adv-x="1159" d="M-45 862v18q0 63 18 124l336 20q6 -51 6 -103q0 -60 -8 -122l-63 -463q-9 -60 -9 -100q-1 -31 5 -49q12 -42 65 -42q73 0 163 96.5t169 272.5l68 490l219 20l-115 -819l-8 -60l135 -4v-17q0 -61 -18 -124l-326 -20q-6 51 -6 103q0 60 8 122l14 108h-4l-33 -112 q-168 -221 -368 -221q-94 0 -138.5 41t-48.5 120q-1 14 0 30q0 70 13 165l53 381l18 139z" />
<glyph unicode="v" horiz-adv-x="1071" d="M-88 862v18q0 63 18 124l312 20l166 -858h4l2 92q20 40 52.5 107t47 97.5t39 81t35.5 74.5t28 60.5t25.5 56.5t18.5 45t16 43t10 35l-119 4q0 80 19 142l325 20q4 -22 4 -50.5t-4 -62.5q-14 -104 -96 -260l-348 -651h-207l-217 858z" />
<glyph unicode="w" horiz-adv-x="1667" d="M-88 862v18q0 63 18 124l310 20l108 -858h4l10 92l285 721l242 20l119 -833h4l10 92q39 90 94.5 216t78 177.5t46 110.5t33.5 96l-117 4v17q0 62 19 125l323 20q4 -22 4 -50.5t-4 -62.5q-6 -41 -23 -90t-31.5 -81t-43.5 -89l-318 -651h-213l-125 760l19 100h-4l-336 -860 h-223l-168 858z" />
<glyph unicode="x" horiz-adv-x="1021" d="M-121 -20v12q0 66 41 134q45 74 131 171l178 213l41 10l2 4l-41 11l-172 321l-155 6v18q0 63 18 124l295 20l180 -391h4q17 19 57 65.5t55.5 65t37.5 46.5t35 48l-80 4v18q0 63 18 124l328 20q1 -11 2 -21q0 -55 -34 -111q-40 -67 -122 -157l-174 -200l-41 -11l-2 -4 l41 -10l187 -360l147 -9v-15q0 -54 -18 -126l-291 -20l-195 419h-4q-29 -35 -80 -94.5t-79.5 -94.5t-47.5 -65l99 -4q0 -7 1 -14q0 -52 -20 -127z" />
<glyph unicode="y" horiz-adv-x="1069" d="M-88 862v18q0 64 18 124l312 20l176 -879h4l-2 113q198 413 234 501q23 58 34 99l-117 4q0 80 19 142l325 20q3 -22 3 -50.5t-3 -62.5q-14 -104 -96 -260l-592 -1112l-223 -20l12 75l260 392v4l-231 868z" />
<glyph unicode="z" horiz-adv-x="954" d="M-125 0l12 94l596 723l43 17v4h-350l-39 -164q-38 -7 -75.5 -7t-73.5 7l45 330h766l-13 -97l-563 -684l-43 -12l-2 -8h7q87 -1 201 -25q118 -26 159 -28l41 165q37 7 73.5 7t73.5 -7l-43 -315q-59 -17 -124 -17q-17 -1 -34 1q-83 6 -137 21t-142.5 30.5t-172.5 15.5 l-37 -51h-168z" />
<glyph unicode="{" horiz-adv-x="563" d="M-18 -10q9 67 54 240t54 239q6 30 4.5 59.5t-9.5 54.5t-32.5 45.5t-64.5 30.5l14 97q43 10 72.5 29.5t46 47t24.5 53t13 60.5q9 64 12.5 236.5t13.5 240.5q6 43 24.5 81.5t54.5 75.5t100 63t151 36v-161q-65 -19 -92 -57.5t-37 -108.5q-9 -67 -11.5 -229t-11.5 -228 q-17 -128 -167 -188q132 -61 114 -187q-9 -67 -52 -230t-52 -229q-10 -71 5.5 -108.5t74.5 -56.5l-45 -162q-84 10 -141 36t-82.5 63.5t-33 75t-1.5 81.5z" />
<glyph unicode="|" horiz-adv-x="614" d="M-63 -410l286 2048h213l-286 -2048h-213z" />
<glyph unicode="}" horiz-adv-x="563" d="M-156 -104q65 19 92 57t37 108q9 64 12 227.5t13 231.5q18 127 168 187q-134 61 -117 188q9 67 53.5 229t53.5 228q10 70 -6.5 108.5t-75.5 57.5l45 161q84 -10 141 -36t82.5 -63.5t33 -75t1.5 -81.5q-10 -64 -55 -236.5t-54 -240.5q-6 -30 -4.5 -59.5t10 -54.5t33 -45.5 t64.5 -30.5l-15 -97q-80 -20 -112 -68t-43 -122q-9 -66 -13.5 -239t-13.5 -240q-6 -44 -24 -82t-53.5 -75t-99.5 -63t-151 -36z" />
<glyph unicode="~" horiz-adv-x="1024" d="M-45 682l51 -143q115 86 232 86q46 0 89 -15t72 -33.5t77 -33.5t104 -15q105 0 266 80l-49 146q-100 -64 -191 -64q-39 0 -80 15.5t-73 33.5t-83 33.5t-106 15.5q-132 0 -309 -106z" />
<glyph unicode="&#xa2;" horiz-adv-x="972" d="M-35 502q31 210 138.5 342.5t275.5 167.5l24 176h215l-24 -172q91 -14 178 -68l-39 -274q-77 -14 -147 0l2 168q-49 16 -105 16q-117 0 -191 -90.5t-99 -265.5t23 -266t165 -91q73 0 145 32t166 104v-187q-117 -84 -241 -104l-25 -174h-215l25 176q-157 34 -228 166 t-43 344z" />
<glyph unicode="&#xa3;" horiz-adv-x="1118" d="M-119 0l27 190q62 40 108.5 133t57.5 164l18 138h-135l20 143h136l37 266q26 183 143 271t334 88q118 0 199 -23t161 -67l-45 -326q-32 -6 -80.5 -6t-79.5 6l9 201q-76 26 -160 26q-227 0 -250 -184l-35 -252h414l-21 -143h-413l-21 -138q-10 -76 -64.5 -166.5 t-146.5 -130.5h563l37 158q32 4 80.5 4t77.5 -4l-47 -348h-924z" />
<glyph unicode="&#xa5;" horiz-adv-x="1359" d="M12 1231q0 71 21 141h516q0 -69 -21 -141l-116 -17l206 -618h5l-17 109l316 509l-119 17q-3 63 20 141h506q0 -82 -20 -141l-158 -19l-408 -618h310l-21 -119h-362l-13 -92h361l-21 -117h-356l-14 -104l139 -21q3 -59 -18 -141h-515q-3 66 19 141l149 21l15 104h-361 l21 117h356l12 92h-354l21 119h295l-234 618z" />
<glyph unicode="&#xa8;" horiz-adv-x="987" d="M127 1356q4 35 63 86t93 51q35 0 79.5 -51t38.5 -86q-4 -35 -62.5 -86t-92.5 -51q-35 0 -79.5 51t-39.5 86zM557 1356q4 35 63.5 86t94.5 51q34 0 78.5 -51t40.5 -86q-6 -35 -64.5 -86t-93.5 -51t-79.5 51t-39.5 86z" />
<glyph unicode="&#xa9;" horiz-adv-x="1515" d="M51 686q21 147 80.5 268.5t140.5 201.5t181.5 134.5t201 78.5t201.5 24q83 0 162.5 -17t155.5 -53t134.5 -92t101.5 -135t56.5 -181t-2.5 -229q-21 -147 -80.5 -268.5t-141 -201t-182.5 -134t-201.5 -78.5t-201.5 -24t-195 24t-179 78.5t-143.5 134t-84 201t-4.5 268.5z M92 686q-20 -141 4 -256.5t79.5 -191t136.5 -127t169 -73.5t183 -22t189 22t189 73.5t171 127t133 191t77 256.5t-4.5 256.5t-80 191t-136.5 127t-169 73.5t-183 22t-189 -22t-189 -73.5t-171.5 -127t-132.5 -191t-76 -256.5zM422 686q26 187 134 291t280 104q129 0 225 -57 l-31 -207q-58 -11 -112 0l2 125q-43 14 -95 14q-198 0 -233 -270q-41 -270 158 -270q114 0 233 73l-18 -141q-108 -57 -242 -57q-172 0 -249.5 104t-51.5 291z" />
<glyph unicode="&#xab;" horiz-adv-x="1159" d="M-55 465l12 82l10 82l553 395l-28 -221l-357 -244l-43 -10v-4l39 -10l289 -242l-33 -221zM424 469l10 78l10 76l553 401l-28 -221l-357 -244l-43 -10v-4l39 -10l289 -242l-33 -221z" />
<glyph unicode="&#xad;" horiz-adv-x="876" d="M-25 483l29 191h655l-26 -191h-658z" />
<glyph unicode="&#xb4;" horiz-adv-x="524" d="M23 1255l419 289l80 -151l-448 -240z" />
<glyph unicode="&#xb8;" horiz-adv-x="454" d="M-227 -473l16 108q36 -8 92 -8q136 0 144 78q6 37 -27.5 59.5t-122.5 32.5l80 203h123l-53 -133q78 -12 119 -56t32 -108q-12 -88 -91 -136t-214 -48q-59 0 -98 8z" />
<glyph unicode="&#xbb;" horiz-adv-x="1159" d="M-92 72l29 221l356 242l43 10v4l-39 10l-289 244l35 221l438 -401l-10 -76l-12 -78zM385 72l29 221l356 242l43 10v4l-39 10l-289 244l35 221l438 -395l-10 -82l-12 -82z" />
<glyph unicode="&#xd3;" horiz-adv-x="1572" d="M-6 450q-10 104 6 236q21 154 78 276.5t133.5 201.5t173 132t194.5 75t201 22t194 -22t173.5 -75t136.5 -132t76.5 -201.5t1.5 -276.5q-22 -154 -79 -276.5t-133.5 -201.5t-173.5 -131.5t-194 -74.5t-200 -22q-85 0 -162.5 15.5t-151.5 50t-129 89t-95 133t-50 182.5z M236 686q-19 -130 2 -231t74.5 -162t128 -92t167.5 -31t176.5 31t154 92t119.5 162t68 231q18 130 -3 231t-74 163t-127.5 93t-167.5 31t-176.5 -31.5t-154.5 -93t-120 -162.5t-67 -231zM571 1624l447 256l63 -164l-467 -205z" />
<glyph unicode="&#xf3;" horiz-adv-x="1105" d="M-35 502q37 246 176.5 384t354.5 138t316.5 -138t66.5 -384q-34 -246 -174.5 -384t-356.5 -138q-215 0 -316 138t-67 384zM193 502q-25 -175 20.5 -266t157.5 -91q114 0 185.5 91t96.5 266t-21 265.5t-159 90.5q-114 0 -184.5 -90.5t-95.5 -265.5zM340 1255l420 289 l80 -151l-449 -240z" />
<glyph unicode="&#x104;" horiz-adv-x="1492" d="M-186 0q-3 69 18 141l154 21l553 1057l-117 12q-3 63 20 141h176v-4l3 4h260l284 -1212l131 -19q3 -69 -18 -141h-264q-98 -44 -150.5 -104t-60.5 -119q-5 -43 16.5 -72t75.5 -29q66 0 125 33v-149q-84 -41 -189 -41t-166.5 57.5t-48.5 153.5q12 97 97.5 190.5 t224.5 153.5l-76 352h-512l-133 -266l135 -19q3 -59 -18 -141h-520zM444 614h377l-104 492l22 92h-4z" />
<glyph unicode="&#x105;" horiz-adv-x="1124" d="M-45 430q18 125 62 231.5t110.5 188t161.5 128t207 46.5q128 0 262 -55l53 35h72l-13 -91l-98 -708l-8 -60l137 -4q3 -59 -18 -141l-176 -10q-172 -85 -187 -213q-7 -42 15 -71.5t75 -29.5q66 0 125 33v-149q-80 -41 -188 -41q-105 0 -166.5 57.5t-48.5 153.5 q24 176 221 280q-8 94 4 195l16 108h-6l-30 -112q-171 -221 -375 -221q-267 0 -207 450zM168.5 270.5q2.5 -63.5 25.5 -94.5t70 -31q74 0 167 97.5t169 271.5l45 313q-82 31 -168 31q-82 0 -144.5 -60t-98.5 -152.5t-54 -215.5q-14 -96 -11.5 -159.5z" />
<glyph unicode="&#x106;" horiz-adv-x="1292" d="M-6 450q-10 104 6 236q21 154 78 276.5t133.5 201.5t173 132t194.5 75t201 22q220 0 385 -90l-45 -326q-32 -6 -80 -6t-77 6l6 190q-113 37 -215 37q-98 0 -182.5 -31t-153.5 -93t-116.5 -162.5t-65.5 -231.5q-19 -130 2 -231t74.5 -162t128 -92t167.5 -31 q110 0 221 32.5t193 80.5l-31 -213q-187 -90 -409 -90q-85 0 -162.5 15.5t-151.5 50t-129 89t-95 133t-50 182.5zM559 1624l445 256l65 -164l-467 -205z" />
<glyph unicode="&#x107;" horiz-adv-x="972" d="M-35 502q37 246 176.5 384t354.5 138q153 0 276 -76l-39 -274q-77 -14 -147 0l2 168q-49 16 -105 16q-117 0 -191 -90.5t-99 -265.5t23 -266t165 -91q73 0 145 32t166 104v-187q-157 -114 -344 -114q-215 0 -316 138t-67 384zM283 1255l419 289l80 -151l-448 -240z" />
<glyph unicode="&#x118;" horiz-adv-x="1136" d="M-129 0q-3 69 18 141l150 21l147 1048l-143 21q-3 63 20 141h951l-49 -346q-32 -6 -80.5 -6t-79.5 6l8 158h-405l-56 -402l441 15l-29 -191l-434 15l-62 -431h443l37 158q81 11 159 0l-47 -348h-137q-98 -45 -150 -104.5t-59 -118.5q-7 -42 15 -71.5t75 -29.5 q66 0 125 33v-149q-80 -41 -188 -41q-105 0 -166.5 57.5t-48.5 153.5q9 75 63.5 145.5t149.5 124.5h-668z" />
<glyph unicode="&#x119;" horiz-adv-x="1034" d="M-33 502q35 242 180.5 382t348.5 140q111 0 193 -32t125.5 -101t29.5 -166q-21 -147 -185.5 -210.5t-482.5 -65.5q-10 -148 44.5 -226t162.5 -78q84 0 163.5 32.5t172.5 103.5v-187q-136 -74 -199.5 -148.5t-75.5 -168.5q-7 -42 15.5 -71.5t77.5 -29.5q66 0 125 33v-149 q-84 -41 -191 -41q-105 0 -166 57.5t-49 153.5q18 142 131 252q-12 -2 -39 -2q-215 0 -315.5 138t-65.5 384zM184 565q166 0 264.5 16t141 47t49.5 83q10 76 -32.5 114.5t-133.5 38.5q-109 0 -183 -75t-106 -224z" />
<glyph unicode="&#x141;" horiz-adv-x="1089" d="M-135 451l24 190l234 109l63 460l-143 21q-3 63 20 141h515q0 -80 -21 -141l-145 -21l-50 -358l271 141l-27 -188l-268 -125l-70 -490h426l37 158q32 4 80.5 4t77.5 -4l-47 -348h-971q-3 69 18 141l150 21l59 416z" />
<glyph unicode="&#x142;" horiz-adv-x="743" d="M-96 457l26 188l236 111l65 473l21 139l-146 6q0 84 21 142l332 20q14 -118 0 -225l-64 -455l238 133l-25 -190l-237 -117l-68 -477l-8 -60l137 -4q3 -59 -18 -141l-328 -20q-13 110 2 225l53 379z" />
<glyph unicode="&#x143;" horiz-adv-x="1611" d="M-92 0q-3 69 18 141l150 21l149 1048l-145 21q0 74 20 141h445l461 -1034l8 -109h4l139 981l-145 21q0 74 20 141h516q0 -73 -20 -141l-146 -21l-170 -1210h-299l-462 1034l-9 92h-4l-137 -964l141 -21q3 -59 -18 -141h-516zM721 1624l446 256l64 -164l-467 -205z" />
<glyph unicode="&#x144;" horiz-adv-x="1206" d="M-14 862q-3 73 18 142l336 20q13 -110 -2 -225l-16 -107h6l30 113q171 219 375 219q97 0 143 -41t49.5 -120t-12.5 -195l-63 -463l-10 -60l137 -4q3 -56 -19 -141l-325 -20q-15 121 2 225l63 463q14 105 -2.5 147.5t-64.5 42.5q-74 0 -167 -97.5t-169 -271.5l-68 -489 l-219 -20l105 737l18 139zM465 1255l420 289l80 -151l-449 -240z" />
<glyph unicode="&#x15a;" horiz-adv-x="1075" d="M-70 70l47 327q31 5 79 5t79 -5l-8 -196q85 -31 182 -31q113 0 187.5 49t87.5 148q9 60 -19 105.5t-78.5 74.5t-113 56t-124.5 60t-110.5 75.5t-72.5 113t-11 162.5q22 172 150.5 275.5t339.5 103.5q100 0 174 -23t155 -67l-47 -326q-32 -6 -80 -6t-77 6l6 199 q-82 28 -158 28q-108 0 -166.5 -43.5t-70.5 -136.5q-8 -57 20.5 -100t79 -72.5t113 -57.5t124 -62.5t110 -79t72.5 -116.5t11 -165q-25 -186 -165 -288.5t-363 -102.5q-188 0 -353 90zM356 1624l445 256l65 -164l-467 -205z" />
<glyph unicode="&#x15b;" horiz-adv-x="903" d="M-76 55l39 269q78 11 148 0l-2 -170q58 -19 122 -19q79 0 133.5 30.5t61.5 86.5q6 41 -16.5 73.5t-62.5 55t-89 44.5t-98 48t-87.5 57.5t-59 81.5t-11.5 113q20 138 125.5 218.5t271.5 80.5q158 0 281 -76l-39 -266q-77 -11 -147 0l2 168q-62 18 -119 18 q-66 0 -110 -31.5t-52 -84.5q-4 -30 9 -54.5t39 -43t60 -35t72.5 -33.5t76 -36t71 -45t57.5 -57.5t34.5 -77t2.5 -100.5q-20 -138 -135.5 -214t-292.5 -76q-163 0 -285 75zM240 1255l419 289l80 -151l-448 -240z" />
<glyph unicode="&#x179;" horiz-adv-x="1148" d="M-127 0l16 121l832 1042l43 17v4h-531l-36 -158q-32 -6 -80.5 -6t-79.5 6l49 346h971l-17 -121l-829 -1040l-45 -16v-5h561l37 158q32 4 80.5 4t77.5 -4l-48 -348h-1001zM432 1624l447 256l63 -164l-467 -205z" />
<glyph unicode="&#x17a;" horiz-adv-x="954" d="M-125 0l12 94l596 723l43 17v4h-350l-39 -164q-76 -14 -149 0l45 330h766l-13 -97l-563 -684l-43 -12l-2 -8q90 1 208.5 -24.5t158.5 -28.5l41 165q74 14 147 0l-43 -315q-75 -21 -158 -15.5t-137 20.5t-142.5 30.5t-172.5 15.5l-37 -51h-168zM305 1255l420 289l78 -151 l-447 -240z" />
<glyph unicode="&#x17b;" horiz-adv-x="1148" d="M-127 0l16 121l832 1042l43 17v4h-531l-36 -158q-32 -6 -80.5 -6t-79.5 6l49 346h971l-17 -121l-829 -1040l-45 -16v-5h561l37 158q32 4 80.5 4t77.5 -4l-48 -348h-1001zM453 1642q6 38 70 95t102 57t87.5 -57t43.5 -95q-4 -38 -69 -94.5t-103 -56.5t-87 56.5t-44 94.5z " />
<glyph unicode="&#x17c;" horiz-adv-x="954" d="M-125 0l12 94l596 723l43 17v4h-350l-39 -164q-76 -14 -149 0l45 330h766l-13 -97l-563 -684l-43 -12l-2 -8q90 1 208.5 -24.5t158.5 -28.5l41 165q74 14 147 0l-43 -315q-75 -21 -158 -15.5t-137 20.5t-142.5 30.5t-172.5 15.5l-37 -51h-168zM324 1341q6 38 71 95 t103 57t86.5 -57t42.5 -95q-4 -38 -69 -94.5t-103 -56.5t-87 56.5t-44 94.5z" />
<glyph unicode="&#x2c6;" horiz-adv-x="712" d="M-2 1257l369 277l288 -277l-90 -104l-227 180l-281 -180z" />
<glyph unicode="&#x2da;" horiz-adv-x="600" d="M53 1391q13 95 91 162t175 67q98 0 156.5 -66.5t44.5 -162.5q-14 -94 -91 -161t-175 -67q-97 0 -156 67t-45 161zM197 1391q-6 -39 15 -67t60 -28t69 28t36 67q6 40 -15.5 68t-60.5 28t-69 -28t-35 -68z" />
<glyph unicode="&#x2dc;" horiz-adv-x="856" d="M82 1180q27 117 90 178t147 61q37 0 71 -13t54.5 -28t46 -28t48.5 -13q71 0 104 80h102q-55 -239 -229 -239q-38 0 -70 13t-50 28t-43.5 28t-51.5 13q-82 0 -117 -80h-102z" />
<glyph unicode="&#x2000;" horiz-adv-x="994" />
<glyph unicode="&#x2001;" horiz-adv-x="1989" />
<glyph unicode="&#x2002;" horiz-adv-x="994" />
<glyph unicode="&#x2003;" horiz-adv-x="1989" />
<glyph unicode="&#x2004;" horiz-adv-x="663" />
<glyph unicode="&#x2005;" horiz-adv-x="497" />
<glyph unicode="&#x2006;" horiz-adv-x="331" />
<glyph unicode="&#x2007;" horiz-adv-x="331" />
<glyph unicode="&#x2008;" horiz-adv-x="248" />
<glyph unicode="&#x2009;" horiz-adv-x="397" />
<glyph unicode="&#x200a;" horiz-adv-x="110" />
<glyph unicode="&#x2010;" horiz-adv-x="876" d="M-25 483l29 191h655l-26 -191h-658z" />
<glyph unicode="&#x2011;" horiz-adv-x="876" d="M-25 483l29 191h655l-26 -191h-658z" />
<glyph unicode="&#x2012;" horiz-adv-x="876" d="M-25 483l29 191h655l-26 -191h-658z" />
<glyph unicode="&#x2013;" horiz-adv-x="993" d="M-72 483l23 164h870l-22 -164h-871z" />
<glyph unicode="&#x2014;" horiz-adv-x="1638" d="M-72 483l23 164h1515l-22 -164h-1516z" />
<glyph unicode="&#x2018;" horiz-adv-x="491" d="M53 1196q37 238 205 442l115 -28q-84 -127 -123 -260q43 -18 84 -69t37 -85q-3 -25 -37 -63.5t-76 -66.5t-68 -28q-40 0 -91 59t-46 99z" />
<glyph unicode="&#x2019;" horiz-adv-x="491" d="M92 1067q82 124 121 260q-42 18 -83.5 69t-35.5 85q6 40 73 98.5t107 58.5t92 -58.5t46 -98.5q-30 -226 -203 -443z" />
<glyph unicode="&#x201a;" horiz-adv-x="540" d="M-55 -274q82 124 121 260q-42 18 -83.5 68.5t-35.5 84.5q3 25 36.5 63.5t75.5 66.5t68 28q40 0 91 -59t46 -99q-30 -222 -203 -444z" />
<glyph unicode="&#x201c;" horiz-adv-x="897" d="M53 1196q37 238 205 442l115 -28q-84 -127 -123 -260q43 -18 84 -69t37 -85q-3 -25 -37 -63.5t-76 -66.5t-68 -28q-40 0 -91 59t-46 99zM459 1196q31 230 203 442l114 -28q-83 -130 -121 -260q42 -18 83.5 -69t37.5 -85q-6 -40 -73 -99t-107 -59t-91.5 59t-45.5 99z" />
<glyph unicode="&#x201d;" horiz-adv-x="903" d="M92 1067q82 124 121 260q-42 18 -83.5 69t-35.5 85q6 40 73 98.5t107 58.5t92 -58.5t46 -98.5q-30 -226 -203 -443zM502 1067q82 124 121 260q-42 18 -83.5 69t-35.5 85q6 40 73 98.5t107 58.5t91.5 -58.5t45.5 -98.5q-30 -226 -203 -443z" />
<glyph unicode="&#x201e;" horiz-adv-x="952" d="M-55 -274q82 124 121 260q-42 18 -83.5 68.5t-35.5 84.5q3 25 36.5 63.5t75.5 66.5t68 28q40 0 91 -59t46 -99q-30 -222 -203 -444zM354 -274q82 124 121 260q-42 18 -83.5 68.5t-35.5 84.5q3 25 37 63.5t76 66.5t68 28q40 0 91 -59t46 -99q-30 -222 -203 -444z" />
<glyph unicode="&#x2026;" horiz-adv-x="1474" d="M-53 139q3 25 36.5 63.5t75.5 66.5t68 28q40 0 91 -59t46 -99q-6 -40 -74 -99.5t-108 -59.5t-90.5 59.5t-44.5 99.5zM438 139q3 25 36.5 63.5t75.5 66.5t68 28q40 0 91.5 -59t46.5 -99q-6 -40 -74.5 -99.5t-108.5 -59.5t-90.5 59.5t-44.5 99.5zM928 139q6 40 73 99 t107 59t91.5 -59t45.5 -99t-74 -99.5t-108 -59.5t-90.5 59.5t-44.5 99.5z" />
<glyph unicode="&#x202f;" horiz-adv-x="397" />
<glyph unicode="&#x2039;" horiz-adv-x="729" d="M-55 465l12 82l10 82l600 395l-30 -221l-394 -244l-43 -10v-4l39 -10l326 -242l-33 -221z" />
<glyph unicode="&#x203a;" horiz-adv-x="729" d="M-92 72l29 221l395 242l43 10v4l-39 10l-328 244l35 221l483 -395l-10 -82l-12 -82z" />
<glyph unicode="&#x205f;" horiz-adv-x="497" />
<glyph unicode="&#x20ac;" horiz-adv-x="1232" d="M-135 471l61 143h154q4 48 8 72q2 24 10 62h-194l61 143h168q34 109 87 195.5t114.5 143t135 94t145.5 53.5t149 16q181 0 346 -90l-39 -316q-32 -6 -80.5 -6t-77.5 6l2 187q-92 30 -176 30q-269 0 -374 -313h542l-61 -143h-518q-2 -10 -5.5 -31t-5.5 -31q-1 -13 -4 -37 t-4 -35h502l-61 -143h-441q13 -151 88.5 -226t196.5 -75q179 0 371 113l-29 -213q-187 -90 -371 -90q-76 0 -143.5 15.5t-129.5 52.5t-107.5 92.5t-74.5 140t-34 190.5h-211z" />
<glyph unicode="&#x2122;" horiz-adv-x="3239" d="M-23 1026l52 346h1128l-49 -346q-32 -6 -80.5 -6t-79.5 6l8 158h-276l-143 -1022l139 -21q3 -56 -19 -141h-514q-3 66 19 141l149 21l144 1022h-281l-37 -158q-31 -6 -79.5 -6t-80.5 6zM1051 0q0 80 18 141l150 19l319 1054l-123 17q-3 61 21 141h454l170 -1157h4l11 92 l460 1065h459q0 -73 -20 -141l-129 -17l24 -1054l140 -19q3 -56 -19 -141h-520q-3 69 18 141l144 19l10 936l20 98h-4l-495 -1143h-269l-165 1045l10 98h-4l-279 -1034l133 -19q3 -59 -18 -141h-520z" />
<glyph unicode="&#x25fc;" horiz-adv-x="1024" d="M0 0v1024h1024v-1024h-1024z" />
<glyph horiz-adv-x="571" d="M-10 862q-3 73 18 142l334 20q13 -110 -2 -225l-90 -654l137 -4q3 -59 -18 -141l-328 -20q-13 110 2 225l74 532l16 119zM119 1341q6 38 71 95t103 57t86.5 -57t42.5 -95q-4 -38 -69 -94.5t-103 -56.5t-87 56.5t-44 94.5z" />
<glyph d="M-4.5 350.5q-19.5 130.5 2.5 315.5q28 195 89 339t143.5 227t175.5 122t198 39q68 0 127 -16.5t111.5 -52.5t89.5 -93t61 -138t26 -187t-15 -240q-20 -144 -63.5 -260.5t-100.5 -195t-129 -131t-147.5 -76t-157.5 -23.5q-104 0 -186.5 37.5t-143.5 120t-80.5 213z M236 666q-35 -240 16.5 -368t179.5 -128t214.5 127.5t121.5 368.5q38 270 -11.5 404t-178.5 134q-130 0 -217 -134t-125 -404z" />
<glyph d="M86 0q0 80 18 141l258 21l144 1014l-258 -21l24 176l357 41h129l-170 -1210l243 -21q3 -59 -18 -141h-727z" />
<glyph d="M-25 0l17 121q390 339 554 543t185 356q12 94 -38 139t-161 45q-81 0 -167 -26l-48 -201q-32 -6 -80 -6t-79 6l45 326q90 43 178.5 66.5t206.5 23.5q217 0 310.5 -88t68.5 -271q-25 -172 -166.5 -359t-456.5 -464l-45 -16v-5h395l37 158q32 4 80.5 4t77.5 -4l-47 -348 h-867z" />
<glyph d="M-6 49l31 213q131 -92 315 -92q135 0 213.5 54.5t93.5 160.5q18 131 -63.5 183.5t-268.5 52.5h-36l47 182h16q159 0 250.5 56t105.5 153q13 92 -32.5 142t-165.5 50q-70 0 -146 -26l-49 -201q-32 -6 -80.5 -6t-79.5 6l48 326q90 43 174 66.5t190 23.5q201 0 298.5 -98 t72.5 -271q-9 -64 -39.5 -120.5t-70 -92.5t-78.5 -58t-70 -28v-4q26 -5 54.5 -17t62 -39t57.5 -63.5t36 -94t3 -126.5q-19 -128 -98 -220.5t-192.5 -136.5t-250.5 -44q-118 0 -198.5 16t-149.5 53z" />
<glyph d="M-74 518l654 854h102l-20 -131h-5l-34 -88l-455 -600l-2 -4h399l86 604l31 219h225l-116 -823h163l-34 -191h-156l-27 -196l140 -21q3 -56 -19 -141h-514q-3 69 18 141l150 21l27 196h-588z" />
<glyph d="M-18 49l30 213q61 -43 153 -67.5t181 -24.5q142 0 229 62.5t105 189.5q14 109 -44 169t-192 60q-183 0 -362 -49l192 770h713l-47 -325q-31 -6 -79 -6t-79 6l6 137h-346l-92 -359q96 15 162 15q94 0 171.5 -23.5t136.5 -71.5t85 -130.5t10 -192.5q-15 -107 -68 -193 t-130.5 -139.5t-171.5 -81.5t-195 -28q-241 0 -368 69z" />
<glyph d="M5 347.5q-13 101.5 9 236.5q28 201 111 356.5t208.5 254t282.5 148.5t340 50l-24 -189q-247 0 -417.5 -122.5t-240.5 -338.5q143 131 334 131q56 0 107 -13.5t100 -44.5t80 -82t47 -126t0 -176q-16 -111 -66 -199.5t-122 -142.5t-157.5 -82t-178.5 -28q-83 0 -151 19.5 t-126 63t-90.5 113.5t-45.5 171.5zM244 530q-36 -360 200 -360q111 0 182 65t89 193q16 125 -38.5 190.5t-152.5 65.5q-70 0 -145 -35.5t-135 -118.5z" />
<glyph d="M102 0l656 1163l43 17v4h-504l-37 -158q-31 -6 -79 -6t-79 6l50 346h895l-17 -121l-700 -1271z" />
<glyph d="M-18 371q9 65 38.5 122.5t64.5 93.5t79 66t73.5 44t57.5 24v4q-23 11 -46 26.5t-50.5 43t-46 60t-28 80t-1.5 99.5q15 111 86 194t174 124t221 41q181 0 292 -96.5t89 -262.5q-9 -65 -40.5 -120.5t-73.5 -92.5t-78 -59.5t-70 -36.5v-4q26 -9 52.5 -23.5t61.5 -44.5 t59.5 -66.5t37.5 -93t4 -122.5q-11 -81 -48.5 -148t-90 -111.5t-119 -74.5t-135 -43.5t-139.5 -13.5t-136 13.5t-123 43.5t-98.5 74.5t-59 111.5t-7.5 148zM219 383q-14 -106 47 -159.5t166 -53.5t181 53.5t92 159.5q13 97 -47 159.5t-162 84.5q-107 -22 -185 -84.5 t-92 -159.5zM344 1022q-27 -179 176 -227q215 48 242 227q10 85 -39.5 133.5t-144.5 48.5q-96 0 -160 -49t-74 -133z" />
<glyph horiz-adv-x="1234" d="M51 -20l29 190q245 0 414 121.5t241 337.5q-143 -131 -334 -131q-46 0 -89 9.5t-86.5 30t-75.5 54.5t-56.5 83t-30 114.5t4.5 150.5q15 111 64.5 199.5t121.5 143t157.5 82.5t178.5 28q83 0 151 -19t125.5 -62.5t90.5 -114t46 -172t-8 -237.5q-29 -200 -112 -355.5 t-208.5 -253.5t-283 -148.5t-340.5 -50.5zM295 946q-18 -126 37 -192t153 -66q70 0 145.5 36.5t135.5 121.5q36 358 -201 358q-111 0 -181.5 -65t-88.5 -193z" />
<glyph horiz-adv-x="575" d="M72 1624l444 256l64 -164l-467 -205z" />
<glyph horiz-adv-x="454" d="M-225 -461l16 109q36 -8 92 -8q134 0 144 77q5 37 -28.5 60t-121.5 33l78 190h123l-51 -121q78 -12 119 -56t32 -108q-12 -88 -92 -136t-215 -48q-57 0 -96 8z" />
<glyph horiz-adv-x="712" d="M49 1616l367 276l289 -276l-89 -105l-229 181l-278 -181z" />
<glyph horiz-adv-x="987" d="M166 1647q6 35 64.5 86t93.5 51t78 -50.5t40 -86.5q-6 -35 -64 -86.5t-93 -51.5t-79.5 51.5t-39.5 86.5zM596 1647q6 35 64.5 86t93.5 51t79 -51t39 -86q-6 -35 -64 -86.5t-93 -51.5q-34 0 -78.5 51.5t-40.5 86.5z" />
<glyph horiz-adv-x="575" d="M84 1716l111 164l372 -256l-73 -113z" />
<glyph horiz-adv-x="600" d="M88 1749q14 98 96 169t183 71q102 0 162.5 -70.5t45.5 -169.5q-12 -98 -93.5 -168t-182.5 -70q-102 0 -163.5 69.5t-47.5 168.5zM240 1749q-5 -41 17 -69.5t62 -28.5t71 29t36 69q5 41 -17.5 69.5t-62.5 28.5q-39 0 -70 -29t-36 -69z" />
<glyph horiz-adv-x="866" d="M125 1513q27 117 90 178.5t147 61.5q37 0 71 -13t54.5 -28t46 -28t48.5 -13q71 0 104 80h105q-55 -240 -232 -240q-38 0 -70 13t-50 28t-43.5 28t-51.5 13q-80 0 -115 -80h-104z" />
</font>
</defs>
</svg>
