<?xml version="1.0" standalone="no"?>
<!DOCTYPE svg PUBLIC "-//W3C//DTD SVG 1.1//EN" "http://www.w3.org/Graphics/SVG/1.1/DTD/svg11.dtd" >
<svg xmlns="http://www.w3.org/2000/svg">
<metadata></metadata>
<defs>
<font id="adagio_slabitalic" horiz-adv-x="1208" >
<font-face units-per-em="2048" ascent="1638" descent="-410" />
<missing-glyph horiz-adv-x="460" />
<glyph unicode="&#xfb01;" horiz-adv-x="1411" d="M-190 -358q107 54 160.5 133.5t72.5 214.5l123 880h-154l19 134h153l21 143q28 199 137 294t266 95q114 0 207 -55l-20 -154q-90 76 -185 76q-29 0 -54.5 -4.5t-57 -21.5t-55.5 -46t-45 -81.5t-31 -123.5l-17 -122h346l-18 -134h-348l-117 -839q-61 -423 -399 -512z M819 891q-3 54 15 113l290 20q13 -110 -2 -225l-82 -594l-12 -86l141 -6q3 -47 -14 -113l-281 -20q-13 107 3 225l71 512l23 168zM965 1341q5 34 60 83t89 49t76 -49t37 -83q-4 -34 -60 -82.5t-90 -48.5t-75.5 48.5t-36.5 82.5z" />
<glyph unicode="&#xfb02;" horiz-adv-x="1417" d="M-190 -358q107 54 160.5 133.5t72.5 214.5l123 880h-154l19 134h153l21 143q28 199 137 294t266 95q114 0 207 -55l-20 -154q-90 76 -185 76q-29 0 -54.5 -4.5t-57 -21.5t-55.5 -46t-45 -81.5t-31 -123.5l-17 -122h346l-18 -134h-348l-117 -839q-61 -423 -399 -512z M870 -20q-13 110 2 225l144 1024l24 168l-153 6q0 69 16 113l289 20q14 -118 0 -225l-156 -1106l-12 -86l141 -6q3 -47 -14 -113z" />
<glyph horiz-adv-x="0" />
<glyph horiz-adv-x="682" />
<glyph unicode=" "  horiz-adv-x="460" />
<glyph unicode="&#x09;" horiz-adv-x="460" />
<glyph unicode="&#xa0;" horiz-adv-x="460" />
<glyph unicode="!" horiz-adv-x="466" d="M-84 111q4 34 60 82.5t90 48.5t75.5 -48.5t36.5 -82.5q-4 -34 -59.5 -82.5t-89.5 -48.5t-76 48.5t-37 82.5zM23 397l75 688l41 287h174l-41 -287l-116 -688h-133z" />
<glyph unicode="&#x22;" horiz-adv-x="786" d="M145 973l19 461h151l-71 -461h-99zM453 973l18 461h152l-72 -461h-98z" />
<glyph unicode="#" horiz-adv-x="1230" d="M-156 328l23 153h196l113 389h-192l22 154h215l101 348h172l-101 -348h443l100 348h172l-100 -348h166l-23 -154h-188l-113 -389h186l-22 -153h-209l-94 -328h-172l94 328h-443l-94 -328h-172l94 328h-174zM236 481h442l113 389h-443z" />
<glyph unicode="$" horiz-adv-x="1069" d="M-66 70l46 311q66 11 133 0l-11 -207q100 -41 205 -41q125 0 210 55t101 172q7 53 -9 94.5t-49 70.5t-78 53.5t-95.5 47t-100.5 46.5t-94 56t-75.5 72.5t-45.5 100t-3 133.5q19 141 112.5 234t247.5 116l27 193h174l-27 -188q121 -11 256 -86l-43 -312q-70 -11 -133 0 l8 211q-85 37 -182 37q-123 0 -188 -49.5t-78 -155.5q-9 -63 20 -111t81.5 -80t118 -61t129.5 -64t115 -78.5t76.5 -115t12.5 -164.5q-22 -154 -122 -250t-267 -122l-25 -172h-174l24 166q-156 10 -297 88z" />
<glyph unicode="%" horiz-adv-x="1740" d="M47 1036q23 169 118.5 263t246.5 94t220 -94.5t46 -262.5q-25 -169 -120.5 -262.5t-246.5 -93.5t-220 94t-44 262zM84 43l1333 1432l90 -84l-1333 -1432zM211 1036q-32 -233 119 -233q152 0 184 233q32 234 -119 234q-152 0 -184 -234zM854 334q23 168 118.5 262 t246.5 94t220 -94t46 -262q-25 -169 -120.5 -263t-246.5 -94t-220 94.5t-44 262.5zM1018 334q-32 -234 119 -234q152 0 184 234q32 233 -119 233q-152 0 -184 -233z" />
<glyph unicode="&#x26;" horiz-adv-x="1290" d="M-27 371q32 231 271 397q-85 157 -68 287q21 149 139.5 243.5t302.5 94.5q100 0 175 -23t155 -67l-43 -312q-70 -11 -133 0l8 213q-93 35 -182 35q-106 0 -168 -46.5t-74 -137.5q-7 -49 6.5 -102.5t42 -109.5t85.5 -132.5t121.5 -152.5t164.5 -189q57 114 76 256h170 q-27 -212 -139 -373q22 -24 47 -51.5t57 -63.5t51 -57l-10 -80h-160l-106 119q-164 -139 -383 -139q-95 0 -173 23.5t-136.5 69.5t-84.5 122.5t-12 175.5zM158 371q-17 -120 49 -179t194 -59q157 0 267 92q-261 295 -349 420q-140 -117 -161 -274z" />
<glyph unicode="'" horiz-adv-x="479" d="M145 973l19 461h151l-71 -461h-99z" />
<glyph unicode="(" horiz-adv-x="528" d="M-20 711q36 250 144 503.5t277 475.5l99 -21q-275 -472 -344 -958q-68 -496 75 -959l-106 -20q-105 223 -142 476.5t-3 502.5z" />
<glyph unicode=")" horiz-adv-x="528" d="M-154 -248q276 474 342 959q70 493 -73 958l106 21q105 -223 142 -477t2 -502q-34 -249 -142.5 -502.5t-277.5 -476.5z" />
<glyph unicode="*" horiz-adv-x="987" d="M12 1079l66 135l319 -153l-41 -82zM88 680l268 299l68 -47l-225 -328zM397 1061l25 373h143l-82 -373h-86zM424 932l80 47l182 -299l-131 -76zM483 1061l365 153l29 -135l-373 -100z" />
<glyph unicode="+" horiz-adv-x="983" d="M-57 584l18 133h375l53 375h133l-53 -375h373l-19 -133h-372l-54 -375l-133 2l53 373h-374z" />
<glyph unicode="," horiz-adv-x="477" d="M-61 -276q92 130 129 260q-37 13 -76 58t-33 75q4 35 62.5 86t93.5 51t79 -51t39 -86q-31 -221 -204 -422z" />
<glyph unicode="-" horiz-adv-x="860" d="M-18 502l22 153h635l-23 -153h-634z" />
<glyph unicode="." horiz-adv-x="479" d="M-41 117q4 35 62.5 86t93.5 51t79 -51t39 -86q-6 -35 -64 -86t-93 -51t-79 51t-38 86z" />
<glyph unicode="/" horiz-adv-x="868" d="M-143 -164l852 1680h143l-852 -1680h-143z" />
<glyph unicode="0" d="M8.5 352.5q-17.5 130.5 5.5 313.5q28 193 86 336.5t137 227t169 123.5t192 40q81 0 147.5 -24.5t121 -78.5t85.5 -139t40 -206t-15 -279q-25 -178 -81.5 -312.5t-135 -214.5t-169.5 -119.5t-192 -39.5t-180 38.5t-136 121t-74.5 213zM199 666q-37 -259 21.5 -396 t201.5 -137t238.5 136.5t132.5 396.5q41 288 -14.5 430.5t-200.5 142.5t-241.5 -143t-137.5 -430z" />
<glyph unicode="1" horiz-adv-x="864" d="M35 0q-3 57 14 113l158 20l151 1075l-229 -20l21 143l303 41h102l-174 -1239l149 -20q3 -47 -14 -113h-481z" />
<glyph unicode="2" horiz-adv-x="1105" d="M-88 0l14 102q409 358 575.5 562.5t190.5 369.5q13 106 -41 155.5t-178 49.5q-89 0 -192 -35l-52 -213q-70 -11 -133 0l43 312q91 44 175.5 67t199.5 23q206 0 297.5 -86t65.5 -273q-26 -179 -177 -372.5t-491 -487.5l-45 -16v-4h459l41 178q70 11 133 0l-45 -332h-840z " />
<glyph unicode="3" horiz-adv-x="1085" d="M-51 49l24 176q131 -92 310 -92q152 0 241.5 63t106.5 185q21 147 -69.5 205.5t-293.5 58.5h-37l41 143h17q173 0 272.5 63t114.5 173q14 103 -35.5 159t-181.5 56q-78 0 -172 -33l-51 -215q-71 -11 -134 0l43 312q90 43 172 66.5t183 23.5q198 0 291.5 -98t68.5 -271 q-9 -61 -40 -117t-70 -93t-76.5 -60t-65.5 -29v-4q24 -5 50.5 -17t60.5 -38.5t58 -62.5t36 -94t2 -128q-27 -188 -178 -294.5t-356 -106.5q-110 0 -187 16t-145 53z" />
<glyph unicode="4" horiz-adv-x="1167" d="M-49 502l700 870h78l-16 -108h-4l-37 -82l-522 -656l-3 -4h463l119 850h174l-119 -850h172l-30 -153h-164l-33 -236l150 -20q3 -44 -15 -113h-481q-3 57 14 113l158 20l33 236h-615z" />
<glyph unicode="5" horiz-adv-x="1167" d="M-31 49l25 176q62 -43 151.5 -67.5t178.5 -24.5q158 0 255.5 70.5t118.5 218.5q15 121 -49 186.5t-211 65.5q-189 0 -358 -49l188 747h676l-45 -311q-67 -11 -133 0l8 158h-371l-106 -406q103 21 186 21q94 0 170.5 -22.5t135 -70t84 -129t10.5 -190.5 q-13 -88 -50 -161.5t-90.5 -124.5t-122 -86.5t-143.5 -52.5t-155 -17q-226 0 -353 69z" />
<glyph unicode="6" horiz-adv-x="1167" d="M4.5 349q-11.5 101 9.5 235q36 260 163 444t320.5 274.5t438.5 90.5l-21 -154q-259 0 -440.5 -136.5t-253.5 -371.5q145 143 357 143q57 0 108.5 -14t100.5 -46.5t80 -84.5t46.5 -128.5t-0.5 -178.5q-16 -109 -64 -195t-118.5 -139t-154.5 -80.5t-177 -27.5 q-81 0 -146.5 19.5t-120 63.5t-85.5 114.5t-42.5 171.5zM195 545q-47 -412 227 -412q126 0 206 70.5t101 218.5q19 142 -43.5 217.5t-173.5 75.5q-81 0 -167 -39.5t-150 -130.5z" />
<glyph unicode="7" horiz-adv-x="1024" d="M27 1040l47 332h880l-14 -102l-723 -1290l-170 20l682 1198l43 16v5h-571l-41 -179q-66 -11 -133 0z" />
<glyph unicode="8" horiz-adv-x="1249" d="M14 371q9 67 40 124.5t67.5 94t82.5 66t76 43t58 22.5v4q-22 9 -46.5 24t-53 43t-49.5 61t-32 81t-3 100q15 111 83.5 194t167.5 124t213 41q176 0 282.5 -96.5t84.5 -262.5q-9 -65 -43 -121.5t-78 -93.5t-82.5 -60t-70.5 -34v-4q26 -9 52.5 -22.5t64 -43t63.5 -66 t40 -94t5 -124.5q-11 -82 -47 -148.5t-86.5 -111t-115 -74.5t-131 -43.5t-136.5 -13.5q-88 0 -164.5 22.5t-137 67t-89.5 122.5t-15 179zM199 371q-9 -63 7 -110.5t52 -74.5t82 -40t102 -13q119 0 205.5 58t104.5 180q16 107 -55 177.5t-183 96.5q-119 -26 -209 -96.5 t-106 -177.5zM334 1034q-30 -199 198 -252q243 53 273 252q12 96 -43.5 150.5t-163.5 54.5q-109 0 -180.5 -54.5t-83.5 -150.5z" />
<glyph unicode="9" horiz-adv-x="1167" d="M20 -20l23 153q259 0 439.5 136.5t254.5 371.5q-145 -143 -356 -143q-57 0 -109 14t-101.5 46.5t-80.5 84.5t-46 128.5t1 178.5q15 109 63 195.5t118 139.5t154 80.5t177 27.5q81 0 147 -20t120.5 -64t85.5 -114t43 -171.5t-9 -235.5q-37 -260 -164.5 -443.5t-321 -274 t-438.5 -90.5zM229 950q-21 -142 42.5 -217.5t174.5 -75.5q81 0 168 40.5t152 133.5q44 408 -229 408q-126 0 -206.5 -70.5t-101.5 -218.5z" />
<glyph unicode=":" horiz-adv-x="479" d="M-82 117q4 35 62.5 86t93.5 51t79.5 -51t39.5 -86q-6 -35 -64.5 -86t-93.5 -51t-79 51t-38 86zM20 846q4 35 62.5 86t93.5 51t79.5 -51t39.5 -86q-6 -35 -64.5 -86t-93.5 -51t-79 51t-38 86z" />
<glyph unicode=";" horiz-adv-x="479" d="M-102 -276q92 130 129 260q-37 13 -76 58t-33 75q4 35 62.5 86t93.5 51t79.5 -51t39.5 -86q-24 -211 -205 -422zM20 846q4 35 62.5 86t93.5 51t79.5 -51t39.5 -86q-6 -35 -64.5 -86t-93.5 -51t-79 51t-38 86z" />
<glyph unicode="&#x3c;" horiz-adv-x="978" d="M-27 584l9 67l10 66l825 379l-22 -170l-641 -262l-43 -11v-4l39 -10l567 -262l-25 -170z" />
<glyph unicode="=" horiz-adv-x="1003" d="M-82 420l21 133h880l-20 -133h-881zM-35 748l19 133h880l-18 -133h-881z" />
<glyph unicode="&#x3e;" horiz-adv-x="978" d="M-57 207l20 170l641 262l43 10v4l-39 11l-567 262l27 170l718 -379l-10 -66l-8 -67z" />
<glyph unicode="?" horiz-adv-x="999" d="M70 1126l24 177q91 44 175.5 67t199.5 23q204 0 296.5 -83t68.5 -255q-10 -67 -45.5 -129t-83 -108t-102 -97t-101.5 -96t-82.5 -105t-44.5 -123h-133q13 95 56.5 173.5t97 132.5t107 104.5t95 113t51.5 134.5q12 92 -43 138t-178 46q-166 0 -358 -113zM137 111 q4 34 60 82.5t90 48.5t75.5 -48.5t36.5 -82.5q-4 -34 -59.5 -82.5t-89.5 -48.5t-76 48.5t-37 82.5z" />
<glyph unicode="@" horiz-adv-x="2125" d="M10 492q28 200 118.5 372.5t228.5 299t328.5 198.5t408.5 72q125 0 233 -23t190.5 -65t149 -102t108 -133.5t68 -160t29 -181t-9.5 -196.5q-18 -134 -69.5 -242t-122 -174.5t-150 -101.5t-160.5 -35q-185 0 -248 103q-160 -103 -293 -103q-169 0 -253 128t-52 348 q31 224 157 348.5t326 124.5q175 0 340 -101l-80 -569q-6 -27 -3 -54.5t13 -49.5t38 -36t73 -14q108 0 194 106t116 322q10 84 9.5 163.5t-20 152t-51 135t-84 113.5t-118.5 87t-155 56t-194 20q-182 0 -339.5 -62.5t-270 -172t-185 -256.5t-96.5 -317q-32 -228 33.5 -400 t229 -270t407.5 -98q249 0 455 69l-17 -123q-120 -40 -223.5 -60t-232.5 -20q-219 0 -389.5 66t-275 184.5t-147 285t-14.5 366.5zM686 496q-24 -161 26 -251.5t171 -90.5q101 0 202 69q0 21 2 31l78 553q-88 29 -186 29q-121 0 -196 -89.5t-97 -250.5z" />
<glyph unicode="A" horiz-adv-x="1492" d="M-184 0v17q0 48 14 96l154 20l608 1112l-121 15v14q0 45 16 98h349l317 -1241l139 -18v-15q0 -42 -14 -98h-481v17q0 48 14 96l150 18l-78 320h-549l-168 -318l145 -20v-15q0 -42 -14 -98h-481zM414 604h432l-127 533l22 82h-4z" />
<glyph unicode="B" horiz-adv-x="1263" d="M-125 0v17q0 48 14 96l158 20l156 1106l-152 21v13q0 43 17 99h153q60 0 190 10.5t205 10.5q202 0 316 -100q95 -83 95 -213q0 -27 -5 -56q-10 -65 -41.5 -123t-71 -96t-77.5 -61t-66 -29v-2l-2 -2q24 -5 52.5 -16.5t65.5 -38t64 -60.5q28 -36 42 -92q9 -35 8 -73 q0 -24 -3 -50q-14 -102 -66 -180.5t-130.5 -126t-174 -71t-204.5 -23.5q-75 0 -202 10t-187 10h-154zM223 141q91 -8 217 -8q333 0 369 248q3 24 3 45q0 34 -8 62q-14 46 -43 72t-75 41t-87.5 19.5t-94.5 4.5h-213zM311 778h215q119 0 207 66.5t105 179.5q3 18 3 35 q0 75 -51 122q-62 58 -194 58q-128 0 -221 -8z" />
<glyph unicode="C" horiz-adv-x="1314" d="M11 450q-3 37 -3 79q0 73 10 157q21 154 77 276.5t130.5 202t169 132t190.5 74.5t197 22q227 0 392 -90l-44 -312q-35 -6 -68.5 -5.5t-64.5 5.5l9 201q-113 47 -244 47q-104 0 -195 -32.5t-166 -97.5t-127 -173t-71 -250q-9 -64 -9 -121q0 -69 13 -129q24 -108 83 -173 t139 -97.5t177 -32.5q111 0 224 32.5t194 80.5l-25 -176q-187 -90 -415 -90q-84 0 -159.5 15.5t-148 50t-125.5 89t-92 133t-48 182.5z" />
<glyph unicode="D" horiz-adv-x="1452" d="M-125 0v17q0 48 14 96l158 20l156 1106l-152 21v13q0 43 17 99h153q27 2 92 6.5t105.5 7t107 5t131.5 2.5q84 0 160 -15.5t148 -50t125.5 -89.5t92.5 -133.5t49 -182.5q4 -39 3 -81q0 -72 -10 -155q-22 -154 -78 -276.5t-131 -201.5t-169.5 -131.5t-190 -74.5t-197.5 -22 q-101 0 -238 10t-192 10h-154zM223 141q144 -8 258 -8q97 0 186.5 32.5t166.5 97.5t131.5 173.5t74.5 249.5q8 62 8 118q0 72 -13 132q-24 108 -82.5 173t-138.5 97.5t-177 32.5q-110 0 -262 -8z" />
<glyph unicode="E" horiz-adv-x="1140" d="M-125 0v17q0 48 14 96l158 20l156 1106l-152 21v13q0 43 17 99h942l-47 -332q-34 -6 -67 -6l-67 6l9 179h-465l-64 -453l484 12l-23 -153l-477 12l-68 -483h504l41 178q35 6 68.5 6t64.5 -6l-45 -332h-983z" />
<glyph unicode="F" horiz-adv-x="1048" d="M-125 0v17q0 48 14 96l158 20l156 1106l-152 21v13q0 43 17 99h942l-47 -332q-34 -6 -67 -6l-67 6l9 179h-465l-66 -474l484 13l-23 -154l-479 12l-68 -483l211 -20v-15q0 -42 -14 -98h-543z" />
<glyph unicode="G" horiz-adv-x="1417" d="M11 450q-3 37 -3 79q0 73 10 157q21 154 77 276.5t130.5 202t169 132t190.5 74.5t197 22q247 0 412 -90l-43 -312q-35 -5 -68 -5t-65 5l8 201q-117 47 -264 47q-104 0 -195 -32.5t-166 -97.5t-127 -173t-71 -250q-9 -64 -9 -121q0 -69 13 -129q24 -108 83 -173t139 -97.5 t177 -32.5q154 0 293 25l59 426h-241l31 153h407l-94 -667q-187 -90 -477 -90q-84 0 -159.5 15.5t-148 50t-125.5 89t-92 133t-48 182.5z" />
<glyph unicode="H" horiz-adv-x="1585" d="M-125 0v17q0 48 14 96l158 20l156 1106l-152 21v13q0 43 17 99h481q0 -56 -17 -112l-155 -21l-66 -461h779l65 461l-151 21v14q0 45 16 98h481q0 -59 -16 -112l-156 -21l-155 -1106l149 -20v-15q0 -42 -14 -98h-482v16q0 47 15 97l157 20l70 492h-778l-70 -492l150 -20 v-13q0 -41 -15 -100h-481z" />
<glyph unicode="I" horiz-adv-x="653" d="M-115 0v16q0 47 15 97l157 20l156 1106l-152 21v13q0 43 17 99h481q0 -59 -16 -112l-156 -21l-156 -1106l150 -20v-15q0 -42 -14 -98h-482z" />
<glyph unicode="J" horiz-adv-x="645" d="M-193 -205q132 52 187.5 129.5t75.5 218.5l155 1096l-151 21v14q0 44 16 98h481q0 -59 -16 -112l-156 -21l-149 -1055q-29 -211 -134.5 -339.5t-305.5 -172.5z" />
<glyph unicode="K" horiz-adv-x="1308" d="M-125 0v17q0 48 14 96l158 20l156 1106l-152 21v13q0 43 17 99h481q0 -56 -17 -112l-155 -21l-156 -1106l150 -20v-13q0 -41 -15 -100h-481zM365 725l542 516l-121 19v13q0 43 17 99h471q0 -56 -17 -112l-155 -21l-516 -502l-43 -10v-4l41 -10l395 -582l149 -18v-15 q0 -42 -14 -98h-270z" />
<glyph unicode="L" horiz-adv-x="1089" d="M-125 0v17q0 48 14 96l158 20l156 1106l-152 21v13q0 43 17 99h481q0 -56 -17 -112l-155 -21l-152 -1085h484l41 178q35 6 68.5 6t64.5 -6l-45 -332h-963z" />
<glyph unicode="M" horiz-adv-x="2015" d="M-145 0v17q0 48 14 96l154 20l335 1108l-131 19v13q0 43 17 99h385l215 -1177h4l8 81l514 1096h387q0 -59 -16 -112l-135 -19l24 -1108l144 -20v-13q0 -41 -15 -100h-481v17q0 48 14 96l154 20l4 1004l20 82h-4l-548 -1158h-205l-209 1076l6 82h-4l-301 -1086l145 -20 v-15q0 -42 -14 -98h-481z" />
<glyph unicode="N" horiz-adv-x="1607" d="M-82 0v17q0 48 14 96l158 20l156 1106l-152 21v13q0 43 17 99h403l514 -1126l10 -103h4l156 1096l-151 21v14q0 45 16 98h481q0 -59 -16 -112l-156 -21l-174 -1239h-250l-518 1128l-10 82h-4l-152 -1077l150 -20v-13q0 -41 -15 -100h-481z" />
<glyph unicode="O" horiz-adv-x="1576" d="M11 450q-3 37 -3 79q0 73 10 157q21 154 77 276.5t130.5 202t169 132t190.5 74.5t197 22q84 0 160 -15.5t148 -50t125.5 -89.5t92.5 -134q38 -78 48 -182q4 -39 4 -81q0 -72 -10 -155q-22 -154 -78 -276.5t-131 -201.5t-169.5 -131.5t-190 -74.5t-197.5 -22 q-84 0 -159.5 15.5t-148 50t-125.5 89t-92 133t-48 182.5zM203 686q-9 -64 -9 -121q0 -69 13 -129q24 -108 83 -173t139 -97.5t177 -32.5t186.5 32.5t166.5 97.5t131.5 173.5t74.5 249.5q8 62 8 118q0 72 -13 132q-24 108 -82.5 173t-138.5 97.5t-177 32.5t-186.5 -32.5 t-167 -97.5t-132 -173.5t-73.5 -249.5z" />
<glyph unicode="P" horiz-adv-x="1161" d="M-135 0v17q0 48 14 96l158 20l156 1106l-152 21v14q0 45 16 98h154q60 0 190 10.5t205 10.5q210 0 324 -105q91 -84 91 -230q0 -36 -5 -75q-27 -193 -169.5 -296t-352.5 -103q-127 0 -220 8l-63 -459l211 -20v-15q0 -42 -14 -98h-543zM297 745q136 -8 217 -8 q133 0 216 60t101 186q4 30 4 57q0 90 -50 138q-65 62 -199 61q-81 0 -221 -8z" />
<glyph unicode="Q" horiz-adv-x="1556" d="M1 450q-3 37 -3 79q0 73 10 157q21 154 77 276.5t130.5 202t169 132t190.5 74.5t197 22q84 0 159.5 -15.5t147.5 -50t125.5 -89.5t92.5 -133.5t49 -182.5q3 -39 3 -81q0 -72 -10 -155q-59 -421 -358 -600l162 -291h-215l-109 219q-112 -34 -246 -34q-84 0 -159.5 15.5 t-147.5 50t-125.5 89t-92 133t-47.5 182.5zM193 686q-9 -64 -9 -121q0 -69 13 -129q24 -108 83 -173t139 -97.5t177 -32.5t186.5 32.5t166.5 97.5t131.5 173.5t74.5 249.5q8 62 8 118q0 71 -13 132q-24 108 -82.5 173t-138.5 97.5t-177 32.5t-186.5 -32.5t-167 -97.5 t-132 -173.5t-73.5 -249.5z" />
<glyph unicode="R" horiz-adv-x="1275" d="M-135 0v17q0 48 14 96l158 20l156 1106l-152 21v14q0 45 16 98h154q60 0 190 10.5t205 10.5q197 1 307 -105q88 -84 87 -228q0 -37 -5 -77q-20 -147 -114.5 -242.5t-235.5 -130.5l270 -477l150 -20v-15q0 -42 -14 -98h-271l-329 594q-115 4 -175 8l-65 -469l149 -20v-15 q0 -42 -14 -98h-481zM299 756q136 -8 217 -8q119 0 198.5 58.5t96.5 176.5q4 31 4 58q0 87 -47 135q-62 62 -182 63q-81 0 -221 -8z" />
<glyph unicode="S" horiz-adv-x="1069" d="M-66 70l46 311q33 6 66.5 5.5t66.5 -5.5l-11 -207q100 -41 205 -41q125 0 210 55t101 172q2 16 2 31q0 33 -11 63q-16 42 -49 71t-78 53.5t-95.5 47t-100.5 46.5t-94 56t-76 72q-31 40 -45 100q-8 33 -8 72q0 30 5 62q22 164 142.5 261.5t317.5 97.5q100 0 175 -23 t155 -67l-43 -312q-35 -6 -68 -5.5t-65 5.5l8 211q-85 37 -182 37q-123 0 -188 -49.5t-78 -155.5q-2 -15 -2 -29q0 -45 22 -82q29 -48 81.5 -80t118 -61t129.5 -64t115 -78q50 -44 76 -116q17 -47 17 -104q0 -29 -4 -60q-25 -181 -157.5 -280.5t-352.5 -99.5q-186 0 -351 90 z" />
<glyph unicode="T" horiz-adv-x="1177" d="M-14 1040l47 332h1095l-47 -332q-34 -6 -67 -6t-66 6l8 179h-311l-151 -1086l149 -20v-15q0 -42 -14 -98h-482v16q0 47 15 97l157 20l152 1086h-311l-41 -179q-34 -6 -67 -6t-66 6z" />
<glyph unicode="U" horiz-adv-x="1482" d="M41 1260v14q0 45 16 98h482q0 -56 -17 -112l-155 -21l-107 -758q-6 -44 -6 -83q0 -265 305 -265q346 0 397 348l107 758l-152 21v13q0 43 17 99h481q0 -59 -16 -112l-156 -21l-107 -758q-36 -248 -192 -374.5t-401 -126.5q-247 0 -367 126q-93 97 -92 267q0 51 8 108 l107 758z" />
<glyph unicode="V" horiz-adv-x="1470" d="M0 1260v14q0 45 16 98h482q0 -56 -17 -112l-147 -19l237 -1087h4l3 82l514 1003l-148 21v13q0 43 17 99h477q0 -56 -17 -112l-147 -21l-660 -1239h-174l-299 1241z" />
<glyph unicode="W" horiz-adv-x="2101" d="M0 1260v14q0 45 16 98h482q0 -56 -17 -112l-151 -21l145 -1085h4l13 82l440 1116h219l127 -1198h4l12 82l424 1005l-143 19v14q0 45 16 98h477q0 -59 -16 -112l-149 -21l-547 -1239h-207l-133 1116l16 82h-4l-477 -1198h-207l-199 1239z" />
<glyph unicode="X" horiz-adv-x="1361" d="M-156 0v16q0 47 15 97l143 18l444 582l41 10v4l-38 10l-259 504l-149 19v14q0 45 16 98h482q0 -56 -17 -112l-121 -19l203 -412h4l322 412l-133 19v14q0 45 16 98h481q0 -59 -16 -112l-152 -19l-405 -504l-33 -10v-4l31 -10l276 -582l135 -18v-15q0 -42 -14 -98h-481v17 q0 48 14 96l131 16l-215 489h-4l-364 -485l143 -20v-15q0 -42 -14 -98h-482z" />
<glyph unicode="Y" horiz-adv-x="1353" d="M8 1260v13q0 42 17 99h481q0 -56 -17 -112l-131 -19l244 -678h4l-18 103l373 573l-136 21v13q0 42 17 99h481q0 -59 -16 -112l-164 -19l-506 -752l-49 -356l149 -20v-15q0 -42 -14 -98h-481v17q0 48 14 96l158 20l49 356l-295 750z" />
<glyph unicode="Z" horiz-adv-x="1148" d="M-119 0l15 102l888 1096l43 16v5h-606l-41 -179q-33 -6 -66.5 -6t-66.5 6l47 332h955l-15 -102l-884 -1096l-46 -16v-4h633l41 178q35 6 68.5 6t64.5 -6l-45 -332h-985z" />
<glyph unicode="[" horiz-adv-x="512" d="M-133 -246l268 1915h164l-250 -1782h205l-18 -133h-369zM281 1536l18 133h205l-19 -133h-204z" />
<glyph unicode="\" horiz-adv-x="870" d="M94 1516h144l376 -1680h-143z" />
<glyph unicode="]" horiz-adv-x="512" d="M-195 -246l19 133h205l231 1649h-205l19 133h368l-268 -1915h-369z" />
<glyph unicode="^" horiz-adv-x="1011" d="M4 1024l471 670h133l285 -670l-170 -2l-193 502l-4 41h-4l-16 -41l-332 -502z" />
<glyph unicode="_" horiz-adv-x="870" d="M-184 -174l18 133h819l-18 -133h-819z" />
<glyph unicode="`" horiz-adv-x="555" d="M45 1413l102 123l326 -287l-67 -82z" />
<glyph unicode="a" horiz-adv-x="1110" d="M-31 420q18 125 61 233t108 191.5t157.5 131.5t200.5 48q116 0 249 -57l54 37h61l-110 -799l-13 -86l142 -6v-13q0 -41 -15 -100l-280 -20q-6 51 -6 103q0 60 8 122l16 123h-4l-31 -103q-178 -245 -393 -245q-136 0 -186 110q-31 69 -30 180q0 67 11 150zM140 190 q22 -76 104 -77q88 0 193 108t194 305l45 328q-99 37 -199 37q-71 0 -129.5 -38.5t-98.5 -105.5t-66 -149t-40 -178q-13 -83 -13 -143q0 -52 10 -87z" />
<glyph unicode="b" horiz-adv-x="1099" d="M-23 0l173 1229l24 168l-154 6q0 66 17 113l289 20q7 -59 7 -115.5t-7 -109.5l-90 -635h4l30 102q179 246 394 246q136 0 185 -110q30 -69 31 -179q0 -68 -12 -151q-18 -125 -61 -233t-108 -191.5t-157 -131.5t-200 -48q-117 0 -250 57l-53 -37h-62zM162 150 q99 -37 198 -37q71 0 129.5 38.5t98.5 105.5t66 149t40 178q14 84 14 145q0 51 -10 85q-21 76 -104 77q-88 0 -193 -108.5t-194 -305.5z" />
<glyph unicode="c" horiz-adv-x="983" d="M-18 502q35 246 171 384t343 138q153 0 276 -76l-37 -260q-32 -6 -63 -6t-60 6l4 178q-65 25 -139 25q-131 0 -212.5 -101t-108.5 -288q-9 -63 -9 -116q-1 -105 35 -172q54 -101 185 -101q77 0 153.5 32.5t171.5 104.5v-154q-160 -116 -344 -116q-208 0 -304 138 q-71 102 -71 263q0 57 9 121z" />
<glyph unicode="d" horiz-adv-x="1116" d="M-31 420q18 125 61 233t108 191.5t157.5 131.5t200.5 48q115 0 198 -45l35 250l25 168l-154 6q0 69 16 113l289 20q7 -59 7 -115.5t-7 -109.5l-155 -1106l-13 -86l142 -6v-13q0 -41 -15 -100l-280 -20q-6 51 -6 103q0 60 8 122l16 123h-4l-31 -103q-178 -245 -393 -245 q-136 0 -186 110q-31 69 -30 180q0 67 11 150zM140 190q22 -76 104 -77q88 0 193 108t194 305l43 312q-62 53 -197 53q-71 0 -129.5 -38.5t-98.5 -105.5t-66 -149t-40 -178q-13 -83 -13 -143q0 -52 10 -87z" />
<glyph unicode="e" horiz-adv-x="1034" d="M-18 502q35 242 176.5 382t337.5 140q166 0 262 -76q79 -63 79 -169q0 -22 -3 -46q-22 -151 -190 -211q-155 -55 -452 -55h-51q-4 -38 -4 -72q-1 -117 45 -189q58 -92 185 -93q164 0 346 137v-154q-160 -116 -365 -116q-208 0 -304 138q-71 102 -71 263q0 57 9 121z M150 569h55q155 1 251 15q113 18 158 50.5t52 88.5q2 17 2 33q0 64 -38 98q-48 44 -153 43q-126 0 -209 -84t-118 -244z" />
<glyph unicode="f" horiz-adv-x="819" d="M-190 -358q107 54 160.5 133.5t72.5 214.5l123 880h-154l19 134h153l21 143q28 199 137 294t266 95q114 0 207 -55l-20 -154q-90 76 -185 76q-29 0 -54.5 -4.5t-57 -21.5t-55.5 -46t-45 -81.5t-31 -123.5l-17 -122h346l-18 -134h-348l-117 -839q-61 -423 -399 -512z" />
<glyph unicode="g" horiz-adv-x="1095" d="M-88 -213q23 171 231 297q-35 30 -35 77q0 9 1 19q14 102 122 193q-102 36 -155 118q-40 64 -40 146q0 24 3 49q14 100 77.5 178t157 119t201.5 41q145 0 238 -72l182 176l90 -77l-188 -203q23 -54 23 -115q0 -23 -3 -47q-14 -100 -77.5 -178t-157 -119t-201.5 -41 q-31 0 -47 2q-66 -57 -72 -119q-2 -17 2.5 -29.5t21 -22t29.5 -15.5t43 -11.5t45 -8t52 -7.5q156 -22 221 -50q122 -52 122 -170q0 -18 -3 -38q-14 -105 -94 -188t-200 -127.5t-257 -44.5q-176 0 -262 75q-73 62 -73 157q0 17 3 36zM55 -184q-2 -17 -2 -32q0 -30 9 -54 q14 -35 45.5 -53.5t68.5 -26.5t84 -8q87 0 166.5 23t138 73.5t68.5 118.5q2 15 2 29q0 21 -5 37q-10 26 -45 42t-56.5 21t-82.5 15q-5 1 -8.5 1.5t-7.5 1.5q-16 3 -53.5 8.5t-59 9t-51 10.5t-51.5 15q-72 -55 -111 -108t-49 -123zM199 686q-2 -16 -2 -31q0 -70 45 -119 q55 -61 155 -61q102 0 175 60.5t85 150.5q2 16 2 30q0 71 -47 120q-57 61 -155 61q-100 0 -173 -60.5t-85 -150.5z" />
<glyph unicode="h" horiz-adv-x="1206" d="M35 -20l176 1249l25 168l-154 6q0 69 16 113l289 20q7 -59 7 -115.5t-7 -109.5l-90 -635h4l31 102q179 246 393 246q95 0 139.5 -41t47.5 -120v-26q0 -71 -13 -169l-63 -463l-13 -86l142 -6v-13q0 -41 -15 -100l-280 -20q-6 51 -6 103q0 60 8 122l63 463q8 57 8 98 q-1 46 -11 74q-20 50 -77 51q-88 0 -193 -108.5t-194 -305.5l-65 -477z" />
<glyph unicode="i" horiz-adv-x="591" d="M0 891v17q0 48 14 96l291 20q6 -51 6 -103q0 -60 -8 -122l-82 -594l-12 -86l141 -6v-15q0 -42 -14 -98l-281 -20q-6 51 -6 103q0 60 8 122l72 512l23 168zM145 1341q4 34 60 83t90 49t76 -49q38 -44 37 -76v-7q-4 -34 -60 -82.5t-90 -48.5t-76 48q-38 43 -38 76q0 3 1 7z " />
<glyph unicode="j" horiz-adv-x="583" d="M-201 -358q108 54 161.5 134t72.5 214l102 727l23 168l-152 6v17q0 48 14 96l291 20q6 -51 6 -103q0 -60 -8 -122l-106 -768q-61 -423 -400 -512zM162 1341q5 34 60 83t89 49t76 -49q38 -44 38 -76q0 -3 -1 -7q-4 -34 -60 -82.5t-90 -48.5t-76 48q-37 44 -37 76q0 3 1 7z " />
<glyph unicode="k" horiz-adv-x="1144" d="M25 -20l176 1249l24 168l-153 6q0 69 16 113l289 20q7 -59 7 -115.5t-7 -109.5l-90 -635h4l31 102q179 246 393 246q66 0 110 -32q43 -31 59 -76q11 -31 11 -64q0 -15 -2 -31q-10 -71 -50 -132t-103.5 -114.5t-178.5 -132.5l-43 -10v-4l39 -10l227 -299l146 -6v-13 q0 -41 -15 -100l-229 -20l-321 450q338 196 358 350q2 16 2 30q0 81 -80 81q-88 0 -193 -108.5t-194 -305.5l-65 -477z" />
<glyph unicode="l" horiz-adv-x="598" d="M51 -20q-6 51 -6 103q0 60 8 122l144 1024l24 168l-153 6q0 69 16 113l289 20q7 -59 7 -115.5t-7 -109.5l-156 -1106l-12 -86l141 -6v-15q0 -42 -14 -98z" />
<glyph unicode="m" horiz-adv-x="1779" d="M0 891v17q0 48 14 96l291 20q6 -51 6 -103q0 -60 -8 -122l-16 -123h4l31 102q179 246 393 246q88 0 130.5 -40t46.5 -118q1 -16 1 -34q0 -67 -12 -156h4l30 102q179 246 394 246q89 0 131.5 -41t45.5 -120q0 -12 1 -26q0 -71 -14 -169l-64 -463l-12 -86l141 -6v-15 q0 -42 -14 -98l-281 -20q-6 51 -6 103q0 60 8 122l64 463q14 80 14 129q0 29 -5 47q-13 48 -79 47q-88 0 -193 -108.5t-194 -305.5l-66 -477l-168 -20l97 688q14 80 14 129q0 29 -5 47q-13 48 -79 47q-88 0 -193 -108.5t-194 -305.5l-65 -477l-168 -20l104 737l23 168z" />
<glyph unicode="n" horiz-adv-x="1196" d="M0 891v17q0 48 14 96l291 20q6 -51 6 -103q0 -60 -8 -122l-16 -123h4l31 102q179 246 393 246q95 0 139.5 -41t47.5 -120v-26q0 -71 -13 -169l-64 -463l-12 -86l141 -6v-15q0 -42 -14 -98l-281 -20q-6 48 -6 98q0 62 9 127l63 463q8 57 8 98q-1 46 -11 74q-20 50 -77 51 q-88 0 -193 -108.5t-194 -305.5l-65 -477l-168 -20l104 737l23 168z" />
<glyph unicode="o" horiz-adv-x="1105" d="M-18 502q35 246 171 384t343 138t304 -138q71 -101 71 -261q0 -58 -9 -123q-34 -246 -170.5 -384t-343.5 -138q-208 0 -304 138q-71 102 -71 263q0 57 9 121zM156 502q-9 -63 -9 -116q-1 -105 35 -172q54 -101 185 -101t212.5 101t108.5 288q9 63 9 116q1 105 -35 172 q-54 101 -185 101t-212.5 -101t-108.5 -288z" />
<glyph unicode="p" horiz-adv-x="1130" d="M-59 -481l168 1198l22 168l-151 6v17q0 48 14 96l291 20q6 -51 6 -103q0 -60 -8 -122l-17 -123h4l31 102q179 246 393 246q136 0 186 -110q30 -69 30 -180q0 -67 -11 -150q-18 -125 -61 -233t-108 -191.5t-157 -131.5t-200 -48q-118 0 -199 47l-68 -488zM195 166 q64 -53 196 -53q71 0 129.5 38.5t98.5 105.5t66 149t40 178q14 84 14 145q0 51 -10 85q-21 77 -104 77q-88 0 -193 -108.5t-194 -305.5z" />
<glyph unicode="q" horiz-adv-x="1075" d="M-31 420q18 125 61 233t108 191.5t157.5 131.5t200.5 48q116 0 249 -57l54 37h61l-205 -1465l-166 -20l113 809h-4l-31 -103q-178 -245 -393 -245q-136 0 -186 110q-30 69 -30 180q0 67 11 150zM140 190q21 -77 104 -77q88 0 193 108t194 305l45 328q-99 37 -199 37 q-71 0 -129.5 -38.5t-98.5 -105.5t-66 -149t-40 -178q-13 -83 -13 -143q0 -52 10 -87z" />
<glyph unicode="r" horiz-adv-x="933" d="M0 891v17q0 48 14 96l291 20q6 -51 6 -103q0 -60 -8 -122l-20 -144h6l28 101q40 74 90 128.5t100.5 83.5t96.5 42.5t90 13.5q54 0 73 -29q12 -19 12 -57q0 -20 -3 -45l-31 -215q-30 -5 -61 -5l-61 5v174q-10 2 -31 2q-178 0 -344 -455l-27 -194l-12 -86l141 -6v-15 q0 -42 -14 -98l-281 -20q-6 51 -6 103q0 60 8 122l72 512l23 168z" />
<glyph unicode="s" horiz-adv-x="899" d="M-68 55l37 260q32 6 63 5.5t60 -5.5l-4 -184q65 -25 139 -25q94 0 158.5 36.5t73.5 103.5q2 11 2 21q-1 35 -19 63q-24 36 -65 61.5t-92.5 48.5t-103 49t-92.5 57.5t-63 79.5q-15 34 -15 76q0 17 3 35q20 135 120.5 211t252.5 76q154 0 277 -76l-37 -260q-32 -6 -63 -6 t-60 6l4 184q-65 25 -139 25q-78 0 -130.5 -38.5t-60.5 -100.5q-2 -9 -2 -18q0 -26 14 -49q18 -30 51 -50t76.5 -41t89 -39t88 -45t74.5 -59t47 -81q10 -32 10 -69q0 -20 -3 -41q-20 -134 -133.5 -210t-280.5 -76q-155 0 -277 75z" />
<glyph unicode="t" horiz-adv-x="829" d="M2 870l18 134h160l66 286l137 21l-43 -307h326l-19 -134h-325l-78 -542q-5 -50 -5 -86q1 -13 1 -24q2 -42 20 -65t40.5 -31.5t55.5 -8.5q100 0 207 86v-144q-67 -38 -121 -56.5t-125 -18.5q-141 0 -202 79q-44 57 -44 160q0 41 7 88l80 563h-156z" />
<glyph unicode="u" horiz-adv-x="1144" d="M-31 891v16q0 47 15 97l290 20q6 -51 6 -103q0 -60 -8 -122l-63 -463q-11 -74 -10 -121q0 -35 5 -55q14 -48 75 -47q88 0 193 108t194 305l65 478l168 20l-115 -819l-12 -86l141 -6v-15q0 -42 -14 -98l-281 -20q-6 48 -6 98q0 62 9 127l16 123h-4l-31 -103 q-178 -245 -393 -245q-89 0 -131.5 41t-45.5 120v26q0 71 13 169l53 381l23 168z" />
<glyph unicode="v" horiz-adv-x="1056" d="M-82 891v17q0 48 14 96l273 20l196 -891h5v82q27 53 65.5 127.5t58.5 113t48 93t42 83t32.5 67t27.5 60t19 47.5t15.5 44.5t8.5 36.5l-125 4v17q0 48 14 96l281 20q4 -21 4 -47.5t-4 -58.5q-15 -107 -98 -263l-361 -655h-139l-238 885z" />
<glyph unicode="w" horiz-adv-x="1660" d="M-82 891v17q0 48 14 96l271 20l137 -891h4l8 82l322 768l190 21l140 -871h4l8 82q42 90 99 210t82 173t54.5 118t43 102.5t20.5 68.5l-123 4v17q0 48 14 96l281 20q4 -21 4 -47.5t-4 -58.5q-6 -41 -24.5 -92t-32.5 -79.5t-46 -91.5l-329 -655h-152l-149 809l16 82h-4 l-379 -891h-156l-182 887z" />
<glyph unicode="x" horiz-adv-x="978" d="M-111 -20v10q0 34 11 70q13 40 44 85.5t56.5 77.5t71.5 84l176 203l41 10l2 4l-41 11l-199 350l-149 6v17q0 48 14 96l252 20l205 -393h4q23 26 70.5 78.5t66.5 74t43 51.5t37 52l-90 4v17q0 48 14 96l281 20q2 -11 2 -23q0 -53 -35 -109q-42 -68 -125 -159l-178 -198 l-41 -11l-2 -4l41 -10l211 -389l145 -8v-15q0 -42 -14 -98l-250 -20l-219 430h-4q-31 -36 -78.5 -89.5t-72 -81t-51 -62t-40.5 -60.5l107 -4q0 -6 1 -13q0 -41 -16 -100z" />
<glyph unicode="y" horiz-adv-x="1052" d="M-82 891v17q0 48 14 96l273 20l201 -911h4l-4 102q34 68 80 159.5t68.5 136.5t52.5 105.5t44.5 92t30.5 69t24 62t13 47.5l-125 4v17q0 48 14 96l281 20q3 -21 3 -47.5t-3 -58.5q-15 -107 -98 -263l-609 -1116l-168 -20l11 71l268 406l2 4l-238 885z" />
<glyph unicode="z" horiz-adv-x="952" d="M-119 0l10 82l644 768l43 16v4h-414l-43 -182q-32 -6 -63 -6t-60 6l43 316h747l-10 -82l-606 -723l-43 -15v-6h19q72 0 140 -13q77 -15 145.5 -31.5t121.5 -18.5l43 180q31 6 61.5 5.5t61.5 -5.5l-41 -295q-54 -17 -117 -17q-17 0 -35 1q-84 6 -141 22.5t-152 32.5 q-84 14 -166 14h-20l-41 -53h-127z" />
<glyph unicode="{" horiz-adv-x="524" d="M-10 10q9 67 53 232t53 231q6 30 4.5 60t-9.5 55t-32.5 45.5t-64.5 30.5l14 96q43 10 72.5 29.5t46 47t24.5 53t13 60.5q9 64 11.5 229.5t12.5 233.5q29 213 287 256l2 -137q-68 -20 -95.5 -60.5t-37.5 -109.5q-9 -66 -12.5 -231.5t-12.5 -231.5q-17 -125 -151 -188 q118 -60 100 -187q-10 -64 -53.5 -229.5t-52.5 -233.5q-5 -41 -3.5 -73t23 -57.5t64.5 -39.5l-39 -137q-246 42 -217 256z" />
<glyph unicode="|" horiz-adv-x="624" d="M-33 -410l287 2048h164l-287 -2048h-164z" />
<glyph unicode="}" horiz-adv-x="524" d="M-156 -109q68 20 95.5 60.5t37.5 109.5q9 64 12 229.5t13 233.5q17 126 152 189q-118 61 -101 186q9 67 53.5 232t53.5 231q5 41 3.5 73t-23 57.5t-64.5 39.5l39 137q246 -42 217 -256q-10 -64 -54 -229.5t-53 -233.5q-6 -30 -4.5 -59.5t10 -54.5t33 -45.5t64.5 -30.5 l-15 -96q-80 -20 -112 -68t-43 -123q-9 -67 -12.5 -231.5t-12.5 -231.5q-29 -213 -287 -256z" />
<glyph unicode="~" horiz-adv-x="1009" d="M-47 666l55 -113q115 86 230 86q46 0 87 -15t68 -33t73.5 -33t102.5 -15q104 0 265 80l-54 114q-98 -63 -192 -63q-37 0 -76 15.5t-68.5 33.5t-79 33.5t-104.5 15.5q-130 0 -307 -106z" />
<glyph unicode="&#xa2;" horiz-adv-x="983" d="M-18 502q32 219 144.5 353.5t285.5 162.5l24 170h164l-25 -168q105 -15 197 -72l-37 -260q-65 -11 -123 0l4 178q-65 25 -139 25q-131 0 -212.5 -101t-108.5 -288t26.5 -288t184.5 -101q77 0 153.5 32.5t171.5 104.5v-154q-122 -89 -260 -110l-24 -170h-164l24 170 q-167 26 -242 160.5t-44 355.5z" />
<glyph unicode="&#xa3;" horiz-adv-x="1091" d="M-119 0l21 154q62 40 108.5 133t57.5 164l26 184h-135l18 133h136l37 266q26 187 140.5 273t319.5 86q115 0 192.5 -23t158.5 -67l-43 -312q-71 -11 -134 0l9 213q-93 35 -183 35q-125 0 -194 -49.5t-82 -155.5l-37 -266h422l-19 -133h-421l-27 -184q-12 -77 -65.5 -167 t-141.5 -130h604l41 178q70 11 133 0l-45 -332h-897z" />
<glyph unicode="&#xa5;" horiz-adv-x="1370" d="M25 1260q-3 50 16 112h481q0 -59 -16 -112l-131 -19l243 -678h5l-19 103l373 573l-135 21q-3 50 16 112h481q0 -59 -16 -112l-164 -19l-457 -678h355l-19 -112h-391l-12 -93h387l-18 -112h-383l-17 -113l150 -20q3 -44 -15 -113h-481q-3 57 14 113l158 20l16 113h-385 l19 112h381l12 93h-377l19 112h336l-267 676z" />
<glyph unicode="&#xa8;" horiz-adv-x="970" d="M145 1354q5 31 55 75t81 44t68.5 -44t33.5 -75q-5 -31 -54.5 -75t-80.5 -44t-69 44t-34 75zM559 1354q5 31 54.5 75t80.5 44t69 -44t34 -75q-5 -31 -54.5 -75t-80.5 -44t-69 44t-34 75z" />
<glyph unicode="&#xa9;" horiz-adv-x="1515" d="M51 686q21 147 80.5 268.5t140.5 201.5t181.5 134.5t201 78.5t201.5 24q83 0 162.5 -17t155.5 -53t134.5 -92t101.5 -135t56.5 -180.5t-2.5 -229.5q-21 -147 -80.5 -268.5t-141 -201t-182.5 -134t-201.5 -78.5t-201.5 -24t-195 24t-179 78.5t-143.5 134t-84 201 t-4.5 268.5zM92 686q-20 -141 4 -256.5t79.5 -191t136.5 -127t169 -73.5t183 -22t189 22t189 73.5t171 127t133 191t77 256.5t-4.5 256.5t-80 191t-136.5 127t-169 73.5t-183 22t-189 -22t-189 -73.5t-171.5 -127t-132.5 -191t-76 -256.5zM430 686q26 187 131 291t273 104 q127 0 223 -57l-29 -197q-47 -7 -94 0l4 136q-58 18 -119 18q-218 0 -258 -295q-43 -295 174 -295q121 0 242 74l-16 -117q-108 -57 -240 -57q-167 0 -242 103.5t-49 291.5z" />
<glyph unicode="&#xab;" horiz-adv-x="1138" d="M-41 492l10 67l8 66l543 399l-22 -170l-398 -283l-43 -10v-4l39 -10l320 -283l-27 -170zM406 492l10 67l8 66l543 399l-23 -170l-397 -283l-43 -10v-4l39 -10l319 -283l-26 -170z" />
<glyph unicode="&#xad;" horiz-adv-x="860" d="M-18 502l22 153h635l-23 -153h-634z" />
<glyph unicode="&#xb4;" horiz-adv-x="479" d="M23 1249l403 287l70 -123l-430 -246z" />
<glyph unicode="&#xb8;" horiz-adv-x="444" d="M-227 -473l14 96q36 -8 92 -8q75 0 113.5 19t44.5 67q6 40 -28 63.5t-128 38.5l78 197h104l-55 -139q81 -10 121 -53t31 -105q-12 -88 -88.5 -136t-210.5 -48q-49 0 -88 8z" />
<glyph unicode="&#xbb;" horiz-adv-x="1138" d="M-74 94l23 170l397 283l43 10v4l-39 10l-319 283l26 170l428 -399l-8 -66l-10 -67zM373 94l22 170l398 283l43 10v4l-39 10l-320 283l27 170l428 -399l-8 -66l-11 -67z" />
<glyph unicode="&#xd3;" horiz-adv-x="1576" d="M11 450q-9 104 7 236q21 154 77 276.5t130.5 202t169 132t190.5 74.5t197 22q84 0 160 -15.5t148 -50t125.5 -89.5t92.5 -133.5t48.5 -182.5t-6.5 -236q-22 -154 -78 -276.5t-131 -201.5t-169.5 -131.5t-190 -74.5t-197.5 -22q-84 0 -159.5 15.5t-148 50t-125.5 89 t-92 133t-48 182.5zM203 686q-20 -141 4 -249.5t83 -173.5t139 -97.5t177 -32.5t186.5 32.5t166.5 97.5t131.5 173.5t74.5 249.5q19 141 -5 249.5t-82.5 173.5t-138.5 97.5t-177 32.5t-186.5 -32.5t-167 -97.5t-132 -173.5t-73.5 -249.5zM586 1602l424 253l55 -131 l-444 -208z" />
<glyph unicode="&#xf3;" horiz-adv-x="1105" d="M-18 502q35 246 171 384t343 138t304 -138t62 -384q-34 -246 -170.5 -384t-343.5 -138t-303.5 138t-62.5 384zM156 502q-27 -187 26.5 -288t184.5 -101t212.5 101t108.5 288t-26.5 288t-184.5 101t-212.5 -101t-108.5 -288zM358 1249l404 287l69 -123l-430 -246z" />
<glyph unicode="&#x104;" horiz-adv-x="1492" d="M-184 0q-3 57 14 113l154 20l608 1112l-123 15q-3 50 16 112h174v-4l3 4h174l317 -1241l139 -18q3 -47 -14 -113h-244q-102 -44 -155.5 -107t-61.5 -126q-7 -47 15.5 -81t80.5 -34q68 0 127 33v-125q-77 -41 -178 -41q-100 0 -156.5 59t-43.5 152q12 91 98.5 185 t214.5 148l-92 388h-549l-168 -318l145 -20q3 -47 -14 -113h-481zM414 604h432l-127 533l22 82h-4z" />
<glyph unicode="&#x105;" horiz-adv-x="1110" d="M-31 420q18 125 61 233t108 191.5t157.5 131.5t200.5 48q119 0 252 -57l51 37h61l-12 -91l-98 -708l-13 -86l142 -6q3 -44 -15 -113l-164 -12q-92 -44 -136.5 -97.5t-53.5 -123.5q-7 -47 15.5 -81t80.5 -34q68 0 127 33v-125q-77 -41 -178 -41q-100 0 -157 59t-44 152 q24 176 226 284q-7 85 6 191l16 123h-4l-31 -103q-178 -245 -393 -245q-136 0 -185.5 110.5t-19.5 329.5zM139.5 189.5q21.5 -76.5 104.5 -76.5q88 0 193 108t194 305l45 328q-99 37 -199 37q-71 0 -129.5 -38.5t-98.5 -105.5t-66 -149t-40 -178q-25 -154 -3.5 -230.5z" />
<glyph unicode="&#x106;" horiz-adv-x="1314" d="M11 450q-9 104 7 236q21 154 77 276.5t130.5 202t169 132t190.5 74.5t197 22q227 0 392 -90l-44 -312q-70 -11 -133 0l9 201q-113 47 -244 47q-104 0 -195 -32.5t-166 -97.5t-127 -173t-71 -250q-20 -141 4 -249.5t83 -173.5t139 -97.5t177 -32.5q111 0 224 32.5 t194 80.5l-25 -176q-187 -90 -415 -90q-84 0 -159.5 15.5t-148 50t-125.5 89t-92 133t-48 182.5zM588 1602l424 253l55 -131l-444 -208z" />
<glyph unicode="&#x107;" horiz-adv-x="983" d="M-18 502q35 246 171 384t343 138q153 0 276 -76l-37 -260q-65 -11 -123 0l4 178q-65 25 -139 25q-131 0 -212.5 -101t-108.5 -288t26.5 -288t184.5 -101q77 0 153.5 32.5t171.5 104.5v-154q-160 -116 -344 -116q-207 0 -303.5 138t-62.5 384zM303 1249l404 287l69 -123 l-430 -246z" />
<glyph unicode="&#x118;" horiz-adv-x="1140" d="M-125 0q-3 57 14 113l158 20l156 1106l-152 21q-3 47 17 112h942l-47 -332q-67 -11 -134 0l9 179h-465l-64 -453l484 12l-23 -153l-477 12l-68 -483h504l41 178q70 11 133 0l-45 -332h-117q-102 -44 -155.5 -107t-61.5 -126q-7 -47 16 -81t81 -34q68 0 127 33v-125 q-77 -41 -179 -41q-100 0 -156.5 59t-43.5 152q11 74 64 145.5t142 124.5h-700z" />
<glyph unicode="&#x119;" horiz-adv-x="1032" d="M-18 502q35 242 176.5 382t337.5 140q167 0 262.5 -76.5t75.5 -214.5q-22 -152 -190 -211.5t-503 -54.5q-17 -169 42.5 -261.5t185.5 -92.5q85 0 167 33t177 104v-154q-142 -78 -205.5 -152t-77.5 -177q-7 -47 15.5 -81t80.5 -34q68 0 127 33l2 -125q-80 -41 -180 -41 t-156.5 59t-44.5 152q21 146 129 254q-36 -4 -55 -4q-207 0 -303.5 138t-62.5 384zM150 569q193 -3 306 14.5t158 50.5t52 89q12 87 -36.5 130.5t-152.5 43.5q-126 0 -209 -84t-118 -244z" />
<glyph unicode="&#x141;" horiz-adv-x="1089" d="M-135 461l20 153l248 131l70 494l-152 21q-3 47 17 112h481q0 -56 -17 -112l-155 -21l-58 -414l285 158l-20 -154l-285 -143l-74 -532h484l41 178q70 11 133 0l-45 -332h-963q-3 57 14 113l158 20l68 473z" />
<glyph unicode="&#x142;" horiz-adv-x="727" d="M-90 461l22 153l248 131l68 484l24 168l-153 6q0 69 16 113l289 20q14 -118 0 -225l-68 -484l256 156l-20 -154l-256 -141l-68 -483l-12 -86l141 -6q3 -47 -14 -113l-281 -20q-13 110 2 225l58 403z" />
<glyph unicode="&#x143;" horiz-adv-x="1607" d="M-82 0q-3 57 14 113l158 20l156 1106l-152 21q-3 47 17 112h403l514 -1126l10 -103h4l156 1096l-151 21q-3 50 16 112h481q0 -59 -16 -112l-156 -21l-174 -1239h-250l-518 1128l-10 82h-4l-152 -1077l150 -20q3 -44 -15 -113h-481zM739 1602l424 253l56 -131l-445 -208z " />
<glyph unicode="&#x144;" horiz-adv-x="1196" d="M0 891q-3 57 14 113l291 20q13 -110 -2 -225l-16 -123h4l31 102q179 246 393 246q95 0 139.5 -41t47.5 -120t-13 -195l-64 -463l-12 -86l141 -6q3 -47 -14 -113l-281 -20q-13 107 3 225l63 463q18 122 -2.5 172.5t-77.5 50.5q-88 0 -193 -108.5t-194 -305.5l-65 -477 l-168 -20l104 737l23 168zM475 1249l404 287l69 -123l-430 -246z" />
<glyph unicode="&#x15a;" horiz-adv-x="1069" d="M-66 70l46 311q66 11 133 0l-11 -207q100 -41 205 -41q125 0 210 55t101 172q7 53 -9 94.5t-49 70.5t-78 53.5t-95.5 47t-100.5 46.5t-94 56t-75.5 72.5t-45.5 100t-3 133.5q22 164 142.5 261.5t317.5 97.5q100 0 175 -23t155 -67l-43 -312q-70 -11 -133 0l8 211 q-85 37 -182 37q-123 0 -188 -49.5t-78 -155.5q-9 -63 20 -111t81.5 -80t118 -61t129.5 -64t115 -78.5t76.5 -115t12.5 -164.5q-25 -181 -157.5 -280.5t-352.5 -99.5q-186 0 -351 90zM362 1602l424 253l56 -131l-445 -208z" />
<glyph unicode="&#x15b;" horiz-adv-x="899" d="M-68 55l37 260q65 11 123 0l-4 -184q65 -25 139 -25q94 0 158.5 36.5t73.5 103.5q7 47 -16.5 83.5t-65 62t-93 48.5t-103 49t-92.5 57.5t-62.5 80t-12.5 110.5q20 135 120.5 211t252.5 76q154 0 277 -76l-37 -260q-65 -11 -123 0l4 184q-65 25 -139 25 q-78 0 -130.5 -38.5t-60.5 -100.5q-6 -37 12 -67t51 -50t76.5 -41t89 -39t88 -45t74.5 -59t47 -81t7 -110q-20 -134 -133.5 -210t-280.5 -76q-155 0 -277 75zM256 1249l403 287l70 -123l-430 -246z" />
<glyph unicode="&#x179;" horiz-adv-x="1148" d="M-119 0l15 102l888 1096l43 16v5h-606l-41 -179q-66 -11 -133 0l47 332h955l-15 -102l-884 -1096l-46 -16v-4h633l41 178q70 11 133 0l-45 -332h-985zM446 1602l424 253l56 -131l-445 -208z" />
<glyph unicode="&#x17a;" horiz-adv-x="952" d="M-119 0l10 82l644 768l43 16v4h-414l-43 -182q-65 -11 -123 0l43 316h747l-10 -82l-606 -723l-43 -15v-6q82 2 159 -13t145.5 -31.5t121.5 -18.5l43 180q62 11 123 0l-41 -295q-69 -22 -152.5 -16t-140.5 22.5t-152 32.5t-186 14l-41 -53h-127zM317 1249l404 287l70 -123 l-431 -246z" />
<glyph unicode="&#x17b;" horiz-adv-x="1148" d="M-119 0l15 102l888 1096l43 16v5h-606l-41 -179q-66 -11 -133 0l47 332h955l-15 -102l-884 -1096l-46 -16v-4h633l41 178q70 11 133 0l-45 -332h-985zM471 1626q4 34 60 82.5t90 48.5t75.5 -48.5t36.5 -82.5q-4 -34 -59.5 -82.5t-89.5 -48.5t-76 48.5t-37 82.5z" />
<glyph unicode="&#x17c;" horiz-adv-x="952" d="M-119 0l10 82l644 768l43 16v4h-414l-43 -182q-65 -11 -123 0l43 316h747l-10 -82l-606 -723l-43 -15v-6q82 2 159 -13t145.5 -31.5t121.5 -18.5l43 180q62 11 123 0l-41 -295q-69 -22 -152.5 -16t-140.5 22.5t-152 32.5t-186 14l-41 -53h-127zM344 1341q4 34 60 83 t90 49t75.5 -49t36.5 -83q-4 -34 -59.5 -82.5t-89.5 -48.5t-76 48.5t-37 82.5z" />
<glyph unicode="&#x2c6;" horiz-adv-x="692" d="M6 1251l346 265l273 -265l-72 -84l-223 185l-277 -185z" />
<glyph unicode="&#x2da;" horiz-adv-x="565" d="M47 1389q13 91 88 156t166 65t146.5 -65t41.5 -156q-12 -91 -86 -156.5t-165 -65.5t-147 65.5t-44 156.5zM170 1389q-6 -43 18 -74t66 -31t74.5 31t38.5 74q6 44 -17 74t-65 30t-75.5 -30.5t-39.5 -73.5z" />
<glyph unicode="&#x2dc;" horiz-adv-x="866" d="M88 1188q27 104 88.5 161.5t140.5 57.5q49 0 89 -20t71.5 -40t59.5 -20q69 0 104 80h98q-57 -219 -219 -219q-39 0 -71.5 12.5t-50.5 27.5t-43.5 27.5t-53.5 12.5q-80 0 -115 -80h-98z" />
<glyph unicode="&#x2000;" horiz-adv-x="979" />
<glyph unicode="&#x2001;" horiz-adv-x="1958" />
<glyph unicode="&#x2002;" horiz-adv-x="979" />
<glyph unicode="&#x2003;" horiz-adv-x="1958" />
<glyph unicode="&#x2004;" horiz-adv-x="652" />
<glyph unicode="&#x2005;" horiz-adv-x="489" />
<glyph unicode="&#x2006;" horiz-adv-x="326" />
<glyph unicode="&#x2007;" horiz-adv-x="326" />
<glyph unicode="&#x2008;" horiz-adv-x="244" />
<glyph unicode="&#x2009;" horiz-adv-x="391" />
<glyph unicode="&#x200a;" horiz-adv-x="108" />
<glyph unicode="&#x2010;" horiz-adv-x="860" d="M-18 502l22 153h635l-23 -153h-634z" />
<glyph unicode="&#x2011;" horiz-adv-x="860" d="M-18 502l22 153h635l-23 -153h-634z" />
<glyph unicode="&#x2012;" horiz-adv-x="860" d="M-18 502l22 153h635l-23 -153h-634z" />
<glyph unicode="&#x2013;" horiz-adv-x="962" d="M-70 502l19 131h839l-18 -131h-840z" />
<glyph unicode="&#x2014;" horiz-adv-x="1617" d="M-70 502l19 133h1495l-19 -133h-1495z" />
<glyph unicode="&#x2018;" horiz-adv-x="479" d="M72 1217q32 223 204 421l91 -28q-93 -127 -131 -258q37 -13 75.5 -58.5t34.5 -76.5q-4 -35 -62.5 -86.5t-93.5 -51.5t-79 51.5t-39 86.5z" />
<glyph unicode="&#x2019;" horiz-adv-x="479" d="M92 1108q92 130 129 260q-37 13 -75.5 58t-32.5 75q4 35 62 86t93 51t79.5 -51t39.5 -86q-31 -219 -205 -422z" />
<glyph unicode="&#x201a;" horiz-adv-x="477" d="M-61 -276q92 130 129 260q-37 13 -76 58t-33 75q4 35 62.5 86t93.5 51t79 -51t39 -86q-31 -221 -204 -422z" />
<glyph unicode="&#x201c;" horiz-adv-x="847" d="M72 1217q32 223 204 421l91 -28q-93 -127 -131 -258q37 -13 75.5 -58.5t34.5 -76.5q-4 -35 -62.5 -86.5t-93.5 -51.5t-79 51.5t-39 86.5zM440 1217q32 222 205 421l90 -28q-93 -127 -131 -258q37 -13 76 -58.5t35 -76.5q-4 -35 -62.5 -86.5t-93.5 -51.5t-79.5 51.5 t-39.5 86.5z" />
<glyph unicode="&#x201d;" horiz-adv-x="856" d="M92 1108q92 130 129 260q-37 13 -75.5 58t-32.5 75q4 35 62 86t93 51t79.5 -51t39.5 -86q-31 -219 -205 -422zM469 1108q92 130 129 260q-37 13 -76 58t-33 75q4 35 62.5 86t93.5 51t79.5 -51t39.5 -86q-31 -219 -205 -422z" />
<glyph unicode="&#x201e;" horiz-adv-x="856" d="M-61 -276q92 130 129 260q-37 13 -76 58t-33 75q4 35 62.5 86t93.5 51t79 -51t39 -86q-31 -221 -204 -422zM315 -276q92 130 129 260q-37 13 -75.5 58t-32.5 75q4 35 62.5 86t93.5 51t79 -51t39 -86q-31 -221 -204 -422z" />
<glyph unicode="&#x2026;" horiz-adv-x="1437" d="M-41 117q4 35 62.5 86t93.5 51t79 -51t39 -86q-6 -35 -64 -86t-93 -51t-79 51t-38 86zM438 117q4 35 62.5 86t93.5 51t79.5 -51t39.5 -86q-6 -35 -64.5 -86t-93.5 -51t-79 51t-38 86zM915 117q4 35 62.5 86t93.5 51t79.5 -51t39.5 -86q-6 -35 -64.5 -86t-93.5 -51t-79 51 t-38 86z" />
<glyph unicode="&#x202f;" horiz-adv-x="391" />
<glyph unicode="&#x2039;" horiz-adv-x="733" d="M-41 492l10 67l8 66l584 399l-22 -170l-428 -283l-43 -10v-4l38 -10l351 -283l-27 -170z" />
<glyph unicode="&#x203a;" horiz-adv-x="733" d="M-74 94l23 170l428 283l43 10v4l-39 10l-350 283l26 170l469 -399l-8 -66l-10 -67z" />
<glyph unicode="&#x205f;" horiz-adv-x="489" />
<glyph unicode="&#x20ac;" horiz-adv-x="1253" d="M-135 471l59 133h166q2 14 5 41.5t5 40.5l13 72h-207l59 133h180q34 109 85.5 195.5t111.5 143t131.5 94t142.5 53.5t146 16q185 0 350 -90l-37 -312q-70 -11 -133 0l4 209q-95 39 -205 39q-299 0 -411 -348h577l-59 -133h-551l-12 -72q-6 -46 -9 -82h533l-59 -133h-476 q13 -170 97 -254t215 -84q185 0 377 113l-25 -176q-187 -90 -375 -90q-75 0 -140.5 15.5t-126 52.5t-104.5 92.5t-72 140t-32 190.5h-223z" />
<glyph unicode="&#x2122;" horiz-adv-x="3192" d="M-14 1040l47 332h1095l-47 -332q-67 -11 -133 0l8 179h-311l-151 -1086l149 -20q3 -47 -14 -113h-482q-3 54 15 113l157 20l152 1086h-311l-41 -179q-67 -11 -133 0zM1032 0q-3 54 15 113l153 20l336 1108l-131 19q-3 50 16 112h385l215 -1177h4l9 81l514 1096h387 q0 -56 -17 -112l-135 -19l25 -1108l143 -20q3 -47 -14 -113h-481q-3 57 14 113l153 20l5 1004l20 82h-4l-549 -1158h-205l-209 1076l7 82h-5l-301 -1086l146 -20q3 -44 -15 -113h-481z" />
<glyph unicode="&#x25fc;" horiz-adv-x="1024" d="M0 0v1024h1024v-1024h-1024z" />
<glyph horiz-adv-x="565" d="M0 891q-3 57 14 113l291 20q13 -110 -2 -225l-82 -594l-12 -86l141 -6q3 -47 -14 -113l-281 -20q-13 110 2 225l72 512l23 168zM137 1341q4 34 60 83t90 49t75.5 -49t36.5 -83q-4 -34 -59.5 -82.5t-89.5 -48.5t-76 48.5t-37 82.5z" />
<glyph d="M8.5 352.5q-17.5 130.5 5.5 313.5q28 193 86 336.5t137 227t169 123.5t192 40q81 0 147.5 -24.5t121 -78.5t85.5 -139t40 -206t-15 -279q-25 -178 -81.5 -312.5t-135 -214.5t-169.5 -119.5t-192 -39.5t-180 38.5t-136 121t-74.5 213zM199 666q-37 -259 21.5 -396 t201.5 -137t238.5 136.5t132.5 396.5q41 288 -14.5 430.5t-200.5 142.5t-241.5 -143t-137.5 -430z" />
<glyph d="M106 0q-3 54 15 113l258 20l151 1075l-258 -20l21 143l332 41h102l-174 -1239l244 -20q3 -44 -15 -113h-676z" />
<glyph d="M-16 0l14 102q409 358 575.5 562.5t190.5 369.5q13 106 -41 155.5t-178 49.5q-90 0 -193 -35l-51 -213q-70 -11 -133 0l43 312q91 44 175.5 67t199.5 23q205 0 296.5 -86t65.5 -273q-26 -179 -177 -372.5t-490 -487.5l-45 -16v-4h458l41 178q70 11 133 0l-45 -332h-839z " />
<glyph d="M0 49l25 176q131 -92 309 -92q152 0 241.5 63t106.5 185q21 147 -69.5 205.5t-293.5 58.5h-36l41 143h16q173 0 272.5 63t114.5 173q14 103 -35.5 159t-181.5 56q-78 0 -172 -33l-51 -215q-70 -11 -133 0l18 135l25 177q91 44 172 67t182 23q198 0 291.5 -98t68.5 -271 q-9 -61 -40 -117t-70 -93t-76.5 -60t-65.5 -29v-4q24 -5 50.5 -17t60.5 -38.5t58 -62.5t36 -94t2 -128q-27 -188 -178 -294.5t-356 -106.5q-110 0 -187 16t-145 53z" />
<glyph d="M-70 502l701 870h78l-17 -108h-4l-37 -82l-522 -656l-2 -4h463l119 850h174l-119 -850h172l-31 -153h-164l-32 -236l149 -20q3 -47 -14 -113h-482q-3 54 15 113l158 20l32 236h-614z" />
<glyph d="M-20 49l24 176q62 -43 151.5 -67.5t178.5 -24.5q158 0 256 70.5t119 218.5q15 121 -49 186.5t-211 65.5q-190 0 -359 -49l189 747h675l-45 -311q-66 -11 -133 0l8 158h-370l-107 -406q103 21 187 21q94 0 170.5 -22.5t134.5 -70t83.5 -129t10.5 -190.5 q-13 -88 -50 -161.5t-90.5 -124.5t-122 -86.5t-143.5 -52.5t-155 -17q-225 0 -352 69z" />
<glyph d="M15.5 349q-11.5 101 9.5 235q36 260 163 444t320 274.5t438 90.5l-20 -154q-259 0 -441 -136.5t-254 -371.5q145 143 357 143q57 0 108.5 -14t101 -46.5t80.5 -84.5t46.5 -128.5t-0.5 -178.5q-16 -109 -64 -195t-118.5 -139t-154.5 -80.5t-177 -27.5q-81 0 -146.5 19.5 t-120 63.5t-85.5 114.5t-42.5 171.5zM205 545q-47 -412 227 -412q126 0 206 70.5t101 218.5q19 142 -43.5 217.5t-173.5 75.5q-81 0 -167 -39.5t-150 -130.5z" />
<glyph d="M109 1040l47 332h880l-14 -102l-723 -1290l-170 20l682 1198l43 16v5h-571l-41 -179q-67 -11 -133 0z" />
<glyph d="M-6 371q9 67 40 124.5t67 94t82 66t76 43t58 22.5v4q-22 9 -46.5 24t-53 43t-49.5 61t-32 81t-3 100q15 111 84 194t168 124t213 41q176 0 282.5 -96.5t84.5 -262.5q-9 -65 -43 -121.5t-78.5 -93.5t-83 -60t-70.5 -34v-4q26 -9 52.5 -22.5t64 -43t63.5 -66t40 -94 t5 -124.5q-11 -82 -47 -148.5t-86.5 -111t-115 -74.5t-131 -43.5t-136.5 -13.5t-132.5 13.5t-118 43.5t-93.5 74.5t-55 111t-6 148.5zM178 371q-7 -51 2.5 -91.5t31.5 -67.5t55.5 -45t72 -26t82.5 -8q119 0 205 58t104 180q16 107 -54.5 177.5t-182.5 96.5 q-119 -26 -209.5 -96.5t-106.5 -177.5zM313 1034q-30 -199 199 -252q242 53 272 252q12 96 -43 150.5t-163 54.5q-109 0 -181 -54.5t-84 -150.5z" />
<glyph d="M51 -20l23 153q259 0 439.5 136.5t254.5 371.5q-145 -143 -356 -143q-57 0 -109 14t-101.5 46.5t-80.5 84.5t-46 128.5t1 178.5q15 109 63 195.5t118 139.5t154 80.5t177 27.5q81 0 147 -20t120.5 -64t85.5 -114t43 -171.5t-9 -235.5q-37 -260 -164.5 -443.5t-321 -274 t-438.5 -90.5zM260 950q-21 -142 42.5 -217.5t174.5 -75.5q81 0 168 40.5t152 133.5q44 408 -230 408q-126 0 -206 -70.5t-101 -218.5z" />
<glyph horiz-adv-x="555" d="M63 1602l424 253l56 -131l-445 -208z" />
<glyph horiz-adv-x="444" d="M-225 -461l14 96q36 -8 92 -8q75 0 113 19t45 67q5 40 -29 64.5t-127 38.5l76 184h104l-53 -127q81 -10 121 -53t31 -105q-12 -88 -89.5 -136t-211.5 -48q-47 0 -86 8z" />
<glyph horiz-adv-x="692" d="M55 1599l346 265l273 -265l-72 -83l-225 184l-275 -184z" />
<glyph horiz-adv-x="970" d="M184 1638q5 31 54.5 75t80.5 44t68.5 -44t34.5 -75q-5 -31 -54.5 -74.5t-80.5 -43.5t-69 43.5t-34 74.5zM598 1638q5 31 54.5 75t80.5 44t68.5 -44t34.5 -75q-4 -31 -54.5 -74.5t-81.5 -43.5t-68.5 43.5t-33.5 74.5z" />
<glyph horiz-adv-x="555" d="M82 1724l92 131l352 -253l-57 -86z" />
<glyph horiz-adv-x="565" d="M92 1737q13 91 88 156t166 65t146.5 -65t42.5 -156q-12 -91 -86.5 -156t-165.5 -65t-147 65t-44 156zM215 1737q-5 -44 18.5 -74.5t65.5 -30.5t75 31t38 74q6 44 -17 74t-65 30t-75.5 -30.5t-39.5 -73.5z" />
<glyph horiz-adv-x="866" d="M131 1516q27 104 88.5 161.5t140.5 57.5q49 0 89 -20t71.5 -40t59.5 -20q69 0 104 80h98q-54 -219 -219 -219q-50 0 -87 20t-67.5 39.5t-64.5 19.5q-80 0 -115 -79h-98z" />
</font>
</defs>
</svg>
