<?xml version="1.0" standalone="no"?>
<!DOCTYPE svg PUBLIC "-//W3C//DTD SVG 1.1//EN" "http://www.w3.org/Graphics/SVG/1.1/DTD/svg11.dtd" >
<svg xmlns="http://www.w3.org/2000/svg">
<metadata></metadata>
<defs>
<font id="adagio_slabsemibold_italic" horiz-adv-x="1228" >
<font-face units-per-em="2048" ascent="1638" descent="-410" />
<missing-glyph horiz-adv-x="436" />
<glyph unicode="&#xfb01;" horiz-adv-x="1507" d="M-199 -303q109 42 161 112t67 191l112 805h-153l28 199h154l18 133q28 194 151.5 296.5t299.5 102.5q129 0 223 -55l-28 -209q-86 65 -179 65q-35 0 -64 -9.5t-58.5 -33.5t-50.5 -72.5t-31 -119.5l-15 -98h307l-28 -199h-307l-107 -774q-33 -234 -144.5 -354.5 t-349.5 -157.5zM840 836q-3 84 22 168l377 20q13 -110 -2 -225l-82 -594l-4 -31l131 -4q4 -82 -22 -170l-373 -20q-13 110 2 225l78 553l8 71zM997 1341q6 43 80 107.5t117 64.5t98 -64.5t49 -107.5t-78.5 -107.5t-115.5 -64.5t-99.5 64.5t-50.5 107.5z" />
<glyph unicode="&#xfb02;" horiz-adv-x="1495" d="M-199 -303q109 42 161 112t67 191l112 805h-153l28 199h154l18 133q28 194 151.5 296.5t299.5 102.5q129 0 223 -55l-28 -209q-86 65 -179 65q-35 0 -64 -9.5t-58.5 -33.5t-50.5 -72.5t-31 -119.5l-15 -98h307l-28 -199h-307l-107 -774q-33 -234 -144.5 -354.5 t-349.5 -157.5zM874 -20q-13 107 3 225l143 1024l16 112l-137 7q0 95 25 168l374 20q14 -118 0 -225l-155 -1106l-4 -31l131 -4q3 -79 -23 -170z" />
<glyph horiz-adv-x="0" />
<glyph horiz-adv-x="682" />
<glyph unicode=" "  horiz-adv-x="436" />
<glyph unicode="&#x09;" horiz-adv-x="436" />
<glyph unicode="&#xa0;" horiz-adv-x="436" />
<glyph unicode="!" horiz-adv-x="497" d="M-104 152q6 42 80 107t116 65q43 0 99 -64.5t51 -107.5q-6 -41 -81 -106.5t-116 -65.5q-43 0 -99 65.5t-50 106.5zM14 449l54 667l36 256h277l-37 -256l-135 -667h-195z" />
<glyph unicode="&#x22;" horiz-adv-x="774" d="M109 948l4 486h215l-72 -486h-147zM442 948l4 486h216l-72 -486h-148z" />
<glyph unicode="#" horiz-adv-x="1312" d="M-160 297l31 225h205l88 307h-187l33 226h219l93 317h249l-92 -317h365l92 317h250l-92 -317h166l-31 -226h-201l-90 -307h186l-32 -225h-220l-84 -297h-249l86 297h-367l-84 -297h-250l86 297h-170zM324 522h366l88 307h-364z" />
<glyph unicode="$" horiz-adv-x="1069" d="M-80 70l49 342q37 6 93.5 6t91.5 -6l-7 -185q74 -22 160 -22q100 0 163 43.5t75 122.5q7 54 -20 94.5t-76 68t-109 53t-119 58t-105.5 75t-69 112.5t-9.5 161q19 146 111 247t247 136l29 201h276l-26 -195q99 -17 211 -79l-49 -342q-37 -6 -93.5 -6t-91.5 6l6 186 q-68 20 -133 20q-96 0 -147.5 -37t-61.5 -116q-7 -50 20.5 -88.5t76.5 -65.5t109 -54t119 -62t105 -79.5t68.5 -117.5t9.5 -166q-20 -144 -110 -240t-234 -135l-26 -190h-277l25 168q-144 12 -281 86z" />
<glyph unicode="%" horiz-adv-x="1814" d="M27 1036q23 167 129 262t266 95t240 -95t57 -262q-25 -167 -131 -261.5t-266 -94.5q-161 0 -240.5 95t-54.5 261zM96 66l1334 1433l139 -131l-1336 -1434zM251 950.5q3 -40.5 28 -68.5t69 -28q64 0 99.5 53t46.5 129q4 45 1.5 85.5t-27.5 69t-69 28.5q-64 0 -100 -53.5 t-47 -129.5q-4 -45 -1 -85.5zM887 336q23 167 129 261.5t266 94.5t240 -94.5t57 -261.5q-25 -167 -131 -263t-266 -96t-240 96t-55 263zM1111 250.5q3 -40.5 28 -68.5t69 -28q64 0 99.5 53t46.5 129q4 45 1.5 85.5t-27 68.5t-68.5 28q-65 0 -101 -53.5t-47 -128.5 q-4 -45 -1 -85.5z" />
<glyph unicode="&#x26;" horiz-adv-x="1306" d="M-74 371q33 224 252 383q-72 141 -55 260q24 172 156 275.5t352 103.5q94 0 166.5 -23t152.5 -67l-49 -342q-37 -6 -93 -6t-91 6l6 188q-59 18 -123 18q-179 0 -197 -143q-13 -93 65.5 -217.5t293.5 -353.5q48 92 67 223h263q-29 -225 -160 -402q45 -47 145 -147 l-18 -127h-221l-90 94q-168 -114 -369 -114q-85 0 -158.5 15.5t-133 47t-99 77.5t-56.5 110t-6 141zM213 391q-13 -90 40.5 -138t158.5 -48q91 0 178 49q-189 195 -285 315q-81 -81 -92 -178z" />
<glyph unicode="'" horiz-adv-x="440" d="M109 948l4 486h215l-72 -486h-147z" />
<glyph unicode="(" horiz-adv-x="610" d="M-31 711q37 255 148.5 520t277.5 489l211 -20q-290 -499 -358 -989q-68 -497 80 -990l-217 -20q-216 471 -142 1010z" />
<glyph unicode=")" horiz-adv-x="610" d="M-190 -279q290 492 358 990q35 262 13 509.5t-93 479.5l219 20q101 -224 137.5 -489t1.5 -520q-74 -538 -423 -1010z" />
<glyph unicode="*" horiz-adv-x="989" d="M-2 1057l88 176l301 -154l-57 -112zM70 688l260 279l90 -64l-207 -315zM387 1079l14 355h187l-84 -355h-117zM420 903l108 64l181 -279l-168 -100zM504 1079l342 154l41 -176l-359 -90z" />
<glyph unicode="+" horiz-adv-x="1024" d="M-86 539l29 194h379l55 379h194l-55 -379h379l-27 -194h-379l-53 -379h-194l53 379h-381z" />
<glyph unicode="," horiz-adv-x="503" d="M-66 160q3 28 41.5 71.5t87 76t76.5 32.5q44 0 103 -68t53 -112q-36 -239 -203 -463l-141 31q79 133 112 260q-46 21 -90.5 78t-38.5 94z" />
<glyph unicode="-" horiz-adv-x="890" d="M-29 467l33 225h676l-33 -225h-676z" />
<glyph unicode="." horiz-adv-x="503" d="M-66 160q3 28 41.5 71.5t87 76t76.5 32.5q44 0 103 -68t53 -112t-84.5 -112t-122.5 -68t-102.5 68t-51.5 112z" />
<glyph unicode="/" horiz-adv-x="935" d="M-174 -164l852 1680h235l-852 -1680h-235z" />
<glyph unicode="0" horiz-adv-x="1249" d="M-15 403q-14 114 9 263q23 158 69 283t106 207t135 136.5t152 77.5t162 23q70 0 131 -16.5t116 -52t94 -92t65 -137.5t28.5 -187.5t-14.5 -241.5q-20 -146 -65 -263t-104.5 -195t-134 -130t-152.5 -75t-162 -23t-155.5 23.5t-132 74t-97 131t-50.5 194.5zM281 666 q-31 -222 14 -341.5t158 -119.5t190.5 119.5t108.5 341.5q36 250 -7 375.5t-157 125.5t-192.5 -125.5t-114.5 -375.5z" />
<glyph unicode="1" horiz-adv-x="876" d="M31 0q0 96 22 170l142 20l135 953l-240 -21l29 209l360 41h160l-168 -1184l131 -18q3 -72 -22 -170h-549z" />
<glyph unicode="2" horiz-adv-x="1118" d="M-109 0l19 139q370 323 531.5 525.5t179.5 339.5q12 84 -33 123.5t-146 39.5q-74 0 -141 -18l-45 -188q-37 -6 -93 -6t-91 6l47 342q89 43 181 66.5t214 23.5q228 0 323 -90.5t70 -268.5q-24 -166 -155.5 -347t-421.5 -439l-45 -19v-4h331l33 137q37 6 93.5 6t91.5 -6 l-50 -362h-893z" />
<glyph unicode="3" horiz-adv-x="1105" d="M-61 49l34 248q131 -92 320 -92q241 0 268 186q15 114 -58 160.5t-241 46.5h-37l51 219h17q147 0 230 48.5t95 133.5q11 80 -30 124t-150 44q-55 0 -121 -16l-45 -190q-37 -6 -93 -6t-91 6l47 342q187 90 375 90q206 0 307 -98t76 -271q-10 -67 -40.5 -124.5t-70 -93 t-79 -56.5t-74.5 -27v-4q28 -5 58 -17.5t63.5 -39t58 -62.5t36 -93.5t1.5 -125.5q-27 -194 -178.5 -297.5t-366.5 -103.5q-126 0 -210 16t-152 53z" />
<glyph unicode="4" horiz-adv-x="1187" d="M-55 532l604 840h127l-23 -153h-4l-35 -93l-385 -548l-2 -5h334l80 553l35 246h276l-112 -799h155l-41 -225h-147l-23 -160l131 -18q3 -72 -22 -170h-549q0 93 23 170l141 20l22 158h-561z" />
<glyph unicode="5" horiz-adv-x="1157" d="M-51 49l35 248q61 -43 155.5 -67.5t184.5 -24.5q127 0 202 55t90 162q12 99 -39.5 153t-173.5 54q-176 0 -364 -49l194 792h752l-49 -342q-35 -6 -91 -6t-93 6l4 117h-320l-80 -311q86 8 140 8q75 0 139.5 -14t120.5 -46.5t92.5 -80t52 -120t2.5 -161.5 q-15 -106 -68 -191.5t-131 -139.5t-173.5 -82.5t-198.5 -28.5q-256 0 -383 69z" />
<glyph unicode="6" horiz-adv-x="1183" d="M-16.5 380q-3.5 89 10.5 204q23 165 84.5 299.5t150.5 228t205 157.5t246.5 94t275.5 30l-30 -226q-232 0 -391.5 -108.5t-229.5 -304.5q139 120 316 120q54 0 104.5 -12t99 -43.5t81 -79t46.5 -124t0 -173.5q-16 -113 -68 -203.5t-126.5 -145.5t-161.5 -84t-180 -29 q-70 0 -130 13t-115 41.5t-93 75t-64.5 114t-30 156.5zM272 516q-12 -160 32 -235.5t145 -75.5q96 0 156 59.5t75 167.5q14 109 -32.5 165t-133.5 56q-58 0 -123 -31.5t-119 -105.5z" />
<glyph unicode="7" horiz-adv-x="1034" d="M-6 0l629 1126l43 17v4h-437l-32 -137q-37 -6 -93.5 -6t-91.5 6l51 362h912l-19 -137l-675 -1255z" />
<glyph unicode="8" horiz-adv-x="1224" d="M-33 371q12 79 49.5 144.5t87.5 106t90.5 63.5t77.5 36v4q-189 103 -159 309q15 111 88 194t178.5 124t226.5 41q188 0 304 -96.5t94 -262.5q-8 -53 -29 -99.5t-47 -78.5t-59.5 -59.5t-60 -43t-54.5 -28.5v-4q25 -10 51.5 -25t59 -45t55.5 -67t35 -93t3 -120 q-14 -101 -69 -179t-134 -122.5t-167 -67t-180 -22.5q-72 0 -139 13.5t-128 43.5t-103 74.5t-62 111.5t-9 148zM260 397q-13 -93 38 -142.5t142 -49.5q92 0 157.5 49.5t78.5 142.5q12 84 -37 138t-141 75q-98 -21 -162.5 -75t-75.5 -138zM371 1008q-23 -161 153 -201 q188 39 211 201q10 73 -33 116t-127 43q-83 0 -138.5 -43t-65.5 -116z" />
<glyph unicode="9" horiz-adv-x="1183" d="M16 -20l33 225q231 0 389 108t230 305q-135 -120 -314 -120q-45 0 -87 9t-85 29t-75.5 53t-57.5 81t-30.5 112t4.5 148q16 114 67.5 204.5t125.5 146t161 84t180 28.5q70 0 130 -13t114.5 -42t93 -75.5t65 -113.5t30.5 -156.5t-9 -204.5q-23 -165 -85 -299t-151.5 -228 t-205.5 -157.5t-247 -93.5t-276 -30zM295 940q-17 -108 30 -164.5t134 -56.5q58 0 122.5 32t118.5 107q26 309 -174 309q-96 0 -156 -59.5t-75 -167.5z" />
<glyph unicode=":" horiz-adv-x="544" d="M-106 160q4 44 81.5 112t122.5 68q44 0 103 -68t53 -112t-84.5 -112t-122.5 -68t-102 68t-51 112zM-14 823q6 44 84.5 112.5t122.5 68.5t102 -68t53 -113q-8 -44 -85.5 -112t-121.5 -68t-102.5 68t-52.5 112z" />
<glyph unicode=";" horiz-adv-x="503" d="M-106 160q4 44 81.5 112t122.5 68q44 0 103 -68t53 -112q-30 -231 -203 -463l-141 31q81 136 113 260q-46 21 -90.5 78t-38.5 94zM-14 823q6 44 84.5 112.5t122.5 68.5t102 -68t53 -113q-8 -44 -85.5 -112t-121.5 -68t-102.5 68t-52.5 112z" />
<glyph unicode="&#x3c;" horiz-adv-x="978" d="M-55 539l14 98l14 96l867 369l-37 -273l-580 -180l-43 -10v-4l39 -10l529 -181l-39 -272z" />
<glyph unicode="=" horiz-adv-x="1034" d="M-92 354l29 195h913l-29 -195h-913zM-39 723l27 195h913l-29 -195h-911z" />
<glyph unicode="&#x3e;" horiz-adv-x="978" d="M-84 172l37 272l577 181l43 10v4l-38 10l-527 180l41 273l760 -369l-14 -96l-13 -98z" />
<glyph unicode="?" horiz-adv-x="1009" d="M39 1055l35 248q89 43 181 66.5t214 23.5q226 0 322.5 -87t72.5 -251q-9 -63 -44.5 -121t-82.5 -99.5t-101.5 -87.5t-101 -86.5t-81.5 -96t-43 -115.5h-195q9 67 32.5 124t54.5 98t66.5 77.5t70 68t64 62t50.5 67.5t27 78q9 69 -37.5 106t-145.5 37q-168 0 -358 -112z M98 152q4 42 78.5 107t116.5 65q43 0 98.5 -64.5t50.5 -107.5q-6 -41 -80.5 -106.5t-115.5 -65.5q-43 0 -98.5 65.5t-49.5 106.5z" />
<glyph unicode="@" horiz-adv-x="2125" d="M-31 492q28 199 125 372.5t243 299.5t342 198t415 72q217 0 383.5 -67.5t264 -183t137.5 -267t17 -322.5q-19 -140 -69 -250t-121 -180.5t-159 -107t-187 -36.5q-210 0 -285 103q-147 -103 -284 -103q-163 0 -249.5 129t-54.5 347q31 224 163.5 348.5t346.5 124.5 q85 0 192 -25t189 -76l-73 -524q-9 -71 10.5 -109t85.5 -38q182 0 239 397q7 67 8 133t-15.5 129.5t-43 119.5t-74.5 104t-109 82t-148 53.5t-191 19.5q-328 0 -556 -202.5t-275 -540.5q-23 -168 10 -304t115 -228t209 -141.5t290 -49.5q290 0 498 69l-27 -188 q-240 -80 -497 -80q-219 0 -395.5 69t-288 191t-160 292.5t-21.5 369.5zM745 496q-43 -287 146 -287q75 0 151 43q0 2 2 4l70 506q-64 20 -133 20q-196 0 -236 -286z" />
<glyph unicode="A" horiz-adv-x="1490" d="M-188 0v18q0 77 22 152l152 20h2l499 1000l-112 14q0 86 24 168h527l252 -1184l125 -18v-14q0 -64 -23 -156h-559q0 96 22 170l140 18l-41 211h-475l-99 -211l125 -18q0 -8 1 -16q0 -67 -23 -154h-559zM473 625h326l-86 450l26 103h-4z" />
<glyph unicode="B" horiz-adv-x="1275" d="M-133 0v18q0 77 22 152l142 20l141 994l-137 20q0 86 24 168h140q73 0 213 10.5t213 10.5q231 -1 348 -99q96 -81 96 -212q0 -28 -4 -58q-10 -69 -40.5 -127t-71 -93.5t-80 -56t-74.5 -26.5v-4q28 -5 59 -17.5t68 -39.5t64 -62.5t41 -92.5q9 -35 8 -73q0 -25 -3 -51 q-19 -136 -105.5 -228t-213.5 -132.5t-291 -40.5q-72 0 -210 10t-210 10h-139zM311 209q94 -4 148 -4q266 0 293 196q2 17 2 33q0 76 -55 112q-67 44 -189 44h-145zM395 815h146q103 0 170.5 49.5t79.5 134.5q2 14 2 27q-1 59 -41 96q-50 45 -158 45q-52 0 -150 -4z" />
<glyph unicode="C" horiz-adv-x="1269" d="M-18 686q22 154 80 276.5t136.5 201.5t177.5 132t198 75t204 22q216 0 381 -90l-49 -342q-37 -6 -93 -6t-91 6l6 180q-86 26 -184 26q-189 0 -317 -121.5t-161 -359.5q-8 -58 -9 -110q0 -55 10 -103q18 -93 66 -151t117.5 -87.5t157.5 -29.5q110 0 218 32t190 80 l-35 -247q-187 -90 -405 -90q-105 0 -198.5 22t-178 74.5t-140.5 131.5q-55 79 -79 202q-12 64 -13 135q0 67 11 141z" />
<glyph unicode="D" horiz-adv-x="1470" d="M-133 0v18q0 77 22 152l142 20l141 994l-137 20q0 86 24 168h140q46 1 205 11t272 10q105 0 198 -22t177.5 -75t140.5 -132q56 -80 80 -202q12 -65 12 -138q0 -66 -10 -138q-22 -154 -80.5 -276.5t-136.5 -201.5t-177.5 -131.5t-198.5 -74.5t-204 -22t-255 10t-216 10 h-139zM311 209q114 -4 199 -4q182 0 312.5 122.5t164.5 358.5q8 59 8 111q0 155 -72 247q-96 122 -278 123q-83 0 -201 -4z" />
<glyph unicode="E" horiz-adv-x="1132" d="M-133 0v18q0 77 22 152l142 20l141 994l-137 20q0 86 24 168h959l-51 -362q-37 -6 -93.5 -6t-91.5 6l4 137h-344l-49 -346l398 14l-31 -225l-393 12l-54 -377h381l33 137q37 6 93 6t91 -6l-51 -362h-993z" />
<glyph unicode="F" horiz-adv-x="1056" d="M-133 0v18q0 77 22 152l142 20l141 994l-137 20q0 86 24 168h959l-51 -362q-37 -6 -93.5 -6t-91.5 6l4 137h-344l-51 -367l397 15l-32 -226l-394 13l-55 -392l213 -20v-16q0 -67 -22 -154h-631z" />
<glyph unicode="G" horiz-adv-x="1361" d="M-18 686q22 154 80 276.5t136.5 201.5t177.5 132t198 75t204 22q237 0 402 -90l-50 -342q-37 -6 -93 -6t-91 6l6 178q-89 28 -204 28q-189 0 -317 -121.5t-161 -359.5q-8 -58 -8 -110q0 -55 9 -103q18 -93 66 -151t117.5 -87.5t157.5 -29.5q89 0 189 14l45 320h-203 l47 225h455l-98 -694q-187 -90 -467 -90q-105 0 -198.5 22t-178 74.5t-140.5 131.5t-79 202q-13 64 -13 135q0 67 11 141z" />
<glyph unicode="H" horiz-adv-x="1593" d="M-133 0v18q0 77 22 152l142 20l141 994l-137 20q0 86 24 168h549q0 -87 -24 -168l-135 -20l-54 -369h635l53 369l-137 20q0 82 25 168h549q0 -84 -25 -168l-135 -20l-141 -994l131 -20v-14q0 -64 -23 -156h-549q0 93 23 170l141 20l57 400h-634l-58 -400l131 -20 q0 -8 1 -16q0 -67 -23 -154h-549z" />
<glyph unicode="I" horiz-adv-x="702" d="M-123 0v17q0 75 23 153l141 20l141 994l-137 20q0 82 25 168h548q0 -87 -24 -168l-135 -20l-142 -994l132 -20q0 -7 1 -14q0 -64 -24 -156h-549z" />
<glyph unicode="J" horiz-adv-x="720" d="M-190 -160q132 49 187 117.5t71 185.5l147 1041l-137 20q0 86 24 168h549q0 -87 -24 -168l-135 -20l-140 -989q-16 -115 -50 -199.5t-95.5 -153.5t-158 -113t-232.5 -67z" />
<glyph unicode="K" horiz-adv-x="1357" d="M-133 0v18q0 77 22 152l142 20l141 994l-137 20q0 86 24 168h549q0 -87 -24 -168l-135 -20l-142 -994l131 -20q0 -8 1 -16q0 -67 -23 -154h-549zM432 715l438 473l-96 16q0 82 25 168h526q0 -95 -25 -168l-153 -18l-418 -459l-53 -10v-4l51 -11l299 -514l162 -18v-16 q0 -72 -23 -154h-360z" />
<glyph unicode="L" horiz-adv-x="1091" d="M-133 0v18q0 77 22 152l142 20l141 994l-137 20q0 86 24 168h549q0 -87 -24 -168l-135 -20l-136 -959h365l33 137q37 6 93 6t91 -6l-49 -362h-979z" />
<glyph unicode="M" horiz-adv-x="2064" d="M-154 0v17q0 75 23 153l143 18l305 1000l-116 16q0 86 24 168h527l125 -1136h4l12 102l407 1034h529q0 -84 -25 -168l-121 -16l25 -1000l133 -18v-16q0 -67 -22 -154h-559q0 96 22 170l133 18l17 867l22 112h-4l-444 -1126h-332l-121 1014l12 112h-4l-256 -979l123 -18 q0 -8 1 -16q0 -67 -23 -154h-560z" />
<glyph unicode="N" horiz-adv-x="1615" d="M-102 0q0 96 22 170l143 20l140 994l-135 20v15q0 69 24 153h486l403 -942l6 -113h4l123 867l-135 20v14q0 67 25 154h546q0 -98 -24 -168l-135 -20l-166 -1184h-344l-410 940l-8 102h-4l-119 -852l129 -20v-16q0 -72 -23 -154h-548z" />
<glyph unicode="O" horiz-adv-x="1566" d="M-18 686q22 154 80 276.5t136.5 201.5t177.5 132t198 75t204 22t198 -22t177.5 -75t140.5 -132q56 -80 80 -202q12 -65 12 -138q0 -66 -10 -138q-22 -154 -80 -276.5t-136.5 -201.5t-177.5 -131.5t-198 -74.5t-204 -22t-198.5 22t-178 74.5t-140.5 131.5q-55 79 -79 202 q-12 64 -13 135q0 67 11 141zM270 686q-8 -58 -9 -110q0 -55 10 -103q18 -93 66 -151t117.5 -87.5t157.5 -29.5q182 0 313 122.5t165 358.5q8 59 8 111q0 155 -72 247q-96 122 -278 123q-88 0 -166 -29.5t-142.5 -87.5t-109 -151t-60.5 -213z" />
<glyph unicode="P" horiz-adv-x="1183" d="M-139 0q0 96 22 170l144 20l139 994l-135 20v15q0 69 24 153h138q73 0 212.5 10.5t212.5 10.5q230 -1 350 -109q96 -87 97 -235q0 -36 -6 -76q-29 -199 -178 -306.5t-379 -107.5q-99 0 -148 2l-51 -371l211 -20q1 -11 1 -22q0 -72 -23 -148h-631zM387 786q47 -2 148 -2 q106 0 170 47.5t77 141.5q3 21 3 39q0 155 -197 155q-54 0 -148 -4z" />
<glyph unicode="Q" horiz-adv-x="1546" d="M-29 686q22 154 80.5 276.5t136.5 201.5t177 132t198.5 75t204.5 22t198 -22t177.5 -75t140.5 -132t80 -202q12 -64 12 -138q0 -65 -10 -138q-60 -404 -348 -584l166 -307h-312l-98 207q-107 -22 -205 -22q-105 0 -198.5 22t-178 74.5t-140.5 131.5t-80 202 q-12 64 -12 135q0 67 11 141zM260 686q-8 -58 -8 -110q0 -55 9 -103q18 -93 66 -151t117.5 -87.5t157.5 -29.5q182 0 312.5 122.5t164.5 358.5q8 59 8 111q0 156 -72 247q-96 123 -278 123q-88 0 -166 -29.5t-142 -87.5t-108.5 -151t-60.5 -213z" />
<glyph unicode="R" horiz-adv-x="1296" d="M-139 0q0 96 22 170l144 20l139 994l-135 20v15q0 69 24 153h138q73 0 212.5 10.5t212.5 10.5q221 0 337 -109q93 -87 93 -234q0 -37 -6 -77q-18 -132 -96 -226t-201 -139l203 -422l2 4l162 -20q1 -11 1 -22q0 -72 -23 -148h-367l-252 569q-78 0 -115 2l-53 -381l129 -20 q1 -11 1 -22q0 -72 -23 -148h-549zM387 797q47 -2 148 -2q96 0 157.5 46t73.5 132q3 21 3 40q0 67 -37 105q-47 48 -144 49q-54 0 -148 -4z" />
<glyph unicode="S" horiz-adv-x="1079" d="M-76 70l49 342q38 6 95 6t92 -6l-8 -185q77 -22 161 -22q100 0 163 43.5t73 122.5q2 12 2 23q1 29 -11 54q-16 34 -47 58t-72.5 45t-88 42t-92.5 44t-86.5 55t-69.5 72t-41 98q-7 32 -7 68q0 30 5 63q26 181 159.5 290.5t358.5 109.5q100 0 175 -23t155 -67l-47 -342 q-37 -6 -93.5 -6t-91.5 6l7 186q-72 20 -136 20q-189 0 -206 -153l-2 -20q0 -38 22 -68q27 -38 76 -65.5t109 -54.5t118.5 -62t104.5 -80q48 -44 70 -117q14 -46 14 -101q0 -31 -5 -65q-27 -192 -174.5 -296.5t-373.5 -104.5q-188 0 -357 90z" />
<glyph unicode="T" horiz-adv-x="1224" d="M-29 1010l52 362h1163l-51 -362q-37 -6 -93.5 -6t-91.5 6l4 137h-241l-135 -957l131 -20v-14q0 -64 -23 -156h-549q0 93 23 170l141 20l135 957h-248l-32 -137q-37 -6 -93.5 -6t-91.5 6z" />
<glyph unicode="U" horiz-adv-x="1478" d="M8 1204v14q0 67 25 154h547q0 -95 -25 -168l-135 -20l-96 -682q-5 -38 -5 -72q0 -225 240 -225q277 0 318 297l96 682l-135 20v15q0 69 24 153h547q0 -95 -25 -168l-135 -20l-96 -692q-36 -251 -199 -381.5t-428 -130.5t-390 130q-97 101 -97 276q0 50 8 106l96 692z" />
<glyph unicode="V" horiz-adv-x="1470" d="M-6 1204v15q0 69 24 153h553q0 -87 -24 -168l-127 -20l164 -979h4l6 92l405 887l-122 20v15q0 69 24 153h535q0 -95 -25 -168l-131 -20l-573 -1184h-347l-235 1184z" />
<glyph unicode="W" horiz-adv-x="2076" d="M-16 1204v15q0 69 24 153h553q0 -87 -24 -168l-134 -20l80 -979h4l17 102l368 1045h330l66 -1147h4l18 102l322 879l-119 18q0 82 25 168h536q0 -87 -24 -168l-129 -20l-488 -1184h-338l-76 1047l21 120h-4l-408 -1167h-338l-153 1184z" />
<glyph unicode="X" horiz-adv-x="1361" d="M-162 0v17q0 75 23 153l137 18l367 525l41 10v4l-39 8l-205 449l-148 20q0 82 25 168h549q0 -95 -25 -168l-84 -14l131 -324h4l213 326l-86 12q0 82 25 168h532q0 -87 -24 -168l-152 -18l-327 -449l-37 -10v-4l35 -10l223 -525l131 -18q0 -8 1 -16q0 -72 -24 -154h-546 v18q0 77 22 152l94 12l-147 385h-4l-248 -381l115 -16q0 -7 1 -14q0 -64 -24 -156h-549z" />
<glyph unicode="Y" horiz-adv-x="1339" d="M-8 1204q0 79 26 168h549q0 -87 -24 -168l-105 -18l172 -555h4l-14 112l260 445l-104 16q0 86 24 168h533q0 -84 -25 -168l-153 -18l-453 -707l-41 -289l129 -20q1 -11 1 -22q0 -72 -23 -148h-547v18q0 77 22 152l142 20l41 289l-259 705z" />
<glyph unicode="Z" horiz-adv-x="1148" d="M-135 0l20 139l774 987l43 17v4h-456l-33 -137q-37 -6 -93 -6t-91 6l51 362h985l-21 -137l-772 -989l-43 -17v-4h486l33 137q37 6 93 6t91 -6l-49 -362h-1018z" />
<glyph unicode="[" horiz-adv-x="589" d="M-150 -287l279 1977h455l-27 -195h-205l-250 -1782h-252zM102 -287l27 195h205l-27 -195h-205z" />
<glyph unicode="\" horiz-adv-x="946" d="M63 1516h236l377 -1680h-236z" />
<glyph unicode="]" horiz-adv-x="589" d="M-201 -287l27 195h205l223 1587h-205l29 195h454l-276 -1977h-457z" />
<glyph unicode="^" horiz-adv-x="1032" d="M-6 1024l467 711h194l269 -711l-273 -2l-116 451v71h-5l-20 -71l-244 -451z" />
<glyph unicode="_" horiz-adv-x="911" d="M-195 -236l29 195h860l-26 -195h-863z" />
<glyph unicode="`" horiz-adv-x="595" d="M39 1372l139 182l357 -290l-97 -127z" />
<glyph unicode="a" horiz-adv-x="1138" d="M-59 440q18 125 62.5 230t113 184.5t166 124.5t213.5 45q133 0 274 -53l55 33h82l-110 -799l-6 -31l133 -4v-14q0 -64 -23 -156l-373 -20q-7 57 -7 110q0 60 9 115l13 92h-4l-35 -123q-158 -194 -354 -194q-136 0 -188 118q-32 73 -33 188q0 69 12 154zM214 243 q15 -63 71 -63q61 0 139.5 85t146.5 237l41 299q-65 24 -133 24q-104 0 -169.5 -105t-90.5 -280q-11 -77 -12 -130q1 -40 7 -67z" />
<glyph unicode="b" horiz-adv-x="1107" d="M-61 0l172 1229l16 112l-139 7q0 100 26 168l375 20q7 -59 7 -115.5t-7 -109.5l-86 -604h4l35 122q157 195 354 195q219 0 219 -302q0 -71 -12 -159q-18 -125 -62.5 -230t-112.5 -184.5t-165 -124t-213 -44.5q-135 0 -276 53l-54 -33h-81zM231 203q63 -23 136 -23 q104 0 169.5 104.5t90.5 278.5q11 77 11 131q0 40 -6 68q-15 64 -71 63q-62 0 -140.5 -84.5t-146.5 -236.5z" />
<glyph unicode="c" horiz-adv-x="962" d="M-49 502q35 246 179 384t366 138q153 0 276 -76l-41 -291q-37 -6 -88 -6t-86 6l2 160q-50 8 -70 8q-104 0 -171.5 -80.5t-90.5 -242.5q-8 -54 -7 -100q0 -90 29 -142q45 -80 148 -80q70 0 137.5 30t157.5 101v-219q-154 -112 -344 -112q-222 0 -326 138q-79 104 -79 269 q0 54 8 115z" />
<glyph unicode="d" horiz-adv-x="1140" d="M-59 440q18 125 62.5 230t113 184.5t166 124.5t213.5 45q71 0 145 -23l33 228l14 112l-137 7q0 98 24 168l377 20q7 -59 7 -115.5t-7 -109.5l-155 -1106l-6 -31l133 -4v-14q0 -64 -23 -156l-373 -20q-7 57 -7 110q0 60 9 115l13 92h-4l-35 -123q-158 -194 -354 -194 q-221 0 -221 302q0 71 12 158zM214 243q15 -63 71 -63q61 0 139.5 85t146.5 237l41 295q-54 28 -133 28q-104 0 -169.5 -105t-90.5 -280q-11 -77 -11 -130q0 -40 6 -67z" />
<glyph unicode="e" horiz-adv-x="1038" d="M-49 502q35 242 184.5 382t360.5 140q113 0 198 -32q84 -34 130 -104q35 -54 36 -126q0 -22 -4 -45q-21 -143 -181.5 -210.5t-463.5 -76.5v-19q1 -111 45 -169q48 -62 141 -62q83 0 160.5 30.5t167.5 100.5v-219q-157 -112 -377 -112q-222 0 -326 138q-79 104 -79 269 q0 54 8 115zM219 561q207 3 294.5 34.5t98.5 104.5q2 12 2 24q0 47 -30 75q-38 35 -115 35q-92 0 -157 -67.5t-93 -205.5z" />
<glyph unicode="f" horiz-adv-x="860" d="M-199 -303q109 42 161 112t67 191l112 805h-153l28 199h154l18 133q28 194 151.5 296.5t299.5 102.5q129 0 223 -55l-28 -209q-86 65 -179 65q-35 0 -64 -9.5t-58.5 -33.5t-50.5 -72.5t-31 -119.5l-15 -98h307l-28 -199h-307l-107 -774q-33 -234 -144.5 -354.5 t-349.5 -157.5z" />
<glyph unicode="g" horiz-adv-x="1110" d="M-119 -213q10 80 69 154.5t150 132.5q-32 35 -32 81q0 12 2 25q12 94 116 195q-96 41 -144 121q-38 62 -38 138q0 23 4 48q14 100 80.5 178.5t167.5 121t219 42.5q114 0 207 -49l188 176l125 -111l-174 -196q30 -58 30 -122q0 -20 -3 -40q-14 -100 -81 -179t-169 -122 t-219 -43q-37 0 -55 2q-35 -38 -41 -78q-3 -20 10.5 -35t42.5 -25.5t59.5 -17t73.5 -12.5q43 -5 75 -10t73.5 -15.5t71.5 -24t60 -35t47 -48.5t25 -65q5 -22 5 -47q0 -18 -3 -38q-23 -167 -189.5 -268.5t-410.5 -101.5q-185 0 -273 73q-72 61 -72 155q0 19 3 40zM90 -170 q-2 -12 -2 -23q0 -54 41 -81q49 -31 139 -31q79 0 147 18t115.5 55.5t55.5 88.5q1 8 1 16q0 45 -35 63q-41 20 -167 39q-126 20 -182 39q-100 -85 -113 -184zM254 682q-2 -12 -2 -23q0 -55 36 -91q44 -44 118 -44t129.5 44t64.5 114q2 13 2 25q0 52 -36 89q-44 44 -117 44 t-129 -44t-66 -114z" />
<glyph unicode="h" horiz-adv-x="1230" d="M-4 -20l176 1249l16 112l-137 7q0 95 25 168l375 20q7 -59 7 -115.5t-7 -109.5l-86 -604h4l34 122q157 195 355 195q99 0 146 -41q46 -41 50 -120q1 -14 1 -30q0 -70 -13 -165l-63 -463l-5 -31l132 -4v-16q0 -72 -23 -154l-373 -20q-6 51 -6 103q0 60 8 122l64 463 q6 44 6 75t-6 48q-12 34 -53 34q-62 0 -140.5 -84.5t-146.5 -236.5l-70 -504z" />
<glyph unicode="i" horiz-adv-x="647" d="M-23 836q0 95 25 168l377 20q6 -51 6 -103q0 -60 -8 -122l-82 -594l-4 -31l131 -4v-16q0 -72 -23 -154l-372 -20q-6 51 -6 103q0 60 8 122l77 553l9 71zM137 1341q6 43 80 107.5t117 64.5q43 -1 98 -65q50 -58 50 -98q0 -4 -1 -9q-6 -43 -78.5 -107.5t-115.5 -64.5 q-43 1 -99 65q-51 58 -52 99q0 4 1 8z" />
<glyph unicode="j" horiz-adv-x="651" d="M-203 -303q107 42 159 111.5t69 191.5l100 717l14 112l-135 7v17q0 73 23 151l376 20q6 -51 6 -103q0 -60 -8 -122l-106 -768q-33 -234 -144 -354.5t-348 -157.5zM168 1341q6 43 80 107.5t117 64.5t98 -65q50 -58 50 -98q0 -5 -1 -9q-6 -43 -80 -107.5t-117 -64.5t-98 65 q-50 58 -50 98q0 5 1 9z" />
<glyph unicode="k" horiz-adv-x="1185" d="M-25 -20l177 1249l16 112l-137 7q0 98 24 168l375 20q7 -59 7 -115.5t-7 -109.5l-86 -604h4l35 122q157 195 354 195q103 0 161 -64q46 -51 47 -123q0 -18 -3 -36q-13 -103 -70.5 -182.5t-189.5 -178.5l-43 -8v-4l39 -10l145 -242l156 -6v-14q0 -64 -23 -156l-331 -20 l-228 448q257 162 275 305q2 15 2 27q0 65 -62 65q-65 0 -147.5 -85t-149.5 -236l-69 -504z" />
<glyph unicode="l" horiz-adv-x="634" d="M14 -20q-6 51 -6 103q0 60 8 122l144 1024l16 112l-137 7q0 98 24 168l375 20q7 -59 7 -115.5t-7 -109.5l-155 -1106l-4 -31l131 -4v-16q0 -72 -23 -154z" />
<glyph unicode="m" horiz-adv-x="1783" d="M-27 836v17q0 73 23 151l379 20q6 -51 6 -103q0 -60 -8 -122l-13 -82h7l30 112q160 195 357 195q85 0 129 -35t53 -103q4 -31 4 -68q0 -46 -6 -101h6l31 112q160 195 356 195q91 0 136 -41t49 -120q1 -17 1 -36q0 -68 -12 -159l-63 -463l-6 -31l133 -4v-14 q0 -64 -23 -156l-373 -20q-7 57 -7 110q0 60 9 115l64 463q8 55 8 89q0 21 -3 34q-8 34 -48 34q-62 0 -141.5 -85t-145.5 -236l-69 -504l-271 -20l97 688q8 54 8 88q0 22 -4 35q-8 34 -48 34q-62 0 -141 -84.5t-145 -236.5l-70 -504l-272 -20l106 737l15 112z" />
<glyph unicode="n" horiz-adv-x="1214" d="M-29 836q0 91 23 168l379 20q6 -51 6 -103q0 -60 -8 -122l-13 -92h4l35 122q157 195 355 195q99 0 146 -41q46 -41 50 -120q1 -14 1 -30q0 -70 -13 -165l-64 -463l-4 -31l131 -4q1 -11 1 -22q0 -72 -23 -148l-373 -20q-6 51 -6 103q0 60 8 122l64 463q6 44 6 74t-6 48 q-13 35 -54 35q-61 0 -139.5 -84.5t-146.5 -236.5l-70 -504l-270 -20l104 737l15 112z" />
<glyph unicode="o" horiz-adv-x="1105" d="M-49 502q35 246 179 384t366 138q224 0 328 -138q78 -103 78 -267q0 -55 -9 -117q-34 -246 -178 -384t-367 -138q-222 0 -326 138q-79 104 -79 269q0 54 8 115zM227 502q-9 -61 -8 -111q0 -211 158 -211q193 0 239 322q9 61 9 111q0 212 -156 212q-197 0 -242 -323z" />
<glyph unicode="p" horiz-adv-x="1148" d="M-88 -481l168 1198l14 112l-137 7q0 91 23 168l378 20q6 -51 6 -103q0 -60 -8 -122l-12 -92h4l35 122q157 195 354 195q219 0 219 -302q0 -71 -12 -159q-18 -125 -62.5 -230t-112.5 -184.5t-165 -124t-213 -44.5q-77 0 -145 22l-66 -463zM274 207q53 -27 134 -27 q104 0 169.5 104.5t90.5 278.5q11 77 11 131q0 40 -6 68q-15 63 -71 63q-62 0 -140.5 -84.5t-146.5 -236.5z" />
<glyph unicode="q" horiz-adv-x="1091" d="M-59 440q18 125 62.5 230t113 184.5t166 124.5t213.5 45q133 0 274 -53l55 33h82l-205 -1465l-268 -20l109 778h-4l-35 -123q-158 -194 -354 -194q-137 0 -188 118q-33 73 -33 188q0 69 12 154zM214 243q15 -63 71 -63q61 0 139.5 85t146.5 237l41 299q-65 24 -133 24 q-104 0 -169.5 -105t-90.5 -280q-11 -77 -11 -130q0 -40 6 -67z" />
<glyph unicode="r" horiz-adv-x="978" d="M-27 836v17q0 73 23 151l379 20q6 -51 6 -103q0 -60 -8 -122l-19 -127h6l33 121q129 231 352 231q55 0 81 -28q18 -20 19 -62q0 -16 -3 -35l-41 -297q-44 -7 -87.5 -7t-86.5 7l2 184q-1 0 -3 1t-3 1q-163 0 -301 -360l-31 -223l-6 -31l133 -4v-14q0 -64 -23 -156 l-372 -20q-7 57 -7 110q0 60 9 115l71 512l15 112z" />
<glyph unicode="s" horiz-adv-x="907" d="M-84 55l39 275q46 7 90 7t86 -7l-2 -152q55 -14 107 -14q62 0 105.5 25t49.5 69q1 7 1 13q0 27 -18 49q-22 28 -60 48.5t-84.5 41t-92.5 46.5t-82.5 58.5t-54.5 83.5q-12 34 -13 75q0 20 3 40q21 140 132 225.5t292 85.5q157 0 280 -76l-39 -272q-44 -7 -87.5 -7t-86.5 7 l2 149q-53 15 -96 15q-56 0 -92 -26.5t-41 -68.5q-1 -6 -1 -13q-1 -26 17 -48q22 -26 60 -45.5t85 -39.5t92.5 -47t81.5 -61.5t54 -89.5q12 -35 12 -77q0 -23 -4 -48q-20 -146 -136.5 -221t-305.5 -75q-168 0 -293 75z" />
<glyph unicode="t" horiz-adv-x="845" d="M-33 805l27 199h164l88 286l215 21l-45 -307h286l-28 -199h-287l-59 -426q-8 -44 -8 -77q0 -28 6 -48q12 -44 34.5 -59t65.5 -15q75 0 174 80v-205q-116 -75 -252 -75q-298 0 -298 277q0 42 7 91l66 457h-156z" />
<glyph unicode="u" horiz-adv-x="1173" d="M-57 836v20q0 81 22 148l379 20q6 -51 6 -103q0 -60 -8 -122l-63 -463q-7 -47 -7 -79q0 -27 6 -43q12 -34 54 -34q60 0 133.5 84t142.5 238l70 502l270 20l-114 -819l-7 -31l134 -4v-14q0 -64 -23 -156l-373 -20q-7 57 -7 110q0 60 9 115l13 92h-5l-34 -123 q-155 -194 -344 -194q-98 0 -145 41t-52 120q-1 18 -1 38q0 68 13 157l54 381l14 112z" />
<glyph unicode="v" horiz-adv-x="1083" d="M-94 836q0 94 22 168l351 20l135 -823h4l2 102q19 41 51 111.5t46 101t36.5 81t33 75.5t24.5 58t22 55.5t14 43.5l-108 7v18q0 75 22 150l367 20q4 -30 4.5 -60t-4.5 -59q-15 -110 -92 -260l-336 -645h-273l-198 829z" />
<glyph unicode="w" horiz-adv-x="1671" d="M-94 836v18q0 75 22 150l348 20l82 -823h4l11 102l245 670l295 20l99 -792h4l10 102q28 69 73.5 180t63.5 155.5t38 99.5t30 91l-111 7q0 91 23 168l368 20q4 -23 3.5 -52.5t-3.5 -66.5q-13 -95 -94 -260l-307 -645h-272l-99 713l19 116h-4l-295 -829h-289l-152 829z" />
<glyph unicode="x" horiz-adv-x="1064" d="M-133 -20v12q0 64 39 130q43 72 125 167l180 221l41 10l2 4l-41 8l-147 295l-162 9q0 94 22 168l340 20l158 -389h4q99 120 152 196l-74 5q0 94 22 168l379 20q1 -9 1 -19q0 -53 -34 -111q-40 -68 -118 -157l-170 -205l-43 -8v-4l41 -10l161 -332l150 -8v-14 q0 -64 -23 -156l-331 -20l-170 411h-4q-128 -156 -170 -217l86 -4v-16q0 -72 -23 -154z" />
<glyph unicode="y" horiz-adv-x="1085" d="M-94 836q0 94 22 168l351 20l151 -844h4l2 123q25 56 67 149t59 132t40.5 94t36 88.5t20.5 62.5l-108 7v18q0 75 22 150l367 20q4 -30 4 -60t-4 -59q-15 -110 -92 -260l-578 -1106l-276 -20l12 82l252 374l2 5l-227 849z" />
<glyph unicode="z" horiz-adv-x="958" d="M-129 0l14 109l547 675l43 17v4h-287l-34 -148q-46 -7 -90 -7t-87 7l50 347h782l-14 -113l-521 -641l-43 -12l-2 -9q74 -1 177.5 -20.5t130.5 -22.5l36 150q37 6 88.5 6t86.5 -6l-48 -336q-65 -15 -131 -15q-16 1 -32 1q-83 4 -133.5 17t-132.5 28.5t-160 17.5l-33 -49 h-207z" />
<glyph unicode="{" horiz-adv-x="602" d="M-27 -31q9 66 56.5 246.5t56.5 247.5q6 30 4 59.5t-10 54.5t-33 45.5t-65 30.5l14 97q81 20 114 68.5t42 121.5q10 68 14.5 249t13.5 245q7 46 27.5 85.5t61 77.5t113 62.5t169.5 30.5v-187q-62 -18 -88 -54.5t-37 -107.5q-9 -67 -11.5 -226t-11.5 -226 q-18 -130 -184 -189q83 -31 111.5 -78t21.5 -108q-10 -64 -52.5 -224.5t-51.5 -228.5q-11 -71 4.5 -107t73.5 -54l-52 -187q-96 6 -161.5 30.5t-95.5 62.5t-40 77.5t-4 85.5z" />
<glyph unicode="|" horiz-adv-x="604" d="M-94 -410l287 2048h262l-287 -2048h-262z" />
<glyph unicode="}" horiz-adv-x="602" d="M-156 -100q63 18 89.5 54t35.5 107q9 66 11.5 226.5t11.5 226.5q18 128 184 188q-149 56 -131 187q9 66 52.5 225.5t52.5 226.5q11 71 -4.5 107.5t-73.5 54.5l51 187q65 -4 116.5 -17t84 -32t55.5 -43.5t32 -51.5t13 -55.5t-2 -56.5q-9 -69 -55 -249.5t-56 -244.5 q-6 -30 -4 -59.5t10 -54.5t32.5 -45.5t64.5 -30.5l-13 -97q-81 -20 -113.5 -68.5t-41.5 -121.5q-9 -67 -14.5 -247.5t-14.5 -246.5q-7 -46 -27.5 -85.5t-61.5 -77.5t-113.5 -62.5t-170.5 -30.5v187z" />
<glyph unicode="~" horiz-adv-x="1038" d="M-43 696l47 -174q115 86 234 86q46 0 90.5 -15t75.5 -33t80.5 -33t105.5 -15q107 0 268 80l-45 176q-98 -63 -188 -63q-50 0 -105.5 24.5t-119 49t-132.5 24.5q-129 0 -311 -107z" />
<glyph unicode="&#xa2;" horiz-adv-x="962" d="M-49 502q29 201 131 332t262 172l27 182h266l-25 -174q88 -19 160 -66l-41 -291q-37 -6 -88 -6t-86 6l2 160q-50 8 -70 8q-104 0 -171.5 -80.5t-90.5 -242.5q-23 -161 22 -241.5t148 -80.5q70 0 137.5 30t157.5 101v-219q-111 -78 -223 -100l-25 -176h-266l27 182 q-150 41 -216 171.5t-38 332.5z" />
<glyph unicode="&#xa3;" horiz-adv-x="1144" d="M-119 0l31 225q63 40 110 133.5t56 163.5l12 92h-135l22 154h136l39 266q24 178 143.5 268.5t347.5 90.5q122 0 207 -23.5t164 -66.5l-49 -342q-37 -6 -93.5 -6t-91.5 6l6 188q-61 18 -133 18q-205 0 -225 -163l-35 -236h406l-21 -154h-405l-13 -92q-12 -78 -67.5 -167.5 t-149.5 -129.5h521l32 137q37 6 93.5 6t91.5 -6l-50 -362h-950z" />
<glyph unicode="&#xa5;" horiz-adv-x="1347" d="M2 1204q-3 72 25 168h548q0 -87 -24 -168l-105 -18l172 -555h5l-15 112l260 445l-104 16q0 86 24 168h533q0 -84 -25 -168l-153 -18l-361 -561h265l-21 -123h-324l-12 -23l-10 -69h332l-21 -123h-329l-13 -97l129 -20q4 -82 -22 -170h-547q-3 86 22 170l142 20l12 97 h-336l21 123h333l11 69l-8 23h-322l20 123h256l-204 559z" />
<glyph unicode="&#xa8;" horiz-adv-x="1003" d="M109 1358q5 38 71.5 96.5t106.5 58.5q38 0 89 -58.5t46 -96.5q-6 -40 -73 -99t-107 -59q-38 0 -88.5 59t-44.5 99zM555 1358q6 38 73 96.5t105 58.5q40 0 90.5 -58.5t44.5 -96.5q-4 -39 -71.5 -98.5t-106.5 -59.5t-89.5 59t-45.5 99z" />
<glyph unicode="&#xa9;" horiz-adv-x="1515" d="M51 686q21 147 80.5 268.5t140.5 201.5t181.5 134.5t201 78.5t201.5 24q83 0 162.5 -17t155.5 -53t134.5 -92t101.5 -135t56.5 -181t-2.5 -229q-21 -147 -80.5 -268.5t-141 -201t-182.5 -134t-201.5 -78.5t-201.5 -24t-195 24t-179 78.5t-143.5 134t-84 201t-4.5 268.5z M92 686q-20 -141 4 -256.5t79.5 -191t136.5 -127t169 -73.5t183 -22t189 22t189 73.5t171 127t133 191t77 256.5t-4.5 256.5t-80 191t-136.5 127t-169 73.5t-183 22t-189 -22t-189 -73.5t-171.5 -127t-132.5 -191t-76 -256.5zM412 686q26 188 137 291.5t291 103.5 q127 0 223 -57l-31 -219q-67 -11 -133 0l2 119q-46 8 -67 8q-179 0 -213 -246q-37 -244 143 -244q103 0 227 74l-24 -168q-108 -57 -240 -57q-180 0 -261 103.5t-54 291.5z" />
<glyph unicode="&#xab;" horiz-adv-x="1179" d="M-70 438l15 99l12 96l563 391l-37 -272l-313 -203l-43 -10v-4l39 -11l258 -205l-41 -272zM440 449l15 88l10 86l563 401l-37 -272l-313 -203l-43 -10v-4l39 -11l258 -205l-41 -272z" />
<glyph unicode="&#xad;" horiz-adv-x="890" d="M-29 467l33 225h676l-33 -225h-676z" />
<glyph unicode="&#xb4;" horiz-adv-x="569" d="M25 1264l436 290l88 -182l-465 -235z" />
<glyph unicode="&#xb8;" horiz-adv-x="464" d="M-227 -473l16 119q39 -8 92 -8q123 0 131 71q6 34 -27 55.5t-116 28.5l82 207h141l-51 -127q79 -15 119 -59t30 -111q-12 -88 -93 -136t-216 -48q-69 0 -108 8z" />
<glyph unicode="&#xbb;" horiz-adv-x="1179" d="M-111 47l35 272l318 205l43 11v4l-39 10l-260 203l41 272l448 -401l-10 -86l-14 -88zM397 47l37 272l316 205l43 11v4l-39 10l-260 203l41 272l450 -391l-12 -96l-15 -99z" />
<glyph unicode="&#xd3;" horiz-adv-x="1566" d="M-18 686q22 154 80 276.5t136.5 201.5t177.5 132t198 75t204 22t198 -22t177.5 -75t140.5 -132t79.5 -201.5t2.5 -276.5q-22 -154 -80 -276.5t-136.5 -201.5t-177.5 -131.5t-198 -74.5t-204 -22t-198.5 22t-178 74.5t-140.5 131.5t-79.5 202t-1.5 276zM270 686 q-17 -120 1 -213t66 -151t117.5 -87.5t157.5 -29.5q182 0 313 122.5t165 358.5q32 236 -64 358.5t-278 122.5q-88 0 -166 -29.5t-142.5 -87.5t-109 -151t-60.5 -213zM559 1647l465 260l74 -201l-490 -201z" />
<glyph unicode="&#xf3;" horiz-adv-x="1105" d="M-49 502q35 246 179 384t366 138q223 0 327.5 -138t69.5 -384q-34 -246 -178 -384t-367 -138q-222 0 -326.5 137.5t-70.5 384.5zM227 502q-46 -322 150 -322q193 0 239 322q45 323 -147 323q-197 0 -242 -323zM322 1264l436 290l90 -182l-467 -235z" />
<glyph unicode="&#x104;" horiz-adv-x="1490" d="M-188 0q-3 86 22 170l152 20h2l499 1000l-112 14q-3 75 24 168h179v-2l2 2h346l252 -1184l125 -18q3 -68 -23 -170h-287q-95 -44 -145 -100.5t-57 -110.5q-6 -39 15 -63.5t71 -24.5q63 0 122 33v-174q-86 -41 -198 -41q-111 0 -177.5 56.5t-54.5 154.5q13 101 97.5 196 t234.5 160l-59 313h-475l-99 -211l125 -18q3 -72 -22 -170h-559zM473 625h326l-86 450l26 103h-4z" />
<glyph unicode="&#x105;" horiz-adv-x="1138" d="M-59 440q18 125 62.5 230t113 184.5t166 124.5t213.5 45q132 0 276 -53l53 33h82l-14 -91h2h-2l-96 -708l-6 -31l133 -4q3 -68 -23 -170l-190 -10q-168 -85 -183 -201q-5 -40 16 -64t72 -24q64 0 123 33v-174q-89 -41 -198 -41q-112 0 -179 56.5t-53 154.5 q25 179 215 276q-9 102 6 199l13 92h-4l-35 -123q-158 -194 -354 -194q-137 0 -188.5 117.5t-20.5 342.5zM214 243q15 -63 71 -63q61 0 139.5 85t146.5 237l41 299q-65 24 -133 24q-104 0 -169.5 -105t-90.5 -280q-20 -134 -5 -197z" />
<glyph unicode="&#x106;" horiz-adv-x="1269" d="M-18 686q22 154 80 276.5t136.5 201.5t177.5 132t198 75t204 22q216 0 381 -90l-49 -342q-37 -6 -93 -6t-91 6l6 180q-86 26 -184 26q-189 0 -317 -121.5t-161 -359.5q-17 -120 1 -213t66 -151t117.5 -87.5t157.5 -29.5q110 0 218 32t190 80l-35 -247q-187 -90 -405 -90 q-105 0 -198.5 22t-178 74.5t-140.5 131.5t-79.5 202t-1.5 276zM530 1647l467 260l72 -201l-489 -201z" />
<glyph unicode="&#x107;" horiz-adv-x="962" d="M-49 502q35 246 179 384t366 138q153 0 276 -76l-41 -291q-37 -6 -88 -6t-86 6l2 160q-50 8 -70 8q-104 0 -171.5 -80.5t-90.5 -242.5q-23 -161 22 -241.5t148 -80.5q70 0 137.5 30t157.5 101v-219q-154 -112 -344 -112q-222 0 -326.5 137.5t-70.5 384.5zM262 1264 l436 290l88 -182l-464 -235z" />
<glyph unicode="&#x118;" horiz-adv-x="1132" d="M-133 0q-3 86 22 170l142 20l141 994l-137 20q0 86 24 168h959l-51 -362q-37 -6 -93.5 -6t-91.5 6l4 137h-344l-49 -346l398 14l-31 -225l-393 12l-54 -377h381l33 137q37 6 93 6t91 -6l-51 -362h-153q-96 -45 -147.5 -101t-57.5 -110q-5 -40 16 -64t72 -24q64 0 123 33 v-174q-89 -41 -199 -41q-112 0 -178.5 56.5t-52.5 154.5q20 159 219 270h-635z" />
<glyph unicode="&#x119;" horiz-adv-x="1036" d="M-49 502q35 242 185.5 382t361.5 140q113 0 197 -32.5t129.5 -103t31.5 -171.5q-21 -143 -181.5 -210.5t-463.5 -76.5q-4 -125 45.5 -187.5t142.5 -62.5q83 0 159.5 30.5t166.5 100.5v-219q-242 -129 -268 -303q-5 -39 16.5 -63.5t71.5 -24.5q64 0 123 33l2 -174 q-89 -41 -201 -41q-111 0 -177.5 56.5t-53.5 154.5q19 143 135 250h-23q-223 0 -328 138t-71 384zM219 561q207 3 295.5 34.5t99.5 104.5q7 64 -30.5 99t-114.5 35q-191 0 -250 -273z" />
<glyph unicode="&#x141;" horiz-adv-x="1091" d="M-137 440l31 226l217 94l61 424l-137 20q0 86 24 168h549q0 -87 -24 -168l-135 -20l-46 -307l259 127l-31 -226l-256 -108l-62 -445h365l33 137q37 6 93 6t91 -6l-49 -362h-979q-3 86 22 170l142 20l51 361z" />
<glyph unicode="&#x142;" horiz-adv-x="757" d="M-102 451l32 225l222 92l65 461l14 112l-137 7q0 95 25 168l377 20q14 -118 0 -225l-62 -430l219 112l-30 -225l-217 -94l-66 -469l-6 -31l133 -4q3 -68 -23 -170l-372 -20q-15 121 2 225l49 358z" />
<glyph unicode="&#x143;" horiz-adv-x="1615" d="M-102 0q0 96 22 170l143 20l140 994l-135 20q-3 75 24 168h486l403 -942l6 -113h4l123 867l-135 20q-3 72 25 168h546q0 -98 -24 -168l-135 -20l-166 -1184h-344l-410 940l-8 102h-4l-119 -852l129 -20q3 -79 -23 -170h-548zM705 1647l464 260l74 -201l-489 -201z" />
<glyph unicode="&#x144;" horiz-adv-x="1214" d="M-29 836q0 91 23 168l379 20q13 -110 -2 -225l-13 -92h4l35 122q157 195 355 195q99 0 146 -41t50.5 -120t-12.5 -195l-64 -463l-4 -31l131 -4q4 -82 -22 -170l-373 -20q-13 110 2 225l64 463q13 87 0 122t-54 35q-61 0 -139.5 -84.5t-146.5 -236.5l-70 -504l-270 -20 l104 737l15 112zM455 1264l436 290l90 -182l-467 -235z" />
<glyph unicode="&#x15a;" horiz-adv-x="1079" d="M-76 70l49 342q38 6 95 6t92 -6l-8 -185q77 -22 161 -22q100 0 163 43.5t73 122.5q6 43 -9.5 77t-46.5 58t-72.5 45t-88 42t-92.5 44t-86.5 55t-69.5 72t-41 98.5t-2 130.5q26 181 159.5 290.5t358.5 109.5q100 0 175 -23t155 -67l-47 -342q-37 -6 -93.5 -6t-91.5 6 l7 186q-72 20 -136 20q-189 0 -206 -153q-7 -50 20 -88.5t76 -65.5t109 -54t118.5 -62t105 -79.5t69 -117.5t9.5 -166q-27 -192 -174.5 -296.5t-373.5 -104.5q-188 0 -357 90zM350 1647l467 260l72 -201l-490 -201z" />
<glyph unicode="&#x15b;" horiz-adv-x="907" d="M-84 55l39 275q92 14 176 0l-2 -152q55 -14 107 -14q62 0 105.5 25t49.5 69q5 35 -16.5 62.5t-60 48t-85 41t-92.5 46.5t-82.5 58.5t-55 83.5t-9.5 115q21 140 132 225.5t292 85.5q157 0 280 -76l-39 -272q-89 -14 -174 0l2 149q-53 15 -96 15q-56 0 -92 -26.5t-41 -68.5 q-5 -34 16.5 -60.5t59.5 -46t85 -39.5t92.5 -47t81.5 -61.5t54 -89.5t8 -125q-20 -146 -136.5 -221t-305.5 -75q-168 0 -293 75zM223 1264l436 290l89 -182l-465 -235z" />
<glyph unicode="&#x179;" horiz-adv-x="1148" d="M-135 0l20 139l774 987l43 17v4h-456l-33 -137q-37 -6 -93 -6t-91 6l51 362h985l-21 -137l-772 -989l-43 -17v-4h486l33 137q37 6 93 6t91 -6l-49 -362h-1018zM420 1647l465 260l73 -201l-489 -201z" />
<glyph unicode="&#x17a;" horiz-adv-x="958" d="M-129 0l14 109l547 675l43 17v4h-287l-34 -148q-92 -14 -177 0l50 347h782l-14 -113l-521 -641l-43 -12l-2 -9q74 -1 177.5 -20.5t130.5 -22.5l36 150q37 6 88.5 6t86.5 -6l-48 -336q-80 -19 -163 -14.5t-133.5 17.5t-132.5 28.5t-160 17.5l-33 -49h-207zM291 1264 l436 290l90 -182l-467 -235z" />
<glyph unicode="&#x17b;" horiz-adv-x="1148" d="M-135 0l20 139l774 987l43 17v4h-456l-33 -137q-37 -6 -93 -6t-91 6l51 362h985l-21 -137l-772 -989l-43 -17v-4h486l33 137q37 6 93 6t91 -6l-49 -362h-1018zM434 1657q6 43 80 107.5t117 64.5t98 -64.5t49 -107.5t-79.5 -107.5t-116.5 -64.5t-98.5 64.5t-49.5 107.5z " />
<glyph unicode="&#x17c;" horiz-adv-x="958" d="M-129 0l14 109l547 675l43 17v4h-287l-34 -148q-92 -14 -177 0l50 347h782l-14 -113l-521 -641l-43 -12l-2 -9q74 -1 177.5 -20.5t130.5 -22.5l36 150q37 6 88.5 6t86.5 -6l-48 -336q-80 -19 -163 -14.5t-133.5 17.5t-132.5 28.5t-160 17.5l-33 -49h-207zM303 1341 q6 43 80 107.5t117 64.5t98 -64.5t49 -107.5t-78.5 -107.5t-115.5 -64.5t-99.5 64.5t-50.5 107.5z" />
<glyph unicode="&#x2c6;" horiz-adv-x="733" d="M-8 1264l387 286l307 -286l-106 -127l-234 178l-283 -178z" />
<glyph unicode="&#x2da;" horiz-adv-x="634" d="M59 1395q14 97 94.5 166t184.5 69t165.5 -69t47.5 -166q-14 -99 -94.5 -168.5t-184.5 -69.5t-165.5 69.5t-47.5 168.5zM221 1395q-5 -36 15.5 -61t56.5 -25t62.5 25t31.5 61t-14.5 61t-55.5 25t-63.5 -25t-32.5 -61z" />
<glyph unicode="&#x2dc;" horiz-adv-x="845" d="M76 1174q27 128 92.5 194t153.5 66q45 0 84.5 -21.5t72 -43t60.5 -21.5q31 0 60.5 18.5t43.5 60.5h109q-26 -129 -88 -194.5t-152 -65.5q-37 0 -68.5 13.5t-50 29.5t-43.5 29.5t-51 13.5q-79 0 -115 -79h-108z" />
<glyph unicode="&#x2000;" horiz-adv-x="1008" />
<glyph unicode="&#x2001;" horiz-adv-x="2017" />
<glyph unicode="&#x2002;" horiz-adv-x="1008" />
<glyph unicode="&#x2003;" horiz-adv-x="2017" />
<glyph unicode="&#x2004;" horiz-adv-x="672" />
<glyph unicode="&#x2005;" horiz-adv-x="504" />
<glyph unicode="&#x2006;" horiz-adv-x="336" />
<glyph unicode="&#x2007;" horiz-adv-x="336" />
<glyph unicode="&#x2008;" horiz-adv-x="252" />
<glyph unicode="&#x2009;" horiz-adv-x="403" />
<glyph unicode="&#x200a;" horiz-adv-x="112" />
<glyph unicode="&#x2010;" horiz-adv-x="890" d="M-29 467l33 225h676l-33 -225h-676z" />
<glyph unicode="&#x2011;" horiz-adv-x="890" d="M-29 467l33 225h676l-33 -225h-676z" />
<glyph unicode="&#x2012;" horiz-adv-x="890" d="M-29 467l33 225h676l-33 -225h-676z" />
<glyph unicode="&#x2013;" horiz-adv-x="1024" d="M-76 467l29 192h901l-27 -192h-903z" />
<glyph unicode="&#x2014;" horiz-adv-x="1658" d="M-76 467l29 195h1536l-27 -195h-1538z" />
<glyph unicode="&#x2018;" horiz-adv-x="503" d="M35 1176q35 237 203 462l141 -30q-78 -127 -113 -260q46 -21 89.5 -78t39.5 -94q-3 -28 -41.5 -72t-87 -76.5t-76.5 -32.5q-44 0 -102 68t-53 113z" />
<glyph unicode="&#x2019;" horiz-adv-x="503" d="M76 1458q6 44 83.5 112t121.5 68t102.5 -68t52.5 -112q-36 -240 -203 -463l-139 31q80 140 111 260q-46 21 -90.5 78t-38.5 94z" />
<glyph unicode="&#x201a;" horiz-adv-x="604" d="M-66 160q3 28 41.5 71.5t87 76t76.5 32.5q44 0 103 -68t53 -112q-36 -239 -203 -463l-141 31q79 133 112 260q-46 21 -90.5 78t-38.5 94z" />
<glyph unicode="&#x201c;" horiz-adv-x="944" d="M35 1176q35 237 203 462l141 -30q-78 -127 -113 -260q46 -21 89.5 -78t39.5 -94q-3 -28 -41.5 -72t-87 -76.5t-76.5 -32.5q-44 0 -102 68t-53 113zM475 1176q35 237 203 462l141 -30q-76 -124 -112 -260q46 -21 89.5 -78t39.5 -94q-3 -28 -41.5 -72t-87 -76.5 t-76.5 -32.5t-67 32.5t-65.5 76t-23.5 72.5z" />
<glyph unicode="&#x201d;" horiz-adv-x="948" d="M76 1458q6 44 83.5 112t121.5 68t102.5 -68t52.5 -112q-36 -240 -203 -463l-139 31q80 140 111 260q-46 21 -90.5 78t-38.5 94zM518 1458q6 44 83.5 112t121.5 68t103 -68t53 -112q-36 -240 -203 -463l-139 31q78 136 110 260q-46 21 -90.5 78t-38.5 94z" />
<glyph unicode="&#x201e;" horiz-adv-x="1046" d="M-66 160q3 28 41.5 71.5t87 76t76.5 32.5q44 0 103 -68t53 -112q-36 -239 -203 -463l-141 31q79 133 112 260q-46 21 -90.5 78t-38.5 94zM377 160q6 44 83.5 112t121.5 68t102.5 -68t52.5 -112q-36 -241 -202 -463l-140 31q80 140 111 260q-46 21 -90.5 78t-38.5 94z" />
<glyph unicode="&#x2026;" horiz-adv-x="1511" d="M-66 160q3 28 41.5 71.5t87 76t76.5 32.5q44 0 103 -68t53 -112t-84.5 -112t-122.5 -68t-102.5 68t-51.5 112zM438 160q6 44 83.5 112t121.5 68t103 -68t53 -112t-84.5 -112t-122.5 -68t-102 68t-52 112zM942 160q3 28 41.5 71.5t87 76t76.5 32.5t67 -32.5t65.5 -76 t23.5 -71.5q-8 -44 -85.5 -112t-121.5 -68t-102.5 68t-51.5 112z" />
<glyph unicode="&#x202f;" horiz-adv-x="403" />
<glyph unicode="&#x2039;" horiz-adv-x="722" d="M-70 438l15 99l12 96l614 391l-36 -272l-361 -203l-43 -10v-4l39 -11l305 -205l-41 -272z" />
<glyph unicode="&#x203a;" horiz-adv-x="722" d="M-111 47l35 272l363 205l43 11v4l-39 10l-305 203l41 272l501 -391l-12 -96l-14 -99z" />
<glyph unicode="&#x205f;" horiz-adv-x="504" />
<glyph unicode="&#x20ac;" horiz-adv-x="1212" d="M-135 471l61 154h142q4 42 8 61l6 51h-180l63 154h156q43 135 115 235t160 156.5t180.5 83.5t191.5 27q175 0 340 -90l-41 -322q-37 -6 -93 -6t-91 6l2 166q-78 20 -148 20q-237 0 -338 -276h508l-61 -154h-488l-6 -51q-4 -19 -8 -61h469l-63 -154h-406 q13 -132 80.5 -199t177.5 -67q177 0 367 112l-35 -247q-187 -90 -365 -90q-78 0 -147 15.5t-133.5 52.5t-112 92.5t-78 140t-35.5 190.5h-198z" />
<glyph unicode="&#x2122;" horiz-adv-x="3289" d="M-29 1010l52 362h1163l-51 -362q-37 -6 -93.5 -6t-91.5 6l4 137h-241l-135 -957l131 -20q3 -68 -23 -170h-549q0 93 23 170l141 20l135 957h-248l-32 -137q-37 -6 -93.5 -6t-91.5 6zM1071 0q-3 83 23 170l143 18l303 1000l-115 16q-3 72 25 168h526l123 -1136h4l13 102 l409 1034h527q0 -95 -25 -168l-119 -16l23 -1000l133 -18q3 -79 -23 -170h-557q-3 83 23 170l133 18l14 867l23 112h-4l-445 -1126h-332l-120 1014l14 112h-4l-258 -979l123 -18q3 -79 -23 -170h-557z" />
<glyph unicode="&#x25fc;" horiz-adv-x="1024" d="M0 0v1024h1024v-1024h-1024z" />
<glyph horiz-adv-x="575" d="M-23 836q0 95 25 168l377 20q13 -110 -2 -225l-82 -594l-4 -31l131 -4q3 -79 -23 -170l-372 -20q-13 110 2 225l77 553l9 71zM102 1341q6 43 80 107.5t117 64.5t98 -64.5t49 -107.5t-79.5 -107.5t-116.5 -64.5t-98.5 64.5t-49.5 107.5z" />
<glyph d="M-25 403q-14 114 9 263q23 158 69 283t106 207t135 136.5t152 77.5t162 23q70 0 131 -16.5t116 -52t94 -92t65 -137.5t28.5 -187.5t-14.5 -241.5q-20 -146 -65 -263t-104.5 -195t-134 -130t-152.5 -75t-162 -23t-155.5 23.5t-132 74t-97 131t-50.5 194.5zM270 666 q-31 -222 14 -341.5t158 -119.5t190.5 119.5t108.5 341.5q36 250 -6.5 375.5t-156.5 125.5t-193 -125.5t-115 -375.5z" />
<glyph d="M68 0q-3 86 22 170l256 20l135 953l-258 -21l29 209l379 41h160l-168 -1184l243 -18q4 -82 -22 -170h-776z" />
<glyph d="M-33 0l21 139q368 322 529 525t181 340q10 84 -34.5 123.5t-143.5 39.5q-76 0 -141 -18l-47 -188q-37 -6 -93.5 -6t-91.5 6l50 342q89 43 181 66.5t214 23.5q228 0 322.5 -90.5t70.5 -268.5q-25 -166 -157 -347t-422 -439l-46 -19v-4h334l33 137q37 6 93 6t91 -6 l-51 -362h-893z" />
<glyph d="M-10 49l35 248q131 -92 319 -92q241 0 268 186q15 114 -58 160.5t-241 46.5h-37l52 219h16q147 0 230.5 48.5t95.5 133.5q11 80 -30.5 124t-150.5 44q-54 0 -120 -16l-45 -190q-37 -6 -93.5 -6t-91.5 6l47 342q187 90 375 90q206 0 307 -98t76 -271q-10 -67 -40.5 -124.5 t-70 -93t-79 -56.5t-74.5 -27v-4q28 -5 58 -17.5t63.5 -39t58 -62.5t36 -93.5t1.5 -125.5q-27 -194 -178.5 -297.5t-366.5 -103.5q-126 0 -210 16t-152 53z" />
<glyph d="M-76 532l604 840h127l-22 -153h-4l-35 -93l-385 -548l-2 -5h334l80 553l34 246h277l-113 -799h156l-41 -225h-148l-22 -160l131 -18q3 -68 -23 -170h-548q0 96 22 170l141 20l23 158h-561z" />
<glyph d="M-16 49l36 248q61 -43 155.5 -67.5t184.5 -24.5q126 0 202 55.5t91 161.5q12 99 -40.5 153t-174.5 54q-176 0 -364 -49l194 792h754l-49 -342q-37 -6 -93.5 -6t-91.5 6l5 117h-322l-78 -311q86 8 137 8q75 0 140 -14t120.5 -46.5t92.5 -80t53 -120t4 -161.5 q-21 -140 -106.5 -242.5t-205.5 -151t-259 -48.5q-255 0 -385 69z" />
<glyph d="M-6.5 380q-3.5 89 10.5 204q23 165 84.5 299.5t151 228t205 157.5t246.5 94t276 30l-31 -226q-232 0 -391.5 -108.5t-229.5 -304.5q139 120 316 120q54 0 104.5 -12t99 -43.5t81 -79t47 -124t0.5 -173.5q-16 -113 -68.5 -203.5t-127 -145.5t-161.5 -84t-180 -29 q-70 0 -130 13t-115 41.5t-93 75t-64.5 114t-30 156.5zM283 516q-12 -160 31.5 -235.5t144.5 -75.5q96 0 156 59.5t75 167.5q14 109 -32.5 165t-133.5 56q-57 0 -122 -31.5t-119 -105.5z" />
<glyph d="M76 0l629 1126l43 17v4h-437l-32 -137q-37 -6 -93.5 -6t-91.5 6l51 362h912l-19 -137l-676 -1255z" />
<glyph d="M-31 371q12 79 49.5 144.5t87.5 106t90.5 63.5t77.5 36v4q-189 103 -159 309q15 111 88 194t178.5 124t226.5 41q188 0 304 -96.5t94 -262.5q-8 -53 -29 -99.5t-47 -78.5t-59.5 -59.5t-60 -43t-54.5 -28.5v-4q25 -10 51.5 -25t59.5 -45t56 -67t35 -93t3 -120 q-14 -101 -69 -179t-134.5 -122.5t-167.5 -67t-180 -22.5q-72 0 -139 13.5t-128 43.5t-103 74.5t-62 111.5t-9 148zM262 397q-13 -93 38 -142.5t142 -49.5q92 0 157.5 49.5t78.5 142.5q12 84 -37 138t-141 75q-98 -21 -162.5 -75t-75.5 -138zM373 1008q-23 -161 153 -201 q188 39 211 201q10 73 -33 116t-126 43t-139 -43t-66 -116z" />
<glyph horiz-adv-x="1259" d="M51 -20l33 225q231 0 389.5 108t228.5 305q-135 -120 -311 -120q-54 0 -104.5 12.5t-99.5 44t-82 79t-47.5 124t-0.5 172.5q16 114 68 204.5t126.5 146t161.5 84t181 28.5q85 0 154.5 -19t130.5 -62t95.5 -113t49 -172t-7.5 -239q-23 -165 -85 -299t-151.5 -228 t-205.5 -157.5t-247 -93.5t-276 -30zM330 940q-14 -108 33 -164.5t133 -56.5q57 0 121 31.5t120 107.5q23 309 -174 309q-96 0 -157 -59.5t-76 -167.5z" />
<glyph horiz-adv-x="595" d="M78 1647l467 260l71 -201l-489 -201z" />
<glyph horiz-adv-x="464" d="M-225 -461l16 119q36 -8 92 -8q120 0 131 71q5 34 -28 55.5t-115 28.5l80 195h141l-49 -115q79 -15 119.5 -59t30.5 -111q-12 -87 -94.5 -135.5t-217.5 -48.5q-67 0 -106 8z" />
<glyph horiz-adv-x="733" d="M43 1632l387 287l307 -287l-108 -127l-234 178l-282 -178z" />
<glyph horiz-adv-x="1003" d="M147 1655q6 38 73.5 96.5t107.5 58.5q38 0 88.5 -58.5t44.5 -96.5q-6 -40 -72 -99t-106 -59q-38 0 -89 59t-47 99zM596 1655q6 38 73 96.5t105 58.5q39 0 89.5 -58t45.5 -97q-6 -40 -73 -99t-105 -59q-40 0 -90.5 59t-44.5 99z" />
<glyph horiz-adv-x="595" d="M88 1706l127 201l393 -260l-88 -142z" />
<glyph horiz-adv-x="634" d="M84 1761q15 107 102.5 181.5t200.5 74.5t179.5 -74.5t51.5 -181.5t-102.5 -181.5t-200.5 -74.5t-179.5 74.5t-51.5 181.5zM262 1761q-5 -37 16.5 -63.5t59.5 -26.5q39 0 67 26t33 64q6 39 -14.5 65.5t-58.5 26.5q-39 0 -68 -26.5t-35 -65.5z" />
<glyph horiz-adv-x="866" d="M121 1511q25 128 91 194.5t153 66.5q47 0 86.5 -21.5t72 -43t60.5 -21.5q31 0 60.5 18.5t43.5 60.5h109q-26 -129 -88.5 -194.5t-151.5 -65.5q-37 0 -68.5 13.5t-50.5 29.5t-44 29.5t-50 13.5q-78 0 -115 -80h-108z" />
</font>
</defs>
</svg>
