<?xml version="1.0" standalone="no"?>
<!DOCTYPE svg PUBLIC "-//W3C//DTD SVG 1.1//EN" "http://www.w3.org/Graphics/SVG/1.1/DTD/svg11.dtd" >
<svg xmlns="http://www.w3.org/2000/svg">
<metadata></metadata>
<defs>
<font id="adagio_slabsemibold" horiz-adv-x="1228" >
<font-face units-per-em="2048" ascent="1638" descent="-410" />
<missing-glyph horiz-adv-x="436" />
<glyph horiz-adv-x="0" />
<glyph horiz-adv-x="682" />
<glyph unicode=" "  horiz-adv-x="436" />
<glyph unicode="&#x09;" horiz-adv-x="436" />
<glyph unicode="&#xa0;" horiz-adv-x="436" />
<glyph unicode="!" horiz-adv-x="497" d="M78 152q0 43 64.5 107.5t107.5 64.5q42 0 107 -65t65 -107q0 -41 -65.5 -106.5t-106.5 -65.5q-42 0 -107 65t-65 107zM113 1116v256h276v-256l-41 -667h-194z" />
<glyph unicode="&#x22;" horiz-adv-x="774" d="M113 1434h215l-2 -486h-148zM446 1434h216l-3 -486h-147z" />
<glyph unicode="#" horiz-adv-x="1312" d="M0 297v225h203l45 307h-185v226h220l47 317h250l-50 -317h367l47 317h250l-49 -317h168v-226h-201l-45 -307h184v-225h-219l-43 -297h-250l45 297h-366l-43 -297h-250l45 297h-170zM453 522h364l45 307h-364z" />
<glyph unicode="$" horiz-adv-x="1069" d="M98 993q0 143 74.5 243.5t220.5 137.5v203h277v-193q108 -17 233 -81v-342q-37 -6 -93 -6t-91 6l-21 186q-75 20 -137 20q-96 0 -141 -37t-45 -116q0 -39 20.5 -71.5t55 -56t79.5 -44.5t94.5 -43t99 -46.5t94.5 -58.5t79.5 -76t55 -103t20.5 -134q0 -146 -80 -243 t-223 -136v-186h-277v168q-136 14 -280 86v342q37 6 93 6t91 -6l18 -185q80 -22 164 -22q101 0 158 43.5t57 122.5q0 54 -33 94.5t-85.5 68t-116 53t-127 58t-116 75t-85.5 112.5t-33 161z" />
<glyph unicode="%" horiz-adv-x="1814" d="M82 1036q0 167 93 262t253 95t253 -95t93 -262t-93 -261.5t-253 -94.5t-253 94.5t-93 261.5zM287 66l1134 1433l156 -131l-1133 -1434zM307 1036q0 -76 28.5 -129t92.5 -53t92.5 53t28.5 129t-28.5 129.5t-92.5 53.5t-92.5 -53.5t-28.5 -129.5zM1040 336q0 167 93 261.5 t253 94.5q161 0 254 -95t93 -261q0 -167 -93.5 -263t-253.5 -96t-253 96t-93 263zM1266 336q0 -76 28 -129t92 -53t92.5 53t28.5 129t-28.5 129t-92.5 53t-92 -53t-28 -129z" />
<glyph unicode="&#x26;" horiz-adv-x="1306" d="M78 371q0 221 196 383q-92 139 -92 260q0 172 117.5 275.5t337.5 103.5q94 0 170.5 -23.5t161.5 -66.5v-342q-37 -6 -93.5 -6t-91.5 6l-20 188q-64 18 -127 18q-176 0 -176 -143q0 -93 96 -216.5t344 -354.5q35 96 35 223h262q0 -230 -102 -402q92 -84 164 -147v-127 h-222q-51 48 -104 92q-149 -112 -350 -112q-144 0 -256 42t-181 132t-69 217zM358 391q0 -90 60.5 -138t165.5 -48q93 0 170 49q-227 209 -328 315q-68 -80 -68 -178z" />
<glyph unicode="'" horiz-adv-x="440" d="M113 1434h215l-2 -486h-148z" />
<glyph unicode="(" horiz-adv-x="610" d="M72 711q0 255 74 519.5t208 489.5l215 -20q-103 -231 -161 -486t-58 -503q0 -498 219 -990l-215 -20q-282 474 -282 1010z" />
<glyph unicode=")" horiz-adv-x="610" d="M51 -279q219 492 219 990q0 248 -58 503t-161 486l215 20q134 -225 208.5 -490t74.5 -519q0 -535 -283 -1010z" />
<glyph unicode="*" horiz-adv-x="989" d="M51 1057l64 176l321 -154l-41 -112zM176 688l219 279l101 -64l-164 -315zM401 1434h187l-35 -355h-117zM496 903l98 64l221 -279l-156 -100zM553 1079l321 154l64 -176l-344 -90z" />
<glyph unicode="+" horiz-adv-x="1024" d="M41 539v194h381v379h194v-379h377v-194h-377v-379h-194v379h-381z" />
<glyph unicode="," horiz-adv-x="503" d="M72 160q0 44 68 112t112 68t112 -68t68 -112q0 -239 -137 -463l-143 31q58 127 73 260q-49 21 -101 78t-52 94z" />
<glyph unicode="-" horiz-adv-x="890" d="M109 467v225h675v-225h-675z" />
<glyph unicode="." horiz-adv-x="503" d="M72 160q0 44 68 112t112 68t112 -68t68 -112t-68 -112t-112 -68t-112 68t-68 112z" />
<glyph unicode="/" horiz-adv-x="935" d="M51 -164l615 1680h235l-614 -1680h-236z" />
<glyph unicode="0" horiz-adv-x="1249" d="M102 666q0 158 28.5 283t77 207t116 136.5t142 77.5t159.5 23t159 -23t142 -77.5t116 -136.5t76.5 -207t28.5 -283q0 -146 -28.5 -263t-77 -195t-115.5 -130t-142 -75t-159 -23t-159 23t-142.5 75t-116 130t-77 195t-28.5 263zM389 666q0 -222 61.5 -341.5t174.5 -119.5 t174 119.5t61 341.5q0 250 -60.5 375.5t-174.5 125.5t-175 -125.5t-61 -375.5z" />
<glyph unicode="1" horiz-adv-x="878" d="M133 1331l354 41h160v-1182l133 -20q13 -78 0 -170h-549q-13 92 0 170l140 20v953l-236 -21z" />
<glyph unicode="2" horiz-adv-x="1118" d="M92 0v139q221 220 354.5 388t184.5 277.5t51 199.5q0 163 -203 163q-73 0 -137 -18l-20 -188q-35 -6 -91.5 -6t-93.5 6v342q84 43 172.5 66.5t210.5 23.5q228 0 335.5 -90.5t107.5 -268.5q0 -166 -106.5 -347t-360.5 -439l-41 -19v-4h331l15 137q35 6 91 6t93 -6v-362 h-893z" />
<glyph unicode="3" horiz-adv-x="1105" d="M133 49v248q143 -92 332 -92q119 0 180.5 47t61.5 139q0 113 -79.5 160t-248.5 47h-37l20 219h17q148 0 224.5 48.5t76.5 133.5q0 168 -205 168q-55 0 -117 -16l-20 -190q-35 -6 -91 -6t-93 6v342q176 90 362 90q206 0 320 -98t114 -271q0 -67 -22.5 -124.5t-57 -93 t-71 -56.5t-70.5 -27v-4q28 -5 59.5 -17.5t69 -39t67 -62.5t49 -93.5t19.5 -125.5q0 -131 -66 -223t-174 -135t-247 -43q-238 0 -373 69z" />
<glyph unicode="4" horiz-adv-x="1187" d="M72 532l485 840h404v-799h155l-10 -225h-145v-158l133 -20q13 -78 0 -170h-549q-13 92 0 170l139 20v158h-561zM348 573h336v646h-4l-23 -93l-309 -548v-5z" />
<glyph unicode="5" horiz-adv-x="1157" d="M143 49v248q67 -43 165 -67.5t188 -24.5q127 0 194.5 55t67.5 162q0 98 -60 152.5t-182 54.5q-177 0 -356 -49l82 792h751v-342q-35 -6 -91 -6t-93 6l-12 117h-322l-35 -311q86 8 138 8q75 0 141.5 -14t127 -46.5t103.5 -80t68.5 -120t25.5 -161.5q0 -140 -71 -242.5 t-184 -151t-252 -48.5q-259 0 -394 69z" />
<glyph unicode="6" horiz-adv-x="1183" d="M113 584q0 165 42.5 299.5t119 228t183.5 157.5t233.5 94t271.5 30v-226q-232 0 -376 -108.5t-186 -304.5q120 120 297 120q54 0 106.5 -12t105.5 -43.5t92.5 -79t64.5 -124t25 -173.5q0 -113 -39 -203.5t-106 -145.5t-150 -84t-176 -29q-85 0 -157.5 18.5t-138.5 62.5 t-112 112t-73 172.5t-27 238.5zM401 514q17 -309 220 -309q96 0 147 59.5t51 167.5q0 109 -54 165t-140 56q-141 0 -224 -139z" />
<glyph unicode="7" horiz-adv-x="1034" d="M72 1010v362h911v-137l-498 -1255l-290 20l471 1126l41 17v4h-437l-14 -137q-35 -6 -91 -6t-93 6z" />
<glyph unicode="8" horiz-adv-x="1224" d="M119 371q0 64 19.5 120t48 93t65.5 67t65.5 45t55.5 25v4q-205 103 -205 309q0 111 62 194t161.5 124t220.5 41q122 0 222.5 -41t162.5 -124t62 -194q0 -206 -205 -309v-4q27 -10 55.5 -25t65.5 -45t65.5 -67t48 -93t19.5 -120q0 -81 -29.5 -148t-78 -111.5t-113.5 -74.5 t-134 -43.5t-141 -13.5t-141 13.5t-133.5 43.5t-112.5 74.5t-77 111.5t-29 148zM406 397q0 -93 57.5 -142.5t148.5 -49.5q92 0 150.5 49.5t58.5 142.5q0 84 -56.5 138t-152.5 75q-94 -21 -150 -75t-56 -138zM430 1008q0 -161 182 -201q183 40 183 201q0 73 -49.5 116 t-133.5 43q-83 0 -132.5 -43t-49.5 -116z" />
<glyph unicode="9" horiz-adv-x="1183" d="M92 930q0 114 39 204.5t106 146t150 84t176 28.5q85 0 157.5 -18.5t138.5 -62.5t112 -112t73 -173t27 -239q0 -165 -42.5 -299t-119 -228t-183.5 -157.5t-233.5 -93.5t-271.5 -30v225q231 0 374.5 108t186.5 305q-120 -120 -297 -120q-54 0 -106.5 12.5t-105 44t-92 79 t-64.5 124t-25 172.5zM365 940q0 -108 54 -164.5t140 -56.5q57 0 117.5 32t105.5 107q-20 309 -219 309q-96 0 -147 -59.5t-51 -167.5z" />
<glyph unicode=":" horiz-adv-x="544" d="M72 160q0 44 68 112t112 68t112 -68t68 -112t-68 -112t-112 -68t-112 68t-68 112zM72 823q0 44 68 112.5t112 68.5t112 -68.5t68 -112.5t-68 -112t-112 -68t-112 68t-68 112z" />
<glyph unicode=";" horiz-adv-x="503" d="M72 160q0 44 68 112t112 68t112 -68t68 -112q3 -234 -137 -463l-143 31q58 127 73 260q-49 21 -101 78t-52 94zM72 823q0 44 68 112.5t112 68.5t112 -68.5t68 -112.5t-68 -112t-112 -68t-112 68t-68 112z" />
<glyph unicode="&#x3c;" horiz-adv-x="978" d="M72 539v194l813 369l2 -273l-553 -180l-41 -10v-4l41 -10l553 -181l-2 -272z" />
<glyph unicode="=" horiz-adv-x="1034" d="M61 354v195h912v-195h-912zM61 723v195h912v-195h-912z" />
<glyph unicode="&#x3e;" horiz-adv-x="978" d="M92 444l553 181l41 10v4l-41 10l-553 180l2 273l813 -369v-194l-813 -367z" />
<glyph unicode="?" horiz-adv-x="1009" d="M92 961v342q84 43 172.5 66.5t210.5 23.5q443 0 443 -338q0 -55 -20.5 -105t-53 -89.5t-72.5 -76.5t-79.5 -74t-72 -75t-53 -86t-20.5 -100h-195q0 91 29.5 165t71 122t83.5 91t71.5 92.5t29.5 104.5q0 69 -52 106t-151 37q-72 0 -137 -18l-21 -188q-35 -6 -91 -6t-93 6z M279 152q0 43 64.5 107.5t107.5 64.5q42 0 107 -65t65 -107q0 -41 -65.5 -106.5t-106.5 -65.5q-42 0 -107 65t-65 107z" />
<glyph unicode="@" horiz-adv-x="2125" d="M102 492q0 199 72 372.5t200.5 299.5t314.5 198t405 72q217 0 393.5 -67.5t290 -183t174.5 -267t61 -322.5q0 -277 -125 -425.5t-329 -148.5q-210 0 -299 103q-134 -103 -271 -103q-163 0 -267 128.5t-104 347.5q0 224 115.5 348.5t329.5 124.5q85 0 196 -25t199 -76 v-524q0 -70 25 -108.5t92 -38.5q182 0 182 397q0 97 -20.5 185.5t-70 173t-123.5 146t-189.5 99t-259.5 37.5q-328 0 -526.5 -202t-198.5 -541q0 -336 197.5 -529.5t527.5 -193.5q291 0 487 69v-188q-230 -80 -487 -80q-219 0 -405 69t-314.5 191t-200.5 292.5t-72 369.5z M877 496q0 -287 186 -287q74 0 147 43v4v506q-70 20 -137 20q-196 0 -196 -286z" />
<glyph unicode="A" horiz-adv-x="1490" d="M12 0q-6 46 -6 88.5t6 81.5l148 20l360 1000l-112 14q-6 38 -6 80t6 88h524l420 -1184l127 -18q6 -39 6.5 -81.5t-6.5 -88.5h-557q-6 46 -6 88.5t6 81.5l133 18l-70 211h-473l-70 -211l127 -18q6 -39 6.5 -81.5t-6.5 -88.5h-557zM588 625h323l-149 450l-8 103h-4 l-11 -103z" />
<glyph unicode="B" horiz-adv-x="1275" d="M68 0q-6 46 -6 88.5t6 81.5l139 20v994l-139 20q-6 38 -6 80t6 88h139q73 0 212 10.5t212 10.5q231 0 361 -98.5t130 -270.5q0 -69 -22.5 -127t-58 -93.5t-72 -56t-70.5 -26.5v-4q29 -5 62.5 -17.5t74 -39.5t72.5 -62.5t54 -92.5t22 -124q0 -103 -41.5 -181 t-116.5 -125.5t-174.5 -71t-220.5 -23.5q-73 0 -212 10t-212 10h-139zM483 209q94 -4 148 -4q266 0 266 196q0 100 -73.5 144.5t-194.5 44.5h-146v-381zM483 815h146q102 0 162.5 50t60.5 134q0 78 -56 123t-165 45q-54 0 -148 -4v-348z" />
<glyph unicode="C" horiz-adv-x="1269" d="M88 686q0 154 40.5 276.5t107.5 201.5t159 132t188 75t201 22q218 0 394 -90v-342q-37 -6 -93.5 -6t-91.5 6l-20 182q-101 24 -189 24q-188 0 -298.5 -121.5t-110.5 -359.5q0 -236 113.5 -358.5t295.5 -122.5q110 0 214.5 32t179.5 80v-247q-176 -90 -394 -90 q-105 0 -201 22t-188 74.5t-159 131.5t-107.5 201.5t-40.5 276.5z" />
<glyph unicode="D" horiz-adv-x="1470" d="M68 0q-6 46 -6 88.5t6 81.5l139 20v994l-139 20q-6 38 -6 80t6 88h139q47 1 204.5 11t270.5 10q105 0 201 -22t188 -75t159 -132t107.5 -201.5t40.5 -276.5t-40.5 -276.5t-107.5 -201.5t-159 -131.5t-188 -74.5t-201 -22t-257 10t-218 10h-139zM483 209q118 -4 199 -4 q182 0 296 122.5t114 358.5t-114 358.5t-296 122.5q-81 0 -199 -4v-954z" />
<glyph unicode="E" horiz-adv-x="1132" d="M68 0q-6 46 -6 88.5t6 81.5l139 20v994l-139 20q-6 38 -6 80t6 88h958v-362q-37 -6 -93 -6t-91 6l-15 137h-344v-346l396 14v-225l-396 12v-377h379l15 137q37 6 93 6t91 -6v-362h-993z" />
<glyph unicode="F" horiz-adv-x="1056" d="M68 0q-6 46 -6 88.5t6 81.5l139 20v994l-139 20q-6 38 -6 80t6 88h958v-362q-37 -6 -93 -6t-91 6l-15 137h-344v-367l396 15v-226l-396 13v-392l215 -20q6 -39 6 -81.5t-6 -88.5h-630z" />
<glyph unicode="G" horiz-adv-x="1361" d="M88 686q0 154 40.5 276.5t107.5 201.5t159 132t188 75t201 22q238 0 414 -90v-342q-37 -6 -93 -6t-91 6l-21 180q-102 26 -209 26q-188 0 -298.5 -121.5t-110.5 -359.5q0 -236 113.5 -358.5t295.5 -122.5q89 0 189 14v320h-203l14 225h455v-694q-176 -90 -455 -90 q-105 0 -201 22t-188 74.5t-159 131.5t-107.5 201.5t-40.5 276.5z" />
<glyph unicode="H" horiz-adv-x="1595" d="M68 0q-6 46 -6 88.5t6 81.5l139 20v994l-139 20q-6 38 -6 80t6 88h548q6 -46 6.5 -88t-6.5 -80l-133 -20v-369h635v369l-139 20q-6 38 -6.5 80t6.5 88h549q6 -46 6 -88t-6 -80l-133 -20v-994l133 -20q6 -39 6 -81.5t-6 -88.5h-549q-6 46 -6.5 88.5t6.5 81.5l139 20v400 h-635v-400l133 -20q6 -39 6.5 -81.5t-6.5 -88.5h-548z" />
<glyph unicode="I" horiz-adv-x="704" d="M78 0q-6 46 -6 88.5t6 81.5l139 20v994l-139 20q-6 38 -6 80t6 88h549q6 -46 6.5 -88t-6.5 -80l-133 -20v-994l133 -20q6 -39 6.5 -81.5t-6.5 -88.5h-549z" />
<glyph unicode="J" horiz-adv-x="720" d="M35 -160q125 49 170 117t45 186v1041l-139 20q-7 38 -7 80t7 88h548q7 -46 7 -88t-7 -80l-133 -20v-989q0 -115 -22 -199.5t-73.5 -153.5t-142 -113t-222.5 -67z" />
<glyph unicode="K" horiz-adv-x="1372" d="M68 0q-6 46 -6 88.5t6 81.5l139 20v994l-139 20q-6 38 -6 80t6 88h548q6 -46 6.5 -88t-6.5 -80l-133 -20v-994l133 -20q6 -39 6.5 -81.5t-6.5 -88.5h-548zM535 715l362 475l-90 14q-6 38 -6.5 80t6.5 88h526q6 -46 6.5 -88t-6.5 -80l-159 -20l-345 -457l-51 -10v-4 l51 -11l371 -514l170 -18q6 -39 6 -81.5t-6 -88.5h-364z" />
<glyph unicode="L" horiz-adv-x="1091" d="M68 0q-6 46 -6 88.5t6 81.5l139 20v994l-139 20q-6 38 -6 80t6 88h548q6 -46 6 -88t-6 -80l-133 -20v-959h365l14 137q35 6 91.5 6t93.5 -6v-362h-979z" />
<glyph unicode="M" horiz-adv-x="2066" d="M47 0q-6 46 -6.5 88.5t6.5 81.5l139 18l166 1000l-119 16q-6 38 -6.5 80t6.5 88h527l264 -1034l8 -102h4l11 102l262 1034h528q6 -46 6.5 -88t-6.5 -80l-119 -16l164 -1000l137 -18q6 -39 6.5 -81.5t-6.5 -88.5h-559q-6 46 -6 88.5t6 81.5l129 18l-104 867l-6 112h-4 l-11 -112l-264 -1014h-332l-262 1014l-10 112h-4l-6 -112l-107 -867l127 -18q6 -39 6 -81.5t-6 -88.5h-559z" />
<glyph unicode="N" horiz-adv-x="1615" d="M100 0q-6 46 -6 88.5t6 81.5l138 20v994l-138 20q-6 38 -6 80t6 88h486l536 -942l23 -113h4v867l-137 20q-6 38 -6 80t6 88h547q6 -46 6.5 -88t-6.5 -80l-134 -20v-1184h-344l-540 940l-23 102h-4v-852l133 -20q6 -39 6.5 -81.5t-6.5 -88.5h-547z" />
<glyph unicode="O" horiz-adv-x="1566" d="M88 686q0 154 40.5 276.5t107.5 201.5t159 132t188 75t201 22t201 -22t188 -75t159 -132t108 -201.5t41 -276.5q0 -153 -41 -276t-108 -202t-159 -131.5t-188 -74.5t-201 -22t-201 22t-188 74.5t-159 131.5t-107.5 201.5t-40.5 276.5zM375 686q0 -236 113.5 -358.5 t295.5 -122.5t296 122.5t114 358.5t-114 358.5t-296 122.5t-295.5 -122.5t-113.5 -358.5z" />
<glyph unicode="P" horiz-adv-x="1183" d="M63 0q-6 46 -6.5 88.5t6.5 81.5l138 20v994l-138 20q-6 38 -6.5 80t6.5 88h138q73 0 212 10.5t212 10.5q231 0 364 -108.5t133 -311.5q0 -199 -133.5 -306.5t-363.5 -107.5q-99 0 -148 2v-371l215 -20q6 -39 6 -81.5t-6 -88.5h-629zM477 786q49 -2 148 -2 q106 0 163.5 47.5t57.5 141.5q0 98 -57 146t-164 48q-50 0 -148 -4v-377z" />
<glyph unicode="Q" horiz-adv-x="1546" d="M78 686q0 154 40.5 276.5t107.5 201.5t159 132t188 75t201 22t201 -22t188 -75t159 -132t107.5 -201.5t40.5 -276.5q0 -208 -70.5 -354t-193.5 -230l207 -307h-311l-125 207q-107 -22 -203 -22q-105 0 -201 22t-188 74.5t-159 131.5t-107.5 201.5t-40.5 276.5zM365 686 q0 -236 113.5 -358.5t295.5 -122.5t296 122.5t114 358.5t-114 358.5t-296 122.5t-295.5 -122.5t-113.5 -358.5z" />
<glyph unicode="R" horiz-adv-x="1296" d="M63 0q-6 46 -6.5 88.5t6.5 81.5l138 20v994l-138 20q-6 38 -6.5 80t6.5 88h138q73 0 212 10.5t212 10.5q221 0 352 -109t131 -311q0 -133 -65 -226.5t-181 -138.5l262 -420v2l166 -20q6 -39 6 -81.5t-6 -88.5h-366l-330 569q-78 0 -117 2v-381l133 -20q6 -39 6 -81.5 t-6 -88.5h-547zM477 797q49 -2 148 -2q96 0 151 46t55 132q0 97 -54.5 145.5t-151.5 48.5q-50 0 -148 -4v-366z" />
<glyph unicode="S" horiz-adv-x="1079" d="M102 993q0 181 119 290.5t344 109.5q100 0 178 -23t164 -67v-342q-35 -6 -91 -6t-93 6l-21 186q-72 20 -137 20q-94 0 -140 -37t-46 -116q0 -39 20.5 -71.5t55 -56t79.5 -44.5t94.5 -43t99 -46.5t94.5 -58.5t79.5 -76t55 -103t20.5 -134q0 -192 -133 -296.5t-359 -104.5 q-190 0 -366 90v342q35 6 91 6t93 -6l19 -185q80 -22 163 -22q100 0 156.5 43.5t56.5 122.5q0 54 -33 94.5t-85.5 68t-116 53t-127 58t-116 75t-85.5 112.5t-33 161z" />
<glyph unicode="T" horiz-adv-x="1224" d="M31 1010v362h1163v-362q-37 -6 -93 -6t-91 6l-15 137h-241v-957l133 -20q6 -39 6.5 -81.5t-6.5 -88.5h-547q-6 46 -6 88.5t6 81.5l137 18v959h-248l-14 -137q-35 -6 -91 -6t-93 6z" />
<glyph unicode="U" horiz-adv-x="1480" d="M41 1204q-6 38 -6.5 80t6.5 88h547q6 -46 6 -88t-6 -80l-133 -20v-682q0 -297 276 -297q277 0 277 297v682l-138 20q-6 38 -6 80t6 88h547q6 -46 6.5 -88t-6.5 -80l-133 -20v-692q0 -251 -144 -381.5t-409 -130.5t-409 130.5t-144 381.5v692z" />
<glyph unicode="V" horiz-adv-x="1470" d="M27 1204q-6 38 -6.5 80t6.5 88h553q6 -46 6 -88t-6 -80l-125 -20l276 -887l10 -92h4l9 92l280 887l-125 20q-6 38 -6.5 80t6.5 88h535q6 -46 6 -88t-6 -80l-129 -20l-408 -1184h-346l-401 1184z" />
<glyph unicode="W" horiz-adv-x="2078" d="M16 1204q-6 38 -6 80t6 88h553q6 -46 6.5 -88t-6.5 -80l-129 -20l199 -877l8 -102h4l11 102l223 1045h329l211 -1045l9 -102h4l10 102l197 879l-119 18q-6 38 -6 80t6 88h536q6 -46 6 -88t-6 -80l-127 -20l-321 -1184h-338l-221 1047l-11 120h-4l-8 -120l-223 -1047h-338 l-321 1184z" />
<glyph unicode="X" horiz-adv-x="1361" d="M39 0q-6 46 -6.5 88.5t6.5 81.5l133 18l293 525l41 10v4l-41 8l-268 449l-150 20q-6 38 -6.5 80t6.5 88h549q6 -46 6 -88t-6 -80l-84 -14l178 -324h4l168 326l-88 12q-6 38 -6 80t6 88h533q6 -46 6.5 -88t-6.5 -80l-150 -18l-264 -449l-35 -10v-4l35 -10l297 -525 l135 -18q6 -39 6.5 -81.5t-6.5 -88.5h-547q-6 46 -6 88.5t6 81.5l92 12l-202 385h-4l-193 -381l117 -16q6 -39 6 -81.5t-6 -88.5h-549z" />
<glyph unicode="Y" horiz-adv-x="1337" d="M23 1204q-7 38 -7 80t7 88h548q7 -46 7 -88t-7 -80l-102 -18l201 -443l10 -112h4l8 112l199 445l-107 16q-6 38 -6 80t6 88h533q7 -46 7 -88t-7 -80l-152 -18l-354 -707v-289l133 -20q6 -39 6 -81.5t-6 -88.5h-547q-7 46 -7 88.5t7 81.5l138 20v289l-357 705z" />
<glyph unicode="Z" horiz-adv-x="1148" d="M68 0v139l634 987l41 17v4h-458l-13 -137q-37 -6 -93 -6t-91 6v362h985v-137l-633 -989l-41 -17v-4h486l14 137q35 6 91 6t93 -6v-362h-1015z" />
<glyph unicode="[" horiz-adv-x="589" d="M92 -287v1977h457v-195h-205v-1587h205v-195h-457z" />
<glyph unicode="\" horiz-adv-x="946" d="M51 1516h236l614 -1680h-235z" />
<glyph unicode="]" horiz-adv-x="589" d="M41 -92h205v1587h-205v195h457v-1977h-457v195z" />
<glyph unicode="^" horiz-adv-x="1032" d="M51 1024l367 711h194l369 -711l-272 -2l-181 451l-10 71h-4l-10 -71l-180 -451z" />
<glyph unicode="_" horiz-adv-x="911" d="M41 -41h860v-195h-860v195z" />
<glyph unicode="`" horiz-adv-x="595" d="M51 1372l115 182l395 -290l-78 -127z" />
<glyph unicode="a" horiz-adv-x="1058" d="M92 229q0 145 144 234t403 119v55q0 104 -39.5 146t-144.5 42q-162 0 -314 -96v219q146 76 355 76q221 0 315 -92.5t94 -274.5v-467l133 -20q6 -39 6 -81.5t-6 -88.5h-368q-12 44 -21 84q-142 -104 -282 -104q-118 0 -196.5 65.5t-78.5 183.5zM334 274q0 -51 28 -80.5 t82 -29.5q103 0 195 74v208q-91 -11 -153.5 -29t-94 -41.5t-44.5 -47.5t-13 -54z" />
<glyph unicode="b" horiz-adv-x="1148" d="M2 1348q-8 46 -8 88t8 80l373 20q31 -111 31 -225v-367q129 80 251 80q181 0 295.5 -140.5t114.5 -381.5q0 -248 -128 -385t-364 -137q-151 0 -305 53l-49 -33h-82v1341zM406 203q70 -23 159 -23q226 0 226 322q0 165 -53.5 244t-162.5 79q-86 0 -169 -53v-569z" />
<glyph unicode="c" horiz-adv-x="948" d="M82 502q0 248 127.5 385t363.5 137q176 0 308 -76v-289q-35 -6 -86 -6t-88 6l-19 156q-52 10 -94 10q-236 0 -236 -323q0 -322 236 -322q74 0 140.5 21.5t146.5 74.5v-221q-130 -75 -308 -75q-236 0 -363.5 137t-127.5 385z" />
<glyph unicode="d" horiz-adv-x="1183" d="M82 502q0 248 127.5 385t363.5 137q90 0 170 -25v342l-139 7q-6 46 -6 88t6 80l375 20q31 -111 31 -225v-1121l133 -20q6 -39 6.5 -81.5t-6.5 -88.5h-369q-6 20 -16 68q-138 -88 -266 -88q-181 0 -295.5 140.5t-114.5 381.5zM358 502q0 -164 53 -243t162 -79q90 0 170 51 v562q-60 32 -159 32q-226 0 -226 -323z" />
<glyph unicode="e" horiz-adv-x="1071" d="M82 502q0 244 133 383t358 139q185 0 300.5 -100.5t115.5 -288.5q0 -54 -8 -117l-631 -67q9 -136 72 -203.5t172 -67.5q88 0 162.5 21.5t154.5 74.5v-221q-130 -75 -338 -75q-236 0 -363.5 137t-127.5 385zM344 590l391 53q0 191 -162 191q-203 0 -229 -244z" />
<glyph unicode="f" horiz-adv-x="860" d="M78 805v199h153v133q0 194 109 296.5t285 102.5q127 0 231 -55v-209q-96 65 -186 65q-35 0 -63 -9.5t-54 -33.5t-40.5 -72.5t-14.5 -119.5v-98h317l-10 -199h-307v-615l133 -20q7 -39 7 -81.5t-7 -88.5h-539q-6 46 -6 88.5t6 81.5l139 20v615h-153z" />
<glyph unicode="g" horiz-adv-x="1142" d="M119 -213q0 64 35.5 128.5t97.5 117.5q-105 52 -105 147q0 104 134 228q-77 45 -119.5 115.5t-42.5 158.5q0 153 123.5 247.5t316.5 94.5q91 0 180 -29l146 156l141 -111l-115 -151q88 -91 88 -207q0 -153 -123.5 -248.5t-316.5 -95.5q-83 0 -153 18q-56 -50 -56 -94 q0 -38 55.5 -54.5t163.5 -25.5q63 -5 106 -9t102 -14t98.5 -23t82.5 -35t68.5 -50.5t42 -69.5t16.5 -92q0 -168 -155.5 -269t-411.5 -101q-198 0 -298.5 73t-100.5 195zM322 -170q0 -135 217 -135q136 0 224.5 42.5t88.5 119.5q0 57 -77.5 79t-272.5 39q-66 7 -111 17 q-69 -74 -69 -162zM365 682q0 -71 52.5 -114.5t141.5 -43.5t141 43.5t52 114.5t-53.5 114.5t-139.5 43.5q-89 0 -141.5 -43.5t-52.5 -114.5z" />
<glyph unicode="h" horiz-adv-x="1277" d="M68 0q-6 46 -6 88.5t6 81.5l139 20v1151l-139 7q-6 46 -6 88t6 80l374 20q31 -111 31 -225v-391q151 104 301 104q172 0 248 -88.5t76 -267.5v-478l133 -20q6 -39 6 -81.5t-6 -88.5h-400v657q0 92 -29.5 130t-109.5 38q-111 0 -219 -82v-553l133 -20q6 -39 6 -81.5 t-6 -88.5h-538z" />
<glyph unicode="i" horiz-adv-x="647" d="M63 0q-6 46 -6.5 88.5t6.5 81.5l138 20v639l-138 7q-6 46 -6.5 88t6.5 80l373 20q31 -111 31 -225v-609l133 -20q6 -39 6 -81.5t-6 -88.5h-537zM154 1341q0 43 64.5 107.5t107.5 64.5t107.5 -64.5t64.5 -107.5t-64.5 -107.5t-107.5 -64.5t-107.5 64.5t-64.5 107.5z" />
<glyph unicode="j" horiz-adv-x="636" d="M39 -303q101 42 142.5 111.5t41.5 191.5v829l-139 7q-6 46 -6 88t6 80l375 20q30 -107 30 -225v-768q0 -234 -93.5 -354.5t-325.5 -157.5zM176 1341q0 43 64.5 107.5t107.5 64.5t107.5 -64.5t64.5 -107.5t-64.5 -107.5t-107.5 -64.5t-107.5 64.5t-64.5 107.5z" />
<glyph unicode="k" horiz-adv-x="1249" d="M63 0q-6 46 -6.5 88.5t6.5 81.5l138 20v1151l-138 7q-6 46 -6.5 88t6.5 80l373 20q31 -111 31 -225v-1121l123 -20q6 -39 6 -81.5t-6 -88.5h-527zM518 547l227 276l-83 13q-6 38 -6 80t6 88h524q6 -46 6 -88t-6 -80l-172 -11l-213 -266l-41 -10v-4l41 -8l258 -355v8 l166 -20q6 -39 6.5 -81.5t-6.5 -88.5h-348z" />
<glyph unicode="l" horiz-adv-x="698" d="M84 0q-6 46 -6 88.5t6 81.5l137 20v1151l-137 7q-6 46 -6 88t6 80l373 20q30 -107 30 -225v-1121l134 -20q6 -39 6.5 -81.5t-6.5 -88.5h-537z" />
<glyph unicode="m" horiz-adv-x="1855" d="M63 0q-6 46 -6.5 88.5t6.5 81.5l138 20v639l-138 7q-6 46 -6.5 88t6.5 80l373 20q19 -74 23 -109q149 109 301 109q200 0 272 -135q78 64 166 99.5t170 35.5q169 0 243.5 -88.5t74.5 -267.5v-478l133 -20q6 -39 6 -81.5t-6 -88.5h-400v657q0 92 -28.5 130t-104.5 38 q-109 0 -209 -77v-558l133 -20q6 -39 6.5 -81.5t-6.5 -88.5h-399v657q0 91 -29 129.5t-104 38.5q-111 0 -211 -77v-558l133 -20q6 -39 6 -81.5t-6 -88.5h-537z" />
<glyph unicode="n" horiz-adv-x="1261" d="M63 0q-6 46 -6.5 88.5t6.5 81.5l138 20v639l-138 7q-6 46 -6.5 88t6.5 80l373 20q19 -74 23 -109q160 109 311 109q172 0 247 -88.5t75 -267.5v-478l133 -20q6 -39 6 -81.5t-6 -88.5h-400v657q0 92 -29 130t-108 38q-113 0 -221 -82v-553l133 -20q6 -39 6 -81.5t-6 -88.5 h-537z" />
<glyph unicode="o" horiz-adv-x="1146" d="M82 502q0 248 127.5 385t363.5 137t364 -137t128 -385t-128 -385t-364 -137t-363.5 137t-127.5 385zM358 502q0 -164 53 -243t162 -79t162 79t53 243q0 165 -53 244t-162 79t-162 -79t-53 -244z" />
<glyph unicode="p" horiz-adv-x="1189" d="M43 -293l137 21v1101l-137 7q-7 46 -7 88t7 80l373 20q12 -48 18 -86q134 86 264 86q181 0 295.5 -140.5t114.5 -381.5q0 -248 -128 -385t-364 -137q-94 0 -170 24v-276l205 -21q7 -39 7 -81t-7 -87h-608q-7 45 -7 87t7 81zM446 211q55 -31 160 -31q225 0 225 322 q0 165 -53 244t-162 79q-87 0 -170 -53v-561z" />
<glyph unicode="q" horiz-adv-x="1132" d="M82 502q0 248 127.5 385t363.5 137q152 0 306 -53l49 33h82v-1465h-498q-6 45 -6 87t6 81l229 21h2v331q-127 -79 -251 -79q-181 0 -295.5 140.5t-114.5 381.5zM358 502q0 -164 53 -243t162 -79q90 0 170 51v570q-73 24 -159 24q-226 0 -226 -323z" />
<glyph unicode="r" horiz-adv-x="962" d="M57 0q-6 46 -6.5 88.5t6.5 81.5l140 20v639l-140 7q-6 46 -6.5 88t6.5 80l375 20q19 -79 25 -139q153 139 319 139q56 0 85.5 -28.5t29.5 -96.5v-297q-44 -7 -87.5 -7t-86.5 7l-23 184q-6 0 -18 1t-17 1q-106 0 -196 -90v-508l205 -20q6 -39 6 -81.5t-6 -88.5h-611z" />
<glyph unicode="s" horiz-adv-x="927" d="M88 713q0 139 104 225t289 86q180 0 312 -76v-272q-35 -6 -86.5 -6t-88.5 6l-22 149q-62 15 -115 15q-66 0 -101.5 -26t-35.5 -69q0 -32 27.5 -57.5t71 -45t96.5 -40t106 -48t96.5 -62.5t71 -90.5t27.5 -125.5q0 -145 -111.5 -220.5t-304.5 -75.5q-192 0 -322 75v273 q42 7 86 7t88 -7l19 -148q63 -16 129 -16q72 0 116 24.5t44 69.5q0 33 -27.5 59.5t-71 47t-96.5 41t-106 47.5t-96.5 60t-71 84.5t-27.5 115.5z" />
<glyph unicode="t" horiz-adv-x="845" d="M57 805v199h160l49 286l211 21v-307h297l-10 -199h-287v-426q0 -116 30 -157.5t95 -41.5q81 0 172 66v-211q-104 -55 -221 -55q-342 0 -342 368v457h-154z" />
<glyph unicode="u" horiz-adv-x="1210" d="M23 836q-6 46 -6.5 88t6.5 80l374 20q31 -111 31 -225v-453q0 -91 27.5 -128.5t99.5 -37.5q117 0 221 90v559l-139 7q-6 46 -6.5 88t6.5 80l375 20q30 -107 30 -225v-609l134 -20q6 -39 6 -81.5t-6 -88.5h-369q-18 64 -23 100q-155 -120 -311 -120q-164 0 -237.5 89 t-73.5 267v493z" />
<glyph unicode="v" horiz-adv-x="1200" d="M-4 836q-6 46 -6 88t6 80l375 20l233 -721l8 -102h4l11 102l164 512l-123 21q-6 38 -6 80t6 88h536q6 -46 6 -88t-6 -80l-141 -21l-315 -815h-275l-321 827z" />
<glyph unicode="w" horiz-adv-x="1753" d="M-10 836q-6 46 -6 88t6 80l377 20l176 -721l8 -102h4l10 102l170 670l293 20l168 -690l8 -102h4l11 102l131 512l-125 21q-6 38 -6.5 80t6.5 88h536q6 -46 6.5 -88t-6.5 -80l-143 -21l-275 -815h-274l-176 713l-10 116h-4l-9 -116l-178 -713h-291l-266 829z" />
<glyph unicode="x" horiz-adv-x="1202" d="M43 836q-6 46 -6.5 88t6.5 80l373 20l205 -379h4l96 176l-96 15q-6 38 -6.5 80t6.5 88h497q6 -46 6 -88t-6 -80l-151 -21l-176 -283l-41 -8v-4l41 -10l202 -322l164 -18q6 -39 6.5 -81.5t-6.5 -88.5h-354l-209 381h-4l-109 -193l99 -18q6 -39 6 -81.5t-6 -88.5h-506 q-6 46 -6 88.5t6 81.5l149 18l197 322l41 10v4l-41 8l-191 295z" />
<glyph unicode="y" horiz-adv-x="1202" d="M-4 836q-6 46 -6 88t6 80l375 20l241 -721l11 -123h4l8 123l158 512l-123 21q-6 38 -6 80t6 88h536q6 -46 6 -88t-6 -80l-139 -21l-492 -1276l-274 -20v82l203 374v5l-348 847z" />
<glyph unicode="z" horiz-adv-x="993" d="M68 0v109l479 675l41 17v4h-312l-14 -148q-37 -6 -88 -6t-86 6v347h819v-113l-477 -670l-39 -16v-4h336l16 145q35 6 86.5 6t88.5 -6v-346h-850z" />
<glyph unicode="{" horiz-adv-x="602" d="M92 653v97q41 10 68 29.5t39.5 47t17 53t4.5 60.5q0 66 -20.5 246.5t-20.5 247.5q0 46 15.5 85.5t50.5 77.5t104 62.5t166 30.5l25 -187q-59 -18 -80 -54.5t-21 -107.5q0 -67 20.5 -226t20.5 -226q0 -131 -159 -187q159 -59 159 -188q0 -66 -20.5 -226t-20.5 -227 q0 -71 21 -107t80 -54l-25 -187q-97 6 -166 30.5t-104 62.5t-50.5 77.5t-15.5 85.5q0 67 20.5 247t20.5 247q0 35 -4.5 60.5t-17 53t-39.5 47t-68 29.5z" />
<glyph unicode="|" horiz-adv-x="604" d="M164 -410v2048h262v-2048h-262z" />
<glyph unicode="}" horiz-adv-x="602" d="M61 -100q61 18 82 54t21 107q0 67 -20.5 227t-20.5 226q0 130 158 188q-158 56 -158 187q0 67 20.5 226t20.5 226q0 71 -21.5 107.5t-81.5 54.5l27 187q97 -6 165.5 -30.5t103.5 -62.5t50 -77.5t15 -85.5q0 -67 -20.5 -247.5t-20.5 -246.5q0 -35 4.5 -60.5t17 -53 t39.5 -47t68 -29.5v-97q-41 -10 -68 -29.5t-39.5 -47t-17 -53t-4.5 -60.5q0 -67 20.5 -247t20.5 -247q0 -46 -15 -85.5t-50 -77.5t-103.5 -62.5t-165.5 -30.5z" />
<glyph unicode="~" horiz-adv-x="1038" d="M61 696l70 -174q61 50 113 68t110 18q46 0 92.5 -15t80 -33t85 -33t107.5 -15q107 0 258 80l-70 176q-88 -63 -180 -63q-50 0 -109 24.5t-126 49t-136 24.5q-130 0 -295 -107z" />
<glyph unicode="&#xa2;" horiz-adv-x="948" d="M82 502q0 208 91.5 339.5t262.5 168.5v178h266v-174q97 -18 179 -66v-289q-35 -6 -86 -6t-88 6l-19 156q-52 10 -94 10q-236 0 -236 -323q0 -322 236 -322q74 0 140.5 21.5t146.5 74.5v-221q-80 -46 -179 -65v-174h-266v178q-171 37 -262.5 168.5t-91.5 339.5z" />
<glyph unicode="&#xa3;" horiz-adv-x="1144" d="M72 614v154h135v266q0 178 107 268.5t335 90.5q122 0 210.5 -23.5t172.5 -66.5v-342q-37 -6 -93 -6t-91 6l-21 188q-64 18 -137 18q-203 0 -203 -163v-236h406v-154h-406v-92q0 -46 -14.5 -99.5t-56 -112t-103.5 -85.5h521l14 137q35 6 91 6t93 -6v-362h-948v225 q56 40 89.5 133t33.5 164v92h-135z" />
<glyph unicode="&#xa5;" horiz-adv-x="1241" d="M23 1204q-13 77 0 168h548q13 -91 0 -168l-102 -18l201 -443l10 -112h4l8 112l199 445l-107 16q-13 77 0 168h533q13 -91 0 -168l-152 -18l-286 -572h251v-143h-319v-78h319v-143h-319v-60l133 -20q13 -78 0 -170h-547q-13 92 0 170l138 20v60h-347v143h347v78h-347v143 h279l-289 570z" />
<glyph unicode="&#xa8;" horiz-adv-x="1003" d="M121 1356q0 40 59 98.5t99 58.5q38 0 96.5 -58.5t58.5 -98.5q0 -38 -58.5 -97t-96.5 -59q-40 0 -99 59t-59 97zM569 1356q0 40 58.5 98.5t97.5 58.5q40 0 99 -58.5t59 -98.5q0 -38 -59 -97t-99 -59q-38 0 -97 59t-59 97z" />
<glyph unicode="&#xa9;" horiz-adv-x="1536" d="M61 686q0 124 29.5 229.5t82 181t120.5 134t148 93t162 52t165 17.5t165 -17.5t162 -52t148 -93t120.5 -134t82 -181t29.5 -229.5t-29.5 -229t-82 -181t-120.5 -134t-148 -92.5t-162 -52t-165 -17.5t-165 17.5t-162 52t-148 92.5t-120.5 134t-82 181t-29.5 229zM102 686 q0 -141 40.5 -256.5t106.5 -191t154 -127t179 -73.5t186 -22t186 22t179 73.5t154 127t106.5 191t40.5 256.5t-40.5 256.5t-106.5 191t-154 127t-179 73.5t-186 22t-186 -22t-179 -73.5t-154 -127t-106.5 -191t-40.5 -256.5zM422 686q0 188 96.5 291.5t276.5 103.5 q129 0 231 -57v-219q-66 -11 -131 0l-16 119q-46 8 -70 8q-178 0 -178 -246q0 -244 178 -244q104 0 217 74v-168q-102 -57 -231 -57q-180 0 -276.5 103.5t-96.5 291.5z" />
<glyph unicode="&#xab;" horiz-adv-x="1179" d="M72 428v195l506 391l2 -273l-287 -202l-41 -11v-4l41 -10l287 -205l-2 -272zM580 438v174l505 402l2 -273l-286 -202l-41 -11v-4l41 -10l286 -205l-2 -272z" />
<glyph unicode="&#xad;" horiz-adv-x="890" d="M109 467v225h675v-225h-675z" />
<glyph unicode="&#xb4;" horiz-adv-x="569" d="M51 1264l398 290l112 -182l-432 -235z" />
<glyph unicode="&#xb8;" horiz-adv-x="464" d="M41 -354q39 -8 94 -8q121 0 121 71t-156 84l52 207h141l-33 -127q80 -15 127 -59t47 -111q0 -88 -74.5 -136t-209.5 -48q-70 0 -109 8v119z" />
<glyph unicode="&#xbb;" horiz-adv-x="1179" d="M82 309l287 205l41 10v4l-41 11l-287 202l2 273l506 -402v-174l-506 -401zM590 309l287 205l41 10v4l-41 11l-287 202l2 273l506 -391v-195l-506 -391z" />
<glyph unicode="&#xd3;" horiz-adv-x="1566" d="M88 686q0 154 40.5 276.5t107.5 201.5t159 132t188 75t201 22t201 -22t188 -75t159 -132t108 -201.5t41 -276.5q0 -153 -41 -276t-108 -202t-159 -131.5t-188 -74.5t-201 -22t-201 22t-188 74.5t-159 131.5t-107.5 201.5t-40.5 276.5zM375 686q0 -236 113.5 -358.5 t295.5 -122.5t296 122.5t114 358.5t-114 358.5t-296 122.5t-295.5 -122.5t-113.5 -358.5zM535 1647l430 260l100 -201l-461 -201z" />
<glyph unicode="&#xf3;" horiz-adv-x="1146" d="M82 502q0 248 127.5 385t363.5 137t364 -137t128 -385t-128 -385t-364 -137t-363.5 137t-127.5 385zM358 502q0 -164 53 -243t162 -79t162 79t53 243q0 165 -53 244t-162 79t-162 -79t-53 -244zM360 1264l396 290l114 -182l-432 -235z" />
<glyph unicode="&#x104;" horiz-adv-x="1490" d="M12 0q-13 92 0 170l150 20l360 1000l-114 14q-13 77 0 168h178v-2l2 2h346l418 -1184l129 -18q13 -78 0 -170h-301q-156 -86 -156 -211q0 -39 25 -63.5t75 -24.5q69 0 123 33l21 -174q-83 -41 -195 -41t-186 56.5t-74 154.5q0 109 69 199.5t210 148.5l-105 321h-473 l-72 -211l129 -18q13 -78 0 -170h-559zM590 625h321l-147 450l-10 103h-4l-9 -103z" />
<glyph unicode="&#x105;" horiz-adv-x="1060" d="M92 229q0 145 144 234t403 119v55q0 104 -39.5 146t-144.5 42q-162 0 -314 -96v219q146 76 355 76q221 0 315 -92.5t94 -274.5v-467l133 -20q13 -78 0 -170h-174q-174 -88 -174 -211q0 -39 25 -63.5t76 -24.5q68 0 122 33l21 -174q-83 -41 -195 -41t-186 56.5t-74 154.5 q0 179 187 280q-2 7 -8.5 33t-8.5 41q-142 -104 -282 -104q-118 0 -196.5 65.5t-78.5 183.5zM334 274q0 -51 28 -80.5t82 -29.5q103 0 195 74v208q-91 -11 -153.5 -29t-94 -41.5t-44.5 -47.5t-13 -54z" />
<glyph unicode="&#x106;" horiz-adv-x="1269" d="M88 686q0 154 40.5 276.5t107.5 201.5t159 132t188 75t201 22q218 0 394 -90v-342q-37 -6 -93.5 -6t-91.5 6l-20 182q-101 24 -189 24q-188 0 -298.5 -121.5t-110.5 -359.5q0 -236 113.5 -358.5t295.5 -122.5q110 0 214.5 32t179.5 80v-247q-176 -90 -394 -90 q-105 0 -201 22t-188 74.5t-159 131.5t-107.5 201.5t-40.5 276.5zM516 1647l430 260l101 -201l-461 -201z" />
<glyph unicode="&#x107;" horiz-adv-x="948" d="M82 502q0 248 127.5 385t363.5 137q176 0 308 -76v-289q-35 -6 -86 -6t-88 6l-19 156q-52 10 -94 10q-236 0 -236 -323q0 -322 236 -322q74 0 140.5 21.5t146.5 74.5v-221q-130 -75 -308 -75q-236 0 -363.5 137t-127.5 385zM340 1264l397 290l113 -182l-432 -235z" />
<glyph unicode="&#x118;" horiz-adv-x="1132" d="M68 0q-13 92 0 170l139 20v994l-139 20q-13 77 0 168h958v-362q-37 -6 -93 -6t-91 6l-15 137h-344v-346l396 14v-225l-396 12v-377h379l15 137q37 6 93 6t91 -6v-362h-105q-88 -45 -131 -101t-43 -110q0 -39 25.5 -63.5t75.5 -24.5q69 0 123 33l20 -174q-83 -41 -195 -41 t-186 56.5t-74 154.5q0 160 183 270h-686z" />
<glyph unicode="&#x119;" horiz-adv-x="1079" d="M82 502q0 244 133 383t358 139q185 0 300.5 -100.5t115.5 -288.5q0 -54 -8 -117l-631 -67q9 -136 72 -203.5t172 -67.5q88 0 162.5 21.5t154.5 74.5v-221q-1 0 -2 -1t-2 -1q-119 -68 -170 -131t-51 -133q0 -39 25 -63.5t75 -24.5q69 0 123 33l21 -174q-83 -41 -195 -41 t-186 56.5t-74 154.5q0 143 129 250h-31q-236 0 -363.5 137t-127.5 385zM344 590l391 53q0 191 -162 191q-203 0 -229 -244z" />
<glyph unicode="&#x141;" horiz-adv-x="1085" d="M68 440v226l204 94v424l-139 20q-13 77 0 168h549q13 -91 0 -168l-133 -20v-307l235 127v-226l-235 -106v-447h364l15 137q35 6 91 6t93 -6v-362h-979q-13 92 0 170l139 20v363z" />
<glyph unicode="&#x142;" horiz-adv-x="757" d="M41 451v225l205 90v575l-137 7q-13 91 0 168l372 20q31 -111 31 -225v-430l205 112v-225l-205 -94v-484l133 -20q13 -78 0 -170h-536q-13 92 0 170l137 20v371z" />
<glyph unicode="&#x143;" horiz-adv-x="1615" d="M100 0q-13 92 0 170l138 20v994l-138 20q-13 77 0 168h486l536 -942l23 -113h4v867l-137 20q-13 77 0 168h547q13 -91 0 -168l-134 -20v-1184h-344l-540 940l-23 102h-4v-852l133 -20q13 -78 0 -170h-547zM659 1647l431 260l100 -201l-461 -201z" />
<glyph unicode="&#x144;" horiz-adv-x="1261" d="M63 0q-13 92 0 170l138 20v639l-138 7q-13 91 0 168l373 20q19 -74 23 -109q160 109 311 109q172 0 247 -88.5t75 -267.5v-478l133 -20q13 -78 0 -170h-400v657q0 92 -29 130t-108 38q-113 0 -221 -82v-553l133 -20q13 -78 0 -170h-537zM432 1264l397 290l113 -182 l-432 -235z" />
<glyph unicode="&#x15a;" horiz-adv-x="1079" d="M102 993q0 181 119 290.5t344 109.5q100 0 178 -23t164 -67v-342q-35 -6 -91 -6t-93 6l-21 186q-72 20 -137 20q-94 0 -140 -37t-46 -116q0 -39 20.5 -71.5t55 -56t79.5 -44.5t94.5 -43t99 -46.5t94.5 -58.5t79.5 -76t55 -103t20.5 -134q0 -192 -133 -296.5t-359 -104.5 q-190 0 -366 90v342q35 6 91 6t93 -6l19 -185q80 -22 163 -22q100 0 156.5 43.5t56.5 122.5q0 54 -33 94.5t-85.5 68t-116 53t-127 58t-116 75t-85.5 112.5t-33 161zM326 1647l430 260l100 -201l-461 -201z" />
<glyph unicode="&#x15b;" horiz-adv-x="927" d="M88 713q0 139 104 225t289 86q180 0 312 -76v-272q-35 -6 -86.5 -6t-88.5 6l-22 147q-58 17 -115 17q-66 0 -101.5 -26t-35.5 -69q0 -32 27.5 -57.5t71 -45t96.5 -40t106 -48t96.5 -62.5t71 -90.5t27.5 -125.5q0 -145 -111.5 -220.5t-304.5 -75.5q-192 0 -322 75v273 q85 14 174 0l19 -148q63 -16 129 -16q72 0 116 24.5t44 69.5q0 33 -27.5 59.5t-71 47t-96.5 41t-106 47.5t-96.5 60t-71 84.5t-27.5 115.5zM260 1264l397 290l113 -182l-432 -235z" />
<glyph unicode="&#x179;" horiz-adv-x="1148" d="M68 0v139l634 987l41 17v4h-458l-13 -137q-37 -6 -93 -6t-91 6v362h985v-137l-633 -989l-41 -17v-4h486l14 137q35 6 91 6t93 -6v-362h-1015zM395 1647l430 260l101 -201l-461 -201z" />
<glyph unicode="&#x17a;" horiz-adv-x="993" d="M68 0v109l479 675l41 17v4h-312l-14 -148q-37 -6 -88 -6t-86 6v347h819v-113l-477 -670l-39 -16v-4h336l16 145q35 6 86.5 6t88.5 -6v-346h-850zM340 1264l395 290l115 -182l-432 -235z" />
<glyph unicode="&#x17b;" horiz-adv-x="1148" d="M68 0v139l634 987l41 17v4h-458l-13 -137q-37 -6 -93 -6t-91 6v362h985v-137l-633 -989l-41 -17v-4h486l14 137q35 6 91 6t93 -6v-362h-1015zM403 1657q0 43 64.5 107.5t107.5 64.5t108 -64.5t65 -107.5t-65 -107.5t-108 -64.5t-107.5 64.5t-64.5 107.5z" />
<glyph unicode="&#x17c;" horiz-adv-x="993" d="M68 0v109l479 675l41 17v4h-312l-14 -148q-37 -6 -88 -6t-86 6v347h819v-113l-477 -670l-39 -16v-4h336l16 145q35 6 86.5 6t88.5 -6v-346h-850zM319 1341q0 43 65 107.5t108 64.5t107.5 -64.5t64.5 -107.5t-64.5 -107.5t-107.5 -64.5t-108 64.5t-65 107.5z" />
<glyph unicode="&#x2c6;" horiz-adv-x="733" d="M20 1264l347 286l348 -286l-90 -127l-258 178l-258 -178z" />
<glyph unicode="&#x2da;" horiz-adv-x="634" d="M72 1395q0 98 71 166.5t174 68.5q104 0 175 -69t71 -166q0 -99 -71 -168.5t-175 -69.5t-174.5 69.5t-70.5 168.5zM236 1395q0 -36 22.5 -61t58.5 -25t60 25t24 61t-24 61t-60 25t-58.5 -25t-22.5 -61z" />
<glyph unicode="&#x2dc;" horiz-adv-x="866" d="M113 1174q9 128 65.5 194t143.5 66q47 0 89 -21.5t77 -43t63 -21.5q31 0 58.5 18.5t35.5 60.5h109q-7 -129 -60.5 -194.5t-142.5 -65.5q-46 0 -86.5 21.5t-74 43t-64.5 21.5q-81 0 -105 -79h-108z" />
<glyph unicode="&#x2000;" horiz-adv-x="1008" />
<glyph unicode="&#x2001;" horiz-adv-x="2017" />
<glyph unicode="&#x2002;" horiz-adv-x="1008" />
<glyph unicode="&#x2003;" horiz-adv-x="2017" />
<glyph unicode="&#x2004;" horiz-adv-x="672" />
<glyph unicode="&#x2005;" horiz-adv-x="504" />
<glyph unicode="&#x2006;" horiz-adv-x="336" />
<glyph unicode="&#x2007;" horiz-adv-x="336" />
<glyph unicode="&#x2008;" horiz-adv-x="252" />
<glyph unicode="&#x2009;" horiz-adv-x="403" />
<glyph unicode="&#x200a;" horiz-adv-x="112" />
<glyph unicode="&#x2010;" horiz-adv-x="890" d="M109 467v225h675v-225h-675z" />
<glyph unicode="&#x2011;" horiz-adv-x="890" d="M109 467v225h675v-225h-675z" />
<glyph unicode="&#x2012;" horiz-adv-x="890" d="M109 467v225h675v-225h-675z" />
<glyph unicode="&#x2013;" horiz-adv-x="1024" d="M61 467v192h902v-192h-902z" />
<glyph unicode="&#x2014;" horiz-adv-x="1658" d="M61 467v195h1536v-195h-1536z" />
<glyph unicode="&#x2018;" horiz-adv-x="503" d="M72 1176q0 238 137 462l145 -30q-59 -124 -75 -260q49 -21 101 -78t52 -94q0 -44 -68 -112.5t-112 -68.5t-112 68.5t-68 112.5z" />
<glyph unicode="&#x2019;" horiz-adv-x="503" d="M72 1458q0 44 68 112t112 68t112 -68t68 -112q0 -236 -137 -463l-143 31q58 127 73 260q-49 21 -101 78t-52 94z" />
<glyph unicode="&#x201a;" horiz-adv-x="503" d="M72 160q0 44 68 112t112 68t112 -68t68 -112q0 -239 -137 -463l-143 31q58 127 73 260q-49 21 -101 78t-52 94z" />
<glyph unicode="&#x201c;" horiz-adv-x="944" d="M72 1176q0 238 137 462l145 -30q-59 -124 -75 -260q49 -21 101 -78t52 -94q0 -44 -68 -112.5t-112 -68.5t-112 68.5t-68 112.5zM512 1176q0 238 137 462l146 -30q-61 -127 -76 -260q49 -21 101 -78t52 -94q0 -44 -68 -112.5t-112 -68.5t-112 68.5t-68 112.5z" />
<glyph unicode="&#x201d;" horiz-adv-x="948" d="M72 1458q0 44 68 112t112 68t112 -68t68 -112q0 -236 -137 -463l-143 31q58 127 73 260q-49 21 -101 78t-52 94zM514 1458q0 44 68 112t112 68t112 -68t68 -112q0 -236 -137 -463l-143 31q59 130 74 260q-49 21 -101.5 78t-52.5 94z" />
<glyph unicode="&#x201e;" horiz-adv-x="946" d="M72 160q0 44 68 112t112 68t112 -68t68 -112q0 -239 -137 -463l-143 31q58 127 73 260q-49 21 -101 78t-52 94zM514 160q0 44 68 112t112 68t112 -68t68 -112q0 -239 -137 -463l-143 31q59 130 74 260q-49 21 -101.5 78t-52.5 94z" />
<glyph unicode="&#x2026;" horiz-adv-x="1511" d="M72 160q0 44 68 112t112 68t112 -68t68 -112t-68 -112t-112 -68t-112 68t-68 112zM575 160q0 44 68.5 112t112.5 68t112 -68t68 -112t-68 -112t-112 -68t-112.5 68t-68.5 112zM1079 160q0 44 68.5 112t112.5 68t112 -68t68 -112t-68 -112t-112 -68t-112.5 68t-68.5 112z " />
<glyph unicode="&#x202f;" horiz-adv-x="403" />
<glyph unicode="&#x2039;" horiz-adv-x="722" d="M72 438v195l557 391l2 -272l-332 -203l-41 -10v-4l41 -11l332 -205l-2 -272z" />
<glyph unicode="&#x203a;" horiz-adv-x="722" d="M82 319l334 205l41 11v4l-41 10l-334 203l2 272l557 -391v-195l-557 -391z" />
<glyph unicode="&#x205f;" horiz-adv-x="504" />
<glyph unicode="&#x20ac;" horiz-adv-x="1212" d="M0 471l41 154h139v61v51h-180l41 154h156q20 109 62 195.5t97.5 143t125.5 94t142 53.5t150 16q176 0 352 -90v-322q-37 -6 -93 -6t-91 6l-20 166q-78 20 -148 20q-238 0 -299 -276h508l-41 -154h-485v-51v-61h469l-41 -154h-406q33 -133 109.5 -199.5t185.5 -66.5 q177 0 352 112v-247q-176 -90 -352 -90q-78 0 -149.5 15.5t-140.5 52.5t-124.5 92.5t-98 140t-62.5 190.5h-199z" />
<glyph unicode="&#x2122;" horiz-adv-x="3289" d="M31 1010v362h1163v-362q-37 -6 -93 -6t-91 6l-15 137h-241v-957l133 -20q13 -78 0 -170h-547q-13 92 0 170l137 18v959h-248l-14 -137q-35 -6 -91 -6t-93 6zM1272 0q-13 92 0 170l139 18l164 1000l-117 16q-13 77 0 168h527l262 -1034l10 -102h4l8 102l264 1034h527 q13 -91 0 -168l-119 -16l164 -1000l137 -18q13 -78 0 -170h-557q-13 92 0 170l129 18l-107 867l-6 112h-4l-10 -112l-262 -1014h-332l-264 1014l-10 112h-4l-7 -112l-106 -867l127 -18q13 -78 0 -170h-557z" />
<glyph unicode="&#x25fc;" horiz-adv-x="1024" d="M0 0v1024h1024v-1024h-1024z" />
<glyph horiz-adv-x="647" d="M63 0q-13 92 0 170l138 20v639l-138 7q-13 91 0 168l373 20q31 -111 31 -225v-609l133 -20q13 -78 0 -170h-537zM154 1341q0 43 64.5 107.5t107.5 64.5t107.5 -64.5t64.5 -107.5t-64.5 -107.5t-107.5 -64.5t-107.5 64.5t-64.5 107.5z" />
<glyph d="M92 666q0 158 28.5 283t76.5 207t116 136.5t142 77.5t159 23t159.5 -23t142 -77.5t116 -136.5t77 -207t28.5 -283q0 -146 -28.5 -263t-77 -195t-116 -130t-142.5 -75t-159 -23t-159 23t-142 75t-115.5 130t-77 195t-28.5 263zM379 666q0 -222 61 -341.5t174 -119.5 t174.5 119.5t61.5 341.5q0 250 -61 375.5t-175 125.5t-174.5 -125.5t-60.5 -375.5z" />
<glyph d="M266 1331l373 41h160v-1182l245 -20q13 -78 0 -170h-776q-13 92 0 170l254 20v953l-254 -21z" />
<glyph d="M170 0v139q324 322 456 525t132 340q0 163 -201 163q-75 0 -139 -18l-19 -188q-37 -6 -93 -6t-91 6v342q84 43 172.5 66.5t210.5 23.5q228 0 335 -90.5t107 -268.5q0 -166 -107 -347t-362 -439l-41 -19v-4h332l15 137q37 6 93 6t91 -6v-362h-891z" />
<glyph d="M184 49v248q143 -92 332 -92q119 0 180.5 47t61.5 139q0 113 -79.5 160t-248.5 47h-37l21 219h16q148 0 224.5 48.5t76.5 133.5q0 168 -205 168q-54 0 -116 -16l-21 -190q-35 -6 -91 -6t-93 6v342q176 90 362 90q206 0 320 -98t114 -271q0 -67 -22.5 -124.5t-57 -93 t-71 -56.5t-70.5 -27v-4q28 -5 59.5 -17.5t69 -39t67 -62.5t49 -93.5t19.5 -125.5q0 -131 -66 -223t-174 -135t-247 -43q-238 0 -373 69z" />
<glyph d="M51 532l486 840h403v-799h156l-11 -225h-145v-158l133 -20q13 -78 0 -170h-549q-13 92 0 170l140 20v158h-562zM328 573h336v646h-5l-22 -93l-309 -548v-5z" />
<glyph d="M180 49v248q67 -43 164.5 -67.5t187.5 -24.5q126 0 194.5 55.5t68.5 161.5q0 98 -60.5 152.5t-183.5 54.5q-177 0 -356 -49l81 792h754v-342q-37 -6 -93 -6t-91 6l-12 117h-322l-35 -311q82 8 137 8q95 0 176 -23.5t147.5 -71.5t105 -132t38.5 -195q0 -106 -41 -191.5 t-111.5 -139.5t-161.5 -82.5t-194 -28.5q-258 0 -393 69z" />
<glyph d="M123 584q0 165 42.5 299.5t119 228t183.5 157.5t233.5 94t271.5 30v-226q-232 0 -375.5 -108.5t-185.5 -304.5q120 120 297 120q54 0 106 -12t105.5 -43.5t92.5 -79t64 -124t25 -173.5q0 -113 -39 -203.5t-106 -145.5t-150 -84t-176 -29q-85 0 -157.5 18.5t-138.5 62.5 t-112 112t-73 172.5t-27 238.5zM412 514q17 -309 219 -309q96 0 147 59.5t51 167.5q0 109 -54 165t-140 56q-140 0 -223 -139z" />
<glyph d="M154 1010v362h911v-137l-498 -1255l-291 20l472 1126l40 17v4h-436l-14 -137q-35 -6 -91 -6t-93 6z" />
<glyph d="M121 371q0 64 19.5 120t48 93t65.5 67t65.5 45t55.5 25v4q-205 103 -205 309q0 111 62 194t161.5 124t220.5 41q122 0 222.5 -41t162.5 -124t62 -194q0 -206 -205 -309v-4q27 -10 55.5 -25t65.5 -45t65.5 -67t48 -93t19.5 -120q0 -81 -29.5 -148t-78 -111.5t-113.5 -74.5 t-134 -43.5t-141 -13.5t-141 13.5t-133.5 43.5t-112.5 74.5t-77 111.5t-29 148zM408 397q0 -93 57.5 -142.5t148.5 -49.5q92 0 150.5 49.5t58.5 142.5q0 84 -56.5 138t-152.5 75q-94 -21 -150 -75t-56 -138zM432 1008q0 -161 182 -201q183 40 183 201q0 73 -49.5 116 t-133.5 43q-83 0 -132.5 -43t-49.5 -116z" />
<glyph horiz-adv-x="1259" d="M129 930q0 114 39 204.5t105.5 146t149.5 84t177 28.5q85 0 157.5 -18.5t138 -62.5t111 -112t72.5 -173t27 -239q0 -165 -42.5 -299t-119 -228t-183.5 -157.5t-233.5 -93.5t-271.5 -30v225q232 0 375.5 108.5t185.5 304.5q-120 -120 -295 -120q-54 0 -106.5 12.5t-105 44 t-92 79t-64.5 124t-25 172.5zM399 940q0 -108 55.5 -164.5t141.5 -56.5q57 0 116.5 31.5t104.5 107.5q-17 309 -217 309q-96 0 -148.5 -59.5t-52.5 -167.5z" />
<glyph horiz-adv-x="595" d="M53 1647l430 260l101 -201l-461 -201z" />
<glyph horiz-adv-x="464" d="M41 -342q39 -8 94 -8q121 0 121 71t-156 84l52 195h141l-33 -115q80 -15 127 -59t47 -111q0 -88 -74.5 -136t-209.5 -48q-70 0 -109 8v119z" />
<glyph horiz-adv-x="733" d="M20 1632l347 287l348 -287l-90 -127l-258 178l-258 -178z" />
<glyph horiz-adv-x="1003" d="M121 1655q0 38 58.5 96.5t96.5 58.5q40 0 99 -58.5t59 -96.5q0 -40 -59 -99t-99 -59q-38 0 -96.5 59t-58.5 99zM567 1655q0 38 59 96.5t99 58.5q38 0 97 -58.5t59 -96.5q0 -40 -59 -99t-97 -59q-40 0 -99 59t-59 99z" />
<glyph horiz-adv-x="595" d="M53 1706l101 201l430 -260l-70 -142z" />
<glyph horiz-adv-x="634" d="M51 1761q0 107 76.5 181.5t189.5 74.5t191 -75t78 -181t-78 -181t-191 -75t-189.5 74.5t-76.5 181.5zM229 1761q0 -37 25 -63.5t63 -26.5q39 0 64 26t25 64q0 39 -25 65.5t-64 26.5q-38 0 -63 -26.5t-25 -65.5z" />
<glyph horiz-adv-x="866" d="M113 1511q9 128 65.5 194.5t143.5 66.5q47 0 89 -21.5t77 -43t63 -21.5q31 0 58.5 18.5t35.5 60.5h109q-7 -129 -60.5 -194.5t-142.5 -65.5q-46 0 -86.5 21.5t-74 43t-64.5 21.5q-81 0 -105 -80h-108z" />
</font>
</defs>
</svg>
