<?xml version="1.0" standalone="no"?>
<!DOCTYPE svg PUBLIC "-//W3C//DTD SVG 1.1//EN" "http://www.w3.org/Graphics/SVG/1.1/DTD/svg11.dtd" >
<svg xmlns="http://www.w3.org/2000/svg">
<metadata></metadata>
<defs>
<font id="adagio_slabthin_italic" horiz-adv-x="1126" >
<font-face units-per-em="2048" ascent="1638" descent="-410" />
<missing-glyph horiz-adv-x="460" />
<glyph unicode="&#xfb01;" horiz-adv-x="1277" d="M-205 -416q108 60 173.5 154.5t88.5 251.5l133 944h-167l8 70h168l24 165q26 184 117.5 275.5t237.5 91.5q112 0 194 -55l-10 -78q-84 63 -189 63q-109 0 -178.5 -73t-91.5 -238l-22 -151h387l-9 -70h-387l-127 -903q-16 -109 -47.5 -194.5t-77 -146t-99.5 -101 t-122 -70.5zM784 948q-3 29 7 56l217 20q2 -87 -19 -252l-74 -526l-26 -189l141 -2q2 -18 -6 -55l-213 -20q-2 98 23 266l69 497l27 203zM918 1341q5 22 42 55.5t58 33.5q22 0 50.5 -33.5t25.5 -55.5q-5 -22 -42.5 -55t-58.5 -33q-22 0 -50 33t-25 55z" />
<glyph unicode="&#xfb02;" horiz-adv-x="1288" d="M-205 -416q108 60 173.5 154.5t88.5 251.5l133 944h-167l8 70h168l24 165q26 184 117.5 275.5t237.5 91.5q112 0 194 -55l-10 -78q-84 63 -189 63q-109 0 -178.5 -73t-91.5 -238l-22 -151h387l-9 -70h-387l-127 -903q-16 -109 -47.5 -194.5t-77 -146t-99.5 -101 t-122 -70.5zM811 -20q-3 115 20 266l142 1009l28 203l-147 2q-3 27 8 56l215 20q3 -113 -18 -252l-146 -1038l-26 -189l141 -2q3 -27 -6 -55z" />
<glyph horiz-adv-x="0" />
<glyph horiz-adv-x="682" />
<glyph unicode=" "  horiz-adv-x="460" />
<glyph unicode="&#x09;" horiz-adv-x="460" />
<glyph unicode="&#xa0;" horiz-adv-x="460" />
<glyph unicode="!" horiz-adv-x="403" d="M-76 66q3 22 40 54t59 32t49 -32t24 -54t-39.5 -54t-58.5 -32t-49.5 32t-24.5 54zM8 289l92 729l52 354h86l-52 -354l-112 -729h-66z" />
<glyph unicode="&#x22;" horiz-adv-x="671" d="M127 993l37 441h78l-66 -441h-49zM393 993l37 441h78l-66 -441h-49z" />
<glyph unicode="#" horiz-adv-x="1175" d="M-154 350l13 76h188l146 500h-201l12 75h209l109 371h84l-107 -371h528l109 371h84l-107 -371h203l-12 -75h-213l-143 -500h225l-10 -76h-238l-102 -350h-84l102 350h-530l-103 -350h-84l103 350h-181zM133 426h529l145 500h-531z" />
<glyph unicode="$" horiz-adv-x="1019" d="M-76 70l39 270q33 8 62 0l-11 -221q128 -64 254 -64q166 0 272 76.5t126 214.5q9 66 -8 118.5t-52.5 87t-84.5 62.5t-103.5 50.5t-109.5 46t-103 54t-83 69t-51 96.5t-5 131q21 150 124.5 235.5t266.5 94.5l24 186h86l-26 -186q139 -7 290 -88l-38 -271q-33 -8 -62 0 l10 221q-121 64 -256 64q-143 0 -229 -63.5t-106 -192.5q-8 -62 9 -110.5t53.5 -81t85.5 -59t104 -49.5t109.5 -47t102.5 -56t83 -72.5t50.5 -101.5t4.5 -138q-22 -151 -128.5 -246.5t-279.5 -115.5l-25 -168h-86l25 164q-169 0 -334 90z" />
<glyph unicode="%" horiz-adv-x="1687" d="M47 1036q23 169 118.5 263t246.5 94t220 -94.5t46 -262.5q-25 -169 -120.5 -262.5t-246.5 -93.5t-220 94t-44 262zM57 14l1373 1450l47 -45l-1371 -1450zM129 1036q-20 -135 27 -213t166 -78q118 0 186 77.5t88 213.5q20 135 -27 213t-166 78q-118 0 -186 -77.5 t-88 -213.5zM801 336q23 169 118 262.5t246 93.5t220.5 -94t46.5 -262q-25 -169 -120.5 -262.5t-246.5 -93.5t-220 94t-44 262zM883 336q-20 -136 26.5 -213.5t165.5 -77.5t187 77.5t88 213.5q18 136 -28.5 213.5t-164.5 77.5q-119 0 -187.5 -78t-86.5 -213z" />
<glyph unicode="&#x26;" horiz-adv-x="1234" d="M-29 356q35 251 295 422q-91 174 -71 303q20 150 133 231t272 81q100 0 169.5 -22.5t152.5 -67.5l-37 -271q-33 -8 -62 0l11 225q-117 60 -244 60q-122 0 -206.5 -58t-102.5 -178q-19 -133 99.5 -326t387.5 -493q98 140 127 336h84q-31 -225 -162 -391l150 -162l-6 -45 h-74q-65 74 -129 141q-164 -161 -393 -161q-89 0 -164.5 23t-132.5 67.5t-83.5 118.5t-13.5 167zM61 356q-11 -76 9.5 -135t66 -94.5t106.5 -53.5t134 -18q197 0 334 140q-301 336 -412 524q-206 -143 -238 -363z" />
<glyph unicode="'" horiz-adv-x="405" d="M127 993l37 441h78l-66 -441h-49z" />
<glyph unicode="(" horiz-adv-x="464" d="M-21.5 210q-33.5 256 1.5 501q36 251 140.5 504t266.5 475l49 -21q-299 -458 -370 -958q-69 -506 102 -959l-57 -20q-99 222 -132.5 478z" />
<glyph unicode=")" horiz-adv-x="464" d="M-168 -248q303 460 371 959q72 504 -103 958l58 21q100 -222 133.5 -478t-2.5 -501q-34 -250 -139 -503.5t-269 -475.5z" />
<glyph unicode="*" horiz-adv-x="937" d="M33 1130l35 72l325 -141l-22 -43zM90 731l281 287l35 -29l-259 -301zM393 1061l39 373h74l-68 -373h-45zM408 989l43 29l196 -287l-65 -43zM438 1061l367 141l16 -72l-370 -112z" />
<glyph unicode="+" horiz-adv-x="942" d="M-53 621l10 69h379l53 379h70l-53 -379h376l-10 -69h-377l-53 -379h-70l54 379h-379z" />
<glyph unicode="," horiz-adv-x="411" d="M-55 -295q85 144 102 275q-27 4 -56 36.5t-26 53.5q3 23 42 57.5t61 34.5q23 0 52.5 -34.5t26.5 -57.5q-28 -194 -157 -377z" />
<glyph unicode="-" horiz-adv-x="860" d="M-14 532l12 76h635l-12 -76h-635z" />
<glyph unicode="." horiz-adv-x="413" d="M-35 70q3 23 42 57.5t61 34.5q23 0 52.5 -34.5t26.5 -57.5q-3 -22 -42.5 -56t-61.5 -34t-51.5 34t-26.5 56z" />
<glyph unicode="/" horiz-adv-x="768" d="M-170 -164l852 1680h76l-852 -1680h-76z" />
<glyph unicode="0" horiz-adv-x="1153" d="M6 352.5q-15 130.5 8 313.5q28 193 83.5 336.5t130.5 227t160.5 123.5t182.5 40q96 0 170 -39t127 -125.5t66 -225t-12 -337.5q-25 -178 -79 -312.5t-128.5 -214.5t-160 -119.5t-181.5 -39.5q-97 0 -171.5 38.5t-127.5 121t-68 213zM102 666q-42 -308 36 -459.5 t245 -151.5q81 0 151.5 36t130.5 108.5t103.5 191t65.5 275.5q23 176 15 299.5t-47.5 201.5t-99.5 114t-141 36q-168 0 -289 -157.5t-170 -493.5z" />
<glyph unicode="1" horiz-adv-x="765" d="M35 0q-2 21 6 55l156 15l172 1216l-230 -22l11 67l272 41h45l-184 -1302l151 -15q2 -18 -6 -55h-393z" />
<glyph unicode="2" horiz-adv-x="1079" d="M-88 0l8 53q180 163 300.5 278t225.5 224.5t166.5 191.5t99.5 157.5t48 144.5q18 126 -51 197t-228 71q-133 0 -268 -66l-51 -219q-32 -8 -64 0l37 256q93 51 175.5 78t187.5 27q197 0 284.5 -90.5t65.5 -253.5q-13 -92 -64.5 -189t-155 -216.5t-230.5 -243t-326 -302.5 l-37 -18v-4h620l45 200q33 8 62 0l-37 -276h-813z" />
<glyph unicode="3" horiz-adv-x="1044" d="M-51 49l12 84q127 -78 309 -78q161 0 276.5 82t139.5 244q21 157 -73.5 228t-284.5 71h-45l24 72h31q166 0 272 79.5t125 206.5q20 136 -49.5 207.5t-216.5 71.5q-110 0 -248 -57l-51 -228q-33 -8 -61 0l36 271q187 90 340 90q181 0 271.5 -92.5t66.5 -262.5 q-19 -130 -109.5 -215t-187.5 -100v-4q29 -4 57.5 -13t61.5 -26.5t58 -42.5t46 -62t26 -84.5t-1 -109.5q-14 -99 -62 -177.5t-118.5 -126.5t-153.5 -72.5t-174 -24.5q-190 0 -317 69z" />
<glyph unicode="4" horiz-adv-x="1140" d="M-55 459l778 913h125l-125 -901h199l-19 -76h-192l-45 -325l149 -15q3 -27 -6 -55h-391q-3 30 6 55l156 15l45 325h-662zM47 471h590l111 795l8 49h-4l-27 -49l-676 -791z" />
<glyph unicode="5" d="M-29 61l13 86q153 -92 329 -92q165 0 288.5 85t148.5 255q12 87 -9 151.5t-69 102t-110.5 55t-141.5 17.5q-171 0 -340 -49l182 700h641l-39 -270q-33 -8 -61 0l10 194h-485l-142 -528q117 31 250 31q90 0 165.5 -21.5t136 -67t88 -126.5t12.5 -189q-15 -104 -66.5 -186 t-126.5 -130.5t-161 -73.5t-177 -25q-181 0 -336 81z" />
<glyph unicode="6" horiz-adv-x="1132" d="M10.5 306.5q-16.5 114.5 3.5 277.5q113 809 895 809l-10 -76q-667 0 -788 -670q159 221 432 221q57 0 108.5 -14t101 -46t80.5 -84t46.5 -127t-0.5 -175q-31 -216 -169.5 -329t-330.5 -113q-96 0 -170.5 33.5t-128 106t-70 187zM98 547q-28 -251 52.5 -371.5 t240.5 -120.5q159 0 266 91.5t134 275.5q13 98 -5.5 172t-61 115.5t-95 61.5t-113.5 20q-263 0 -418 -244z" />
<glyph unicode="7" horiz-adv-x="983" d="M35 1096l39 276h839l-8 -53l-753 -1339l-78 20l723 1276l30 16v4h-684l-47 -200q-33 -8 -61 0z" />
<glyph unicode="8" horiz-adv-x="1193" d="M12 356q10 75 46 137.5t79.5 100.5t96.5 67t90 41.5t69 18.5v4q-29 9 -58 22.5t-67.5 41t-64.5 61.5t-41 86t-6 113q15 111 79.5 190t156 116.5t200.5 37.5q108 0 189.5 -37.5t124 -117t26.5 -189.5q-8 -60 -38 -112.5t-66 -86.5t-82.5 -61.5t-79 -41t-64.5 -22.5v-4 q30 -6 63.5 -18.5t78.5 -41.5t78 -67t51 -100.5t8 -137.5q-11 -77 -45.5 -141t-82.5 -106.5t-108.5 -72t-123.5 -43t-128 -13.5q-66 0 -125.5 13.5t-111.5 43t-87.5 72t-51.5 106.5t-5 141zM102 356q-12 -78 9 -138t66 -94.5t102 -51.5t124 -17t129 17t117 51.5t93 94.5 t49 138q35 248 -299 330q-355 -83 -390 -330zM242 1049q-10 -66 9.5 -119t61.5 -86.5t87.5 -54t101.5 -33.5q59 13 110 33.5t102.5 54t85.5 86.5t44 119q18 131 -55 199.5t-207 68.5t-228 -68.5t-112 -199.5z" />
<glyph unicode="9" horiz-adv-x="1132" d="M14 -20l11 75q333 0 530 166t260 506q-159 -223 -434 -223q-57 0 -108.5 14t-101 46t-80.5 84t-46.5 127t0.5 175q15 110 61 196t113 139t149.5 80.5t174.5 27.5q97 0 171.5 -33.5t128 -106.5t70 -187.5t-3.5 -277.5q-113 -808 -895 -808zM133 950q-13 -98 5.5 -171.5 t61 -115t95 -61.5t113.5 -20q265 0 419 247q27 249 -53.5 368.5t-238.5 119.5q-159 0 -267 -91.5t-135 -275.5z" />
<glyph unicode=":" horiz-adv-x="415" d="M-76 70q3 23 42 57.5t61 34.5q23 0 52.5 -34.5t26.5 -57.5q-3 -22 -42.5 -56t-61.5 -34t-51.5 34t-26.5 56zM33 838q3 22 41.5 56t60.5 34t52 -34t28 -56q-3 -22 -42.5 -56t-61.5 -34q-23 0 -52 34t-26 56z" />
<glyph unicode=";" horiz-adv-x="413" d="M-96 -295q85 144 102 275q-27 4 -56 36.5t-26 53.5q3 23 42 57.5t61 34.5q23 0 52.5 -34.5t26.5 -57.5q-24 -188 -157 -377zM33 838q3 22 41.5 56t60.5 34t52 -34t28 -56q-3 -22 -42.5 -56t-61.5 -34q-23 0 -52 34t-26 56z" />
<glyph unicode="&#x3c;" horiz-adv-x="976" d="M-23 621l7 34l4 35l811 369l-13 -86l-700 -305l-43 -11v-4l39 -10l614 -307l-12 -86z" />
<glyph unicode="=" horiz-adv-x="948" d="M-78 442l10 70h826l-10 -70h-826zM-29 799l11 67h827l-10 -67h-828z" />
<glyph unicode="&#x3e;" horiz-adv-x="964" d="M-53 250l10 86l702 307l43 10v4l-38 11l-617 305l14 86l707 -369l-6 -35l-4 -34z" />
<glyph unicode="?" horiz-adv-x="972" d="M80 1206l12 82q93 51 175.5 78t187.5 27q197 0 285.5 -89.5t66.5 -248.5q-9 -61 -38 -118t-68.5 -104t-86 -93t-93 -94.5t-87 -99.5t-70.5 -117.5t-40 -139.5h-64q11 81 40.5 152t67.5 124t82.5 101.5t88 93t80.5 88t63.5 97t34.5 110.5q18 122 -50.5 192t-228.5 70 q-162 0 -358 -111zM176 66q1 22 37.5 54t58.5 32t50 -32t26 -54q-3 -22 -40.5 -54t-59.5 -32t-48.5 32t-23.5 54z" />
<glyph unicode="@" horiz-adv-x="2125" d="M37 492q28 200 118 373t225.5 299t320.5 198t393 72q125 0 233 -23t190.5 -65t149 -102t108 -133.5t68 -160t29 -181t-9.5 -196.5q-15 -107 -51.5 -199.5t-85 -156t-107 -109t-117.5 -67t-115 -21.5q-97 0 -149.5 41t-65.5 105q-169 -146 -327 -146q-169 0 -253 128 t-52 348q31 224 157 348.5t326 124.5q184 0 315 -101l-84 -596q-7 -32 -2 -65t18 -60t46 -44t82 -17q56 0 114 29.5t111.5 87t95 153.5t58.5 217q18 108 8 208.5t-38.5 188.5t-87 160.5t-138 124.5t-191.5 80.5t-246 28.5q-191 0 -359 -67t-290.5 -184.5t-203.5 -277 t-107 -343.5q-33 -240 40.5 -427.5t249.5 -296t431 -108.5q241 0 456 72l-8 -62q-120 -40 -223.5 -60t-232.5 -20q-278 0 -473 117t-278.5 321t-47.5 464zM623 496q-26 -191 38.5 -298.5t206.5 -107.5q148 0 299 139v15l84 600q-94 55 -237 55q-162 0 -263.5 -105.5 t-127.5 -297.5z" />
<glyph unicode="A" horiz-adv-x="1478" d="M-180 0v9q0 19 6 46l156 15l675 1235l-133 12q0 31 8 55h246l342 -1304l146 -13q1 -7 1 -14q0 -20 -7 -41h-392q-3 30 6 55l152 13l-113 440h-606l-235 -440l147 -13q2 -18 -6 -55h-393zM348 584h547l-170 661l10 55h-4z" />
<glyph unicode="B" horiz-adv-x="1220" d="M-127 0v9q0 19 6 46l158 15l172 1233l-152 14q0 28 9 55h153q60 0 190 10.5t205 10.5q181 -1 285 -101q84 -82 85 -207q0 -29 -5 -61q-10 -70 -41 -129.5t-71.5 -96t-77.5 -58t-66 -27.5v-2l-2 -2q25 -5 53 -16.5t65 -37.5t64 -60.5t41 -90.5q9 -35 10 -73q0 -24 -4 -50 q-11 -82 -47 -149.5t-88 -113.5t-118 -77.5t-136.5 -46t-144.5 -14.5q-75 0 -202 10t-187 10h-154zM123 70q176 -15 305 -15q78 0 148.5 18.5t131 55.5t101.5 102t53 150q4 25 4 48q0 47 -16 87q-22 58 -70 89t-105.5 46t-123.5 15h-344zM217 741h344q127 0 219.5 77.5 t110.5 205.5q4 26 4 50q0 100 -64 164q-79 79 -225 79q-140 0 -311 -14z" />
<glyph unicode="C" horiz-adv-x="1288" d="M5 450q-3 37 -3 79q0 73 10 157q21 153 77 276t130 202t167 132t186 75t190 22q226 0 391 -90l-37 -271q-32 -8 -63 0l12 217q-139 68 -313 68q-87 0 -169 -20t-162 -67.5t-143.5 -118.5t-111 -180t-66.5 -245q-9 -76 -9 -142q1 -36 3 -68q8 -92 40 -162t77 -119.5 t105.5 -80.5t124.5 -45t134 -14q112 0 225 29.5t191 73.5l-12 -88q-187 -90 -416 -90q-80 0 -153.5 15.5t-144 50t-122.5 89t-90.5 133t-47.5 182.5z" />
<glyph unicode="D" horiz-adv-x="1437" d="M-127 0v9q0 19 6 46l158 15l172 1233l-152 14q0 28 9 55h153q48 1 190 11t246 10q81 0 154.5 -15.5t144 -50t123.5 -89.5t91 -134q38 -78 48 -182q4 -39 4 -81q0 -72 -10 -155q-22 -153 -78 -276t-130 -202t-167.5 -131.5t-186.5 -74.5t-191 -22q-101 0 -238 10t-192 10 h-154zM123 70q180 -15 346 -15q85 0 166 20t161.5 67.5t144.5 118.5t112 180t67 245q9 76 9 142q-1 36 -3 68q-8 92 -39.5 162t-76 119.5t-105 80.5t-124.5 45t-134 14q-177 0 -352 -14z" />
<glyph unicode="E" horiz-adv-x="1112" d="M-127 0v9q0 19 6 46l158 15l172 1233l-152 14q0 28 9 55h915l-39 -276q-33 -8 -61 0l10 200h-596l-80 -559l543 4l-10 -75l-541 4l-84 -594h637l45 200q31 8 63 0l-39 -276h-956z" />
<glyph unicode="F" horiz-adv-x="1019" d="M-127 0v9q0 19 6 46l158 15l172 1233l-152 14q0 28 9 55h915l-39 -276q-33 -8 -61 0l10 200h-596l-82 -579l543 4l-11 -76l-542 4l-82 -579l239 -15q2 -18 -6 -55h-481z" />
<glyph unicode="G" horiz-adv-x="1402" d="M11 450q-3 37 -3 79q0 73 10 157q21 153 77 276t130 202t167 132t186 75t190 22q247 0 412 -90l-37 -271q-33 -8 -62 0l11 217q-143 68 -332 68q-88 0 -170 -20t-162.5 -67.5t-144 -118.5t-111 -180t-66.5 -245q-9 -76 -9 -142q0 -35 3 -68q7 -92 39.5 -162t77.5 -119.5 t106 -80.5t125 -45t134 -14q220 0 385 51l75 533h-270l21 76h346l-92 -645q-187 -90 -478 -90q-80 0 -153.5 15.5t-144 50t-122.5 89t-90.5 133t-47.5 182.5z" />
<glyph unicode="H" horiz-adv-x="1525" d="M-127 0v9q0 19 6 46l158 15l172 1233l-152 14q0 28 9 55h393q0 -34 -8 -55l-156 -14l-80 -562h901l80 562l-152 14q0 28 9 55h393q0 -34 -8 -55l-156 -14l-174 -1233l152 -15q2 -15 -7 -55h-393q-2 21 6 55l156 15l84 596h-901l-84 -596l151 -15q2 -18 -6 -55h-393z" />
<glyph unicode="I" horiz-adv-x="561" d="M-117 0v9q0 19 6 46l158 15l172 1233l-151 14q0 31 8 55h393q0 -34 -8 -55l-156 -14l-174 -1233l152 -15q2 -15 -7 -55h-393z" />
<glyph unicode="J" horiz-adv-x="598" d="M-199 -262q141 64 210 163t93 263l160 1139l-151 14q-4 29 8 55h391q0 -34 -8 -55l-156 -14l-158 -1119q-28 -203 -119.5 -324.5t-265.5 -187.5z" />
<glyph unicode="K" horiz-adv-x="1261" d="M-127 0v9q0 19 6 46l158 15l172 1233l-152 14q0 28 9 55h393q0 -34 -8 -55l-156 -14l-174 -1233l151 -15q2 -18 -6 -55h-393zM281 725l647 580l-135 12q-4 29 8 55h379q0 -31 -9 -55l-143 -14l-627 -568l-28 -8v-4l26 -8l519 -647l145 -13q2 -18 -6 -55h-201z" />
<glyph unicode="L" horiz-adv-x="1060" d="M-127 0v9q0 19 6 46l158 15l172 1233l-152 14q0 28 9 55h393q0 -34 -8 -55l-156 -14l-172 -1227h616l45 200q16 4 32 4l32 -4l-39 -276h-936z" />
<glyph unicode="M" horiz-adv-x="2027" d="M-133 0v9q0 19 6 46l156 15l393 1235l-139 12q-4 29 8 55h270l273 -1272h4l8 54l606 1218h270q0 -34 -8 -55l-141 -12l45 -1235l149 -15v-8q0 -17 -6 -47h-393q-2 21 6 55l154 15l-33 1175l10 55h-4l-633 -1265h-100l-266 1210l2 55h-4l-381 -1230l147 -15q2 -18 -6 -55 h-393z" />
<glyph unicode="N" horiz-adv-x="1554" d="M-84 0q-1 8 -1 15q0 22 7 40l156 15l174 1233l-152 14q-3 27 9 55h276l664 -1241l12 -63h4l172 1235l-152 14q0 28 9 55h393q0 -34 -8 -55l-156 -14l-182 -1303h-125l-664 1241l-12 57h-4l-172 -1228l149 -15q3 -27 -6 -55h-391z" />
<glyph unicode="O" horiz-adv-x="1550" d="M11 450q-3 37 -3 79q0 73 10 157q21 153 77 276t130 202t167 132t186 75t190 22q81 0 154.5 -15.5t144 -50t123.5 -89.5t91.5 -133.5t48.5 -182.5q4 -39 3 -81q0 -72 -10 -155q-22 -153 -78 -276t-130.5 -202t-168 -131.5t-186.5 -74.5t-191 -22q-80 0 -153.5 15.5 t-144 50t-122.5 89t-90.5 133t-47.5 182.5zM100 476q8 -92 40 -162t77 -119.5t106 -80.5t125 -45t134 -14q85 0 166 20t161.5 67.5t144.5 118.5t112 180t67 245q9 76 9 142q0 36 -2 68q-8 92 -40 162t-76.5 119.5t-105 80.5t-124.5 45t-134 14q-85 0 -166.5 -20t-162 -67.5 t-145 -118.5t-113 -180t-67.5 -245q-9 -76 -9 -142q0 -36 3 -68z" />
<glyph unicode="P" horiz-adv-x="1118" d="M-137 0v9q0 19 6 46l158 15l172 1233l-152 14q0 31 8 55h154q60 0 190 10.5t205 10.5q87 0 160 -25t125.5 -72t76.5 -121q16 -48 16 -103q0 -30 -5 -62q-16 -115 -87 -201t-172.5 -128t-217.5 -42q-115 0 -307 12l-82 -581l239 -15q2 -18 -6 -55h-481zM205 729 q168 -14 305 -14q144 0 252 77.5t127 217.5q4 27 4 52q0 66 -27 118q-37 71 -107 104t-163 33q-140 0 -311 -14z" />
<glyph unicode="Q" horiz-adv-x="1542" d="M7 450q-3 37 -3 79q0 73 10 157q21 153 77 276t130 202t167.5 132t186.5 75t191 22q80 0 153.5 -15.5t144 -50t123 -89.5t91 -133.5t48.5 -182.5q3 -39 3 -81q0 -72 -10 -155q-32 -222 -128 -371.5t-237 -232.5l152 -287h-102l-123 250q-141 -65 -314 -65 q-81 0 -154.5 15.5t-144 50t-123 89t-91 133t-47.5 182.5zM96 476q8 -92 40.5 -162t77 -119.5t105.5 -80.5t125 -45t134 -14q85 0 166 20t161.5 67.5t144.5 118.5t112.5 180t68.5 245q9 76 9 142q0 35 -2 68q-8 92 -40.5 162t-77.5 119.5t-105.5 80.5t-124.5 45t-134 14 q-85 0 -166 -20t-161.5 -67.5t-145 -118.5t-112.5 -180t-67 -245q-10 -78 -10 -145q0 -34 2 -65z" />
<glyph unicode="R" horiz-adv-x="1239" d="M-137 0v9q0 19 6 46l158 15l172 1233l-152 14q0 31 8 55h154q60 0 190 10.5t205 10.5q79 0 148 -25t119.5 -72t74.5 -121q15 -48 14 -102q0 -30 -4 -63q-19 -143 -130.5 -237t-258.5 -114l314 -591l139 -13v-8q0 -17 -6 -47h-199l-344 655q-144 3 -274 15l-86 -600 l151 -15q2 -18 -6 -55h-393zM207 745q165 -14 305 -14q128 0 233 76.5t123 202.5q4 28 4 54q0 43 -11 80q-18 60 -57.5 97t-92.5 56.5t-115 19.5q-140 0 -311 -14z" />
<glyph unicode="S" horiz-adv-x="1034" d="M-68 70l37 270q18 4 34 4t30 -4l-13 -221q128 -64 256 -64q166 0 271 76.5t125 214.5q3 23 3 45q-1 39 -11 73q-16 52 -52 87t-84.5 63t-103 50.5t-109.5 46t-103 54t-83 69t-51 96.5q-10 36 -10 77q0 26 4 54q23 158 137 245t293 87q101 0 179 -23.5t157 -66.5l-37 -271 q-16 -4 -32 -4l-32 4l13 221q-121 64 -258 64q-142 0 -229 -63.5t-105 -192.5q-3 -21 -3 -41q0 -38 11 -70q17 -48 53 -80.5t85 -59t104 -49.5t109.5 -47t103 -56t83 -72.5t50.5 -101.5q9 -36 8 -77q0 -29 -4 -61q-23 -170 -154 -268t-340 -98q-167 0 -332 90z" />
<glyph unicode="T" horiz-adv-x="1157" d="M8 1096l39 276h1047l-39 -276q-33 -8 -62 0l11 200h-402l-172 -1226l150 -15q3 -25 -7 -55h-391q-3 30 6 55l156 15l172 1226h-401l-45 -200q-33 -8 -62 0z" />
<glyph unicode="U" horiz-adv-x="1423" d="M47 1317q0 31 8 55h394q0 -31 -9 -55l-155 -14l-115 -822q-8 -55 -8 -103q0 -323 358 -323q408 0 469 426l115 822l-152 14q0 28 9 55h393q0 -34 -8 -55l-156 -14l-115 -822q-37 -256 -183.5 -378.5t-383.5 -122.5q-236 0 -348 122q-84 93 -85 262q0 55 9 117l115 822z " />
<glyph unicode="V" horiz-adv-x="1443" d="M6 1317q0 31 8 55h394q0 -31 -9 -55l-149 -12l291 -1233h4l6 55l614 1176l-149 14q-4 29 8 55h391q0 -34 -8 -55l-152 -12l-690 -1305h-90l-319 1305z" />
<glyph unicode="W" horiz-adv-x="2111" d="M6 1317q0 31 8 55h394q0 -31 -9 -55l-151 -12l209 -1233h4l10 55l518 1225h111l180 -1280h4l12 55l533 1178l-148 12q0 28 9 55h391q0 -34 -8 -55l-152 -12l-600 -1305h-109l-176 1225l6 53h-4l-540 -1278h-107l-235 1305z" />
<glyph unicode="X" horiz-adv-x="1357" d="M-158 0v9q0 19 6 46l152 13l506 655l22 8v4l-20 8l-311 562l-150 12q-4 29 8 55h391q0 -34 -8 -55l-137 -12l283 -519h4l428 519l-144 12q0 28 9 55h393q0 -34 -8 -55l-152 -12l-469 -562l-20 -8v-4l18 -8l334 -655l143 -13q3 -27 -6 -55h-391q-3 30 6 55l143 13 l-305 610h-4l-467 -610l146 -13q2 -18 -6 -55h-394z" />
<glyph unicode="Y" horiz-adv-x="1312" d="M10 1317q-1 7 -1 14q0 21 9 41h392q0 -31 -9 -55l-143 -12l297 -764h4l-4 61l473 703l-143 12q-4 29 8 55h391q0 -34 -8 -55l-156 -12l-547 -801l-61 -434l150 -15q3 -25 -7 -55h-391q-3 30 6 55l156 15l61 434l-323 801z" />
<glyph unicode="Z" horiz-adv-x="1134" d="M-119 0l8 53l1006 1223l29 16v4h-760l-47 -200q-33 -8 -62 0l39 276h940l-6 -53l-1005 -1223l-31 -16v-4h792l45 200q33 8 62 0l-39 -276h-971z" />
<glyph unicode="[" horiz-adv-x="444" d="M-133 -248l268 1917h82l-258 -1847h203l-8 -70h-287zM209 1599l8 70h205l-8 -70h-205z" />
<glyph unicode="\" horiz-adv-x="770" d="M68 1516h75l377 -1680h-76z" />
<glyph unicode="]" horiz-adv-x="444" d="M-180 -248l8 70h205l250 1777h-205l10 70h287l-269 -1917h-286z" />
<glyph unicode="^" horiz-adv-x="931" d="M4 1024l461 655h70l278 -655h-86l-227 555l-4 41h-4l-17 -41l-385 -555h-86z" />
<glyph unicode="_" horiz-adv-x="829" d="M-170 -111l10 70h766l-10 -70h-766z" />
<glyph unicode="`" horiz-adv-x="495" d="M45 1436l53 61l316 -262l-35 -41z" />
<glyph unicode="a" horiz-adv-x="1081" d="M-31 420q18 125 61 233t108 191.5t157.5 131.5t200.5 48q140 0 268 -74l35 54h35l-107 -758l-27 -189l144 -2v-8q0 -17 -6 -47l-213 -20v17q0 94 20 249l19 123h-7l-26 -76q-95 -146 -210 -229.5t-233 -83.5q-146 0 -198 110q-33 69 -32 182q0 67 11 148zM55 420 q-11 -80 -11 -142q0 -84 20 -138q36 -92 151 -91q120 0 240.5 116t222.5 310l57 414q-111 65 -250 65q-89 0 -164.5 -43t-128 -117.5t-87.5 -169.5t-50 -204z" />
<glyph unicode="b" horiz-adv-x="1064" d="M-29 0l176 1255l29 203l-149 2q0 35 8 56l215 20v-20q0 -95 -17 -232l-92 -649h4l27 76q98 147 211.5 230t232.5 83q144 0 196 -110q33 -70 33 -183q0 -66 -11 -147q-18 -125 -61 -233t-108 -191.5t-157.5 -131.5t-200.5 -48q-139 0 -268 73l-35 -53h-33zM68 115 q115 -66 249 -66q89 0 165 43t129 118t88 170t51 204q11 78 11 139q0 87 -22 141q-37 90 -151 90q-119 0 -240 -116.5t-221 -309.5z" />
<glyph unicode="c" horiz-adv-x="968" d="M-18 502q35 245 168.5 383.5t330.5 138.5q154 0 277 -76l-33 -239q-31 -8 -59 0l8 200q-88 45 -203 45q-162 0 -268 -120t-135 -332q-8 -61 -8 -115q0 -131 50 -217q72 -120 234 -121q163 0 334 125v-78q-160 -116 -344 -116q-198 0 -292 138q-69 102 -69 262q0 57 9 122 z" />
<glyph unicode="d" horiz-adv-x="1089" d="M-31 420q18 125 61 233t108 191.5t157.5 131.5t200.5 48q149 0 245 -102l47 333l29 203l-149 2q0 35 8 56l215 20v-20q0 -95 -17 -232l-147 -1038l-27 -189l144 -2q2 -18 -6 -55l-213 -20v17q0 94 20 249l19 123h-7l-26 -76q-95 -146 -210 -229.5t-233 -83.5 q-146 0 -198 110q-33 69 -32 182q0 67 11 148zM55 420q-11 -80 -11 -142q0 -84 20 -138q36 -92 151 -91q119 0 240 116.5t223 309.5l49 352q-31 60 -93.5 93.5t-148.5 33.5q-89 0 -164.5 -43t-128 -117.5t-87.5 -169.5t-50 -204z" />
<glyph unicode="e" horiz-adv-x="1003" d="M-18 502q35 244 170 383t329 139q168 0 255 -80q71 -65 71 -166q0 -23 -4 -49q-16 -109 -109 -167q-94 -58 -252 -70q-74 -5 -163 -5q-100 0 -218 7q-7 -54 -7 -102q0 -136 56 -224q74 -118 234 -119q183 0 354 125v-78q-160 -116 -364 -116q-198 0 -292 138 q-69 102 -69 262q0 57 9 122zM70 551q122 -8 219 -8q167 0 263 23q152 36 169 159q3 21 3 40q0 83 -52 131q-64 60 -201 60q-154 0 -258.5 -106t-142.5 -299z" />
<glyph unicode="f" horiz-adv-x="776" d="M-205 -416q108 60 173.5 154.5t88.5 251.5l133 944h-167l8 70h168l24 165q26 184 117.5 275.5t237.5 91.5q112 0 194 -55l-10 -78q-84 63 -189 63q-109 0 -178.5 -73t-91.5 -238l-22 -151h387l-9 -70h-387l-127 -903q-16 -109 -47.5 -194.5t-77 -146t-99.5 -101 t-122 -70.5z" />
<glyph unicode="g" horiz-adv-x="1069" d="M-88 -213q26 178 238 322q-26 26 -26 69q0 8 1 17q13 101 121 186q-106 32 -164 115q-46 66 -46 151q0 22 3 45q14 97 77 173.5t153.5 117.5t191.5 41q148 0 239 -82l181 178l49 -43l-185 -184q49 -67 49 -156q0 -22 -3 -45q-21 -144 -144 -237t-278 -93q-41 0 -66 5 q-87 -68 -98 -154q-2 -16 1 -29t13 -23.5t20 -18t30.5 -14t34.5 -11t41.5 -9t42.5 -6.5t46 -6q145 -22 195 -39q130 -44 137 -152q2 -24 -2 -52q-20 -144 -170 -239t-365 -95q-177 0 -256 70q-64 57 -64 152q0 22 3 46zM-12 -203q-3 -21 -3 -40q0 -79 51 -121 q62 -52 202 -52q180 0 304.5 72.5t139.5 185.5q6 24 2 44t-8 35.5t-16.5 28.5t-24 22t-30.5 16.5t-35.5 12.5t-39 9.5t-42 7.5t-44.5 6q-5 1 -7.5 1t-7 1t-7.5 1q-14 2 -49.5 7.5t-53.5 9t-45.5 9t-47.5 12.5t-36 15q-181 -123 -202 -283zM119 692q-3 -19 -3 -37 q0 -90 63 -153q75 -74 198 -74q124 0 220.5 74.5t111.5 189.5q3 21 3 41q0 88 -62 149q-76 74 -199 74q-122 0 -218.5 -74.5t-113.5 -189.5z" />
<glyph unicode="h" horiz-adv-x="1171" d="M29 -14l180 1269l29 203l-150 2q0 35 8 56l215 20v-30q0 -96 -16 -222l-94 -657h4l26 75q107 149 227.5 235.5t231.5 86.5q95 0 139.5 -41t47.5 -120v-26q0 -71 -13 -169l-57 -422l-27 -189l142 -2q1 -6 1 -12q0 -20 -8 -43l-210 -20v27q0 105 20 239l57 422 q13 76 13 131q1 52 -11 86q-24 69 -120 69q-112 0 -235 -113t-241 -309l-73 -532z" />
<glyph unicode="i" horiz-adv-x="501" d="M6 948v9q0 20 6 47l217 20v-29q0 -102 -18 -223l-74 -526l-26 -189l143 -2q2 -18 -6 -55l-213 -20v17q0 94 20 249l72 497l27 203zM182 1396q38 34 60 34t50 -34q24 -29 24 -49q0 -3 -1 -6q-3 -22 -39.5 -55t-58.5 -33q-23 0 -51 33q-26 30 -25 51q0 23 41 59z" />
<glyph unicode="j" horiz-adv-x="520" d="M-209 -416q108 60 174 155t88 251l107 753l26 203l-145 2q-3 31 6 56l217 20v-17q0 -90 -18 -235l-105 -741q-30 -212 -117 -331t-227 -181zM219 1396q38 34 60 34t49 -34q25 -29 25 -49q0 -3 -1 -6q-3 -22 -39.5 -55t-58.5 -33t-50 33q-26 30 -26 51q0 23 41 59z" />
<glyph unicode="k" horiz-adv-x="1099" d="M18 -14l181 1269l28 203l-149 2q0 35 8 56l215 20v-30q0 -96 -16 -222l-95 -657h5l26 75q107 149 227.5 235.5t231.5 86.5q75 0 119 -50q35 -39 34 -97q0 -16 -2 -33q-16 -122 -114 -212t-297 -186l-27 -8v-4l25 -8l313 -369l146 -2v-6q0 -16 -7 -49l-182 -20l-383 464 q219 98 324 190t119 195q2 14 2 27q0 38 -20 64q-27 34 -77 34q-112 0 -234 -113t-241 -309l-74 -532z" />
<glyph unicode="l" horiz-adv-x="509" d="M33 -20v23q0 98 22 243l142 1009l28 203l-147 2q-4 33 8 56l215 20v-17q0 -90 -18 -235l-146 -1038l-26 -189l141 -2q2 -18 -6 -55z" />
<glyph unicode="m" horiz-adv-x="1757" d="M6 948v9q0 20 6 47l217 20v-29q0 -102 -18 -223l-21 -145h5l26 75q107 149 227.5 235.5t231.5 86.5q84 0 123 -41t41 -120q0 -11 1 -22q0 -73 -14 -173l-6 -41h4l27 75q107 149 227.5 235.5t231.5 86.5q84 0 123 -41q40 -41 42 -120v-22q0 -73 -14 -173l-59 -422 l-27 -189l144 -2v-8q0 -17 -6 -47l-213 -20v17q0 94 20 249l59 422q15 86 15 146q1 42 -7 71q-18 69 -104 69q-112 0 -234 -113t-241 -309l-74 -532l-86 -14l97 682q15 86 15 145q0 43 -8 72q-19 69 -104 69q-112 0 -234 -113t-241 -309l-74 -532l-86 -14l109 757l27 203z " />
<glyph unicode="n" horiz-adv-x="1161" d="M6 948v9q0 20 6 47l217 20v-29q0 -102 -18 -223l-21 -145h5l26 75q107 149 227.5 235.5t231.5 86.5q95 0 139.5 -41t47.5 -120v-26q0 -71 -13 -169l-57 -422l-27 -189l141 -2q1 -7 1 -14q0 -20 -7 -41l-211 -20v25q0 102 21 241l57 422q13 76 13 131q1 52 -11 86 q-24 69 -121 69q-112 0 -234 -113t-241 -309l-74 -532l-86 -14l109 757l27 203z" />
<glyph unicode="o" horiz-adv-x="1079" d="M-18 502q35 245 168.5 383.5t330.5 138.5q199 0 295 -138q70 -101 69 -260q0 -58 -9 -124q-34 -245 -168.5 -383.5t-333.5 -138.5q-198 0 -292 138q-69 102 -69 262q0 57 9 122zM68 502q-8 -61 -8 -115q0 -131 50 -217q72 -120 234 -120.5t269.5 120t136.5 332.5 q9 62 9 117q0 131 -52 215q-74 120 -236 120t-268 -120t-135 -332z" />
<glyph unicode="p" horiz-adv-x="1095" d="M-66 -481l172 1224l27 203l-147 2q-2 22 6 56l217 20v-26q0 -98 -19 -226l-18 -137h4l27 76q98 147 211.5 230t232.5 83q145 0 196 -110q32 -69 32 -182q0 -67 -11 -148q-18 -125 -61 -233t-108 -191.5t-157 -131.5t-200 -48q-148 0 -244 102l-76 -543zM106 174 q31 -59 94 -92t148 -33q89 0 165 43t128.5 118t87.5 169.5t51 204.5q11 78 11 139q0 87 -22 141q-37 90 -151 90q-119 0 -239 -116.5t-221 -309.5z" />
<glyph unicode="q" horiz-adv-x="1048" d="M-31 420q18 125 61 233t108 191.5t157.5 131.5t200.5 48q140 0 268 -74l35 54h35l-205 -1465l-84 -20l119 850h-7l-26 -76q-95 -146 -210 -229.5t-233 -83.5q-146 0 -198 110q-32 69 -32 182q0 67 11 148zM55 420q-11 -80 -11 -142q0 -85 20 -138q37 -91 151 -91 q119 0 240 116.5t223 309.5l57 412q-109 67 -250 67q-89 0 -164.5 -43t-128 -117.5t-87.5 -169.5t-50 -204z" />
<glyph unicode="r" horiz-adv-x="849" d="M6 948v9q0 20 6 47l217 20v-29q0 -102 -18 -223l-23 -166h5l26 74q182 344 424 344q52 0 52 -51q0 -8 -1 -17l-37 -251q-28 -4 -57 0l10 233h-20q-96 0 -206 -113.5t-216 -365.5l-31 -213l-26 -189l143 -2q2 -18 -6 -55l-213 -20v17q0 94 20 249l72 497l27 203z" />
<glyph unicode="s" horiz-adv-x="868" d="M-78 55l35 240q29 7 59 0l-10 -201q94 -47 217 -47q111 0 192 53t93 144q2 13 2 26q0 38 -19 70q-25 42 -70.5 70.5t-102 53.5t-113 51.5t-101.5 57.5q-46 31 -70 79q-18 36 -18 79q0 14 2 29q19 129 118 196.5t233 67.5q153 0 276 -76l-35 -239q-30 -7 -59 0l10 200 q-94 47 -203 47q-99 0 -171.5 -47.5t-86.5 -142.5q-1 -10 -1 -20q1 -32 15 -58q20 -36 55.5 -59.5t83 -47t97 -42.5t96.5 -46.5t82 -58.5q34 -30 52 -77q12 -32 13 -70q0 -17 -3 -35q-18 -125 -124.5 -198.5t-252.5 -73.5q-169 0 -291 75z" />
<glyph unicode="t" horiz-adv-x="800" d="M12 934l8 70h170l56 286l69 21l-43 -307h365l-8 -70h-367l-90 -641q-7 -45 -6 -81q0 -68 22 -108q35 -62 127 -61q101 0 220 82v-76q-43 -25 -71 -38.5t-73 -25.5t-92 -12q-129 1 -181 79q-37 55 -36 146q0 38 6 83l92 653h-168z" />
<glyph unicode="u" horiz-adv-x="1110" d="M-25 948v8q0 18 7 48l217 20v-26q0 -98 -19 -226l-59 -436q-15 -80 -14 -137q0 -49 10 -81q23 -70 119 -69q117 0 244 118.5t227 307.5l71 529l86 20l-108 -778l-27 -189l141 -2q1 -7 1 -14q0 -20 -7 -41l-211 -20v25q0 102 21 241l18 123h-6l-27 -76 q-99 -145 -217.5 -229t-232.5 -84q-92 0 -136 41t-47 120v26q0 71 13 169l57 407l27 203z" />
<glyph unicode="v" horiz-adv-x="1017" d="M-76 948v9q0 20 6 47l205 20l242 -958h4l4 53q47 88 125 235q170 319 216.5 421.5t45.5 170.5l-133 2q-2 22 6 56l207 20q4 -28 4.5 -56t-4.5 -57q-12 -96 -90 -241l-365 -670h-78l-256 946z" />
<glyph unicode="w" horiz-adv-x="1636" d="M-76 948v9q0 20 6 47l205 20l184 -958h5l10 53l375 864l104 21l170 -938h4l10 53q42 82 91 177.5t77 150.5t61 120.5t50.5 101t37.5 78t29 66.5t17.5 50.5t11 45t2.5 37.5l-133 2q-2 22 6 56l207 20q4 -28 4.5 -56t-4.5 -57q-11 -91 -92 -241l-350 -670h-84l-170 885 l6 53h-4l-410 -938h-86l-205 946z" />
<glyph unicode="x" horiz-adv-x="923" d="M-125 -20v10q1 26 9 53q10 33 23 57.5t44.5 64t48.5 58t60.5 64t56.5 59.5l153 164l23 8v4l-21 6l-237 418l-135 2q-2 22 6 56l184 20l248 -449h4q23 25 62.5 66.5t57 60.5t46.5 50.5t42.5 48t32.5 40t28.5 39t18 33t13.5 33.5l-121 2q-2 22 6 56l207 20q1 -9 1 -18 q0 -24 -8 -50q-10 -36 -23.5 -63t-47.5 -70t-52 -63t-62 -68l-152 -164l-22 -6v-4l20 -8l260 -453l142 -2v-6q0 -16 -7 -49l-188 -20l-272 481h-5q-43 -45 -103 -106.5t-92 -95.5t-68 -74t-55.5 -70.5t-29.5 -57.5l113 -2q2 -18 -6 -55z" />
<glyph unicode="y" horiz-adv-x="1013" d="M-76 948v9q0 20 6 47l205 20l244 -967h4l4 62q48 91 127 242q186 355 221 443q35 85 35 142l-133 2q-3 31 6 56l207 20q4 -22 4 -50t-4 -63q-15 -102 -90 -241l-608 -1131l-91 -20l5 37l253 440l3 4l-259 946z" />
<glyph unicode="z" horiz-adv-x="925" d="M-119 0l6 47l744 873l28 10v4h-550l-50 -225q-29 -7 -59 0l41 295h721l-6 -48l-713 -837l-29 -10v-5q50 7 99 7q33 1 66 -3q81 -8 135.5 -22.5t127.5 -24.5q46 -6 90 -6q26 0 52 2l49 232q29 4 59 0l-39 -289q-64 -13 -127 -13q-26 0 -50 2q-88 7 -152.5 24.5 t-158.5 27.5q-43 5 -87 5q-53 0 -107 -7l-28 -39h-62z" />
<glyph unicode="{" horiz-adv-x="436" d="M-33 -10q9 67 57.5 263.5t57.5 262.5q10 76 -10.5 113.5t-94.5 56.5l9 51q79 21 110 59t41 111q9 66 16.5 264.5t16.5 264.5q28 193 203 235l4 -72q-64 -19 -90.5 -64.5t-38.5 -127.5q-9 -67 -16.5 -263t-16.5 -263q-8 -60 -40.5 -101.5t-98.5 -66.5q60 -25 80 -66 t12 -102q-9 -66 -57.5 -263t-57.5 -264q-12 -81 2 -127.5t72 -66.5l-23 -70q-165 39 -137 236z" />
<glyph unicode="|" horiz-adv-x="522" d="M-39 -410l287 2048h82l-287 -2048h-82z" />
<glyph unicode="}" horiz-adv-x="436" d="M-145 -176q65 20 92 66.5t37 127.5q9 67 17 263.5t17 263.5q8 60 40.5 101.5t99.5 66.5q-60 25 -81.5 66.5t-13.5 101.5q9 67 58.5 263.5t58.5 262.5q12 81 -2 127t-72 65l23 72q50 -13 82 -38t43.5 -56.5t15 -68.5t-3.5 -72q-9 -69 -57.5 -267t-58.5 -262 q-10 -74 10.5 -111.5t95.5 -58.5l-6 -51q-82 -19 -113 -57t-41 -113q-10 -69 -18 -265.5t-17 -260.5q-24 -197 -200 -236z" />
<glyph unicode="~" horiz-adv-x="968" d="M-20 639l28 -64q137 101 248 101q43 0 81.5 -15t63 -33t67 -33t93.5 -15q59 0 112.5 17.5t137.5 61.5l-29 64q-118 -76 -213 -76q-39 0 -76 15.5t-62 33.5t-68 33.5t-93 15.5q-63 0 -130.5 -24.5t-159.5 -81.5z" />
<glyph unicode="&#xa2;" horiz-adv-x="968" d="M-18 502q34 235 159 373t312 149l24 164h82l-24 -166q116 -9 223 -74l-33 -239q-31 -8 -59 0l8 200q-88 45 -203 45q-162 0 -268 -120t-135 -332t42.5 -332.5t233.5 -120.5q163 0 334 125v-78q-136 -96 -287 -114l-24 -166h-82l24 164q-185 9 -272 147t-55 375z" />
<glyph unicode="&#xa3;" horiz-adv-x="1060" d="M-123 0l10 76q63 41 108 127.5t58 169.5l39 284h-129l8 70h131l45 322q22 163 135 253.5t310 90.5q106 0 181.5 -27t154.5 -78l-37 -270q-32 -4 -64 0l13 233q-125 66 -250 66q-159 0 -247.5 -71t-106.5 -197l-46 -322h494l-10 -70h-494l-39 -284q-13 -88 -60 -172 t-120 -125h717l45 200q33 8 61 0l-36 -276h-871z" />
<glyph unicode="&#xa5;" horiz-adv-x="1318" d="M14 1317q0 28 9 55h393q0 -34 -8 -55l-144 -12l295 -764h4l-2 61l473 703l-145 12q0 31 8 55h393q0 -34 -8 -55l-156 -12l-530 -777h340l-10 -63h-353l-24 -166h352l-10 -61h-350l-25 -168l152 -15q2 -18 -6 -55h-394q-2 21 6 55l158 15l23 168h-355l9 61h356l22 166 h-354l10 63h340l-313 777z" />
<glyph unicode="&#xa8;" horiz-adv-x="831" d="M139 1350q1 20 35.5 50t54.5 30q19 0 45 -30t23 -50t-36.5 -50t-53.5 -30t-45.5 30t-22.5 50zM506 1350q3 20 36.5 50t53.5 30t45.5 -30t22.5 -50q-1 -20 -35.5 -50t-55.5 -30q-19 0 -44.5 30t-22.5 50z" />
<glyph unicode="&#xa9;" horiz-adv-x="1515" d="M51 686q21 147 80.5 268.5t140.5 201.5t181.5 134.5t201 78.5t201.5 24q83 0 162.5 -17t155.5 -53t134.5 -92t101.5 -135t56.5 -180.5t-2.5 -229.5q-21 -147 -80.5 -268.5t-141 -201t-182.5 -134t-201.5 -78.5t-201.5 -24t-195 24t-179 78.5t-143.5 134t-84 201 t-4.5 268.5zM92 686q-20 -141 4 -256.5t79.5 -191t136.5 -127t169 -73.5t183 -22t189 22t189 73.5t171 127t133 191t77 256.5t-4.5 256.5t-80 191t-136.5 127t-169 73.5t-183 22t-189 -22t-189 -73.5t-171.5 -127t-132.5 -191t-76 -256.5zM440 686q26 187 129.5 291 t264.5 104q127 0 223 -57l-27 -180q-8 -2 -25 -2t-26 2l8 149q-66 31 -162 31q-129 0 -209.5 -90t-101.5 -248q-24 -157 32 -247.5t183 -90.5q130 0 242 66l-10 -66q-108 -57 -240 -57q-161 0 -234 104t-47 291z" />
<glyph unicode="&#xab;" horiz-adv-x="1099" d="M-31 551l8 70l517 405l-13 -88l-432 -340l-33 -10v-4l29 -11l338 -340l-12 -86zM391 551l8 70l516 405l-12 -88l-432 -340l-33 -10v-4l29 -11l338 -340l-12 -86z" />
<glyph unicode="&#xad;" horiz-adv-x="860" d="M-14 532l12 76h635l-12 -76h-635z" />
<glyph unicode="&#xb4;" horiz-adv-x="405" d="M16 1235l387 262l37 -61l-401 -242z" />
<glyph unicode="&#xb8;" horiz-adv-x="444" d="M-227 -473l8 57q36 -8 104 -8q73 0 114.5 29.5t47.5 75.5t-29.5 78t-123.5 53l71 188h64l-60 -154q74 -18 115.5 -61t32.5 -102q-9 -71 -73 -117.5t-169 -46.5q-63 0 -102 8z" />
<glyph unicode="&#xbb;" horiz-adv-x="1099" d="M-53 147l12 86l432 340l33 11v4l-29 10l-338 340l13 88l401 -405l-4 -35l-6 -35zM369 147l12 86l432 340l33 11v4l-29 10l-338 340l13 88l401 -405l-4 -35l-6 -35z" />
<glyph unicode="&#xd3;" horiz-adv-x="1550" d="M11 450q-9 104 7 236q21 153 77 276t130 202t167 132t186 75t190 22q81 0 154.5 -15.5t144 -50t123.5 -89.5t91.5 -133.5t48 -182.5t-6.5 -236q-22 -153 -78 -276t-130.5 -202t-168 -131.5t-186.5 -74.5t-191 -22q-80 0 -153.5 15.5t-144 50t-122.5 89t-90.5 133 t-47.5 182.5zM99.5 476.5q7.5 -92.5 40 -162.5t77.5 -119.5t106 -80.5t125 -45t134 -14q85 0 166 20t161.5 67.5t144.5 118.5t112 180t67 245q14 117 6.5 209.5t-39.5 162.5t-76.5 119.5t-105 80.5t-124.5 45t-134 14q-85 0 -166.5 -20t-162 -67.5t-145 -118.5t-113 -180 t-67.5 -245q-14 -117 -6.5 -209.5zM600 1559l404 229l30 -66l-416 -206z" />
<glyph unicode="&#xf3;" horiz-adv-x="1079" d="M-18 502q35 245 168.5 383.5t330.5 138.5q199 0 294.5 -138.5t60.5 -383.5q-34 -245 -168.5 -383.5t-333.5 -138.5q-197 0 -291.5 138.5t-60.5 383.5zM68 502q-29 -212 42.5 -332.5t233.5 -120.5t269.5 120.5t136.5 332.5q31 211 -43 331.5t-236 120.5t-268 -120 t-135 -332zM362 1235l388 262l36 -61l-401 -242z" />
<glyph unicode="&#x104;" horiz-adv-x="1480" d="M-180 0q-2 21 6 55l156 15l675 1235l-133 12q-4 29 8 55h160h86l342 -1304l146 -13q3 -27 -6 -55h-187q-253 -105 -274 -274q-9 -61 27 -99.5t102 -38.5q70 0 145 37v-65q-77 -41 -164 -41q-95 0 -148.5 53t-41.5 135q14 102 95.5 187.5t219.5 140.5l-121 473h-606 l-235 -440l147 -13q2 -18 -6 -55h-393zM348 584h547l-170 661l10 55h-4z" />
<glyph unicode="&#x105;" horiz-adv-x="1081" d="M-31 420q18 125 61 233t108 191.5t157.5 131.5t200.5 48q139 0 270 -74l33 54h35l-13 -91h-2l-92 -667l-27 -189l144 -2q2 -18 -6 -55l-146 -14q-117 -52 -174 -114t-69 -146q-8 -62 28 -100t103 -38q70 0 143 37v-65q-77 -41 -164 -41q-95 0 -148 53t-42 135 q26 185 256 295q0 94 18 229l19 138h-5l-26 -76q-95 -146 -210 -229.5t-233 -83.5q-146 0 -197.5 109.5t-21.5 330.5zM55 420q-27 -188 9.5 -279.5t150.5 -91.5q119 0 239 115t224 309l57 414q-109 67 -250 67q-89 0 -164.5 -43t-128 -117.5t-87.5 -169.5t-50 -204z" />
<glyph unicode="&#x106;" horiz-adv-x="1288" d="M5 450q-9 104 7 236q21 153 77 276t130 202t167 132t186 75t190 22q226 0 391 -90l-37 -271q-32 -8 -63 0l12 217q-139 68 -313 68q-87 0 -169 -20t-162 -67.5t-143.5 -118.5t-111 -180t-66.5 -245q-14 -117 -6.5 -209.5t40 -162.5t77.5 -119.5t105.5 -80.5t124.5 -45 t134 -14q112 0 225 29.5t191 73.5l-12 -88q-187 -90 -416 -90q-80 0 -153.5 15.5t-144 50t-122.5 89t-90.5 133t-47.5 182.5zM602 1559l404 229l30 -66l-415 -206z" />
<glyph unicode="&#x107;" horiz-adv-x="968" d="M-18 502q35 245 168.5 383.5t330.5 138.5q154 0 277 -76l-33 -239q-31 -8 -59 0l8 200q-88 45 -203 45q-162 0 -268 -120t-135 -332t42.5 -332.5t233.5 -120.5q163 0 334 125v-78q-160 -116 -344 -116q-197 0 -291.5 138.5t-60.5 383.5zM336 1235l387 262l37 -61 l-402 -242z" />
<glyph unicode="&#x118;" horiz-adv-x="1112" d="M-127 0q-2 21 6 55l158 15l172 1233l-152 14q0 28 9 55h915l-39 -276q-33 -8 -61 0l10 200h-596l-80 -559l543 4l-10 -75l-541 4l-84 -594h637l45 200q31 8 63 0l-39 -276h-129q-132 -54 -198 -121.5t-78 -152.5q-8 -62 28 -100t103 -38q70 0 145 37v-65 q-77 -41 -165 -41q-94 0 -147.5 53t-41.5 135q24 184 252 293h-725z" />
<glyph unicode="&#x119;" horiz-adv-x="1003" d="M-18 502q35 244 170 383t329 139q168 0 255 -79.5t67 -215.5q-16 -109 -109 -167t-251.5 -69.5t-381.5 1.5q-26 -208 49 -326.5t236 -118.5q181 0 352 125v-78q-20 -12 -30 -16q-136 -76 -210 -158t-87 -182q-10 -71 24.5 -111.5t102.5 -40.5q70 0 145 37l2 -65 q-80 -41 -168 -41q-95 0 -147.5 55t-40.5 145q23 152 168 275q-68 -14 -123 -14q-197 0 -291.5 138.5t-60.5 383.5zM70 551q331 -21 482 15t169 159q15 110 -49 170.5t-199 60.5q-155 0 -260 -106t-143 -299z" />
<glyph unicode="&#x141;" horiz-adv-x="1060" d="M-131 492l10 79l248 144l82 588l-152 14q0 28 9 55h393q0 -34 -8 -55l-156 -14l-76 -545l309 186l-10 -80l-309 -178l-86 -610h616l45 200q32 8 64 0l-39 -276h-936q-2 21 6 55l158 15l80 573z" />
<glyph unicode="&#x142;" horiz-adv-x="700" d="M-63 524l12 76l262 150l72 505l28 203l-149 2q0 35 8 56l215 20q3 -106 -16 -252l-70 -491l287 176l-11 -76l-286 -170l-68 -477l-26 -189l143 -2q2 -18 -6 -55l-213 -20q-2 97 20 266l62 436z" />
<glyph unicode="&#x143;" horiz-adv-x="1554" d="M-84 0q-3 30 6 55l156 15l174 1233l-152 14q-3 27 9 55h276l664 -1241l12 -63h4l172 1235l-152 14q0 28 9 55h393q0 -34 -8 -55l-156 -14l-182 -1303h-125l-664 1241l-12 57h-4l-172 -1228l149 -15q3 -27 -6 -55h-391zM713 1559l403 229l31 -66l-416 -206z" />
<glyph unicode="&#x144;" horiz-adv-x="1161" d="M6 948q-2 22 6 56l217 20q3 -113 -18 -252l-21 -145h5l26 75q107 149 227.5 235.5t231.5 86.5q95 0 139.5 -41t47.5 -120t-13 -195l-57 -422l-27 -189l141 -2q3 -27 -6 -55l-211 -20q-3 109 21 266l57 422q26 148 1.5 217t-120.5 69q-112 0 -234 -113t-241 -309l-74 -532 l-86 -14l109 757l27 203zM467 1235l387 262l37 -61l-402 -242z" />
<glyph unicode="&#x15a;" horiz-adv-x="1034" d="M-68 70l37 270q36 8 64 0l-13 -221q128 -64 256 -64q166 0 271 76.5t125 214.5q9 66 -7.5 118.5t-52.5 87t-84.5 62.5t-103 50.5t-109.5 46t-103 54t-83 69t-51 96.5t-6 131q23 158 137 245t293 87q101 0 179 -23.5t157 -66.5l-37 -271q-32 -8 -64 0l13 221 q-121 64 -258 64q-142 0 -229 -63.5t-105 -192.5q-9 -62 8 -110.5t53 -81t85 -59t104 -49.5t109.5 -47t103 -56t83 -72.5t50 -101.5t4.5 -138q-23 -170 -154 -268t-340 -98q-167 0 -332 90zM377 1559l403 229l29 -66l-416 -206z" />
<glyph unicode="&#x15b;" horiz-adv-x="868" d="M-78 55l35 240q29 7 59 0l-10 -201q94 -47 217 -47q111 0 192 53t93 144q8 54 -17 96.5t-70.5 70.5t-102 53t-113 51.5t-101.5 57.5t-69.5 78.5t-16.5 108.5q19 129 118 196.5t233 67.5q153 0 276 -76l-35 -239q-30 -7 -59 0l10 200q-94 47 -203 47q-99 0 -171.5 -47.5 t-86.5 -142.5q-6 -43 13.5 -78.5t55.5 -59t83.5 -47t97 -42.5t96.5 -46.5t82 -58t52.5 -77.5t9.5 -105q-18 -125 -124.5 -198.5t-252.5 -73.5q-169 0 -291 75zM258 1235l387 262l37 -61l-401 -242z" />
<glyph unicode="&#x179;" horiz-adv-x="1134" d="M-119 0l8 53l1006 1223l29 16v4h-760l-47 -200q-33 -8 -62 0l39 276h940l-6 -53l-1005 -1223l-31 -16v-4h792l45 200q33 8 62 0l-39 -276h-971zM446 1559l404 229l29 -66l-416 -206z" />
<glyph unicode="&#x17a;" horiz-adv-x="925" d="M-119 0l6 47l744 873l28 10v4h-550l-50 -225q-29 -7 -59 0l41 295h721l-6 -48l-713 -837l-29 -10v-5q84 11 165 3.5t135.5 -22t127.5 -24.5t142 -4l49 232q29 4 59 0l-39 -289q-89 -18 -176.5 -11t-152.5 24.5t-159 27.5t-194 -2l-28 -39h-62zM315 1235l387 262l37 -61 l-401 -242z" />
<glyph unicode="&#x17b;" horiz-adv-x="1134" d="M-119 0l8 53l1006 1223l29 16v4h-760l-47 -200q-33 -8 -62 0l39 276h940l-6 -53l-1005 -1223l-31 -16v-4h792l45 200q33 8 62 0l-39 -276h-971zM502 1595q5 22 42 55t58 33q22 0 50.5 -33t25.5 -55q-5 -22 -41.5 -54t-58.5 -32t-50.5 32t-25.5 54z" />
<glyph unicode="&#x17c;" horiz-adv-x="925" d="M-119 0l6 47l744 873l28 10v4h-550l-50 -225q-29 -7 -59 0l41 295h721l-6 -48l-713 -837l-29 -10v-5q84 11 165 3.5t135.5 -22t127.5 -24.5t142 -4l49 232q29 4 59 0l-39 -289q-89 -18 -176.5 -11t-152.5 24.5t-159 27.5t-194 -2l-28 -39h-62zM375 1341q3 22 40.5 55.5 t59.5 33.5t49.5 -33.5t24.5 -55.5t-39.5 -55t-58.5 -33t-51 33.5t-25 54.5z" />
<glyph unicode="&#x2c6;" horiz-adv-x="665" d="M20 1237l314 244l244 -244l-35 -43l-221 201l-277 -201z" />
<glyph unicode="&#x2da;" horiz-adv-x="509" d="M33 1389q12 86 81.5 146t155.5 60q85 0 137 -60t39 -146q-12 -86 -81 -146.5t-154 -60.5q-86 0 -138 60.5t-40 146.5zM94 1389q-8 -62 28 -106t97 -44t109 44t57 106q8 62 -27 105.5t-96 43.5t-110 -43.5t-58 -105.5z" />
<glyph unicode="&#x2dc;" horiz-adv-x="880" d="M74 1204q27 104 87.5 162.5t135.5 58.5q39 0 69.5 -16t50.5 -38.5t38.5 -44.5t43.5 -38t56 -16q48 0 90 38t64 113h57q-28 -105 -86 -163t-133 -58q-39 0 -69 16t-49 38.5t-37.5 45t-44 38.5t-58.5 16q-50 0 -92 -38.5t-66 -113.5h-57z" />
<glyph unicode="&#x2000;" horiz-adv-x="965" />
<glyph unicode="&#x2001;" horiz-adv-x="1931" />
<glyph unicode="&#x2002;" horiz-adv-x="965" />
<glyph unicode="&#x2003;" horiz-adv-x="1931" />
<glyph unicode="&#x2004;" horiz-adv-x="643" />
<glyph unicode="&#x2005;" horiz-adv-x="482" />
<glyph unicode="&#x2006;" horiz-adv-x="321" />
<glyph unicode="&#x2007;" horiz-adv-x="321" />
<glyph unicode="&#x2008;" horiz-adv-x="241" />
<glyph unicode="&#x2009;" horiz-adv-x="386" />
<glyph unicode="&#x200a;" horiz-adv-x="107" />
<glyph unicode="&#x2010;" horiz-adv-x="860" d="M-14 532l12 76h635l-12 -76h-635z" />
<glyph unicode="&#x2011;" horiz-adv-x="860" d="M-14 532l12 76h635l-12 -76h-635z" />
<glyph unicode="&#x2012;" horiz-adv-x="860" d="M-14 532l12 76h635l-12 -76h-635z" />
<glyph unicode="&#x2013;" horiz-adv-x="989" d="M-66 532l11 68h866l-10 -68h-867z" />
<glyph unicode="&#x2014;" horiz-adv-x="1617" d="M-66 532l11 68h1495l-10 -68h-1496z" />
<glyph unicode="&#x2018;" horiz-adv-x="413" d="M92 1260q27 192 156 378l47 -12q-85 -141 -105 -276q27 -4 56.5 -36t27.5 -54q-3 -22 -42.5 -56.5t-61.5 -34.5t-51.5 34.5t-26.5 56.5z" />
<glyph unicode="&#x2019;" horiz-adv-x="413" d="M111 1182q85 148 102 276q-26 5 -55.5 36.5t-26.5 53.5q5 22 44 56t61 34t51 -34t26 -56q-27 -190 -155 -379z" />
<glyph unicode="&#x201a;" horiz-adv-x="411" d="M-55 -295q85 144 102 275q-27 4 -56 36.5t-26 53.5q3 23 42 57.5t61 34.5q23 0 52.5 -34.5t26.5 -57.5q-28 -194 -157 -377z" />
<glyph unicode="&#x201c;" horiz-adv-x="714" d="M92 1260q27 192 156 378l47 -12q-85 -141 -105 -276q27 -4 56.5 -36t27.5 -54q-3 -22 -42.5 -56.5t-61.5 -34.5t-51.5 34.5t-26.5 56.5zM393 1260q24 187 156 378l45 -12q-85 -148 -102 -276q27 -4 55.5 -36t25.5 -54q-1 -22 -40.5 -56.5t-61.5 -34.5q-23 0 -53 34.5 t-25 56.5z" />
<glyph unicode="&#x201d;" horiz-adv-x="710" d="M111 1182q85 148 102 276q-26 5 -55.5 36.5t-26.5 53.5q5 22 44 56t61 34t51 -34t26 -56q-27 -190 -155 -379zM410 1182q82 142 102 276q-28 5 -57 36.5t-25 53.5q3 22 41.5 56t60.5 34q23 0 52.5 -34t25.5 -56q-24 -190 -155 -379z" />
<glyph unicode="&#x201e;" horiz-adv-x="710" d="M-55 -295q85 144 102 275q-27 4 -56 36.5t-26 53.5q3 23 42 57.5t61 34.5q23 0 52.5 -34.5t26.5 -57.5q-28 -194 -157 -377zM244 -295q82 140 100 275q-26 4 -54.5 37t-25.5 53q1 23 40 57.5t63 34.5q22 0 51 -34.5t26 -57.5q-25 -192 -155 -377z" />
<glyph unicode="&#x2026;" horiz-adv-x="1193" d="M-35 70q3 23 42 57.5t61 34.5q23 0 52.5 -34.5t26.5 -57.5q-3 -22 -42.5 -56t-61.5 -34t-51.5 34t-26.5 56zM379 70q3 23 41.5 57.5t60.5 34.5q23 0 53 -34.5t27 -57.5q-3 -22 -42.5 -56t-61.5 -34t-51.5 34t-26.5 56zM793 70q3 23 41.5 57.5t60.5 34.5t52 -34.5 t28 -57.5q-3 -22 -43 -56t-62 -34q-23 0 -51.5 34t-25.5 56z" />
<glyph unicode="&#x202f;" horiz-adv-x="386" />
<glyph unicode="&#x2039;" horiz-adv-x="718" d="M-31 551l8 70l558 405l-13 -88l-467 -340l-35 -10v-4l31 -11l373 -340l-12 -86z" />
<glyph unicode="&#x203a;" horiz-adv-x="718" d="M-53 147l12 86l467 340l35 11v4l-31 10l-373 340l13 88l442 -405l-4 -35l-6 -35z" />
<glyph unicode="&#x205f;" horiz-adv-x="482" />
<glyph unicode="&#x20ac;" horiz-adv-x="1226" d="M-125 498l43 69h178q4 80 10 119q8 52 21 109h-211l45 69h182q40 142 107.5 247.5t149.5 165t167 88t174 28.5q186 0 351 -90l-35 -271q-32 -8 -64 0l11 223q-135 62 -273 62q-76 0 -146.5 -24.5t-138 -76t-123 -141.5t-90.5 -211h603l-45 -69h-576q-12 -54 -18 -109 q-11 -77 -13 -119h551l-43 -69h-508q2 -118 33.5 -206t85 -138.5t116.5 -74.5t136 -24q96 0 195.5 29t179.5 74l-12 -88q-187 -90 -375 -90q-70 0 -132.5 16.5t-120.5 55.5t-100.5 97t-68.5 147.5t-27 201.5h-219z" />
<glyph unicode="&#x2122;" horiz-adv-x="3184" d="M8 1096l39 276h1047l-39 -276q-33 -8 -62 0l11 200h-402l-172 -1226l150 -15q3 -25 -7 -55h-391q-3 30 6 55l156 15l172 1226h-401l-45 -200q-33 -8 -62 0zM1024 0q-2 21 6 55l156 15l393 1235l-139 12q-4 29 8 55h270l273 -1272h4l8 54l606 1218h270q0 -34 -8 -55 l-141 -12l45 -1235l150 -15q2 -15 -7 -55h-393q-2 21 6 55l154 15l-33 1175l10 55h-4l-633 -1265h-100l-266 1210l2 55h-4l-381 -1230l147 -15q2 -18 -6 -55h-393z" />
<glyph unicode="&#x25fc;" horiz-adv-x="1024" d="M0 0v1024h1024v-1024h-1024z" />
<glyph horiz-adv-x="464" d="M6 948q-2 22 6 56l217 20q3 -113 -18 -252l-74 -526l-26 -189l143 -2q2 -18 -6 -55l-213 -20q-2 97 20 266l72 497l27 203zM131 1341q3 22 40.5 55.5t59.5 33.5t49.5 -33.5t24.5 -55.5t-39.5 -55t-58.5 -33t-51 33.5t-25 54.5z" />
<glyph d="M-8 352.5q-15 130.5 8 313.5q22 155 63.5 278.5t94 206.5t118.5 138t135.5 79.5t145.5 24.5q77 0 139.5 -24.5t113.5 -78.5t79.5 -139t36 -206t-16.5 -279q-25 -178 -79.5 -312.5t-129 -214.5t-160.5 -119.5t-182 -39.5t-170 38.5t-127.5 121t-68.5 213zM90 666 q-44 -307 35 -459t246 -152q81 0 151 36t129.5 108.5t102.5 191t65 275.5q23 176 15.5 299.5t-47 201.5t-99.5 114t-141 36t-151.5 -36.5t-131 -112.5t-105.5 -203.5t-69 -298.5z" />
<glyph d="M92 0q-2 21 6 55l267 15l172 1216l-267 -22l9 67l311 41h43l-182 -1302l256 -15q2 -15 -7 -55h-608z" />
<glyph d="M-43 0l6 53q226 205 366 340.5t250 260t161 217.5t63 178q18 126 -50 197t-227 71q-131 0 -270 -66l-51 -219q-33 -8 -62 0l37 256q91 51 173.5 78t189.5 27q197 0 284.5 -90.5t65.5 -253.5q-13 -92 -64.5 -189t-155 -216.5t-230.5 -243t-326 -302.5l-39 -18v-4h622 l45 200q33 8 62 0l-39 -276h-811z" />
<glyph d="M-20 49l12 84q127 -78 309 -78q161 0 276.5 82t139.5 244q21 157 -74 228t-285 71h-45l25 72h31q166 0 272 79.5t125 206.5q20 136 -49.5 207.5t-216.5 71.5q-110 0 -248 -57l-51 -228q-33 -8 -62 0l37 271q187 90 340 90q181 0 271.5 -92.5t66.5 -262.5 q-19 -130 -109.5 -215t-187.5 -100v-4q29 -4 57.5 -13t61.5 -26.5t58 -42.5t46 -62t26 -84.5t-1 -109.5q-14 -99 -62 -177.5t-118.5 -126.5t-153.5 -72.5t-174 -24.5q-190 0 -317 69z" />
<glyph d="M-82 459l778 913h125l-127 -901h201l-21 -76h-190l-45 -325l149 -15q2 -18 -6 -55h-393q-2 21 6 55l158 15l45 325h-661zM20 471h588l113 795l6 49h-4l-25 -49l-675 -791z" />
<glyph d="M-39 61l12 86q153 -92 330 -92q165 0 288 85t148 255q12 87 -8.5 151.5t-68.5 102t-110.5 55t-141.5 17.5q-171 0 -340 -49l182 700h641l-39 -270q-33 -8 -61 0l10 194h-486l-141 -528q117 31 250 31q90 0 165.5 -21.5t135.5 -67t87.5 -126.5t12.5 -189 q-15 -104 -66.5 -186t-126 -130.5t-160.5 -73.5t-177 -25q-181 0 -336 81z" />
<glyph d="M-7 306.5q-16 114.5 5 277.5q113 809 893 809l-8 -76q-670 0 -791 -670q161 221 432 221q57 0 109 -13.5t100.5 -47t81 -83t46.5 -127.5t1 -175q-31 -216 -169.5 -329t-330.5 -113q-97 0 -171.5 33.5t-128 106t-69.5 187zM82 547q-29 -251 51 -371.5t240 -120.5 q159 0 266.5 91.5t134.5 275.5q13 98 -5.5 172t-61 115.5t-95 61.5t-112.5 20q-265 0 -418 -244z" />
<glyph d="M96 1096l39 276h840l-8 -53l-754 -1339l-78 20l723 1276l31 16v4h-684l-47 -200q-33 -8 -62 0z" />
<glyph d="M-20 356q10 75 45.5 137.5t78.5 100.5t95.5 67t90 41.5t68.5 18.5v4q-29 9 -58 22.5t-67 41t-64.5 61.5t-41 86t-6.5 113q24 165 146.5 254.5t289.5 89.5q108 0 189.5 -37.5t124 -117t26.5 -189.5q-8 -61 -37.5 -113t-65.5 -86t-82.5 -61.5t-79.5 -41t-65 -22.5v-4 q30 -6 64 -18.5t79 -41.5t77.5 -67t50.5 -100.5t8 -137.5q-13 -96 -61.5 -170.5t-118 -118t-148 -65.5t-160.5 -22q-65 0 -124 13.5t-111 43t-87.5 72t-51 106.5t-4.5 141zM68 356q-11 -78 10 -138t66 -94.5t102.5 -51.5t124.5 -17q66 0 128 17t116.5 51.5t92.5 94.5t50 138 q35 247 -299 330q-356 -82 -391 -330zM209 1049q-10 -66 9.5 -119t61 -86.5t87 -54t100.5 -33.5q47 10 88.5 24.5t86 39t78 55t58.5 75.5t33 99q18 131 -55.5 199.5t-208.5 68.5q-134 0 -227 -68.5t-111 -199.5z" />
<glyph d="M25 -20l10 75q333 0 530 166t260 506q-159 -223 -434 -223q-57 0 -108.5 14t-101 46t-80.5 84t-46.5 127t0.5 175q15 110 61 196t113 139t149.5 80.5t174.5 27.5q97 0 171.5 -33.5t128.5 -106.5t70.5 -187.5t-3.5 -277.5q-113 -808 -895 -808zM143 950 q-13 -98 5.5 -171.5t61 -115t95 -61.5t113.5 -20q266 0 420 247q27 249 -54 368.5t-239 119.5q-159 0 -267 -91.5t-135 -275.5z" />
<glyph horiz-adv-x="495" d="M57 1559l404 229l28 -66l-415 -206z" />
<glyph horiz-adv-x="444" d="M-225 -461l8 58q40 -9 104 -9q73 0 114.5 29.5t47.5 75.5t-29.5 78t-123.5 53l69 176h64l-58 -141q74 -18 115.5 -61.5t32.5 -102.5q-9 -71 -74 -117.5t-170 -46.5q-61 0 -100 8z" />
<glyph horiz-adv-x="665" d="M66 1556l313 244l244 -244l-35 -40l-221 198l-277 -198z" />
<glyph horiz-adv-x="831" d="M178 1604q1 20 35 49.5t55 29.5q19 0 44 -29.5t24 -49.5q-3 -19 -36.5 -48.5t-53.5 -29.5t-45.5 29.5t-22.5 48.5zM545 1604q3 20 36.5 49.5t53.5 29.5t45 -29.5t22 -49.5q-2 -19 -36 -48.5t-54 -29.5q-19 0 -44.5 29.5t-22.5 48.5z" />
<glyph horiz-adv-x="495" d="M80 1722l49 66l338 -229l-29 -43z" />
<glyph horiz-adv-x="509" d="M82 1722q14 86 83 147.5t154 61.5q86 0 138.5 -61.5t40.5 -147.5q-10 -85 -80 -145.5t-156 -60.5t-138.5 60.5t-41.5 145.5zM145 1722q-8 -62 28 -105.5t97 -43.5t108.5 43.5t55.5 105.5q9 62 -26.5 106t-96.5 44t-109 -44t-57 -106z" />
<glyph horiz-adv-x="880" d="M121 1518q26 104 86.5 163.5t134.5 59.5q39 0 70 -16t51 -38.5t38.5 -45t44 -38.5t56.5 -16q48 0 89 38t65 112h57q-27 -105 -86 -163t-135 -58q-39 0 -69.5 16t-50 38t-37.5 44.5t-43.5 38.5t-57.5 16q-51 0 -92.5 -38t-63.5 -113h-57z" />
</font>
</defs>
</svg>
