<?xml version="1.0" standalone="no"?>
<!DOCTYPE svg PUBLIC "-//W3C//DTD SVG 1.1//EN" "http://www.w3.org/Graphics/SVG/1.1/DTD/svg11.dtd" >
<svg xmlns="http://www.w3.org/2000/svg">
<metadata></metadata>
<defs>
<font id="adagio_slabthin" horiz-adv-x="1126" >
<font-face units-per-em="2048" ascent="1638" descent="-410" />
<missing-glyph horiz-adv-x="460" />
<glyph horiz-adv-x="0" />
<glyph horiz-adv-x="682" />
<glyph unicode=" "  horiz-adv-x="460" />
<glyph unicode="&#x09;" horiz-adv-x="460" />
<glyph unicode="&#xa0;" horiz-adv-x="460" />
<glyph unicode="!" horiz-adv-x="403" d="M117 66q0 22 32 54t54 32t54 -32t32 -54t-32 -54t-54 -32t-54 32t-32 54zM160 1018v354h86v-354l-13 -729h-63z" />
<glyph unicode="&#x22;" horiz-adv-x="671" d="M164 1434h78l-2 -441h-50zM430 1434h78l-2 -441h-49z" />
<glyph unicode="#" horiz-adv-x="1175" d="M0 350v76h188l74 500h-199v75h211l56 371h84l-56 -371h531l55 371h84l-55 -371h203v-75h-213l-76 -500h227v-76h-237l-54 -350h-84l54 350h-531l-53 -350h-84l53 350h-178zM272 426h531l74 500h-529z" />
<glyph unicode="$" horiz-adv-x="1019" d="M117 70v270q31 8 63 0l19 -223q145 -62 264 -62q166 0 260 76.5t94 214.5q0 66 -24 118.5t-64.5 87t-93 62.5t-110.5 50.5t-116 46t-110.5 54t-93 69t-64.5 96.5t-24 131q0 149 92 235t252 95v186h86v-186q141 -7 303 -88v-271q-32 -8 -64 0l-18 225q-134 60 -268 60 q-142 0 -219.5 -63.5t-77.5 -192.5q0 -62 24 -110.5t64.5 -81t93 -59t110.5 -49.5t116 -47t110.5 -56t93 -72.5t64.5 -101.5t24 -138q0 -151 -93 -246.5t-263 -115.5v-168h-86v164q-168 0 -344 90z" />
<glyph unicode="%" horiz-adv-x="1687" d="M102 1036q0 168 82.5 262.5t233.5 94.5t233 -94t82 -263q0 -168 -82 -262t-233 -94t-233.5 94t-82.5 262zM184 1036q0 -135 58 -213t176 -78t175.5 78t57.5 213t-57.5 213t-175.5 78t-176 -78t-58 -213zM256 14l1169 1450l54 -45l-1168 -1450zM954 336q0 168 82.5 262 t233.5 94t233 -94t82 -262t-82 -262t-233 -94t-233.5 94t-82.5 262zM1036 336q0 -136 57.5 -213.5t176.5 -77.5t176 77.5t57 213.5q0 135 -57.5 213t-175.5 78t-176 -78t-58 -213z" />
<glyph unicode="&#x26;" horiz-adv-x="1234" d="M123 356q0 135 65 241t170 181q-114 174 -114 303q0 150 101.5 231t260.5 81q100 0 173 -22.5t161 -67.5v-271q-28 -8 -61 0l-21 225q-123 60 -252 60q-123 0 -199.5 -57.5t-76.5 -178.5q0 -132 145.5 -325t456.5 -494q80 142 80 336h84q0 -229 -107 -391l172 -162v-45 h-74l-147 141q-142 -161 -371 -161q-89 0 -167.5 23t-141.5 67.5t-100 118.5t-37 167zM211 356q0 -76 29 -135t79 -94.5t113.5 -53.5t136.5 -18q196 0 316 140q-338 325 -486 524q-188 -148 -188 -363z" />
<glyph unicode="'" horiz-adv-x="405" d="M164 1434h78l-2 -441h-50z" />
<glyph unicode="(" horiz-adv-x="464" d="M82 711q0 250 68.5 503.5t199.5 475.5l53 -21q-235 -456 -235 -958q0 -503 235 -959l-53 -20q-131 222 -199.5 475.5t-68.5 503.5z" />
<glyph unicode=")" horiz-adv-x="464" d="M68 -248q237 454 237 959q0 504 -237 958l53 21q132 -222 201 -475t69 -504t-69 -504t-201 -475z" />
<glyph unicode="*" horiz-adv-x="937" d="M76 1130l24 72l346 -141l-16 -43zM190 731l240 287l37 -29l-215 -301zM432 1434h74l-14 -373h-46zM471 989l37 29l240 -287l-62 -43zM492 1061l346 141l24 -72l-354 -112z" />
<glyph unicode="+" horiz-adv-x="942" d="M61 621v69h379v379h70v-379h377v-69h-377v-379h-70v379h-379z" />
<glyph unicode="," horiz-adv-x="413" d="M117 70q0 23 34 57.5t56 34.5t56 -34.5t34 -57.5q0 -195 -102 -377l-48 12q64 140 64 275q-27 4 -60.5 36.5t-33.5 53.5z" />
<glyph unicode="-" horiz-adv-x="860" d="M113 532v76h635v-76h-635z" />
<glyph unicode="." horiz-adv-x="413" d="M117 70q0 23 34 57.5t56 34.5t56 -34.5t34 -57.5q0 -22 -34 -56t-56 -34t-56 34t-34 56z" />
<glyph unicode="/" horiz-adv-x="768" d="M55 -164l615 1680h75l-614 -1680h-76z" />
<glyph unicode="0" horiz-adv-x="1153" d="M123 666q0 193 35.5 336.5t99 227t143.5 123.5t177 40q76 0 142 -24.5t124 -79.5t98.5 -138t64 -206.5t23.5 -278.5q0 -178 -35.5 -312.5t-98 -214.5t-142.5 -119.5t-176 -39.5q-97 0 -177.5 39.5t-143.5 119.5t-98.5 214.5t-35.5 312.5zM211 666q0 -308 100 -459.5 t267 -151.5t265.5 151.5t98.5 459.5q0 172 -27 299t-76.5 203t-114.5 112.5t-146 36.5q-169 0 -268 -158t-99 -493z" />
<glyph unicode="1" horiz-adv-x="768" d="M164 1264v67l266 41h45v-1302l154 -15q3 -26 0 -55h-393q-6 29 0 55l153 15v1216z" />
<glyph unicode="2" horiz-adv-x="1079" d="M113 0v53q197 205 318 340.5t213 260t130.5 217.5t38.5 178q0 126 -78 197t-237 71q-131 0 -260 -66l-21 -219q-33 -8 -61 0v256q86 51 164.5 78t183.5 27q197 0 297 -90.5t100 -253.5q0 -74 -27 -153t-74.5 -160t-130.5 -185t-177 -207t-232 -246l-35 -18v-4h621l16 200 q32 8 64 0v-276h-813z" />
<glyph unicode="3" horiz-adv-x="1044" d="M143 49v84q138 -78 320 -78q77 0 143 19.5t117.5 58t81 102t29.5 146.5q0 299 -400 299h-45l14 72h31q166 0 261.5 80t95.5 206q0 136 -80 207.5t-228 71.5q-116 0 -237 -57l-21 -228q-28 -8 -61 0v271q85 43 161 66.5t167 23.5q181 0 284 -92.5t103 -262.5 q0 -67 -24 -125.5t-61.5 -96.5t-80.5 -62t-86 -31v-4q47 -6 93 -25t94 -56t78 -103.5t30 -153.5q0 -99 -37 -177.5t-100.5 -126.5t-143 -72.5t-170.5 -24.5q-193 0 -328 69z" />
<glyph unicode="4" horiz-adv-x="1140" d="M82 459l649 913h125v-901h203l-10 -76h-193v-325l154 -15q6 -26 0 -55h-392q-6 29 0 55l154 15v325h-663zM184 471h588v844h-4l-18 -49l-566 -791v-4z" />
<glyph unicode="5" d="M164 61v86q163 -92 342 -92q78 0 146 19.5t123.5 59t87.5 106.5t32 155q0 87 -30 151.5t-83.5 102t-119 55t-144.5 17.5q-168 0 -330 -49l82 700h641v-270q-33 -8 -61 0l-19 194h-485l-67 -528q114 31 247 31q71 0 135 -13t123.5 -43t103 -75.5t69.5 -115.5t26 -157 q0 -104 -40 -186t-107.5 -130.5t-150 -73.5t-173.5 -25q-183 0 -348 81z" />
<glyph unicode="6" horiz-adv-x="1132" d="M133 584q0 809 782 809v-76q-666 0 -696 -670q129 221 402 221q72 0 139 -23.5t127 -72.5t96.5 -139.5t36.5 -210.5q0 -110 -34 -195.5t-93.5 -139t-138 -80.5t-170.5 -27q-96 0 -175.5 34t-142.5 104.5t-98 189t-35 276.5zM223 545q7 -250 104 -370t257 -120 q159 0 253.5 91.5t94.5 275.5q0 79 -19.5 142.5t-51 105t-74.5 69.5t-88 40t-93 12q-264 0 -383 -246z" />
<glyph unicode="7" horiz-adv-x="983" d="M82 1096v276h840v-53l-566 -1339l-82 20l545 1276l27 16v4h-684l-19 -200q-28 -8 -61 0z" />
<glyph unicode="8" horiz-adv-x="1193" d="M164 356q0 75 27 137.5t65 100.5t87 67t84.5 41.5t66.5 18.5v4q-31 9 -62 22.5t-73.5 41t-73.5 61.5t-53.5 86t-22.5 113q0 165 110.5 254.5t278.5 89.5q108 0 194 -37.5t139.5 -116.5t53.5 -190q0 -60 -22.5 -112.5t-53.5 -86.5t-73.5 -61.5t-73 -41t-60.5 -22.5v-4 q30 -6 65.5 -18.5t84 -41.5t86.5 -67t65 -100.5t27 -137.5q0 -96 -37.5 -170.5t-100 -118t-137.5 -65.5t-157 -22q-83 0 -158 22t-138 65.5t-100.5 118t-37.5 170.5zM252 356q0 -78 29.5 -138t79.5 -94.5t110 -51.5t127 -17t126 17t109 51.5t79.5 94.5t29.5 138 q0 247 -344 330q-346 -82 -346 -330zM297 1049q0 -66 27 -119t73.5 -86.5t95 -54t105.5 -33.5q57 13 105.5 33.5t95 54t73.5 86.5t27 119q0 131 -83.5 199.5t-217.5 68.5q-135 0 -218 -68.5t-83 -199.5z" />
<glyph unicode="9" horiz-adv-x="1132" d="M113 950q0 110 34 196t93.5 139t138 80.5t170.5 27.5q97 0 176.5 -34.5t142 -104.5t97 -189t34.5 -277q0 -808 -780 -808v75q667 0 694 670q-129 -221 -401 -221q-72 0 -139 23.5t-127 72.5t-96.5 139.5t-36.5 210.5zM201 950q0 -98 28.5 -171.5t76.5 -115t103.5 -61.5 t116.5 -20q264 0 385 245q-7 250 -104.5 370t-257.5 120q-159 0 -253.5 -91.5t-94.5 -275.5z" />
<glyph unicode=":" horiz-adv-x="415" d="M117 70q0 23 34 57.5t56 34.5t56 -34.5t34 -57.5q0 -22 -34 -56t-56 -34t-56 34t-34 56zM117 838q0 22 34 56t56 34t56 -34t34 -56t-34 -56t-56 -34t-56 34t-34 56z" />
<glyph unicode=";" horiz-adv-x="413" d="M117 70q0 23 34 57.5t56 34.5t56 -34.5t34 -57.5q3 -189 -102 -377l-48 12q64 140 64 275q-27 4 -60.5 36.5t-33.5 53.5zM117 838q0 22 34 56t56 34t56 -34t34 -56t-34 -56t-56 -34t-56 34t-34 56z" />
<glyph unicode="&#x3c;" horiz-adv-x="976" d="M92 621v69l758 369l2 -86l-657 -305l-41 -11v-4l41 -10l657 -307l-2 -86z" />
<glyph unicode="=" horiz-adv-x="948" d="M61 442v70h826v-70h-826zM61 799v67h826v-67h-826z" />
<glyph unicode="&#x3e;" horiz-adv-x="964" d="M113 250v86l657 307l41 10v4l-41 11l-657 305v86l759 -369v-69z" />
<glyph unicode="?" horiz-adv-x="972" d="M113 1032v256q86 51 164.5 78t183.5 27q197 0 298 -89.5t101 -248.5q0 -61 -20.5 -118t-54 -104t-73.5 -93t-79.5 -94.5t-73 -99.5t-54 -117.5t-20.5 -139.5h-65q0 81 19.5 152t50 124t68 101.5t75 93t68 88t50 97t19.5 110.5q0 122 -78 192t-237 70q-131 0 -260 -66 l-21 -219q-28 -8 -61 0zM367 66q0 22 32 54t54 32t54 -32t32 -54t-32 -54t-54 -32t-54 32t-32 54z" />
<glyph unicode="@" horiz-adv-x="2125" d="M170 492q0 200 65.5 373t183.5 299t292.5 198t382.5 72q174 0 320 -44t250 -122.5t176 -187t107 -236.5t35 -271q0 -133 -36 -242t-94 -175t-127 -101t-140 -35q-97 0 -154.5 40.5t-80.5 103.5q-151 -144 -308 -144q-169 0 -270.5 127.5t-101.5 348.5q0 224 108.5 348.5 t308.5 124.5q185 0 330 -101v-596q0 -36 7.5 -66t25 -58.5t52 -45t83.5 -16.5q56 0 110 29.5t99.5 87t73.5 153.5t28 217q0 131 -30 248t-94.5 217t-157.5 172t-226 113t-294 41q-191 0 -349.5 -67t-265 -184.5t-165 -277t-58.5 -343.5q0 -240 100 -427.5t291.5 -296 t446.5 -108.5q241 0 446 72v-62q-115 -40 -216 -60t-230 -20q-209 0 -383 68t-292 188t-183.5 286t-65.5 360zM754 496q0 -191 80.5 -298.5t222.5 -107.5q147 0 278 137v17v600q-105 55 -248 55q-160 0 -246.5 -105.5t-86.5 -297.5z" />
<glyph unicode="A" horiz-adv-x="1480" d="M20 0q-3 14 -3 28t3 27l152 15l502 1235l-133 12q-6 26 0 55h245l525 -1302l149 -15q3 -13 3 -27t-3 -28h-393q-3 29 0 55l150 13l-175 440h-606l-174 -438l150 -15q6 -26 0 -55h-392zM467 584h545l-260 661l-9 55h-4l-8 -55z" />
<glyph unicode="B" horiz-adv-x="1220" d="M74 0q-2 14 -2 28t2 27l153 15v1233l-153 14q-2 13 -2 27t2 28h153q60 0 189.5 10.5t204.5 10.5q181 0 298 -100.5t117 -268.5q0 -70 -23 -129.5t-58.5 -96t-69.5 -58t-62 -27.5v-4q25 -5 55 -16.5t70.5 -37.5t72.5 -60.5t54.5 -90.5t22.5 -123q0 -82 -26.5 -149.5 t-71.5 -113.5t-106.5 -77.5t-130 -46t-142.5 -14.5q-75 0 -204.5 10t-189.5 10h-153zM313 70q180 -15 308 -15q78 0 146 18.5t123.5 55.5t87.5 102t32 150q0 77 -31 134.5t-84 89t-112.5 46.5t-125.5 15h-344v-596zM313 741h344q127 0 209 77.5t82 205.5q0 135 -89.5 214 t-237.5 79q-140 0 -308 -14v-562z" />
<glyph unicode="C" horiz-adv-x="1288" d="M117 686q0 153 38.5 276t101.5 202t149 132t175.5 75t186.5 22q227 0 403 -90v-271q-33 -8 -61 0l-20 221q-156 64 -322 64q-87 0 -166 -20t-152.5 -67.5t-127 -118.5t-85.5 -180t-32 -245t32.5 -245t87 -180t128 -118.5t152 -67.5t163.5 -20q111 0 220 29.5t183 73.5 v-88q-176 -90 -403 -90q-97 0 -186.5 22t-175.5 74.5t-149 131.5t-101.5 202t-38.5 276z" />
<glyph unicode="D" horiz-adv-x="1437" d="M74 0q-2 14 -2 28t2 27l153 15v1233l-153 14q-2 13 -2 27t2 28h153q48 1 189.5 11t245.5 10q98 0 188 -22t176 -75t149 -132t101.5 -202t38.5 -276t-38.5 -276t-101.5 -202t-149 -131.5t-176 -74.5t-188 -22q-101 0 -240.5 10t-194.5 10h-153zM313 70q184 -15 349 -15 q85 0 163.5 20t152 67.5t128 118.5t87 180t32.5 245t-32.5 245t-87 180t-128 118.5t-152 67.5t-163.5 20q-178 0 -349 -14v-1233z" />
<glyph unicode="E" horiz-adv-x="1112" d="M74 0q-2 14 -2 28t2 27l153 15v1233l-153 14q-2 13 -2 27t2 28h915v-276q-33 -8 -61 0l-19 200h-596v-559l543 4v-75l-543 4v-594h637l19 200q28 8 61 0v-276h-956z" />
<glyph unicode="F" horiz-adv-x="1019" d="M74 0q-2 14 -2 28t2 27l153 15v1233l-153 14q-2 13 -2 27t2 28h915v-276q-33 -8 -61 0l-19 200h-596v-579l543 4v-76l-543 4v-579l242 -15q3 -26 0 -55h-481z" />
<glyph unicode="G" horiz-adv-x="1402" d="M123 686q0 153 38.5 276t101.5 202t149 132t175.5 75t186.5 22q248 0 424 -90v-271q-28 -8 -61 0l-21 221q-156 64 -342 64q-87 0 -166 -20t-152.5 -67.5t-127 -118.5t-85.5 -180t-32 -245t32.5 -245t87 -180t128 -118.5t152 -67.5t163.5 -20q219 0 381 51v533h-272 l10 76h346v-645q-176 -90 -465 -90q-97 0 -186.5 22t-175.5 74.5t-149 131.5t-101.5 202t-38.5 276z" />
<glyph unicode="H" horiz-adv-x="1527" d="M74 0q-2 14 -2 28t2 27l153 15v1233l-153 14q-2 13 -2 27t2 28h393q6 -29 0 -55l-154 -14v-562h901v562l-153 14q-6 26 0 55h393q2 -14 2 -28t-2 -27l-154 -14v-1233l154 -15q2 -13 2 -27t-2 -28h-393q-6 29 0 55l153 15v596h-901v-596l154 -15q6 -26 0 -55h-393z" />
<glyph unicode="I" horiz-adv-x="561" d="M84 0q-2 14 -2 28t2 27l154 15v1233l-154 14q-2 13 -2 27t2 28h393q3 -14 3 -28t-3 -27l-153 -14v-1233l153 -15q3 -13 3 -27t-3 -28h-393z" />
<glyph unicode="J" horiz-adv-x="598" d="M39 -262q132 64 188 163.5t56 262.5v1139l-154 14q-6 26 0 55h391q3 -14 3 -28t-3 -27l-153 -14v-1119q0 -203 -74.5 -324.5t-239.5 -187.5z" />
<glyph unicode="K" horiz-adv-x="1263" d="M74 0q-2 14 -2 28t2 27l153 15v1233l-153 14q-2 13 -2 27t2 28h393q6 -29 0 -55l-154 -14v-1233l154 -15q6 -26 0 -55h-393zM381 725l563 580l-135 12q-6 26 0 55h379q6 -29 0 -55l-141 -14l-547 -568l-27 -8v-4l27 -8l608 -647l149 -13q3 -13 3 -27t-3 -28h-200z" />
<glyph unicode="L" horiz-adv-x="1060" d="M74 0q-2 14 -2 28t2 27l153 15v1233l-153 14q-2 13 -2 27t2 28h393q6 -29 0 -55l-154 -14v-1227h617l18 200q29 8 62 0v-276h-936z" />
<glyph unicode="M" horiz-adv-x="2029" d="M68 0q-3 14 -3 28t3 27l151 15l221 1235l-141 12q-6 26 0 55h270l435 -1218l8 -54h4l8 54l436 1218h271q6 -29 0 -55l-142 -12l221 -1235l152 -15q2 -13 2 -27t-2 -28h-393q-6 29 0 55l151 15l-198 1175l-6 55h-5l-10 -55l-436 -1210h-100l-437 1210l-10 55h-4l-6 -55 l-199 -1175l152 -15q3 -26 0 -55h-393z" />
<glyph unicode="N" horiz-adv-x="1556" d="M117 0q-3 14 -3 28t3 27l153 15v1233l-153 14q-3 13 -3 27t3 28h276l838 -1241l20 -63h4v1235l-153 14q-3 26 0 55h393q3 -14 3 -28t-3 -27l-154 -14v-1303h-124l-838 1241l-21 57h-4v-1228l154 -15q6 -26 0 -55h-391z" />
<glyph unicode="O" horiz-adv-x="1550" d="M123 686q0 153 38.5 276t101.5 202t149 132t175.5 75t186.5 22q98 0 188 -22t176 -75t149 -132t101.5 -202t38.5 -276t-38.5 -276t-101.5 -202t-149 -131.5t-176 -74.5t-188 -22q-97 0 -186.5 22t-175.5 74.5t-149 131.5t-101.5 202t-38.5 276zM211 686q0 -136 32.5 -245 t87 -180t128 -118.5t152 -67.5t163.5 -20t163.5 20t152 67.5t128 118.5t87 180t32.5 245t-32.5 245t-87 180t-128 118.5t-152 67.5t-163.5 20t-163.5 -20t-152 -67.5t-128 -118.5t-87 -180t-32.5 -245z" />
<glyph unicode="P" horiz-adv-x="1118" d="M63 0q-2 14 -1.5 28t1.5 27l154 15v1233l-154 14q-2 13 -1.5 27t1.5 28h154q60 0 189 10.5t204 10.5q117 0 212 -42.5t154.5 -131t59.5 -209.5q0 -115 -59.5 -201t-155 -128t-211.5 -42q-115 0 -307 12v-581l242 -15q3 -26 0 -55h-482zM303 727q192 -12 307 -12 q144 0 241 77.5t97 217.5q0 147 -96.5 227t-241.5 80q-139 0 -307 -14v-576z" />
<glyph unicode="Q" horiz-adv-x="1542" d="M119 686q0 153 38.5 276t101.5 202t149 132t176 75t188 22q97 0 186.5 -22t175.5 -75t149 -132t101.5 -202t38.5 -276q0 -222 -75 -372t-203 -232l190 -287h-102l-158 248q-132 -63 -303 -63q-98 0 -188 22t-176 74.5t-149 131.5t-101.5 202t-38.5 276zM209 686 q0 -136 32.5 -245t87 -180t128 -118.5t152 -67.5t163.5 -20t163.5 20t152 67.5t128 118.5t87 180t32.5 245t-32.5 245t-87 180t-128 118.5t-152 67.5t-163.5 20t-163.5 -20t-152 -67.5t-128 -118.5t-87 -180t-32.5 -245z" />
<glyph unicode="R" horiz-adv-x="1241" d="M63 0q-2 14 -1.5 28t1.5 27l154 15v1233l-154 14q-2 13 -1.5 27t1.5 28h154q60 0 189 10.5t204 10.5q107 0 198 -42.5t149.5 -131.5t58.5 -209q0 -143 -97.5 -237t-242.5 -114l395 -591l146 -13q2 -13 1.5 -27t-1.5 -28h-201l-436 655q-144 3 -277 15v-600l154 -15 q6 -26 0 -55h-394zM303 745q168 -14 307 -14q129 0 223.5 76.5t94.5 202.5q0 98 -46.5 169.5t-117 104.5t-154.5 33q-139 0 -307 -14v-558z" />
<glyph unicode="S" horiz-adv-x="1034" d="M125 70v270q28 8 61 0l21 -223q142 -62 262 -62q166 0 261 76.5t95 214.5q0 66 -24 118.5t-64.5 87t-93 62.5t-110.5 50.5t-116 46t-110.5 54t-93 69t-64.5 96.5t-24 131q0 158 102 245t281 87q172 0 348 -90v-271q-33 -8 -61 0l-21 225q-134 60 -266 60 q-143 0 -221 -63.5t-78 -192.5q0 -62 24 -110.5t64.5 -81t93.5 -59t111 -49.5t116 -47t111 -56t93.5 -72.5t64.5 -101.5t24 -138q0 -170 -116.5 -268t-325.5 -98q-168 0 -344 90z" />
<glyph unicode="T" horiz-adv-x="1157" d="M55 1096v276h1047v-276q-29 -8 -62 0l-16 200h-403v-1226h2l153 -15q3 -26 0 -55h-393q-6 29 0 55l154 15v1226h-404l-16 -200q-33 -8 -62 0z" />
<glyph unicode="U" horiz-adv-x="1425" d="M63 1317q-2 13 -1.5 27t1.5 28h394q6 -29 0 -55l-154 -14v-822q0 -426 410 -426q409 0 409 426v822l-153 14q-6 26 0 55h393q2 -14 2 -28t-2 -27l-154 -14v-822q0 -256 -129 -378.5t-366 -122.5t-366.5 122.5t-129.5 378.5v822z" />
<glyph unicode="V" horiz-adv-x="1445" d="M23 1317q-2 13 -1.5 27t1.5 28h393q6 -29 0 -55l-150 -12l447 -1178l8 -55h4l8 55l449 1176l-150 14q-6 26 0 55h391q2 -14 1.5 -28t-1.5 -27l-149 -12l-508 -1305h-90l-504 1305z" />
<glyph unicode="W" horiz-adv-x="2111" d="M23 1317q-2 13 -1.5 27t1.5 28h393q6 -29 0 -55l-150 -14l367 -1176l8 -55h4l8 55l348 1225h111l346 -1225l8 -55h4l9 55l368 1178l-149 12q-6 26 0 55h391q3 -14 3 -28t-3 -27l-152 -14l-415 -1303h-109l-346 1225l-8 53h-4l-8 -53l-349 -1225h-106l-418 1303z" />
<glyph unicode="X" horiz-adv-x="1359" d="M43 0q-2 14 -1.5 28t1.5 27l147 13l422 655l23 8v4l-23 8l-395 562l-154 12q-6 26 0 55h392q6 -29 0 -55l-136 -12l363 -519h4l348 519l-145 12q-3 26 0 55h393q6 -29 0 -55l-149 -12l-385 -562l-19 -8v-4l19 -8l421 -655l146 -13q3 -13 3 -27t-3 -28h-391q-6 29 0 55 l141 13l-385 610h-4l-389 -610l149 -13q6 -26 0 -55h-393z" />
<glyph unicode="Y" horiz-adv-x="1312" d="M23 1317q-1 13 -1 27t1 28h393q6 -29 0 -55l-142 -12l375 -703l8 -61h5l8 61l374 703l-147 12q-3 26 0 55h393q3 -14 3 -28t-3 -27l-153 -12l-437 -801v-434l154 -15q6 -26 0 -55h-393q-3 29 0 55l153 15v434l-436 799z" />
<glyph unicode="Z" horiz-adv-x="1134" d="M82 0v53l836 1223l26 16v4h-762l-18 -200q-29 -8 -62 0v276h940v-53l-833 -1223l-27 -16v-4h793l16 200q33 8 62 0v-276h-971z" />
<glyph unicode="[" horiz-adv-x="444" d="M102 -248v1917h287v-70h-205v-1777h205v-70h-287z" />
<glyph unicode="\" horiz-adv-x="770" d="M55 1516h76l614 -1680h-75z" />
<glyph unicode="]" horiz-adv-x="444" d="M55 -178h205v1777h-205v70h287v-1917h-287v70z" />
<glyph unicode="^" horiz-adv-x="931" d="M61 1024l371 655h68l370 -655h-86l-305 555l-10 41h-4l-10 -41l-308 -555h-86z" />
<glyph unicode="_" horiz-adv-x="829" d="M47 -41h766v-70h-766v70z" />
<glyph unicode="`" horiz-adv-x="495" d="M51 1436l45 61l350 -262l-28 -41z" />
<glyph unicode="a" horiz-adv-x="1034" d="M123 219q0 152 167 249.5t476 123.5v76q0 153 -56 219.5t-206 66.5q-194 0 -332 -84v78q141 76 338 76q185 0 261.5 -87.5t76.5 -268.5v-598l143 -15q3 -13 3 -27t-3 -28h-209q-11 68 -14 152q-86 -79 -193 -125.5t-200 -46.5q-112 0 -182 64t-70 175zM209 231 q0 -88 48.5 -135t135.5 -47q90 0 192 48t181 134v21v280q-280 -25 -418.5 -104t-138.5 -197z" />
<glyph unicode="b" horiz-adv-x="1105" d="M23 1460q-2 15 -1.5 29t1.5 27l213 20q18 -105 18 -252v-412q162 152 330 152q187 0 298 -139.5t111 -382.5q0 -248 -120 -385t-341 -137q-161 0 -301 73l-26 -53h-33v1458zM254 115q121 -66 278 -66q183 0 280 118.5t97 334.5q0 213 -91.5 332.5t-250.5 119.5 q-167 0 -313 -161v-678z" />
<glyph unicode="c" horiz-adv-x="958" d="M113 502q0 247 117 384.5t329 137.5q175 0 307 -76v-239q-28 -8 -57 0l-21 200q-95 45 -229 45q-176 0 -268 -119t-92 -333t92 -333.5t268 -119.5q87 0 158 17.5t149 66.5v-78q-130 -75 -307 -75q-212 0 -329 137.5t-117 384.5z" />
<glyph unicode="d" d="M113 502q0 248 119.5 385t340.5 137q167 0 281 -102v536l-149 2q-3 30 0 56l213 20q18 -105 18 -252v-1214l143 -15q2 -13 1.5 -27t-1.5 -28h-209q-11 61 -14 133q-76 -73 -162.5 -113t-171.5 -40q-187 0 -298 139.5t-111 382.5zM199 502q0 -213 91 -333t249 -120 q168 0 315 162v41v575q-41 60 -113.5 93.5t-167.5 33.5q-182 0 -278 -118t-96 -334z" />
<glyph unicode="e" horiz-adv-x="1042" d="M113 502q0 245 119 383.5t327 138.5q172 0 271.5 -94t99.5 -268q0 -42 -6 -82l-731 -76v-2h2q0 -214 94 -333.5t270 -119.5q96 0 173 17.5t155 66.5v-78q-130 -75 -328 -75q-212 0 -329 137.5t-117 384.5zM195 563l651 72v27q0 294 -287 294q-164 0 -258 -102.5 t-106 -290.5z" />
<glyph unicode="f" horiz-adv-x="776" d="M92 934v70h168v165q0 184 78.5 275.5t224.5 91.5q112 0 203 -55v-78q-91 63 -197 63q-109 0 -168 -73t-59 -238v-151h397l-10 -70h-387v-864l145 -15q6 -26 0 -55h-376q-3 29 0 55l149 15v864h-168z" />
<glyph unicode="g" horiz-adv-x="1110" d="M143 -213q0 154 154 283q-100 42 -100 125q0 97 139 208q-90 42 -141.5 117.5t-51.5 171.5q0 147 113.5 239.5t282.5 92.5q128 0 227 -55l133 149l51 -41l-125 -149q111 -93 111 -236q0 -146 -113.5 -238t-283.5 -92q-75 0 -152 23q-115 -93 -115 -172q0 -31 20 -52.5 t61.5 -34t83 -19t104.5 -11.5q205 -18 283 -38q177 -44 200 -164q4 -19 4 -41q0 -145 -141 -239.5t-369 -94.5q-191 0 -283 69.5t-92 198.5zM217 -203q0 -110 73.5 -161.5t227.5 -51.5q193 0 310.5 72t117.5 186q0 104 -132 145q-71 22 -257 38l-1 1h-1h-1h-1h-1h-1h-1h-1 h-1h-1h-1h-1l-1 1h-1h-1h-1h-2q-113 10 -185 26q-137 -107 -137 -256zM223 692q0 -116 90 -190t226 -74q137 0 226 74t89 190t-89.5 190t-225.5 74t-226 -74t-90 -190z" />
<glyph unicode="h" horiz-adv-x="1212" d="M84 0q-2 14 -2 28t2 27l149 15v1388l-149 2q-2 15 -2 29t2 27l213 20q18 -105 18 -252v-434q85 81 191.5 127.5t200.5 46.5q170 0 238.5 -87t68.5 -269v-598l143 -15q3 -13 3 -27t-3 -28h-225v664q0 155 -52.5 222.5t-189.5 67.5q-92 0 -195.5 -48.5t-179.5 -137.5v-698 l146 -15q6 -26 0 -55h-377z" />
<glyph unicode="i" horiz-adv-x="505" d="M74 0q-2 14 -2 28t2 27l149 15v876l-149 2q-2 15 -2 29t2 27l213 20q18 -105 18 -252v-702l146 -15q3 -13 3 -27t-3 -28h-377zM166 1341q0 22 32 55.5t54 33.5t55 -33.5t33 -55.5t-33 -55t-55 -33t-54 33t-32 55z" />
<glyph unicode="j" horiz-adv-x="507" d="M49 -416q100 60 152.5 154.5t52.5 251.5v956l-148 2q-7 30 0 56l213 20q17 -100 17 -252v-741q0 -145 -35.5 -249t-93 -163.5t-144.5 -99.5zM199 1341q0 22 33 55.5t55 33.5t55 -33.5t33 -55.5t-33 -55t-55 -33t-55 33t-33 55z" />
<glyph unicode="k" horiz-adv-x="1114" d="M74 0q-2 14 -2 28t2 27l149 15v1388l-149 2q-2 15 -2 29t2 27l213 20q18 -105 18 -252v-1214l144 -15q3 -26 0 -55h-375zM379 563l416 375l-113 10q-3 26 0 56h367q7 -30 0 -56l-158 -10l-404 -367l-26 -8v-4l26 -6l453 -485v2l154 -15q3 -13 3 -27t-3 -28h-195z" />
<glyph unicode="l" horiz-adv-x="598" d="M115 0q-2 14 -1.5 28t1.5 27l149 15v1388l-149 2q-2 15 -1.5 29t1.5 27l213 20q18 -105 18 -252v-1214l146 -15q3 -13 3 -27t-3 -28h-377z" />
<glyph unicode="m" horiz-adv-x="1832" d="M74 0q-2 14 -2 28t2 27l149 15v876l-149 2q-2 15 -2 29t2 27l213 20q13 -72 16 -174q83 81 183.5 127.5t193.5 46.5q117 0 182 -47t90 -143q85 88 191 139t203 51q159 0 224.5 -87.5t65.5 -268.5v-598l144 -15q2 -13 2 -27t-2 -28h-226v664q0 153 -50 221.5t-175 68.5 q-91 0 -186.5 -48t-171.5 -138v-698l143 -15q3 -26 0 -55h-225v664q0 153 -50 221.5t-175 68.5q-91 0 -187 -48t-172 -138v-698l146 -15q6 -26 0 -55h-377z" />
<glyph unicode="n" horiz-adv-x="1200" d="M74 0q-2 14 -2 28t2 27l149 15v876l-149 2q-2 15 -2 29t2 27l213 20q13 -76 16 -176q85 82 193 129t202 47q170 0 238 -87t68 -269v-598l143 -15q3 -13 3 -27t-3 -28h-225v664q0 155 -52.5 222.5t-189.5 67.5q-92 0 -195.5 -48.5t-179.5 -137.5v-698l146 -15q6 -26 0 -55 h-377z" />
<glyph unicode="o" horiz-adv-x="1120" d="M113 502q0 247 117 384.5t329 137.5q213 0 331 -137.5t118 -384.5t-118 -384.5t-331 -137.5q-212 0 -329 137.5t-117 384.5zM199 502q0 -214 92 -333.5t268 -119.5t269.5 119.5t93.5 333.5t-93.5 333t-269.5 119t-268 -119t-92 -333z" />
<glyph unicode="p" horiz-adv-x="1136" d="M53 -406l150 15v1337l-150 2q-1 15 -1 29t1 27l213 20q14 -71 17 -154q160 154 331 154q187 0 298.5 -139.5t111.5 -382.5q0 -248 -120 -385t-341 -137q-167 0 -278 102v-473l233 -15q6 -26 0 -55h-465q-1 15 -1 28.5t1 26.5zM285 176q41 -60 112 -93.5t166 -33.5 q183 0 280 118.5t97 334.5q0 213 -91.5 332.5t-250.5 119.5q-167 0 -313 -161v-21v-596z" />
<glyph unicode="q" horiz-adv-x="1089" d="M113 502q0 248 119.5 385t340.5 137q159 0 301 -74l27 54h35v-1465h-361q-6 29 0 55l279 15v522q-161 -151 -332 -151q-187 0 -298 139.5t-111 382.5zM199 502q0 -213 91 -333t249 -120q168 0 315 162v678q-122 65 -281 65q-182 0 -278 -118t-96 -334z" />
<glyph unicode="r" horiz-adv-x="874" d="M74 0q-2 14 -2 28t2 27l149 15v876l-149 2q-2 15 -2 29t2 27l213 20q15 -86 18 -211q87 92 203 151.5t219 59.5q59 0 59 -68v-251q-30 -4 -59 0l-22 233h-25q-85 0 -193.5 -60t-181.5 -149v-659l234 -15q6 -26 0 -55h-465z" />
<glyph unicode="s" horiz-adv-x="909" d="M115 760q0 130 93.5 197t237.5 67q176 0 308 -76v-239q-30 -7 -60 0l-20 202q-95 45 -228 45q-113 0 -182 -47t-69 -143q0 -48 33 -86t86.5 -64t117.5 -50t128 -51t117.5 -60.5t86.5 -85t33 -117.5q0 -125 -101 -198.5t-258 -73.5q-102 0 -177 17.5t-144 57.5v240 q29 7 59 0l21 -203q95 -45 241 -45q125 0 202 52.5t77 144.5q0 53 -33 95t-86.5 70t-117.5 53.5t-128 52t-117.5 58t-86.5 79t-33 108.5z" />
<glyph unicode="t" horiz-adv-x="800" d="M82 934v70h170l14 286l66 21v-307h377l-11 -70h-366v-641q0 -127 44 -188.5t136 -61.5q99 0 197 66v-80q-92 -56 -205 -56q-254 0 -254 308v653h-168z" />
<glyph unicode="u" horiz-adv-x="1163" d="M43 948q-2 15 -1.5 29t1.5 27l213 20q18 -105 18 -252v-432q0 -154 51 -222.5t181 -68.5q95 0 202.5 53.5t186.5 149.5v694l-147 2q-7 30 0 56l213 20q16 -94 16 -252v-702l143 -15q3 -13 3 -27t-3 -28h-209q-14 96 -14 168q-87 -87 -198.5 -137.5t-211.5 -50.5 q-161 0 -227.5 87.5t-66.5 268.5v610z" />
<glyph unicode="v" horiz-adv-x="1144" d="M-8 948q-2 15 -2 29t2 27l213 20l366 -905l9 -53h4l8 53l328 817l-144 12q-7 26 0 56h377q2 -15 1.5 -29t-1.5 -27l-147 -14l-385 -934h-78l-398 946z" />
<glyph unicode="w" horiz-adv-x="1720" d="M-6 948q-4 15 -4 29t4 27l213 20l305 -905l8 -53h4l8 53l283 864l100 21l261 -885l8 -53h4l8 53l297 817l-143 12q-3 26 0 56h376q4 -15 4 -29t-4 -27l-145 -14l-356 -934h-82l-266 885l-9 53h-4l-8 -53l-293 -885h-84l-336 946z" />
<glyph unicode="x" horiz-adv-x="1128" d="M47 948q-2 15 -1.5 29t1.5 27l213 20l313 -449h5l251 361l-143 12q-3 26 0 56h377q7 -30 0 -56l-143 -14l-287 -406l-23 -6v-4l23 -8l315 -442l137 -13q2 -13 1.5 -27t-1.5 -28h-188l-326 461h-4l-274 -393l137 -13q6 -26 0 -55h-373q-6 29 0 55l146 15l311 440l21 8v4 l-21 6l-297 418z" />
<glyph unicode="y" horiz-adv-x="1144" d="M-8 948q-4 15 -4 29t4 27l213 20l366 -905l9 -62h4l8 62l326 817l-142 12q-7 26 0 56h377q1 -15 1 -29t-1 -27l-147 -14l-578 -1395l-88 -20v37l203 440v4l-398 946z" />
<glyph unicode="z" horiz-adv-x="966" d="M82 0v47l657 873l27 10v4h-586l-18 -225q-30 -7 -60 0v295h762v-48l-657 -872l-25 -10v-4h615l18 225q29 7 59 0v-295h-792z" />
<glyph unicode="{" horiz-adv-x="436" d="M82 686v51q78 21 103.5 58.5t25.5 111.5q0 67 -20.5 264.5t-20.5 264.5q0 40 7 73t24 66.5t52.5 58t86.5 37.5l14 -72q-62 -19 -82 -64.5t-20 -127.5q0 -67 20.5 -263t20.5 -263q0 -60 -27 -101.5t-90 -66.5q63 -25 90 -66.5t27 -101.5q0 -67 -20.5 -264t-20.5 -263 q0 -82 20 -128t82 -66l-14 -70q-170 39 -170 236q0 66 20.5 263t20.5 263q0 75 -25.5 113t-103.5 57z" />
<glyph unicode="|" horiz-adv-x="522" d="M219 -410v2048h82v-2048h-82z" />
<glyph unicode="}" horiz-adv-x="436" d="M82 -176q61 20 81.5 66.5t20.5 127.5q0 66 -20.5 263t-20.5 264q0 61 26 102t89 66q-63 25 -89 66t-26 102q0 67 20.5 263t20.5 263q0 81 -20.5 127t-81.5 65l14 72q51 -13 86.5 -37.5t52.5 -58t24 -66.5t7 -73q0 -67 -20.5 -264.5t-20.5 -264.5q0 -75 25 -112t104 -58 v-51q-79 -19 -104 -56.5t-25 -113.5q0 -66 20.5 -263t20.5 -263q0 -197 -170 -236z" />
<glyph unicode="~" horiz-adv-x="968" d="M92 639l37 -64q123 101 236 101q43 0 82.5 -15t66.5 -33t71 -33t95 -15q59 0 111 18t129 61l-37 64q-106 -76 -203 -76q-39 0 -78 15.5t-67 33.5t-73 33.5t-95 15.5q-120 0 -275 -106z" />
<glyph unicode="&#xa2;" horiz-adv-x="958" d="M113 502q0 234 106 370.5t299 149.5v166h82v-164q148 -9 266 -76v-239q-28 -8 -57 0l-21 200q-95 45 -229 45q-176 0 -268 -119t-92 -333t92 -333.5t268 -119.5q87 0 158 17.5t149 66.5v-78q-116 -66 -266 -75v-164h-82v166q-193 13 -299 149.5t-106 370.5z" />
<glyph unicode="&#xa3;" horiz-adv-x="1060" d="M72 657v70h129v322q0 163 100 253.5t297 90.5q106 0 185 -27t165 -78v-256q-32 -8 -63 0l-21 219q-129 66 -258 66q-160 0 -238.5 -71t-78.5 -197v-322h493v-70h-493v-284q0 -88 -34.5 -172t-100.5 -125h714l17 200q31 8 63 0v-276h-870v76q58 42 90.5 128.5t32.5 168.5 v284h-129z" />
<glyph unicode="&#xa5;" horiz-adv-x="1249" d="M23 1317q-3 26 0 55h393q6 -29 0 -55l-142 -12l375 -703l8 -61h5l8 61l374 703l-147 12q-3 26 0 55h393q6 -29 0 -55l-153 -12l-422 -777h334v-69h-349v-166h349v-70h-349v-153l154 -15q6 -26 0 -55h-393q-3 29 0 55l153 15v153h-358v70h358v166h-358v69h346l-424 775z " />
<glyph unicode="&#xa8;" horiz-adv-x="831" d="M154 1350q0 20 29 50t48 30q20 0 50 -30t30 -50t-30 -50t-50 -30q-19 0 -48 30t-29 50zM520 1350q0 20 30 50t50 30q19 0 48.5 -30t29.5 -50t-29.5 -50t-48.5 -30q-20 0 -50 30t-30 50z" />
<glyph unicode="&#xa9;" horiz-adv-x="1536" d="M61 686q0 124 29.5 229.5t82 181t120.5 134t148 93t162 52t165 17.5t165 -17.5t162 -52t148 -93t120.5 -134t82 -181t29.5 -229.5t-29.5 -229t-82 -181t-120.5 -134t-148 -92.5t-162 -52t-165 -17.5t-165 17.5t-162 52t-148 92.5t-120.5 134t-82 181t-29.5 229zM102 686 q0 -141 40.5 -256.5t106.5 -191t154 -127t179 -73.5t186 -22t186 22t179 73.5t154 127t106.5 191t40.5 256.5t-40.5 256.5t-106.5 191t-154 127t-179 73.5t-186 22t-186 -22t-179 -73.5t-154 -127t-106.5 -191t-40.5 -256.5zM451 686q0 187 88 291t249 104q130 0 232 -57 v-180q-26 -4 -51 0l-15 149q-71 31 -166 31q-127 0 -195.5 -90t-68.5 -248t68.5 -248t195.5 -90q130 0 232 66v-66q-102 -57 -232 -57q-161 0 -249 104t-88 291z" />
<glyph unicode="&#xab;" horiz-adv-x="1099" d="M92 518v68l459 405v-86l-385 -340l-31 -10v-4l31 -10l385 -340v-88zM514 518v68l459 405v-86l-385 -340l-31 -10v-4l31 -10l385 -340v-88z" />
<glyph unicode="&#xad;" horiz-adv-x="860" d="M113 532v76h635v-76h-635z" />
<glyph unicode="&#xb4;" horiz-adv-x="405" d="M51 1235l350 262l45 -61l-368 -242z" />
<glyph unicode="&#xb8;" horiz-adv-x="444" d="M41 -416q39 -8 104 -8q74 0 112 29.5t38 75.5q0 91 -174 131l45 188h63l-36 -154q75 -18 122 -61t47 -102q0 -71 -57.5 -117.5t-161.5 -46.5q-63 0 -102 8v57z" />
<glyph unicode="&#xbb;" horiz-adv-x="1099" d="M127 127v86l385 340l31 10v4l-31 11l-385 340v88l459 -406v-70zM549 127v86l385 340l31 10v4l-31 11l-385 340v88l459 -406v-70z" />
<glyph unicode="&#xd3;" horiz-adv-x="1550" d="M123 686q0 153 38.5 276t101.5 202t149 132t175.5 75t186.5 22q98 0 188 -22t176 -75t149 -132t101.5 -202t38.5 -276t-38.5 -276t-101.5 -202t-149 -131.5t-176 -74.5t-188 -22q-97 0 -186.5 22t-175.5 74.5t-149 131.5t-101.5 202t-38.5 276zM211 686q0 -136 32.5 -245 t87 -180t128 -118.5t152 -67.5t163.5 -20t163.5 20t152 67.5t128 118.5t87 180t32.5 245t-32.5 245t-87 180t-128 118.5t-152 67.5t-163.5 20t-163.5 -20t-152 -67.5t-128 -118.5t-87 -180t-32.5 -245zM586 1559l372 229l39 -66l-387 -206z" />
<glyph unicode="&#xf3;" horiz-adv-x="1120" d="M113 502q0 247 117 384.5t329 137.5q213 0 331 -137.5t118 -384.5t-118 -384.5t-331 -137.5q-212 0 -329 137.5t-117 384.5zM199 502q0 -214 92 -333.5t268 -119.5t269.5 119.5t93.5 333.5t-93.5 333t-269.5 119t-268 -119t-92 -333zM410 1235l350 262l45 -61l-367 -242z " />
<glyph unicode="&#x104;" horiz-adv-x="1480" d="M20 0q-6 29 0 55l152 15l502 1235l-133 12q-6 26 0 55h159h86l525 -1302l149 -15q6 -26 0 -55h-205q-112 -53 -163.5 -120.5t-51.5 -153.5q0 -61 42 -99.5t108 -38.5q67 0 137 37l12 -65q-74 -41 -159 -41q-95 0 -155 53t-60 135q0 215 264 332l-187 469h-604l-176 -438 l152 -15q3 -26 0 -55h-394zM467 584h547l-262 661l-9 55h-4l-8 -55z" />
<glyph unicode="&#x105;" horiz-adv-x="1034" d="M123 219q0 152 167 249.5t476 123.5v76q0 153 -56 219.5t-206 66.5q-194 0 -332 -84v78q141 76 338 76q185 0 261.5 -87.5t76.5 -268.5v-598l143 -15q6 -26 0 -55h-137q-238 -105 -238 -274q0 -61 42 -99.5t108 -38.5q67 0 137 37l12 -65q-74 -41 -159 -41q-95 0 -155 53 t-60 135q0 57 21.5 107.5t58 88t75.5 64t84 47.5q-9 68 -12 138q-86 -79 -193 -125.5t-200 -46.5q-112 0 -182 64t-70 175zM209 231q0 -88 48.5 -135t135.5 -47q90 0 192 48t181 134v21v280q-280 -25 -418.5 -104t-138.5 -197z" />
<glyph unicode="&#x106;" horiz-adv-x="1288" d="M117 686q0 153 38.5 276t101.5 202t149 132t175.5 75t186.5 22q227 0 403 -90v-271q-33 -8 -61 0l-20 221q-156 64 -322 64q-87 0 -166 -20t-152.5 -67.5t-127 -118.5t-85.5 -180t-32 -245t32.5 -245t87 -180t128 -118.5t152 -67.5t163.5 -20q111 0 220 29.5t183 73.5 v-88q-176 -90 -403 -90q-97 0 -186.5 22t-175.5 74.5t-149 131.5t-101.5 202t-38.5 276zM588 1559l373 229l38 -66l-387 -206z" />
<glyph unicode="&#x107;" horiz-adv-x="958" d="M113 502q0 247 117 384.5t329 137.5q175 0 307 -76v-239q-28 -8 -57 0l-21 200q-95 45 -229 45q-176 0 -268 -119t-92 -333t92 -333.5t268 -119.5q87 0 158 17.5t149 66.5v-78q-130 -75 -307 -75q-212 0 -329 137.5t-117 384.5zM410 1235l352 262l45 -61l-369 -242z" />
<glyph unicode="&#x118;" horiz-adv-x="1112" d="M74 0q-3 29 0 55l153 15v1233l-153 14q-3 26 0 55h915v-276q-33 -8 -61 0l-19 200h-596v-559l543 4v-75l-543 4v-594h637l19 200q28 8 61 0v-276h-104q-123 -54 -179.5 -121.5t-56.5 -152.5q0 -62 41.5 -100t108.5 -38q68 0 135 37l14 -65q-74 -41 -160 -41 q-95 0 -156 53t-61 135q0 183 213 293h-751z" />
<glyph unicode="&#x119;" horiz-adv-x="1052" d="M113 502q0 245 119 383.5t327 138.5q172 0 271.5 -94t99.5 -268q0 -42 -6 -82l-731 -76v-2h2q0 -214 94 -333.5t270 -119.5q96 0 173 17.5t155 66.5v-78l-8 -6q-135 -75 -203 -154t-68 -169q0 -62 41.5 -100t108.5 -38q65 0 135 37l14 -65q-74 -41 -162 -41 q-94 0 -154.5 53t-60.5 135q0 151 168 283q-72 -10 -139 -10q-212 0 -329 137.5t-117 384.5zM195 563l651 72v27q0 294 -287 294q-164 0 -258 -102.5t-106 -290.5z" />
<glyph unicode="&#x141;" horiz-adv-x="1040" d="M16 492v79l226 144v588l-154 14q-6 26 0 55h393q3 -29 0 -55l-153 -14v-545l284 186v-80l-284 -178v-610h616l17 200q31 8 63 0v-276h-936q-6 29 0 55l154 15v573z" />
<glyph unicode="&#x142;" horiz-adv-x="700" d="M57 524v76l240 150v708l-147 2q-7 30 0 56l212 20q17 -100 17 -252v-491l262 176v-76l-262 -170v-653l147 -15q3 -26 0 -55h-376q-6 29 0 55l147 15v610z" />
<glyph unicode="&#x143;" horiz-adv-x="1556" d="M117 0q-6 29 0 55l153 15v1233l-153 14q-6 26 0 55h276l838 -1241l20 -63h4v1235l-153 14q-3 26 0 55h393q6 -29 0 -55l-154 -14v-1303h-124l-838 1241l-21 57h-4v-1228l154 -15q6 -26 0 -55h-391zM698 1559l373 229l39 -66l-387 -206z" />
<glyph unicode="&#x144;" horiz-adv-x="1200" d="M74 0q-3 29 0 55l149 15v876l-149 2q-3 30 0 56l213 20q13 -76 16 -176q85 82 193 129t202 47q170 0 238 -87t68 -269v-598l143 -15q6 -26 0 -55h-225v664q0 155 -52.5 222.5t-189.5 67.5q-92 0 -195.5 -48.5t-179.5 -137.5v-698l146 -15q6 -26 0 -55h-377zM473 1235 l352 262l45 -61l-368 -242z" />
<glyph unicode="&#x15a;" horiz-adv-x="1034" d="M125 70v270q28 8 61 0l21 -223q142 -62 262 -62q166 0 261 76.5t95 214.5q0 66 -24 118.5t-64.5 87t-93 62.5t-110.5 50.5t-116 46t-110.5 54t-93 69t-64.5 96.5t-24 131q0 158 102 245t281 87q172 0 348 -90v-271q-33 -8 -61 0l-21 225q-134 60 -266 60 q-143 0 -221 -63.5t-78 -192.5q0 -62 24 -110.5t64.5 -81t93.5 -59t111 -49.5t116 -47t111 -56t93.5 -72.5t64.5 -101.5t24 -138q0 -170 -116.5 -268t-325.5 -98q-168 0 -344 90zM362 1559l371 229l39 -66l-387 -206z" />
<glyph unicode="&#x15b;" horiz-adv-x="909" d="M115 760q0 130 93.5 197t237.5 67q176 0 308 -76v-239q-30 -7 -60 0l-20 202q-95 45 -228 45q-113 0 -182 -47t-69 -143q0 -48 33 -86t86.5 -64t117.5 -50t128 -51t117.5 -60.5t86.5 -85t33 -117.5q0 -125 -101 -198.5t-258 -73.5q-102 0 -177 17.5t-144 57.5v240 q29 7 59 0l21 -203q95 -45 241 -45q125 0 202 52.5t77 144.5q0 53 -33 95t-86.5 70t-117.5 53.5t-128 52t-117.5 58t-86.5 79t-33 108.5zM317 1235l351 262l45 -61l-369 -242z" />
<glyph unicode="&#x179;" horiz-adv-x="1134" d="M82 0v53l836 1223l26 16v4h-762l-18 -200q-29 -8 -62 0v276h940v-53l-833 -1223l-27 -16v-4h793l16 200q33 8 62 0v-276h-971zM432 1559l371 229l41 -66l-387 -206z" />
<glyph unicode="&#x17a;" horiz-adv-x="966" d="M82 0v47l657 873l27 10v4h-586l-18 -225q-30 -7 -60 0v295h762v-48l-657 -872l-25 -10v-4h615l18 225q29 7 59 0v-295h-792zM395 1235l353 262l45 -61l-369 -242z" />
<glyph unicode="&#x17b;" horiz-adv-x="1134" d="M82 0v53l836 1223l26 16v4h-762l-18 -200q-29 -8 -62 0v276h940v-53l-833 -1223l-27 -16v-4h793l16 200q33 8 62 0v-276h-971zM481 1595q0 22 33 55t55 33t54 -33t32 -55t-32 -54t-54 -32t-55 32t-33 54z" />
<glyph unicode="&#x17c;" horiz-adv-x="966" d="M82 0v47l657 873l27 10v4h-586l-18 -225q-30 -7 -60 0v295h762v-48l-657 -872l-25 -10v-4h615l18 225q29 7 59 0v-295h-792zM391 1341q0 22 32 55.5t54 33.5t55 -33.5t33 -55.5t-33 -55t-55 -33t-54 33t-32 55z" />
<glyph unicode="&#x2c6;" horiz-adv-x="665" d="M55 1237l277 244l278 -244l-28 -43l-250 201l-248 -201z" />
<glyph unicode="&#x2da;" horiz-adv-x="509" d="M47 1389q0 86 61 146t148 60q85 0 146 -60t61 -146t-61 -146.5t-146 -60.5q-86 0 -147.5 60.5t-61.5 146.5zM111 1389q0 -62 42 -106t103 -44t102 44t41 106t-41 105.5t-102 43.5t-103 -43.5t-42 -105.5z" />
<glyph unicode="&#x2dc;" horiz-adv-x="880" d="M109 1204q12 104 64.5 162.5t127.5 58.5q39 0 71.5 -16t55.5 -38.5t45 -44.5t50 -38t59 -16q48 0 83.5 38t47.5 113h57q-12 -105 -62 -163t-126 -58q-39 0 -71.5 16t-55 38.5t-44 45t-49.5 38.5t-61 16q-49 0 -85.5 -38.5t-49.5 -113.5h-57z" />
<glyph unicode="&#x2000;" horiz-adv-x="965" />
<glyph unicode="&#x2001;" horiz-adv-x="1931" />
<glyph unicode="&#x2002;" horiz-adv-x="965" />
<glyph unicode="&#x2003;" horiz-adv-x="1931" />
<glyph unicode="&#x2004;" horiz-adv-x="643" />
<glyph unicode="&#x2005;" horiz-adv-x="482" />
<glyph unicode="&#x2006;" horiz-adv-x="321" />
<glyph unicode="&#x2007;" horiz-adv-x="321" />
<glyph unicode="&#x2008;" horiz-adv-x="241" />
<glyph unicode="&#x2009;" horiz-adv-x="386" />
<glyph unicode="&#x200a;" horiz-adv-x="107" />
<glyph unicode="&#x2010;" horiz-adv-x="860" d="M113 532v76h635v-76h-635z" />
<glyph unicode="&#x2011;" horiz-adv-x="860" d="M113 532v76h635v-76h-635z" />
<glyph unicode="&#x2012;" horiz-adv-x="860" d="M113 532v76h635v-76h-635z" />
<glyph unicode="&#x2013;" horiz-adv-x="989" d="M61 532v68h867v-68h-867z" />
<glyph unicode="&#x2014;" horiz-adv-x="1617" d="M61 532v68h1495v-68h-1495z" />
<glyph unicode="&#x2018;" horiz-adv-x="413" d="M117 1260q0 193 102 378l47 -12q-63 -141 -63 -276q28 -4 61 -36t33 -54t-34 -56.5t-56 -34.5t-56 34.5t-34 56.5z" />
<glyph unicode="&#x2019;" horiz-adv-x="413" d="M117 1548q0 22 34 56t56 34t56 -34t34 -56q0 -194 -102 -379l-48 13q64 144 64 276q-28 4 -61 36t-33 54z" />
<glyph unicode="&#x201a;" horiz-adv-x="413" d="M117 70q0 23 34 57.5t56 34.5t56 -34.5t34 -57.5q0 -195 -102 -377l-48 12q64 140 64 275q-27 4 -60.5 36.5t-33.5 53.5z" />
<glyph unicode="&#x201c;" horiz-adv-x="714" d="M117 1260q0 193 102 378l47 -12q-63 -141 -63 -276q28 -4 61 -36t33 -54t-34 -56.5t-56 -34.5t-56 34.5t-34 56.5zM416 1260q0 189 104 378l47 -12q-63 -141 -63 -276q28 -4 61 -36t33 -54t-34 -56.5t-56 -34.5q-23 0 -57.5 34.5t-34.5 56.5z" />
<glyph unicode="&#x201d;" horiz-adv-x="710" d="M117 1548q0 22 34 56t56 34t56 -34t34 -56q0 -194 -102 -379l-48 13q64 144 64 276q-28 4 -61 36t-33 54zM414 1548q0 22 34 56t56 34q23 0 57.5 -34t34.5 -56q0 -190 -104 -379l-48 13q64 144 64 276q-28 4 -61 36t-33 54z" />
<glyph unicode="&#x201e;" horiz-adv-x="710" d="M117 70q0 23 34 57.5t56 34.5t56 -34.5t34 -57.5q0 -195 -102 -377l-48 12q64 140 64 275q-27 4 -60.5 36.5t-33.5 53.5zM414 70q0 23 34 57.5t56 34.5q23 0 57.5 -34.5t34.5 -57.5q0 -191 -104 -377l-48 12q64 140 64 275q-27 4 -60.5 36.5t-33.5 53.5z" />
<glyph unicode="&#x2026;" horiz-adv-x="1241" d="M117 70q0 23 34 57.5t56 34.5t56 -34.5t34 -57.5q0 -22 -34 -56t-56 -34t-56 34t-34 56zM530 70q0 23 34.5 57.5t56.5 34.5t56 -34.5t34 -57.5q0 -22 -34 -56t-56 -34t-56.5 34t-34.5 56zM942 70q0 23 34.5 57.5t57.5 34.5q22 0 56 -34.5t34 -57.5q0 -22 -34 -56t-56 -34 q-23 0 -57.5 34t-34.5 56z" />
<glyph unicode="&#x202f;" horiz-adv-x="386" />
<glyph unicode="&#x2039;" horiz-adv-x="718" d="M92 551v70l500 405v-88l-420 -340l-33 -10v-4l33 -11l420 -340v-86z" />
<glyph unicode="&#x203a;" horiz-adv-x="718" d="M127 147v86l420 340l33 11v4l-33 10l-420 340v88l500 -405v-70z" />
<glyph unicode="&#x205f;" horiz-adv-x="482" />
<glyph unicode="&#x20ac;" horiz-adv-x="1226" d="M6 498l35 69h176q-6 56 -6 119q0 39 4 109h-209l35 69h182q16 114 54.5 205.5t89.5 151t115 99t130 56.5t136 17q186 0 362 -90v-271q-33 -8 -61 0l-21 223q-145 62 -280 62q-76 0 -144 -24.5t-128 -76t-102.5 -141.5t-60.5 -211h602l-34 -69h-576q-4 -35 -4 -109 q0 -45 4 -119h553l-35 -69h-508q19 -118 63 -206t104 -138.5t126.5 -74.5t139.5 -24q96 0 191.5 29t170.5 74v-88q-176 -90 -362 -90q-88 0 -168.5 27.5t-154 86t-126.5 162t-74 242.5h-219z" />
<glyph unicode="&#x2122;" horiz-adv-x="3186" d="M55 1096v276h1047v-276q-29 -8 -62 0l-16 200h-403v-1226h2l153 -15q3 -26 0 -55h-393q-6 29 0 55l154 15v1226h-404l-16 -200q-33 -8 -62 0zM1225 0q-6 29 0 55l151 15l221 1235l-141 12q-6 26 0 55h270l435 -1218l8 -54h4l8 54l436 1218h271q6 -29 0 -55l-142 -12 l222 -1235l151 -15q3 -26 0 -55h-393q-6 29 0 55l151 15l-198 1175l-6 55h-4l-11 -55l-436 -1210h-100l-436 1210l-11 55h-4l-6 -55l-199 -1175l152 -15q3 -26 0 -55h-393z" />
<glyph unicode="&#x25fc;" horiz-adv-x="1024" d="M0 0v1024h1024v-1024h-1024z" />
<glyph horiz-adv-x="505" d="M74 0q-3 29 0 55l149 15v876l-149 2q-3 30 0 56l213 20q18 -105 18 -252v-702l146 -15q6 -26 0 -55h-377zM166 1341q0 22 32 55.5t54 33.5t55 -33.5t33 -55.5t-33 -55t-55 -33t-54 33t-32 55z" />
<glyph d="M109 666q0 193 35.5 336.5t99 227t143.5 123.5t176 40t176 -40t144 -123.5t99.5 -227t35.5 -336.5q0 -178 -35.5 -312.5t-99 -214.5t-144 -119.5t-176.5 -39.5q-76 0 -142.5 24t-124.5 77t-99 132t-64.5 194.5t-23.5 258.5zM199 666q0 -308 98.5 -459.5t265.5 -151.5 t266 151.5t99 459.5q0 138 -18 247.5t-50 184.5t-77.5 124.5t-100 72t-119.5 22.5q-81 0 -146 -36.5t-114.5 -112.5t-76.5 -203t-27 -299z" />
<glyph d="M293 0q-3 29 0 55l262 15v1216l-262 -22v67l305 41h43v-1302l260 -15q6 -26 0 -55h-608z" />
<glyph d="M158 0v53q197 205 318 340.5t213 260t130.5 217.5t38.5 178q0 126 -78.5 197t-238.5 71q-129 0 -258 -66l-21 -219q-32 -8 -63 0v256q86 51 165 78t185 27q197 0 297 -90.5t100 -253.5q0 -92 -38 -188.5t-124.5 -216.5t-196.5 -243.5t-284 -302.5l-33 -18v-4h621l16 200 q33 8 62 0v-276h-811z" />
<glyph d="M174 49v84q138 -78 320 -78q104 0 185.5 33t133 108.5t51.5 184.5q0 299 -399 299h-45l14 72h31q166 0 261 80t95 206q0 136 -79.5 207.5t-227.5 71.5q-117 0 -238 -57l-20 -228q-28 -8 -61 0v271q85 44 160.5 67t166.5 23q181 0 284 -92.5t103 -262.5q0 -67 -24 -125.5 t-61.5 -96.5t-80.5 -62t-86 -31v-4q47 -6 93 -25t94 -56t78 -103.5t30 -153.5q0 -99 -37 -177.5t-100 -126.5t-142.5 -72.5t-170.5 -24.5q-193 0 -328 69z" />
<glyph d="M55 459l650 913h124v-901h201l-10 -76h-191v-325l154 -15q6 -26 0 -55h-393q-3 29 0 55l153 15v325h-661zM156 471h587v844h-4l-18 -49l-565 -791v-4z" />
<glyph d="M154 61v86q163 -92 342 -92q78 0 146 19.5t123.5 59t87.5 106.5t32 155q0 87 -30 151.5t-83.5 102t-119 55t-144.5 17.5q-168 0 -330 -49l82 700h641v-270q-33 -8 -61 0l-19 194h-485l-68 -528q114 31 248 31q71 0 135 -13t123.5 -43t103 -75.5t69.5 -115.5t26 -157 q0 -104 -40 -186t-107.5 -130.5t-150 -73.5t-173.5 -25q-183 0 -348 81z" />
<glyph d="M117 584q0 809 780 809v-76q-667 0 -694 -670q129 221 401 221q57 0 111 -13.5t107.5 -47t93 -83t64 -127.5t24.5 -175q0 -110 -34 -195.5t-94 -139t-138.5 -80.5t-170.5 -27q-97 0 -176.5 34t-142 104.5t-97 189t-34.5 276.5zM205 545q7 -250 104.5 -370t257.5 -120 q159 0 253.5 91.5t94.5 275.5q0 79 -19 142.5t-50.5 105t-74.5 69.5t-88 40t-93 12q-264 0 -385 -246z" />
<glyph d="M143 1096v276h840v-53l-565 -1339l-82 20l545 1276l26 16v4h-684l-18 -200q-29 -8 -62 0z" />
<glyph d="M129 356q0 75 27 137.5t65 100.5t87 67t84.5 41.5t66.5 18.5v4q-31 9 -62 22.5t-73.5 41t-73.5 61.5t-53.5 86t-22.5 113q0 164 111 254t278 90t278 -90t111 -254q0 -61 -22.5 -113t-53.5 -86t-73 -61.5t-73 -41t-62 -22.5v-4q31 -6 66.5 -18.5t84.5 -41.5t86.5 -67 t64.5 -100.5t27 -137.5q0 -77 -25 -141t-67 -106.5t-98.5 -72t-117.5 -43t-126 -13.5t-126 13.5t-117.5 43t-98.5 72t-67 106.5t-25 141zM219 356q0 -78 29.5 -138t79.5 -94.5t109 -51.5t126 -17t126 17t109 51.5t79.5 94.5t29.5 138q0 248 -344 330q-344 -82 -344 -330z M262 1049q0 -66 27 -119t73.5 -86.5t95 -54t105.5 -33.5q57 13 105.5 33.5t95 54t73.5 86.5t27 119q0 131 -83.5 199.5t-217.5 68.5t-217.5 -68.5t-83.5 -199.5z" />
<glyph d="M123 950q0 110 34 196t93.5 139t138 80.5t170.5 27.5q77 0 143 -21t123.5 -67.5t98 -116t63.5 -171.5t23 -229q0 -808 -781 -808v75q668 0 695 670q-129 -221 -402 -221q-72 0 -139 23.5t-127 72.5t-96.5 139.5t-36.5 210.5zM211 950q0 -98 28.5 -171.5t77 -115 t104 -61.5t116.5 -20q264 0 385 245q-7 249 -105 369.5t-258 120.5q-159 0 -253.5 -91.5t-94.5 -275.5z" />
<glyph horiz-adv-x="495" d="M43 1559l371 229l39 -66l-387 -206z" />
<glyph horiz-adv-x="444" d="M41 -403q43 -9 104 -9q74 0 112 29.5t38 75.5q0 91 -174 131l45 176h63l-36 -141q75 -18 122 -61.5t47 -102.5q0 -71 -57.5 -117.5t-161.5 -46.5q-63 0 -102 8v58z" />
<glyph horiz-adv-x="665" d="M55 1556l277 244l278 -244l-28 -40l-250 198l-248 -198z" />
<glyph horiz-adv-x="831" d="M158 1604q0 20 29.5 49.5t48.5 29.5q20 0 49.5 -29.5t29.5 -49.5q0 -19 -29.5 -48.5t-49.5 -29.5q-19 0 -48.5 29.5t-29.5 48.5zM524 1604q0 20 30 49.5t50 29.5q19 0 48.5 -29.5t29.5 -49.5q0 -19 -29.5 -48.5t-48.5 -29.5q-20 0 -50 29.5t-30 48.5z" />
<glyph horiz-adv-x="495" d="M43 1722l39 66l371 -229l-23 -43z" />
<glyph horiz-adv-x="509" d="M47 1722q0 86 61.5 147.5t147.5 61.5q85 0 146 -61.5t61 -147.5q0 -85 -61 -145.5t-146 -60.5q-86 0 -147.5 60.5t-61.5 145.5zM111 1722q0 -62 42 -105.5t103 -43.5t102 43.5t41 105.5t-41 106t-102 44t-103 -44t-42 -106z" />
<glyph horiz-adv-x="880" d="M109 1518q12 104 64.5 163.5t127.5 59.5q39 0 71.5 -16t55.5 -38.5t45 -45t50 -38.5t59 -16q48 0 83.5 38t47.5 112h57q-12 -105 -62 -163t-126 -58q-39 0 -71.5 16t-55 38t-44 44.5t-49.5 38.5t-61 16q-50 0 -86 -38t-49 -113h-57z" />
</font>
</defs>
</svg>
